M48
;DRILL file {KiCad 5.0.1} date Mon 10 Dec 2018 08:04:55 AM CET
;FORMAT={-:-/ absolute / inch / decimal}
FMAT,2
INCH,TZ
T1C0.0079
T2C0.0118
T3C0.0157
T4C0.0236
T5C0.0276
T6C0.0335
T7C0.0394
T8C0.1260
%
G90
G05
M72
T1
X2.185Y-3.4491
X2.185Y-3.4718
X2.3335Y-3.5224
X2.5394Y-3.4971
X2.5492Y-3.4744
X2.62Y-4.425
X2.6304Y-3.4769
X2.6457Y-3.4178
X2.6468Y-3.5005
X2.6503Y-3.4587
X2.6575Y-2.3602
X2.6575Y-2.3799
X2.6575Y-2.3996
X2.6575Y-3.75
X2.6612Y-3.6422
X2.6614Y-3.6142
X2.665Y-4.385
X2.6652Y-3.5737
X2.6697Y-3.439
X2.6774Y-3.5929
X2.6973Y-2.8674
X2.7008Y-3.536
X2.7198Y-4.4098
X2.7244Y-3.752
X2.7598Y-3.0709
X2.79Y-4.4144
X2.8252Y-3.3275
X2.83Y-4.4496
X2.839Y-3.2935
X2.8512Y-3.2604
X2.905Y-4.45
X2.9213Y-3.3071
X2.9291Y-3.1811
X2.9921Y-3.1811
X3.0551Y-3.1811
X3.18Y-4.105
X3.2283Y-2.0906
X3.2441Y-4.189
X3.3898Y-4.0241
X3.3937Y-3.3189
X3.3937Y-3.6304
X3.3937Y-4.2283
X3.3937Y-4.2598
X3.3937Y-3.8666
X3.395Y-4.105
X3.395Y-4.185
X3.3976Y-3.4724
X3.5393Y-3.9015
X3.546Y-3.3552
X3.5467Y-3.7478
X3.5512Y-4.2283
X3.555Y-4.135
X3.5591Y-3.5315
X3.5591Y-4.063
X3.6693Y-3.4488
X3.7323Y-3.3228
X3.7324Y-3.2922
X3.743Y-4.2036
X3.7559Y-4.7165
X3.7579Y-4.5968
X3.76Y-2.8257
X3.7615Y-3.7323
X3.7628Y-3.5753
X3.7638Y-3.6701
X3.7638Y-3.3228
X3.7638Y-3.5426
X3.7638Y-3.3545
X3.7643Y-3.6373
X3.7682Y-3.2941
X3.7839Y-3.937
X3.7947Y-2.8063
X3.795Y-3.3228
X3.7953Y-3.5112
X3.7953Y-3.5439
X3.7953Y-3.5748
X3.7953Y-3.6063
X3.7953Y-3.7008
X3.7953Y-3.7641
X3.7954Y-3.7324
X3.7957Y-3.6381
X3.7959Y-3.6695
X3.7992Y-4.06
X3.8185Y-2.8567
X3.8267Y-3.7642
X3.8268Y-3.3543
X3.8268Y-3.3858
X3.8268Y-3.5118
X3.8269Y-3.3225
X3.8464Y-2.7829
X3.8509Y-2.9071
X3.8524Y-3.8953
X3.8579Y-3.7326
X3.8583Y-3.3228
X3.8583Y-3.4173
X3.8583Y-3.7008
X3.8589Y-3.7953
X3.8703Y-2.9549
X3.882Y-4.2349
X3.8895Y-3.7637
X3.8898Y-3.3228
X3.8898Y-3.4173
X3.8898Y-3.4803
X3.8898Y-3.5118
X3.8898Y-3.5433
X3.8898Y-3.5748
X3.8898Y-3.6063
X3.8898Y-3.6693
X3.8898Y-3.7323
X3.8904Y-3.828
X3.8916Y-3.7953
X3.8985Y-3.8673
X3.8996Y-3.937
X3.9197Y-3.2906
X3.9213Y-3.3228
X3.9213Y-3.4803
X3.9213Y-3.5118
X3.9213Y-3.5433
X3.9213Y-3.5748
X3.9213Y-3.6063
X3.9217Y-3.8267
X3.922Y-3.418
X3.9306Y-3.8699
X3.9354Y-2.8739
X3.9426Y-2.9083
X3.9431Y-2.9639
X3.9492Y-2.795
X3.9528Y-3.4803
X3.9528Y-3.5433
X3.9528Y-3.6378
X3.9534Y-3.2913
X3.9546Y-3.4182
X3.9574Y-3.8687
X3.9841Y-3.4171
X3.9843Y-3.2913
X3.9843Y-3.6063
X3.9843Y-3.6693
X3.9924Y-3.0223
X4.0012Y-2.848
X4.0027Y-2.9766
X4.0157Y-3.2913
X4.0157Y-3.5748
X4.0157Y-3.6693
X4.0157Y-3.4181
X4.0308Y-3.1599
X4.0399Y-3.0977
X4.0439Y-3.0708
X4.0456Y-3.2927
X4.0472Y-3.8583
X4.0472Y-3.4181
X4.0773Y-3.2919
X4.0787Y-3.4181
X4.0787Y-3.4803
X4.0787Y-3.5433
X4.0787Y-3.6378
X4.0787Y-3.8268
X4.0787Y-3.8583
X4.0788Y-3.3226
X4.0984Y-3.1181
X4.1014Y-3.0827
X4.1097Y-3.2915
X4.1102Y-3.4183
X4.1103Y-3.3227
X4.1417Y-3.4183
X4.1417Y-3.4482
X4.1417Y-3.5118
X4.1417Y-3.5433
X4.1417Y-3.6063
X4.1417Y-3.6378
X4.1417Y-3.6693
X4.1417Y-3.8583
X4.1419Y-3.2918
X4.142Y-3.26
X4.1486Y-3.0755
X4.1713Y-3.2924
X4.1721Y-3.543
X4.1722Y-3.4803
X4.1727Y-3.5117
X4.1732Y-3.4173
X4.1732Y-3.5748
X4.1732Y-3.6063
X4.1732Y-3.6378
X4.1732Y-3.6693
X4.1732Y-3.7323
X4.1732Y-3.7638
X4.1732Y-3.7953
X4.1732Y-3.8268
X4.1732Y-3.8583
X4.1734Y-3.3232
X4.1736Y-3.4489
X4.2046Y-3.7639
X4.2047Y-3.2913
X4.2047Y-3.6063
X4.2047Y-3.7953
X4.2047Y-3.8268
X4.2047Y-3.8583
X4.2073Y-3.0785
X4.229Y-3.1172
X4.2334Y-3.7596
X4.236Y-3.292
X4.2362Y-3.4488
X4.2362Y-3.5118
X4.2362Y-3.7008
X4.2362Y-3.7323
X4.2362Y-3.8583
X4.2477Y-3.1331
X4.2675Y-3.3225
X4.2677Y-3.3858
X4.2677Y-3.4173
X4.2677Y-3.5118
X4.2677Y-3.5433
X4.2677Y-3.7319
X4.2677Y-3.4488
X4.268Y-3.7643
X4.2684Y-3.6992
X4.2992Y-3.7953
X4.2992Y-3.8268
X4.2992Y-3.8583
X4.3307Y-3.8268
X4.335Y-3.7969
X4.3978Y-3.322
X4.4147Y-3.3372
X4.4298Y-3.5428
X4.4339Y-3.3493
X4.4409Y-3.7159
X4.4413Y-3.3708
X4.4585Y-3.7325
X4.4635Y-3.8263
X4.4783Y-3.7461
X4.4809Y-3.8117
X4.4995Y-3.7986
X4.8622Y-2.3307
X4.9606Y-2.5512
X5.Y-2.3307
X5.0551Y-2.5512
X5.1378Y-2.3307
X5.1575Y-2.5492
X5.26Y-2.5512
X5.2756Y-2.3307
T2
X2.7047Y-3.563
X2.7053Y-3.4882
X2.7115Y-3.4015
X3.121Y-3.6426
X3.1864Y-3.5117
T3
X2.0079Y-2.3504
X2.0079Y-2.3858
X2.0079Y-2.4213
X2.0079Y-2.4567
X2.0079Y-2.4931
X2.0433Y-2.3504
X2.0433Y-2.3858
X2.0433Y-2.4213
X2.0433Y-2.4567
X2.0433Y-2.4931
X2.0472Y-3.8386
X2.0472Y-4.2323
X2.063Y-3.4646
X2.063Y-3.6181
X2.0787Y-2.3504
X2.0787Y-2.3858
X2.0787Y-2.4213
X2.0787Y-2.4567
X2.0787Y-2.4931
X2.0945Y-3.2677
X2.0945Y-3.3031
X2.1299Y-3.2677
X2.1299Y-3.3031
X2.1575Y-4.2441
X2.1614Y-3.5394
X2.1654Y-3.2677
X2.1654Y-3.3031
X2.1998Y-2.6348
X2.2008Y-3.2677
X2.2008Y-3.3031
X2.2352Y-2.6348
X2.2362Y-3.2677
X2.2362Y-3.3031
X2.2441Y-3.1594
X2.2441Y-3.9469
X2.2441Y-4.1043
X2.252Y-4.7008
X2.252Y-4.6378
X2.2707Y-2.6348
X2.2992Y-2.7165
X2.2992Y-2.752
X2.3061Y-2.6348
X2.3346Y-2.7165
X2.3346Y-2.752
X2.3415Y-2.6348
X2.3509Y-3.68
X2.3543Y-4.6378
X2.3563Y-3.3839
X2.3622Y-3.5138
X2.3622Y-3.6024
X2.3622Y-4.0787
X2.3622Y-4.1142
X2.3622Y-4.7323
X2.377Y-2.6348
X2.3976Y-4.0787
X2.3976Y-4.1142
X2.4016Y-4.3465
X2.4055Y-2.3228
X2.4055Y-2.3819
X2.4331Y-4.0787
X2.4331Y-4.1142
X2.4567Y-4.6378
X2.4685Y-4.0787
X2.4685Y-4.1142
X2.5669Y-4.4016
X2.57Y-4.23
X2.7244Y-4.6457
X2.7559Y-3.685
X2.7657Y-2.0807
X2.7874Y-3.7559
X2.8563Y-3.4803
X2.8563Y-3.5157
X2.8563Y-3.5512
X2.8563Y-3.5866
X2.874Y-4.5787
X2.8917Y-3.4803
X2.8917Y-3.5157
X2.8917Y-3.5512
X2.8917Y-3.5866
X2.9252Y-2.7835
X2.9272Y-3.4803
X2.9272Y-3.5157
X2.9272Y-3.5512
X2.9272Y-3.5866
X2.9493Y-3.7719
X2.9646Y-2.2598
X2.9646Y-2.2953
X2.9646Y-2.3307
X2.9646Y-2.3661
X2.9646Y-2.6417
X2.9724Y-4.5787
X2.9921Y-2.9646
X2.9921Y-3.0197
X3.Y-2.2598
X3.Y-2.2953
X3.Y-2.3307
X3.Y-2.3661
X3.0354Y-2.5492
X3.0354Y-2.2598
X3.0354Y-2.2953
X3.0354Y-2.3307
X3.0354Y-2.3661
X3.0354Y-3.3996
X3.0748Y-4.5807
X3.0748Y-4.5807
X3.0866Y-2.6929
X3.0866Y-2.7283
X3.0984Y-2.2598
X3.0984Y-2.2953
X3.0984Y-2.3307
X3.0984Y-2.3661
X3.1102Y-3.1742
X3.122Y-2.6929
X3.122Y-2.7283
X3.132Y-3.5394
X3.1339Y-2.2598
X3.1339Y-2.2953
X3.1339Y-2.3307
X3.1339Y-2.3661
X3.1614Y-2.8268
X3.1614Y-2.8622
X3.1614Y-2.8976
X3.1614Y-2.9331
X3.1693Y-2.2598
X3.1693Y-2.2953
X3.1693Y-2.3307
X3.1693Y-2.3661
X3.1752Y-4.5807
X3.1969Y-2.8268
X3.1969Y-2.8622
X3.1969Y-2.8976
X3.1969Y-2.9331
X3.2323Y-2.8268
X3.2323Y-2.8622
X3.2323Y-2.8976
X3.2323Y-2.9331
X3.4Y-3.06
X3.5748Y-2.937
X3.5748Y-2.9724
X3.5748Y-3.0079
X3.6102Y-2.937
X3.6102Y-2.9724
X3.6102Y-3.0079
X3.6457Y-2.937
X3.6457Y-2.9724
X3.6457Y-3.0079
X3.9921Y-3.8504
X4.Y-4.189
X4.063Y-4.7669
X4.3145Y-4.1334
X4.315Y-3.9449
X4.5512Y-3.7559
X4.5512Y-3.7913
X4.5866Y-3.7559
X4.5866Y-3.7913
X4.622Y-3.7559
X4.622Y-3.7913
X4.6575Y-3.7559
X4.6575Y-3.7913
X4.7067Y-3.3164
X4.7126Y-3.8307
X4.8124Y-3.3842
X4.874Y-3.8465
X4.9063Y-3.2485
X4.9967Y-3.2474
X5.0012Y-3.8472
X5.0941Y-3.8469
X5.0953Y-3.2421
X5.1339Y-3.3858
X5.1571Y-3.8476
X5.2795Y-2.9685
X5.2795Y-3.0039
X5.2795Y-3.0394
X5.2795Y-3.0748
X5.315Y-2.9685
X5.315Y-3.0039
X5.315Y-3.0394
X5.315Y-3.0748
X5.5315Y-3.5118
X5.5315Y-3.5472
X5.5315Y-3.5827
X5.5315Y-3.6181
X5.5665Y-3.8472
X5.5669Y-3.2425
X5.5669Y-3.5118
X5.5669Y-3.5472
X5.5669Y-3.5827
X5.5669Y-3.6181
T6
X2.154Y-3.937
X2.154Y-4.1339
T7
X5.4724Y-2.5709
X5.4724Y-2.6709
X5.4724Y-2.7709
X5.4724Y-2.8709
X5.4724Y-2.9709
X5.4724Y-3.0709
X5.5724Y-2.5709
X5.5724Y-2.6709
X5.5724Y-2.7709
X5.5724Y-2.8709
X5.5724Y-2.9709
X5.5724Y-3.0709
X4.06Y-2.13
X4.06Y-2.23
X4.26Y-2.13
X4.26Y-2.23
X4.36Y-2.13
X4.36Y-2.23
X4.46Y-2.13
X4.46Y-2.23
X4.56Y-2.13
X4.56Y-2.23
X4.66Y-2.13
X4.66Y-2.23
X4.76Y-2.13
X4.76Y-2.23
X3.36Y-2.13
X3.36Y-2.23
X3.46Y-2.13
X3.46Y-2.23
X3.56Y-2.13
X3.56Y-2.23
X3.66Y-2.13
X3.66Y-2.23
X3.76Y-2.13
X3.76Y-2.23
X3.86Y-2.13
X3.86Y-2.23
T8
X2.1654Y-2.1654
X5.5118Y-4.9213
X5.5118Y-2.1654
X2.1654Y-4.9213
T4
X2.2382Y-3.3732G85X2.2894Y-3.3732
G05
X2.2382Y-3.7134G85X2.2894Y-3.7134
G05
X2.034Y-3.8976G85X2.0615Y-3.8976
G05
X2.0615Y-4.1732G85X2.034Y-4.1732
G05
T5
X2.0906Y-3.3732G85X2.0394Y-3.3732
G05
X2.0906Y-3.7134G85X2.0394Y-3.7134
G05
X2.2402Y-3.3978G85X2.2402Y-3.3754
G05
X2.2406Y-3.7112G85X2.2406Y-3.6888
G05
T0
M30
