G04 #@! TF.GenerationSoftware,KiCad,Pcbnew,5.0.1*
G04 #@! TF.CreationDate,2018-12-10T01:09:05+01:00*
G04 #@! TF.ProjectId,Kilsyth,4B696C737974682E6B696361645F7063,rev?*
G04 #@! TF.SameCoordinates,Original*
G04 #@! TF.FileFunction,Legend,Bot*
G04 #@! TF.FilePolarity,Positive*
%FSLAX46Y46*%
G04 Gerber Fmt 4.6, Leading zero omitted, Abs format (unit mm)*
G04 Created by KiCad (PCBNEW 5.0.1) date Mon 10 Dec 2018 01:09:05 AM CET*
%MOMM*%
%LPD*%
G01*
G04 APERTURE LIST*
%ADD10C,0.200000*%
%ADD11C,0.120000*%
%ADD12C,0.150000*%
G04 APERTURE END LIST*
D10*
X97800000Y-95800000D02*
X97800000Y-96200000D01*
X90800000Y-96200000D02*
X90800000Y-95800000D01*
X99400000Y-96200000D02*
X90800000Y-96200000D01*
X99400000Y-95800000D02*
X99400000Y-96200000D01*
X99400000Y-96200000D02*
X99400000Y-95800000D01*
X107200000Y-96200000D02*
X99400000Y-96200000D01*
X107200000Y-95800000D02*
X107200000Y-96200000D01*
D11*
G04 #@! TO.C,C6*
X108674721Y-92290000D02*
X109000279Y-92290000D01*
X108674721Y-93310000D02*
X109000279Y-93310000D01*
G04 #@! TO.C,C38*
X79049721Y-85990000D02*
X79375279Y-85990000D01*
X79049721Y-87010000D02*
X79375279Y-87010000D01*
G04 #@! TO.C,C39*
X75490000Y-93462779D02*
X75490000Y-93137221D01*
X76510000Y-93462779D02*
X76510000Y-93137221D01*
G04 #@! TO.C,C40*
X73940000Y-93462779D02*
X73940000Y-93137221D01*
X74960000Y-93462779D02*
X74960000Y-93137221D01*
G04 #@! TO.C,C44*
X104210000Y-94049721D02*
X104210000Y-94375279D01*
X103190000Y-94049721D02*
X103190000Y-94375279D01*
G04 #@! TO.C,C45*
X108674721Y-90790000D02*
X109000279Y-90790000D01*
X108674721Y-91810000D02*
X109000279Y-91810000D01*
G04 #@! TO.C,C46*
X102110000Y-100849721D02*
X102110000Y-101175279D01*
X101090000Y-100849721D02*
X101090000Y-101175279D01*
G04 #@! TO.C,C47*
X104337221Y-89490000D02*
X104662779Y-89490000D01*
X104337221Y-90510000D02*
X104662779Y-90510000D01*
G04 #@! TO.C,C48*
X107110000Y-93824721D02*
X107110000Y-94150279D01*
X106090000Y-93824721D02*
X106090000Y-94150279D01*
G04 #@! TO.C,C49*
X102110000Y-94549721D02*
X102110000Y-94875279D01*
X101090000Y-94549721D02*
X101090000Y-94875279D01*
G04 #@! TO.C,C50*
X104237221Y-91090000D02*
X104562779Y-91090000D01*
X104237221Y-92110000D02*
X104562779Y-92110000D01*
G04 #@! TO.C,C51*
X106910000Y-100837221D02*
X106910000Y-101162779D01*
X105890000Y-100837221D02*
X105890000Y-101162779D01*
G04 #@! TO.C,C53*
X101090000Y-104362779D02*
X101090000Y-104037221D01*
X102110000Y-104362779D02*
X102110000Y-104037221D01*
G04 #@! TO.C,C54*
X100510000Y-93937221D02*
X100510000Y-94262779D01*
X99490000Y-93937221D02*
X99490000Y-94262779D01*
G04 #@! TO.C,C56*
X104337221Y-87290000D02*
X104662779Y-87290000D01*
X104337221Y-88310000D02*
X104662779Y-88310000D01*
G04 #@! TO.C,C58*
X104290000Y-104362779D02*
X104290000Y-104037221D01*
X105310000Y-104362779D02*
X105310000Y-104037221D01*
G04 #@! TO.C,C59*
X105310000Y-100849721D02*
X105310000Y-101175279D01*
X104290000Y-100849721D02*
X104290000Y-101175279D01*
G04 #@! TO.C,C60*
X108510000Y-100837221D02*
X108510000Y-101162779D01*
X107490000Y-100837221D02*
X107490000Y-101162779D01*
G04 #@! TO.C,C52*
X94882240Y-86995219D02*
X94882240Y-86669661D01*
X95902240Y-86995219D02*
X95902240Y-86669661D01*
G04 #@! TO.C,C62*
X103710000Y-100837221D02*
X103710000Y-101162779D01*
X102690000Y-100837221D02*
X102690000Y-101162779D01*
G04 #@! TO.C,C64*
X107490000Y-104362779D02*
X107490000Y-104037221D01*
X108510000Y-104362779D02*
X108510000Y-104037221D01*
G04 #@! TO.C,C65*
X105890000Y-104362779D02*
X105890000Y-104037221D01*
X106910000Y-104362779D02*
X106910000Y-104037221D01*
G04 #@! TO.C,C61*
X102690000Y-104362779D02*
X102690000Y-104037221D01*
X103710000Y-104362779D02*
X103710000Y-104037221D01*
G04 #@! TO.C,C6*
D12*
X111616666Y-93157142D02*
X111664285Y-93204761D01*
X111807142Y-93252380D01*
X111902380Y-93252380D01*
X112045238Y-93204761D01*
X112140476Y-93109523D01*
X112188095Y-93014285D01*
X112235714Y-92823809D01*
X112235714Y-92680952D01*
X112188095Y-92490476D01*
X112140476Y-92395238D01*
X112045238Y-92300000D01*
X111902380Y-92252380D01*
X111807142Y-92252380D01*
X111664285Y-92300000D01*
X111616666Y-92347619D01*
X110759523Y-92252380D02*
X110950000Y-92252380D01*
X111045238Y-92300000D01*
X111092857Y-92347619D01*
X111188095Y-92490476D01*
X111235714Y-92680952D01*
X111235714Y-93061904D01*
X111188095Y-93157142D01*
X111140476Y-93204761D01*
X111045238Y-93252380D01*
X110854761Y-93252380D01*
X110759523Y-93204761D01*
X110711904Y-93157142D01*
X110664285Y-93061904D01*
X110664285Y-92823809D01*
X110711904Y-92728571D01*
X110759523Y-92680952D01*
X110854761Y-92633333D01*
X111045238Y-92633333D01*
X111140476Y-92680952D01*
X111188095Y-92728571D01*
X111235714Y-92823809D01*
G04 #@! TO.C,C38*
X83042857Y-86957142D02*
X83090476Y-87004761D01*
X83233333Y-87052380D01*
X83328571Y-87052380D01*
X83471428Y-87004761D01*
X83566666Y-86909523D01*
X83614285Y-86814285D01*
X83661904Y-86623809D01*
X83661904Y-86480952D01*
X83614285Y-86290476D01*
X83566666Y-86195238D01*
X83471428Y-86100000D01*
X83328571Y-86052380D01*
X83233333Y-86052380D01*
X83090476Y-86100000D01*
X83042857Y-86147619D01*
X82709523Y-86052380D02*
X82090476Y-86052380D01*
X82423809Y-86433333D01*
X82280952Y-86433333D01*
X82185714Y-86480952D01*
X82138095Y-86528571D01*
X82090476Y-86623809D01*
X82090476Y-86861904D01*
X82138095Y-86957142D01*
X82185714Y-87004761D01*
X82280952Y-87052380D01*
X82566666Y-87052380D01*
X82661904Y-87004761D01*
X82709523Y-86957142D01*
X81519047Y-86480952D02*
X81614285Y-86433333D01*
X81661904Y-86385714D01*
X81709523Y-86290476D01*
X81709523Y-86242857D01*
X81661904Y-86147619D01*
X81614285Y-86100000D01*
X81519047Y-86052380D01*
X81328571Y-86052380D01*
X81233333Y-86100000D01*
X81185714Y-86147619D01*
X81138095Y-86242857D01*
X81138095Y-86290476D01*
X81185714Y-86385714D01*
X81233333Y-86433333D01*
X81328571Y-86480952D01*
X81519047Y-86480952D01*
X81614285Y-86528571D01*
X81661904Y-86576190D01*
X81709523Y-86671428D01*
X81709523Y-86861904D01*
X81661904Y-86957142D01*
X81614285Y-87004761D01*
X81519047Y-87052380D01*
X81328571Y-87052380D01*
X81233333Y-87004761D01*
X81185714Y-86957142D01*
X81138095Y-86861904D01*
X81138095Y-86671428D01*
X81185714Y-86576190D01*
X81233333Y-86528571D01*
X81328571Y-86480952D01*
G04 #@! TO.C,C39*
X76357142Y-95757142D02*
X76404761Y-95709523D01*
X76452380Y-95566666D01*
X76452380Y-95471428D01*
X76404761Y-95328571D01*
X76309523Y-95233333D01*
X76214285Y-95185714D01*
X76023809Y-95138095D01*
X75880952Y-95138095D01*
X75690476Y-95185714D01*
X75595238Y-95233333D01*
X75500000Y-95328571D01*
X75452380Y-95471428D01*
X75452380Y-95566666D01*
X75500000Y-95709523D01*
X75547619Y-95757142D01*
X75452380Y-96090476D02*
X75452380Y-96709523D01*
X75833333Y-96376190D01*
X75833333Y-96519047D01*
X75880952Y-96614285D01*
X75928571Y-96661904D01*
X76023809Y-96709523D01*
X76261904Y-96709523D01*
X76357142Y-96661904D01*
X76404761Y-96614285D01*
X76452380Y-96519047D01*
X76452380Y-96233333D01*
X76404761Y-96138095D01*
X76357142Y-96090476D01*
X76452380Y-97185714D02*
X76452380Y-97376190D01*
X76404761Y-97471428D01*
X76357142Y-97519047D01*
X76214285Y-97614285D01*
X76023809Y-97661904D01*
X75642857Y-97661904D01*
X75547619Y-97614285D01*
X75500000Y-97566666D01*
X75452380Y-97471428D01*
X75452380Y-97280952D01*
X75500000Y-97185714D01*
X75547619Y-97138095D01*
X75642857Y-97090476D01*
X75880952Y-97090476D01*
X75976190Y-97138095D01*
X76023809Y-97185714D01*
X76071428Y-97280952D01*
X76071428Y-97471428D01*
X76023809Y-97566666D01*
X75976190Y-97614285D01*
X75880952Y-97661904D01*
G04 #@! TO.C,C40*
X74757142Y-95757142D02*
X74804761Y-95709523D01*
X74852380Y-95566666D01*
X74852380Y-95471428D01*
X74804761Y-95328571D01*
X74709523Y-95233333D01*
X74614285Y-95185714D01*
X74423809Y-95138095D01*
X74280952Y-95138095D01*
X74090476Y-95185714D01*
X73995238Y-95233333D01*
X73900000Y-95328571D01*
X73852380Y-95471428D01*
X73852380Y-95566666D01*
X73900000Y-95709523D01*
X73947619Y-95757142D01*
X74185714Y-96614285D02*
X74852380Y-96614285D01*
X73804761Y-96376190D02*
X74519047Y-96138095D01*
X74519047Y-96757142D01*
X73852380Y-97328571D02*
X73852380Y-97423809D01*
X73900000Y-97519047D01*
X73947619Y-97566666D01*
X74042857Y-97614285D01*
X74233333Y-97661904D01*
X74471428Y-97661904D01*
X74661904Y-97614285D01*
X74757142Y-97566666D01*
X74804761Y-97519047D01*
X74852380Y-97423809D01*
X74852380Y-97328571D01*
X74804761Y-97233333D01*
X74757142Y-97185714D01*
X74661904Y-97138095D01*
X74471428Y-97090476D01*
X74233333Y-97090476D01*
X74042857Y-97138095D01*
X73947619Y-97185714D01*
X73900000Y-97233333D01*
X73852380Y-97328571D01*
G04 #@! TO.C,C44*
X95157142Y-93357142D02*
X95204761Y-93309523D01*
X95252380Y-93166666D01*
X95252380Y-93071428D01*
X95204761Y-92928571D01*
X95109523Y-92833333D01*
X95014285Y-92785714D01*
X94823809Y-92738095D01*
X94680952Y-92738095D01*
X94490476Y-92785714D01*
X94395238Y-92833333D01*
X94300000Y-92928571D01*
X94252380Y-93071428D01*
X94252380Y-93166666D01*
X94300000Y-93309523D01*
X94347619Y-93357142D01*
X94585714Y-94214285D02*
X95252380Y-94214285D01*
X94204761Y-93976190D02*
X94919047Y-93738095D01*
X94919047Y-94357142D01*
X94585714Y-95166666D02*
X95252380Y-95166666D01*
X94204761Y-94928571D02*
X94919047Y-94690476D01*
X94919047Y-95309523D01*
G04 #@! TO.C,C45*
X112580357Y-91657142D02*
X112627976Y-91704761D01*
X112770833Y-91752380D01*
X112866071Y-91752380D01*
X113008928Y-91704761D01*
X113104166Y-91609523D01*
X113151785Y-91514285D01*
X113199404Y-91323809D01*
X113199404Y-91180952D01*
X113151785Y-90990476D01*
X113104166Y-90895238D01*
X113008928Y-90800000D01*
X112866071Y-90752380D01*
X112770833Y-90752380D01*
X112627976Y-90800000D01*
X112580357Y-90847619D01*
X111723214Y-91085714D02*
X111723214Y-91752380D01*
X111961309Y-90704761D02*
X112199404Y-91419047D01*
X111580357Y-91419047D01*
X110723214Y-90752380D02*
X111199404Y-90752380D01*
X111247023Y-91228571D01*
X111199404Y-91180952D01*
X111104166Y-91133333D01*
X110866071Y-91133333D01*
X110770833Y-91180952D01*
X110723214Y-91228571D01*
X110675595Y-91323809D01*
X110675595Y-91561904D01*
X110723214Y-91657142D01*
X110770833Y-91704761D01*
X110866071Y-91752380D01*
X111104166Y-91752380D01*
X111199404Y-91704761D01*
X111247023Y-91657142D01*
G04 #@! TO.C,C46*
X101957142Y-97357142D02*
X102004761Y-97309523D01*
X102052380Y-97166666D01*
X102052380Y-97071428D01*
X102004761Y-96928571D01*
X101909523Y-96833333D01*
X101814285Y-96785714D01*
X101623809Y-96738095D01*
X101480952Y-96738095D01*
X101290476Y-96785714D01*
X101195238Y-96833333D01*
X101100000Y-96928571D01*
X101052380Y-97071428D01*
X101052380Y-97166666D01*
X101100000Y-97309523D01*
X101147619Y-97357142D01*
X101385714Y-98214285D02*
X102052380Y-98214285D01*
X101004761Y-97976190D02*
X101719047Y-97738095D01*
X101719047Y-98357142D01*
X101052380Y-99166666D02*
X101052380Y-98976190D01*
X101100000Y-98880952D01*
X101147619Y-98833333D01*
X101290476Y-98738095D01*
X101480952Y-98690476D01*
X101861904Y-98690476D01*
X101957142Y-98738095D01*
X102004761Y-98785714D01*
X102052380Y-98880952D01*
X102052380Y-99071428D01*
X102004761Y-99166666D01*
X101957142Y-99214285D01*
X101861904Y-99261904D01*
X101623809Y-99261904D01*
X101528571Y-99214285D01*
X101480952Y-99166666D01*
X101433333Y-99071428D01*
X101433333Y-98880952D01*
X101480952Y-98785714D01*
X101528571Y-98738095D01*
X101623809Y-98690476D01*
G04 #@! TO.C,C47*
X102042857Y-90357142D02*
X102090476Y-90404761D01*
X102233333Y-90452380D01*
X102328571Y-90452380D01*
X102471428Y-90404761D01*
X102566666Y-90309523D01*
X102614285Y-90214285D01*
X102661904Y-90023809D01*
X102661904Y-89880952D01*
X102614285Y-89690476D01*
X102566666Y-89595238D01*
X102471428Y-89500000D01*
X102328571Y-89452380D01*
X102233333Y-89452380D01*
X102090476Y-89500000D01*
X102042857Y-89547619D01*
X101185714Y-89785714D02*
X101185714Y-90452380D01*
X101423809Y-89404761D02*
X101661904Y-90119047D01*
X101042857Y-90119047D01*
X100757142Y-89452380D02*
X100090476Y-89452380D01*
X100519047Y-90452380D01*
G04 #@! TO.C,C48*
X97757142Y-93357142D02*
X97804761Y-93309523D01*
X97852380Y-93166666D01*
X97852380Y-93071428D01*
X97804761Y-92928571D01*
X97709523Y-92833333D01*
X97614285Y-92785714D01*
X97423809Y-92738095D01*
X97280952Y-92738095D01*
X97090476Y-92785714D01*
X96995238Y-92833333D01*
X96900000Y-92928571D01*
X96852380Y-93071428D01*
X96852380Y-93166666D01*
X96900000Y-93309523D01*
X96947619Y-93357142D01*
X97185714Y-94214285D02*
X97852380Y-94214285D01*
X96804761Y-93976190D02*
X97519047Y-93738095D01*
X97519047Y-94357142D01*
X97280952Y-94880952D02*
X97233333Y-94785714D01*
X97185714Y-94738095D01*
X97090476Y-94690476D01*
X97042857Y-94690476D01*
X96947619Y-94738095D01*
X96900000Y-94785714D01*
X96852380Y-94880952D01*
X96852380Y-95071428D01*
X96900000Y-95166666D01*
X96947619Y-95214285D01*
X97042857Y-95261904D01*
X97090476Y-95261904D01*
X97185714Y-95214285D01*
X97233333Y-95166666D01*
X97280952Y-95071428D01*
X97280952Y-94880952D01*
X97328571Y-94785714D01*
X97376190Y-94738095D01*
X97471428Y-94690476D01*
X97661904Y-94690476D01*
X97757142Y-94738095D01*
X97804761Y-94785714D01*
X97852380Y-94880952D01*
X97852380Y-95071428D01*
X97804761Y-95166666D01*
X97757142Y-95214285D01*
X97661904Y-95261904D01*
X97471428Y-95261904D01*
X97376190Y-95214285D01*
X97328571Y-95166666D01*
X97280952Y-95071428D01*
G04 #@! TO.C,C49*
X93557142Y-93757142D02*
X93604761Y-93709523D01*
X93652380Y-93566666D01*
X93652380Y-93471428D01*
X93604761Y-93328571D01*
X93509523Y-93233333D01*
X93414285Y-93185714D01*
X93223809Y-93138095D01*
X93080952Y-93138095D01*
X92890476Y-93185714D01*
X92795238Y-93233333D01*
X92700000Y-93328571D01*
X92652380Y-93471428D01*
X92652380Y-93566666D01*
X92700000Y-93709523D01*
X92747619Y-93757142D01*
X92985714Y-94614285D02*
X93652380Y-94614285D01*
X92604761Y-94376190D02*
X93319047Y-94138095D01*
X93319047Y-94757142D01*
X93652380Y-95185714D02*
X93652380Y-95376190D01*
X93604761Y-95471428D01*
X93557142Y-95519047D01*
X93414285Y-95614285D01*
X93223809Y-95661904D01*
X92842857Y-95661904D01*
X92747619Y-95614285D01*
X92700000Y-95566666D01*
X92652380Y-95471428D01*
X92652380Y-95280952D01*
X92700000Y-95185714D01*
X92747619Y-95138095D01*
X92842857Y-95090476D01*
X93080952Y-95090476D01*
X93176190Y-95138095D01*
X93223809Y-95185714D01*
X93271428Y-95280952D01*
X93271428Y-95471428D01*
X93223809Y-95566666D01*
X93176190Y-95614285D01*
X93080952Y-95661904D01*
G04 #@! TO.C,C50*
X102042857Y-91957142D02*
X102090476Y-92004761D01*
X102233333Y-92052380D01*
X102328571Y-92052380D01*
X102471428Y-92004761D01*
X102566666Y-91909523D01*
X102614285Y-91814285D01*
X102661904Y-91623809D01*
X102661904Y-91480952D01*
X102614285Y-91290476D01*
X102566666Y-91195238D01*
X102471428Y-91100000D01*
X102328571Y-91052380D01*
X102233333Y-91052380D01*
X102090476Y-91100000D01*
X102042857Y-91147619D01*
X101138095Y-91052380D02*
X101614285Y-91052380D01*
X101661904Y-91528571D01*
X101614285Y-91480952D01*
X101519047Y-91433333D01*
X101280952Y-91433333D01*
X101185714Y-91480952D01*
X101138095Y-91528571D01*
X101090476Y-91623809D01*
X101090476Y-91861904D01*
X101138095Y-91957142D01*
X101185714Y-92004761D01*
X101280952Y-92052380D01*
X101519047Y-92052380D01*
X101614285Y-92004761D01*
X101661904Y-91957142D01*
X100471428Y-91052380D02*
X100376190Y-91052380D01*
X100280952Y-91100000D01*
X100233333Y-91147619D01*
X100185714Y-91242857D01*
X100138095Y-91433333D01*
X100138095Y-91671428D01*
X100185714Y-91861904D01*
X100233333Y-91957142D01*
X100280952Y-92004761D01*
X100376190Y-92052380D01*
X100471428Y-92052380D01*
X100566666Y-92004761D01*
X100614285Y-91957142D01*
X100661904Y-91861904D01*
X100709523Y-91671428D01*
X100709523Y-91433333D01*
X100661904Y-91242857D01*
X100614285Y-91147619D01*
X100566666Y-91100000D01*
X100471428Y-91052380D01*
G04 #@! TO.C,C51*
X106757142Y-97557142D02*
X106804761Y-97509523D01*
X106852380Y-97366666D01*
X106852380Y-97271428D01*
X106804761Y-97128571D01*
X106709523Y-97033333D01*
X106614285Y-96985714D01*
X106423809Y-96938095D01*
X106280952Y-96938095D01*
X106090476Y-96985714D01*
X105995238Y-97033333D01*
X105900000Y-97128571D01*
X105852380Y-97271428D01*
X105852380Y-97366666D01*
X105900000Y-97509523D01*
X105947619Y-97557142D01*
X105852380Y-98461904D02*
X105852380Y-97985714D01*
X106328571Y-97938095D01*
X106280952Y-97985714D01*
X106233333Y-98080952D01*
X106233333Y-98319047D01*
X106280952Y-98414285D01*
X106328571Y-98461904D01*
X106423809Y-98509523D01*
X106661904Y-98509523D01*
X106757142Y-98461904D01*
X106804761Y-98414285D01*
X106852380Y-98319047D01*
X106852380Y-98080952D01*
X106804761Y-97985714D01*
X106757142Y-97938095D01*
X106852380Y-99461904D02*
X106852380Y-98890476D01*
X106852380Y-99176190D02*
X105852380Y-99176190D01*
X105995238Y-99080952D01*
X106090476Y-98985714D01*
X106138095Y-98890476D01*
G04 #@! TO.C,C53*
X101957142Y-106557142D02*
X102004761Y-106509523D01*
X102052380Y-106366666D01*
X102052380Y-106271428D01*
X102004761Y-106128571D01*
X101909523Y-106033333D01*
X101814285Y-105985714D01*
X101623809Y-105938095D01*
X101480952Y-105938095D01*
X101290476Y-105985714D01*
X101195238Y-106033333D01*
X101100000Y-106128571D01*
X101052380Y-106271428D01*
X101052380Y-106366666D01*
X101100000Y-106509523D01*
X101147619Y-106557142D01*
X101052380Y-107461904D02*
X101052380Y-106985714D01*
X101528571Y-106938095D01*
X101480952Y-106985714D01*
X101433333Y-107080952D01*
X101433333Y-107319047D01*
X101480952Y-107414285D01*
X101528571Y-107461904D01*
X101623809Y-107509523D01*
X101861904Y-107509523D01*
X101957142Y-107461904D01*
X102004761Y-107414285D01*
X102052380Y-107319047D01*
X102052380Y-107080952D01*
X102004761Y-106985714D01*
X101957142Y-106938095D01*
X101052380Y-107842857D02*
X101052380Y-108461904D01*
X101433333Y-108128571D01*
X101433333Y-108271428D01*
X101480952Y-108366666D01*
X101528571Y-108414285D01*
X101623809Y-108461904D01*
X101861904Y-108461904D01*
X101957142Y-108414285D01*
X102004761Y-108366666D01*
X102052380Y-108271428D01*
X102052380Y-107985714D01*
X102004761Y-107890476D01*
X101957142Y-107842857D01*
G04 #@! TO.C,C54*
X92157142Y-93357142D02*
X92204761Y-93309523D01*
X92252380Y-93166666D01*
X92252380Y-93071428D01*
X92204761Y-92928571D01*
X92109523Y-92833333D01*
X92014285Y-92785714D01*
X91823809Y-92738095D01*
X91680952Y-92738095D01*
X91490476Y-92785714D01*
X91395238Y-92833333D01*
X91300000Y-92928571D01*
X91252380Y-93071428D01*
X91252380Y-93166666D01*
X91300000Y-93309523D01*
X91347619Y-93357142D01*
X91252380Y-94261904D02*
X91252380Y-93785714D01*
X91728571Y-93738095D01*
X91680952Y-93785714D01*
X91633333Y-93880952D01*
X91633333Y-94119047D01*
X91680952Y-94214285D01*
X91728571Y-94261904D01*
X91823809Y-94309523D01*
X92061904Y-94309523D01*
X92157142Y-94261904D01*
X92204761Y-94214285D01*
X92252380Y-94119047D01*
X92252380Y-93880952D01*
X92204761Y-93785714D01*
X92157142Y-93738095D01*
X91585714Y-95166666D02*
X92252380Y-95166666D01*
X91204761Y-94928571D02*
X91919047Y-94690476D01*
X91919047Y-95309523D01*
G04 #@! TO.C,C56*
X102042857Y-88157142D02*
X102090476Y-88204761D01*
X102233333Y-88252380D01*
X102328571Y-88252380D01*
X102471428Y-88204761D01*
X102566666Y-88109523D01*
X102614285Y-88014285D01*
X102661904Y-87823809D01*
X102661904Y-87680952D01*
X102614285Y-87490476D01*
X102566666Y-87395238D01*
X102471428Y-87300000D01*
X102328571Y-87252380D01*
X102233333Y-87252380D01*
X102090476Y-87300000D01*
X102042857Y-87347619D01*
X101138095Y-87252380D02*
X101614285Y-87252380D01*
X101661904Y-87728571D01*
X101614285Y-87680952D01*
X101519047Y-87633333D01*
X101280952Y-87633333D01*
X101185714Y-87680952D01*
X101138095Y-87728571D01*
X101090476Y-87823809D01*
X101090476Y-88061904D01*
X101138095Y-88157142D01*
X101185714Y-88204761D01*
X101280952Y-88252380D01*
X101519047Y-88252380D01*
X101614285Y-88204761D01*
X101661904Y-88157142D01*
X100233333Y-87252380D02*
X100423809Y-87252380D01*
X100519047Y-87300000D01*
X100566666Y-87347619D01*
X100661904Y-87490476D01*
X100709523Y-87680952D01*
X100709523Y-88061904D01*
X100661904Y-88157142D01*
X100614285Y-88204761D01*
X100519047Y-88252380D01*
X100328571Y-88252380D01*
X100233333Y-88204761D01*
X100185714Y-88157142D01*
X100138095Y-88061904D01*
X100138095Y-87823809D01*
X100185714Y-87728571D01*
X100233333Y-87680952D01*
X100328571Y-87633333D01*
X100519047Y-87633333D01*
X100614285Y-87680952D01*
X100661904Y-87728571D01*
X100709523Y-87823809D01*
G04 #@! TO.C,C58*
X105157142Y-106557142D02*
X105204761Y-106509523D01*
X105252380Y-106366666D01*
X105252380Y-106271428D01*
X105204761Y-106128571D01*
X105109523Y-106033333D01*
X105014285Y-105985714D01*
X104823809Y-105938095D01*
X104680952Y-105938095D01*
X104490476Y-105985714D01*
X104395238Y-106033333D01*
X104300000Y-106128571D01*
X104252380Y-106271428D01*
X104252380Y-106366666D01*
X104300000Y-106509523D01*
X104347619Y-106557142D01*
X104252380Y-107461904D02*
X104252380Y-106985714D01*
X104728571Y-106938095D01*
X104680952Y-106985714D01*
X104633333Y-107080952D01*
X104633333Y-107319047D01*
X104680952Y-107414285D01*
X104728571Y-107461904D01*
X104823809Y-107509523D01*
X105061904Y-107509523D01*
X105157142Y-107461904D01*
X105204761Y-107414285D01*
X105252380Y-107319047D01*
X105252380Y-107080952D01*
X105204761Y-106985714D01*
X105157142Y-106938095D01*
X104680952Y-108080952D02*
X104633333Y-107985714D01*
X104585714Y-107938095D01*
X104490476Y-107890476D01*
X104442857Y-107890476D01*
X104347619Y-107938095D01*
X104300000Y-107985714D01*
X104252380Y-108080952D01*
X104252380Y-108271428D01*
X104300000Y-108366666D01*
X104347619Y-108414285D01*
X104442857Y-108461904D01*
X104490476Y-108461904D01*
X104585714Y-108414285D01*
X104633333Y-108366666D01*
X104680952Y-108271428D01*
X104680952Y-108080952D01*
X104728571Y-107985714D01*
X104776190Y-107938095D01*
X104871428Y-107890476D01*
X105061904Y-107890476D01*
X105157142Y-107938095D01*
X105204761Y-107985714D01*
X105252380Y-108080952D01*
X105252380Y-108271428D01*
X105204761Y-108366666D01*
X105157142Y-108414285D01*
X105061904Y-108461904D01*
X104871428Y-108461904D01*
X104776190Y-108414285D01*
X104728571Y-108366666D01*
X104680952Y-108271428D01*
G04 #@! TO.C,C59*
X105157142Y-97357142D02*
X105204761Y-97309523D01*
X105252380Y-97166666D01*
X105252380Y-97071428D01*
X105204761Y-96928571D01*
X105109523Y-96833333D01*
X105014285Y-96785714D01*
X104823809Y-96738095D01*
X104680952Y-96738095D01*
X104490476Y-96785714D01*
X104395238Y-96833333D01*
X104300000Y-96928571D01*
X104252380Y-97071428D01*
X104252380Y-97166666D01*
X104300000Y-97309523D01*
X104347619Y-97357142D01*
X104252380Y-98261904D02*
X104252380Y-97785714D01*
X104728571Y-97738095D01*
X104680952Y-97785714D01*
X104633333Y-97880952D01*
X104633333Y-98119047D01*
X104680952Y-98214285D01*
X104728571Y-98261904D01*
X104823809Y-98309523D01*
X105061904Y-98309523D01*
X105157142Y-98261904D01*
X105204761Y-98214285D01*
X105252380Y-98119047D01*
X105252380Y-97880952D01*
X105204761Y-97785714D01*
X105157142Y-97738095D01*
X105252380Y-98785714D02*
X105252380Y-98976190D01*
X105204761Y-99071428D01*
X105157142Y-99119047D01*
X105014285Y-99214285D01*
X104823809Y-99261904D01*
X104442857Y-99261904D01*
X104347619Y-99214285D01*
X104300000Y-99166666D01*
X104252380Y-99071428D01*
X104252380Y-98880952D01*
X104300000Y-98785714D01*
X104347619Y-98738095D01*
X104442857Y-98690476D01*
X104680952Y-98690476D01*
X104776190Y-98738095D01*
X104823809Y-98785714D01*
X104871428Y-98880952D01*
X104871428Y-99071428D01*
X104823809Y-99166666D01*
X104776190Y-99214285D01*
X104680952Y-99261904D01*
G04 #@! TO.C,C60*
X108357142Y-97357142D02*
X108404761Y-97309523D01*
X108452380Y-97166666D01*
X108452380Y-97071428D01*
X108404761Y-96928571D01*
X108309523Y-96833333D01*
X108214285Y-96785714D01*
X108023809Y-96738095D01*
X107880952Y-96738095D01*
X107690476Y-96785714D01*
X107595238Y-96833333D01*
X107500000Y-96928571D01*
X107452380Y-97071428D01*
X107452380Y-97166666D01*
X107500000Y-97309523D01*
X107547619Y-97357142D01*
X107452380Y-98214285D02*
X107452380Y-98023809D01*
X107500000Y-97928571D01*
X107547619Y-97880952D01*
X107690476Y-97785714D01*
X107880952Y-97738095D01*
X108261904Y-97738095D01*
X108357142Y-97785714D01*
X108404761Y-97833333D01*
X108452380Y-97928571D01*
X108452380Y-98119047D01*
X108404761Y-98214285D01*
X108357142Y-98261904D01*
X108261904Y-98309523D01*
X108023809Y-98309523D01*
X107928571Y-98261904D01*
X107880952Y-98214285D01*
X107833333Y-98119047D01*
X107833333Y-97928571D01*
X107880952Y-97833333D01*
X107928571Y-97785714D01*
X108023809Y-97738095D01*
X107452380Y-98928571D02*
X107452380Y-99023809D01*
X107500000Y-99119047D01*
X107547619Y-99166666D01*
X107642857Y-99214285D01*
X107833333Y-99261904D01*
X108071428Y-99261904D01*
X108261904Y-99214285D01*
X108357142Y-99166666D01*
X108404761Y-99119047D01*
X108452380Y-99023809D01*
X108452380Y-98928571D01*
X108404761Y-98833333D01*
X108357142Y-98785714D01*
X108261904Y-98738095D01*
X108071428Y-98690476D01*
X107833333Y-98690476D01*
X107642857Y-98738095D01*
X107547619Y-98785714D01*
X107500000Y-98833333D01*
X107452380Y-98928571D01*
G04 #@! TO.C,C52*
X97179382Y-86189582D02*
X97227001Y-86141963D01*
X97274620Y-85999106D01*
X97274620Y-85903868D01*
X97227001Y-85761011D01*
X97131763Y-85665773D01*
X97036525Y-85618154D01*
X96846049Y-85570535D01*
X96703192Y-85570535D01*
X96512716Y-85618154D01*
X96417478Y-85665773D01*
X96322240Y-85761011D01*
X96274620Y-85903868D01*
X96274620Y-85999106D01*
X96322240Y-86141963D01*
X96369859Y-86189582D01*
X96274620Y-87094344D02*
X96274620Y-86618154D01*
X96750811Y-86570535D01*
X96703192Y-86618154D01*
X96655573Y-86713392D01*
X96655573Y-86951487D01*
X96703192Y-87046725D01*
X96750811Y-87094344D01*
X96846049Y-87141963D01*
X97084144Y-87141963D01*
X97179382Y-87094344D01*
X97227001Y-87046725D01*
X97274620Y-86951487D01*
X97274620Y-86713392D01*
X97227001Y-86618154D01*
X97179382Y-86570535D01*
X96369859Y-87522916D02*
X96322240Y-87570535D01*
X96274620Y-87665773D01*
X96274620Y-87903868D01*
X96322240Y-87999106D01*
X96369859Y-88046725D01*
X96465097Y-88094344D01*
X96560335Y-88094344D01*
X96703192Y-88046725D01*
X97274620Y-87475297D01*
X97274620Y-88094344D01*
G04 #@! TO.C,C62*
X103557142Y-97357142D02*
X103604761Y-97309523D01*
X103652380Y-97166666D01*
X103652380Y-97071428D01*
X103604761Y-96928571D01*
X103509523Y-96833333D01*
X103414285Y-96785714D01*
X103223809Y-96738095D01*
X103080952Y-96738095D01*
X102890476Y-96785714D01*
X102795238Y-96833333D01*
X102700000Y-96928571D01*
X102652380Y-97071428D01*
X102652380Y-97166666D01*
X102700000Y-97309523D01*
X102747619Y-97357142D01*
X102652380Y-98214285D02*
X102652380Y-98023809D01*
X102700000Y-97928571D01*
X102747619Y-97880952D01*
X102890476Y-97785714D01*
X103080952Y-97738095D01*
X103461904Y-97738095D01*
X103557142Y-97785714D01*
X103604761Y-97833333D01*
X103652380Y-97928571D01*
X103652380Y-98119047D01*
X103604761Y-98214285D01*
X103557142Y-98261904D01*
X103461904Y-98309523D01*
X103223809Y-98309523D01*
X103128571Y-98261904D01*
X103080952Y-98214285D01*
X103033333Y-98119047D01*
X103033333Y-97928571D01*
X103080952Y-97833333D01*
X103128571Y-97785714D01*
X103223809Y-97738095D01*
X102747619Y-98690476D02*
X102700000Y-98738095D01*
X102652380Y-98833333D01*
X102652380Y-99071428D01*
X102700000Y-99166666D01*
X102747619Y-99214285D01*
X102842857Y-99261904D01*
X102938095Y-99261904D01*
X103080952Y-99214285D01*
X103652380Y-98642857D01*
X103652380Y-99261904D01*
G04 #@! TO.C,C64*
X108357142Y-106607142D02*
X108404761Y-106559523D01*
X108452380Y-106416666D01*
X108452380Y-106321428D01*
X108404761Y-106178571D01*
X108309523Y-106083333D01*
X108214285Y-106035714D01*
X108023809Y-105988095D01*
X107880952Y-105988095D01*
X107690476Y-106035714D01*
X107595238Y-106083333D01*
X107500000Y-106178571D01*
X107452380Y-106321428D01*
X107452380Y-106416666D01*
X107500000Y-106559523D01*
X107547619Y-106607142D01*
X107452380Y-107464285D02*
X107452380Y-107273809D01*
X107500000Y-107178571D01*
X107547619Y-107130952D01*
X107690476Y-107035714D01*
X107880952Y-106988095D01*
X108261904Y-106988095D01*
X108357142Y-107035714D01*
X108404761Y-107083333D01*
X108452380Y-107178571D01*
X108452380Y-107369047D01*
X108404761Y-107464285D01*
X108357142Y-107511904D01*
X108261904Y-107559523D01*
X108023809Y-107559523D01*
X107928571Y-107511904D01*
X107880952Y-107464285D01*
X107833333Y-107369047D01*
X107833333Y-107178571D01*
X107880952Y-107083333D01*
X107928571Y-107035714D01*
X108023809Y-106988095D01*
X107785714Y-108416666D02*
X108452380Y-108416666D01*
X107404761Y-108178571D02*
X108119047Y-107940476D01*
X108119047Y-108559523D01*
G04 #@! TO.C,C65*
X106757142Y-106607142D02*
X106804761Y-106559523D01*
X106852380Y-106416666D01*
X106852380Y-106321428D01*
X106804761Y-106178571D01*
X106709523Y-106083333D01*
X106614285Y-106035714D01*
X106423809Y-105988095D01*
X106280952Y-105988095D01*
X106090476Y-106035714D01*
X105995238Y-106083333D01*
X105900000Y-106178571D01*
X105852380Y-106321428D01*
X105852380Y-106416666D01*
X105900000Y-106559523D01*
X105947619Y-106607142D01*
X105852380Y-107464285D02*
X105852380Y-107273809D01*
X105900000Y-107178571D01*
X105947619Y-107130952D01*
X106090476Y-107035714D01*
X106280952Y-106988095D01*
X106661904Y-106988095D01*
X106757142Y-107035714D01*
X106804761Y-107083333D01*
X106852380Y-107178571D01*
X106852380Y-107369047D01*
X106804761Y-107464285D01*
X106757142Y-107511904D01*
X106661904Y-107559523D01*
X106423809Y-107559523D01*
X106328571Y-107511904D01*
X106280952Y-107464285D01*
X106233333Y-107369047D01*
X106233333Y-107178571D01*
X106280952Y-107083333D01*
X106328571Y-107035714D01*
X106423809Y-106988095D01*
X105852380Y-108464285D02*
X105852380Y-107988095D01*
X106328571Y-107940476D01*
X106280952Y-107988095D01*
X106233333Y-108083333D01*
X106233333Y-108321428D01*
X106280952Y-108416666D01*
X106328571Y-108464285D01*
X106423809Y-108511904D01*
X106661904Y-108511904D01*
X106757142Y-108464285D01*
X106804761Y-108416666D01*
X106852380Y-108321428D01*
X106852380Y-108083333D01*
X106804761Y-107988095D01*
X106757142Y-107940476D01*
G04 #@! TO.C,C61*
X103557142Y-106557142D02*
X103604761Y-106509523D01*
X103652380Y-106366666D01*
X103652380Y-106271428D01*
X103604761Y-106128571D01*
X103509523Y-106033333D01*
X103414285Y-105985714D01*
X103223809Y-105938095D01*
X103080952Y-105938095D01*
X102890476Y-105985714D01*
X102795238Y-106033333D01*
X102700000Y-106128571D01*
X102652380Y-106271428D01*
X102652380Y-106366666D01*
X102700000Y-106509523D01*
X102747619Y-106557142D01*
X102652380Y-107414285D02*
X102652380Y-107223809D01*
X102700000Y-107128571D01*
X102747619Y-107080952D01*
X102890476Y-106985714D01*
X103080952Y-106938095D01*
X103461904Y-106938095D01*
X103557142Y-106985714D01*
X103604761Y-107033333D01*
X103652380Y-107128571D01*
X103652380Y-107319047D01*
X103604761Y-107414285D01*
X103557142Y-107461904D01*
X103461904Y-107509523D01*
X103223809Y-107509523D01*
X103128571Y-107461904D01*
X103080952Y-107414285D01*
X103033333Y-107319047D01*
X103033333Y-107128571D01*
X103080952Y-107033333D01*
X103128571Y-106985714D01*
X103223809Y-106938095D01*
X103652380Y-108461904D02*
X103652380Y-107890476D01*
X103652380Y-108176190D02*
X102652380Y-108176190D01*
X102795238Y-108080952D01*
X102890476Y-107985714D01*
X102938095Y-107890476D01*
G04 #@! TD*
M02*
