G04 #@! TF.GenerationSoftware,KiCad,Pcbnew,5.0.1*
G04 #@! TF.CreationDate,2018-12-10T01:12:42+01:00*
G04 #@! TF.ProjectId,Kilsyth,4B696C737974682E6B696361645F7063,rev?*
G04 #@! TF.SameCoordinates,Original*
G04 #@! TF.FileFunction,Paste,Bot*
G04 #@! TF.FilePolarity,Positive*
%FSLAX46Y46*%
G04 Gerber Fmt 4.6, Leading zero omitted, Abs format (unit mm)*
G04 Created by KiCad (PCBNEW 5.0.1) date Mon 10 Dec 2018 01:12:42 AM CET*
%MOMM*%
%LPD*%
G01*
G04 APERTURE LIST*
%ADD10C,0.100000*%
%ADD11C,0.875000*%
G04 APERTURE END LIST*
D10*
G04 #@! TO.C,C6*
G36*
X109865191Y-92326053D02*
X109886426Y-92329203D01*
X109907250Y-92334419D01*
X109927462Y-92341651D01*
X109946868Y-92350830D01*
X109965281Y-92361866D01*
X109982524Y-92374654D01*
X109998430Y-92389070D01*
X110012846Y-92404976D01*
X110025634Y-92422219D01*
X110036670Y-92440632D01*
X110045849Y-92460038D01*
X110053081Y-92480250D01*
X110058297Y-92501074D01*
X110061447Y-92522309D01*
X110062500Y-92543750D01*
X110062500Y-93056250D01*
X110061447Y-93077691D01*
X110058297Y-93098926D01*
X110053081Y-93119750D01*
X110045849Y-93139962D01*
X110036670Y-93159368D01*
X110025634Y-93177781D01*
X110012846Y-93195024D01*
X109998430Y-93210930D01*
X109982524Y-93225346D01*
X109965281Y-93238134D01*
X109946868Y-93249170D01*
X109927462Y-93258349D01*
X109907250Y-93265581D01*
X109886426Y-93270797D01*
X109865191Y-93273947D01*
X109843750Y-93275000D01*
X109406250Y-93275000D01*
X109384809Y-93273947D01*
X109363574Y-93270797D01*
X109342750Y-93265581D01*
X109322538Y-93258349D01*
X109303132Y-93249170D01*
X109284719Y-93238134D01*
X109267476Y-93225346D01*
X109251570Y-93210930D01*
X109237154Y-93195024D01*
X109224366Y-93177781D01*
X109213330Y-93159368D01*
X109204151Y-93139962D01*
X109196919Y-93119750D01*
X109191703Y-93098926D01*
X109188553Y-93077691D01*
X109187500Y-93056250D01*
X109187500Y-92543750D01*
X109188553Y-92522309D01*
X109191703Y-92501074D01*
X109196919Y-92480250D01*
X109204151Y-92460038D01*
X109213330Y-92440632D01*
X109224366Y-92422219D01*
X109237154Y-92404976D01*
X109251570Y-92389070D01*
X109267476Y-92374654D01*
X109284719Y-92361866D01*
X109303132Y-92350830D01*
X109322538Y-92341651D01*
X109342750Y-92334419D01*
X109363574Y-92329203D01*
X109384809Y-92326053D01*
X109406250Y-92325000D01*
X109843750Y-92325000D01*
X109865191Y-92326053D01*
X109865191Y-92326053D01*
G37*
D11*
X109625000Y-92800000D03*
D10*
G36*
X108290191Y-92326053D02*
X108311426Y-92329203D01*
X108332250Y-92334419D01*
X108352462Y-92341651D01*
X108371868Y-92350830D01*
X108390281Y-92361866D01*
X108407524Y-92374654D01*
X108423430Y-92389070D01*
X108437846Y-92404976D01*
X108450634Y-92422219D01*
X108461670Y-92440632D01*
X108470849Y-92460038D01*
X108478081Y-92480250D01*
X108483297Y-92501074D01*
X108486447Y-92522309D01*
X108487500Y-92543750D01*
X108487500Y-93056250D01*
X108486447Y-93077691D01*
X108483297Y-93098926D01*
X108478081Y-93119750D01*
X108470849Y-93139962D01*
X108461670Y-93159368D01*
X108450634Y-93177781D01*
X108437846Y-93195024D01*
X108423430Y-93210930D01*
X108407524Y-93225346D01*
X108390281Y-93238134D01*
X108371868Y-93249170D01*
X108352462Y-93258349D01*
X108332250Y-93265581D01*
X108311426Y-93270797D01*
X108290191Y-93273947D01*
X108268750Y-93275000D01*
X107831250Y-93275000D01*
X107809809Y-93273947D01*
X107788574Y-93270797D01*
X107767750Y-93265581D01*
X107747538Y-93258349D01*
X107728132Y-93249170D01*
X107709719Y-93238134D01*
X107692476Y-93225346D01*
X107676570Y-93210930D01*
X107662154Y-93195024D01*
X107649366Y-93177781D01*
X107638330Y-93159368D01*
X107629151Y-93139962D01*
X107621919Y-93119750D01*
X107616703Y-93098926D01*
X107613553Y-93077691D01*
X107612500Y-93056250D01*
X107612500Y-92543750D01*
X107613553Y-92522309D01*
X107616703Y-92501074D01*
X107621919Y-92480250D01*
X107629151Y-92460038D01*
X107638330Y-92440632D01*
X107649366Y-92422219D01*
X107662154Y-92404976D01*
X107676570Y-92389070D01*
X107692476Y-92374654D01*
X107709719Y-92361866D01*
X107728132Y-92350830D01*
X107747538Y-92341651D01*
X107767750Y-92334419D01*
X107788574Y-92329203D01*
X107809809Y-92326053D01*
X107831250Y-92325000D01*
X108268750Y-92325000D01*
X108290191Y-92326053D01*
X108290191Y-92326053D01*
G37*
D11*
X108050000Y-92800000D03*
G04 #@! TD*
D10*
G04 #@! TO.C,C38*
G36*
X80240191Y-86026053D02*
X80261426Y-86029203D01*
X80282250Y-86034419D01*
X80302462Y-86041651D01*
X80321868Y-86050830D01*
X80340281Y-86061866D01*
X80357524Y-86074654D01*
X80373430Y-86089070D01*
X80387846Y-86104976D01*
X80400634Y-86122219D01*
X80411670Y-86140632D01*
X80420849Y-86160038D01*
X80428081Y-86180250D01*
X80433297Y-86201074D01*
X80436447Y-86222309D01*
X80437500Y-86243750D01*
X80437500Y-86756250D01*
X80436447Y-86777691D01*
X80433297Y-86798926D01*
X80428081Y-86819750D01*
X80420849Y-86839962D01*
X80411670Y-86859368D01*
X80400634Y-86877781D01*
X80387846Y-86895024D01*
X80373430Y-86910930D01*
X80357524Y-86925346D01*
X80340281Y-86938134D01*
X80321868Y-86949170D01*
X80302462Y-86958349D01*
X80282250Y-86965581D01*
X80261426Y-86970797D01*
X80240191Y-86973947D01*
X80218750Y-86975000D01*
X79781250Y-86975000D01*
X79759809Y-86973947D01*
X79738574Y-86970797D01*
X79717750Y-86965581D01*
X79697538Y-86958349D01*
X79678132Y-86949170D01*
X79659719Y-86938134D01*
X79642476Y-86925346D01*
X79626570Y-86910930D01*
X79612154Y-86895024D01*
X79599366Y-86877781D01*
X79588330Y-86859368D01*
X79579151Y-86839962D01*
X79571919Y-86819750D01*
X79566703Y-86798926D01*
X79563553Y-86777691D01*
X79562500Y-86756250D01*
X79562500Y-86243750D01*
X79563553Y-86222309D01*
X79566703Y-86201074D01*
X79571919Y-86180250D01*
X79579151Y-86160038D01*
X79588330Y-86140632D01*
X79599366Y-86122219D01*
X79612154Y-86104976D01*
X79626570Y-86089070D01*
X79642476Y-86074654D01*
X79659719Y-86061866D01*
X79678132Y-86050830D01*
X79697538Y-86041651D01*
X79717750Y-86034419D01*
X79738574Y-86029203D01*
X79759809Y-86026053D01*
X79781250Y-86025000D01*
X80218750Y-86025000D01*
X80240191Y-86026053D01*
X80240191Y-86026053D01*
G37*
D11*
X80000000Y-86500000D03*
D10*
G36*
X78665191Y-86026053D02*
X78686426Y-86029203D01*
X78707250Y-86034419D01*
X78727462Y-86041651D01*
X78746868Y-86050830D01*
X78765281Y-86061866D01*
X78782524Y-86074654D01*
X78798430Y-86089070D01*
X78812846Y-86104976D01*
X78825634Y-86122219D01*
X78836670Y-86140632D01*
X78845849Y-86160038D01*
X78853081Y-86180250D01*
X78858297Y-86201074D01*
X78861447Y-86222309D01*
X78862500Y-86243750D01*
X78862500Y-86756250D01*
X78861447Y-86777691D01*
X78858297Y-86798926D01*
X78853081Y-86819750D01*
X78845849Y-86839962D01*
X78836670Y-86859368D01*
X78825634Y-86877781D01*
X78812846Y-86895024D01*
X78798430Y-86910930D01*
X78782524Y-86925346D01*
X78765281Y-86938134D01*
X78746868Y-86949170D01*
X78727462Y-86958349D01*
X78707250Y-86965581D01*
X78686426Y-86970797D01*
X78665191Y-86973947D01*
X78643750Y-86975000D01*
X78206250Y-86975000D01*
X78184809Y-86973947D01*
X78163574Y-86970797D01*
X78142750Y-86965581D01*
X78122538Y-86958349D01*
X78103132Y-86949170D01*
X78084719Y-86938134D01*
X78067476Y-86925346D01*
X78051570Y-86910930D01*
X78037154Y-86895024D01*
X78024366Y-86877781D01*
X78013330Y-86859368D01*
X78004151Y-86839962D01*
X77996919Y-86819750D01*
X77991703Y-86798926D01*
X77988553Y-86777691D01*
X77987500Y-86756250D01*
X77987500Y-86243750D01*
X77988553Y-86222309D01*
X77991703Y-86201074D01*
X77996919Y-86180250D01*
X78004151Y-86160038D01*
X78013330Y-86140632D01*
X78024366Y-86122219D01*
X78037154Y-86104976D01*
X78051570Y-86089070D01*
X78067476Y-86074654D01*
X78084719Y-86061866D01*
X78103132Y-86050830D01*
X78122538Y-86041651D01*
X78142750Y-86034419D01*
X78163574Y-86029203D01*
X78184809Y-86026053D01*
X78206250Y-86025000D01*
X78643750Y-86025000D01*
X78665191Y-86026053D01*
X78665191Y-86026053D01*
G37*
D11*
X78425000Y-86500000D03*
G04 #@! TD*
D10*
G04 #@! TO.C,C39*
G36*
X76277691Y-92076053D02*
X76298926Y-92079203D01*
X76319750Y-92084419D01*
X76339962Y-92091651D01*
X76359368Y-92100830D01*
X76377781Y-92111866D01*
X76395024Y-92124654D01*
X76410930Y-92139070D01*
X76425346Y-92154976D01*
X76438134Y-92172219D01*
X76449170Y-92190632D01*
X76458349Y-92210038D01*
X76465581Y-92230250D01*
X76470797Y-92251074D01*
X76473947Y-92272309D01*
X76475000Y-92293750D01*
X76475000Y-92731250D01*
X76473947Y-92752691D01*
X76470797Y-92773926D01*
X76465581Y-92794750D01*
X76458349Y-92814962D01*
X76449170Y-92834368D01*
X76438134Y-92852781D01*
X76425346Y-92870024D01*
X76410930Y-92885930D01*
X76395024Y-92900346D01*
X76377781Y-92913134D01*
X76359368Y-92924170D01*
X76339962Y-92933349D01*
X76319750Y-92940581D01*
X76298926Y-92945797D01*
X76277691Y-92948947D01*
X76256250Y-92950000D01*
X75743750Y-92950000D01*
X75722309Y-92948947D01*
X75701074Y-92945797D01*
X75680250Y-92940581D01*
X75660038Y-92933349D01*
X75640632Y-92924170D01*
X75622219Y-92913134D01*
X75604976Y-92900346D01*
X75589070Y-92885930D01*
X75574654Y-92870024D01*
X75561866Y-92852781D01*
X75550830Y-92834368D01*
X75541651Y-92814962D01*
X75534419Y-92794750D01*
X75529203Y-92773926D01*
X75526053Y-92752691D01*
X75525000Y-92731250D01*
X75525000Y-92293750D01*
X75526053Y-92272309D01*
X75529203Y-92251074D01*
X75534419Y-92230250D01*
X75541651Y-92210038D01*
X75550830Y-92190632D01*
X75561866Y-92172219D01*
X75574654Y-92154976D01*
X75589070Y-92139070D01*
X75604976Y-92124654D01*
X75622219Y-92111866D01*
X75640632Y-92100830D01*
X75660038Y-92091651D01*
X75680250Y-92084419D01*
X75701074Y-92079203D01*
X75722309Y-92076053D01*
X75743750Y-92075000D01*
X76256250Y-92075000D01*
X76277691Y-92076053D01*
X76277691Y-92076053D01*
G37*
D11*
X76000000Y-92512500D03*
D10*
G36*
X76277691Y-93651053D02*
X76298926Y-93654203D01*
X76319750Y-93659419D01*
X76339962Y-93666651D01*
X76359368Y-93675830D01*
X76377781Y-93686866D01*
X76395024Y-93699654D01*
X76410930Y-93714070D01*
X76425346Y-93729976D01*
X76438134Y-93747219D01*
X76449170Y-93765632D01*
X76458349Y-93785038D01*
X76465581Y-93805250D01*
X76470797Y-93826074D01*
X76473947Y-93847309D01*
X76475000Y-93868750D01*
X76475000Y-94306250D01*
X76473947Y-94327691D01*
X76470797Y-94348926D01*
X76465581Y-94369750D01*
X76458349Y-94389962D01*
X76449170Y-94409368D01*
X76438134Y-94427781D01*
X76425346Y-94445024D01*
X76410930Y-94460930D01*
X76395024Y-94475346D01*
X76377781Y-94488134D01*
X76359368Y-94499170D01*
X76339962Y-94508349D01*
X76319750Y-94515581D01*
X76298926Y-94520797D01*
X76277691Y-94523947D01*
X76256250Y-94525000D01*
X75743750Y-94525000D01*
X75722309Y-94523947D01*
X75701074Y-94520797D01*
X75680250Y-94515581D01*
X75660038Y-94508349D01*
X75640632Y-94499170D01*
X75622219Y-94488134D01*
X75604976Y-94475346D01*
X75589070Y-94460930D01*
X75574654Y-94445024D01*
X75561866Y-94427781D01*
X75550830Y-94409368D01*
X75541651Y-94389962D01*
X75534419Y-94369750D01*
X75529203Y-94348926D01*
X75526053Y-94327691D01*
X75525000Y-94306250D01*
X75525000Y-93868750D01*
X75526053Y-93847309D01*
X75529203Y-93826074D01*
X75534419Y-93805250D01*
X75541651Y-93785038D01*
X75550830Y-93765632D01*
X75561866Y-93747219D01*
X75574654Y-93729976D01*
X75589070Y-93714070D01*
X75604976Y-93699654D01*
X75622219Y-93686866D01*
X75640632Y-93675830D01*
X75660038Y-93666651D01*
X75680250Y-93659419D01*
X75701074Y-93654203D01*
X75722309Y-93651053D01*
X75743750Y-93650000D01*
X76256250Y-93650000D01*
X76277691Y-93651053D01*
X76277691Y-93651053D01*
G37*
D11*
X76000000Y-94087500D03*
G04 #@! TD*
D10*
G04 #@! TO.C,C40*
G36*
X74727691Y-92076053D02*
X74748926Y-92079203D01*
X74769750Y-92084419D01*
X74789962Y-92091651D01*
X74809368Y-92100830D01*
X74827781Y-92111866D01*
X74845024Y-92124654D01*
X74860930Y-92139070D01*
X74875346Y-92154976D01*
X74888134Y-92172219D01*
X74899170Y-92190632D01*
X74908349Y-92210038D01*
X74915581Y-92230250D01*
X74920797Y-92251074D01*
X74923947Y-92272309D01*
X74925000Y-92293750D01*
X74925000Y-92731250D01*
X74923947Y-92752691D01*
X74920797Y-92773926D01*
X74915581Y-92794750D01*
X74908349Y-92814962D01*
X74899170Y-92834368D01*
X74888134Y-92852781D01*
X74875346Y-92870024D01*
X74860930Y-92885930D01*
X74845024Y-92900346D01*
X74827781Y-92913134D01*
X74809368Y-92924170D01*
X74789962Y-92933349D01*
X74769750Y-92940581D01*
X74748926Y-92945797D01*
X74727691Y-92948947D01*
X74706250Y-92950000D01*
X74193750Y-92950000D01*
X74172309Y-92948947D01*
X74151074Y-92945797D01*
X74130250Y-92940581D01*
X74110038Y-92933349D01*
X74090632Y-92924170D01*
X74072219Y-92913134D01*
X74054976Y-92900346D01*
X74039070Y-92885930D01*
X74024654Y-92870024D01*
X74011866Y-92852781D01*
X74000830Y-92834368D01*
X73991651Y-92814962D01*
X73984419Y-92794750D01*
X73979203Y-92773926D01*
X73976053Y-92752691D01*
X73975000Y-92731250D01*
X73975000Y-92293750D01*
X73976053Y-92272309D01*
X73979203Y-92251074D01*
X73984419Y-92230250D01*
X73991651Y-92210038D01*
X74000830Y-92190632D01*
X74011866Y-92172219D01*
X74024654Y-92154976D01*
X74039070Y-92139070D01*
X74054976Y-92124654D01*
X74072219Y-92111866D01*
X74090632Y-92100830D01*
X74110038Y-92091651D01*
X74130250Y-92084419D01*
X74151074Y-92079203D01*
X74172309Y-92076053D01*
X74193750Y-92075000D01*
X74706250Y-92075000D01*
X74727691Y-92076053D01*
X74727691Y-92076053D01*
G37*
D11*
X74450000Y-92512500D03*
D10*
G36*
X74727691Y-93651053D02*
X74748926Y-93654203D01*
X74769750Y-93659419D01*
X74789962Y-93666651D01*
X74809368Y-93675830D01*
X74827781Y-93686866D01*
X74845024Y-93699654D01*
X74860930Y-93714070D01*
X74875346Y-93729976D01*
X74888134Y-93747219D01*
X74899170Y-93765632D01*
X74908349Y-93785038D01*
X74915581Y-93805250D01*
X74920797Y-93826074D01*
X74923947Y-93847309D01*
X74925000Y-93868750D01*
X74925000Y-94306250D01*
X74923947Y-94327691D01*
X74920797Y-94348926D01*
X74915581Y-94369750D01*
X74908349Y-94389962D01*
X74899170Y-94409368D01*
X74888134Y-94427781D01*
X74875346Y-94445024D01*
X74860930Y-94460930D01*
X74845024Y-94475346D01*
X74827781Y-94488134D01*
X74809368Y-94499170D01*
X74789962Y-94508349D01*
X74769750Y-94515581D01*
X74748926Y-94520797D01*
X74727691Y-94523947D01*
X74706250Y-94525000D01*
X74193750Y-94525000D01*
X74172309Y-94523947D01*
X74151074Y-94520797D01*
X74130250Y-94515581D01*
X74110038Y-94508349D01*
X74090632Y-94499170D01*
X74072219Y-94488134D01*
X74054976Y-94475346D01*
X74039070Y-94460930D01*
X74024654Y-94445024D01*
X74011866Y-94427781D01*
X74000830Y-94409368D01*
X73991651Y-94389962D01*
X73984419Y-94369750D01*
X73979203Y-94348926D01*
X73976053Y-94327691D01*
X73975000Y-94306250D01*
X73975000Y-93868750D01*
X73976053Y-93847309D01*
X73979203Y-93826074D01*
X73984419Y-93805250D01*
X73991651Y-93785038D01*
X74000830Y-93765632D01*
X74011866Y-93747219D01*
X74024654Y-93729976D01*
X74039070Y-93714070D01*
X74054976Y-93699654D01*
X74072219Y-93686866D01*
X74090632Y-93675830D01*
X74110038Y-93666651D01*
X74130250Y-93659419D01*
X74151074Y-93654203D01*
X74172309Y-93651053D01*
X74193750Y-93650000D01*
X74706250Y-93650000D01*
X74727691Y-93651053D01*
X74727691Y-93651053D01*
G37*
D11*
X74450000Y-94087500D03*
G04 #@! TD*
D10*
G04 #@! TO.C,C44*
G36*
X103977691Y-94563553D02*
X103998926Y-94566703D01*
X104019750Y-94571919D01*
X104039962Y-94579151D01*
X104059368Y-94588330D01*
X104077781Y-94599366D01*
X104095024Y-94612154D01*
X104110930Y-94626570D01*
X104125346Y-94642476D01*
X104138134Y-94659719D01*
X104149170Y-94678132D01*
X104158349Y-94697538D01*
X104165581Y-94717750D01*
X104170797Y-94738574D01*
X104173947Y-94759809D01*
X104175000Y-94781250D01*
X104175000Y-95218750D01*
X104173947Y-95240191D01*
X104170797Y-95261426D01*
X104165581Y-95282250D01*
X104158349Y-95302462D01*
X104149170Y-95321868D01*
X104138134Y-95340281D01*
X104125346Y-95357524D01*
X104110930Y-95373430D01*
X104095024Y-95387846D01*
X104077781Y-95400634D01*
X104059368Y-95411670D01*
X104039962Y-95420849D01*
X104019750Y-95428081D01*
X103998926Y-95433297D01*
X103977691Y-95436447D01*
X103956250Y-95437500D01*
X103443750Y-95437500D01*
X103422309Y-95436447D01*
X103401074Y-95433297D01*
X103380250Y-95428081D01*
X103360038Y-95420849D01*
X103340632Y-95411670D01*
X103322219Y-95400634D01*
X103304976Y-95387846D01*
X103289070Y-95373430D01*
X103274654Y-95357524D01*
X103261866Y-95340281D01*
X103250830Y-95321868D01*
X103241651Y-95302462D01*
X103234419Y-95282250D01*
X103229203Y-95261426D01*
X103226053Y-95240191D01*
X103225000Y-95218750D01*
X103225000Y-94781250D01*
X103226053Y-94759809D01*
X103229203Y-94738574D01*
X103234419Y-94717750D01*
X103241651Y-94697538D01*
X103250830Y-94678132D01*
X103261866Y-94659719D01*
X103274654Y-94642476D01*
X103289070Y-94626570D01*
X103304976Y-94612154D01*
X103322219Y-94599366D01*
X103340632Y-94588330D01*
X103360038Y-94579151D01*
X103380250Y-94571919D01*
X103401074Y-94566703D01*
X103422309Y-94563553D01*
X103443750Y-94562500D01*
X103956250Y-94562500D01*
X103977691Y-94563553D01*
X103977691Y-94563553D01*
G37*
D11*
X103700000Y-95000000D03*
D10*
G36*
X103977691Y-92988553D02*
X103998926Y-92991703D01*
X104019750Y-92996919D01*
X104039962Y-93004151D01*
X104059368Y-93013330D01*
X104077781Y-93024366D01*
X104095024Y-93037154D01*
X104110930Y-93051570D01*
X104125346Y-93067476D01*
X104138134Y-93084719D01*
X104149170Y-93103132D01*
X104158349Y-93122538D01*
X104165581Y-93142750D01*
X104170797Y-93163574D01*
X104173947Y-93184809D01*
X104175000Y-93206250D01*
X104175000Y-93643750D01*
X104173947Y-93665191D01*
X104170797Y-93686426D01*
X104165581Y-93707250D01*
X104158349Y-93727462D01*
X104149170Y-93746868D01*
X104138134Y-93765281D01*
X104125346Y-93782524D01*
X104110930Y-93798430D01*
X104095024Y-93812846D01*
X104077781Y-93825634D01*
X104059368Y-93836670D01*
X104039962Y-93845849D01*
X104019750Y-93853081D01*
X103998926Y-93858297D01*
X103977691Y-93861447D01*
X103956250Y-93862500D01*
X103443750Y-93862500D01*
X103422309Y-93861447D01*
X103401074Y-93858297D01*
X103380250Y-93853081D01*
X103360038Y-93845849D01*
X103340632Y-93836670D01*
X103322219Y-93825634D01*
X103304976Y-93812846D01*
X103289070Y-93798430D01*
X103274654Y-93782524D01*
X103261866Y-93765281D01*
X103250830Y-93746868D01*
X103241651Y-93727462D01*
X103234419Y-93707250D01*
X103229203Y-93686426D01*
X103226053Y-93665191D01*
X103225000Y-93643750D01*
X103225000Y-93206250D01*
X103226053Y-93184809D01*
X103229203Y-93163574D01*
X103234419Y-93142750D01*
X103241651Y-93122538D01*
X103250830Y-93103132D01*
X103261866Y-93084719D01*
X103274654Y-93067476D01*
X103289070Y-93051570D01*
X103304976Y-93037154D01*
X103322219Y-93024366D01*
X103340632Y-93013330D01*
X103360038Y-93004151D01*
X103380250Y-92996919D01*
X103401074Y-92991703D01*
X103422309Y-92988553D01*
X103443750Y-92987500D01*
X103956250Y-92987500D01*
X103977691Y-92988553D01*
X103977691Y-92988553D01*
G37*
D11*
X103700000Y-93425000D03*
G04 #@! TD*
D10*
G04 #@! TO.C,C45*
G36*
X109865191Y-90826053D02*
X109886426Y-90829203D01*
X109907250Y-90834419D01*
X109927462Y-90841651D01*
X109946868Y-90850830D01*
X109965281Y-90861866D01*
X109982524Y-90874654D01*
X109998430Y-90889070D01*
X110012846Y-90904976D01*
X110025634Y-90922219D01*
X110036670Y-90940632D01*
X110045849Y-90960038D01*
X110053081Y-90980250D01*
X110058297Y-91001074D01*
X110061447Y-91022309D01*
X110062500Y-91043750D01*
X110062500Y-91556250D01*
X110061447Y-91577691D01*
X110058297Y-91598926D01*
X110053081Y-91619750D01*
X110045849Y-91639962D01*
X110036670Y-91659368D01*
X110025634Y-91677781D01*
X110012846Y-91695024D01*
X109998430Y-91710930D01*
X109982524Y-91725346D01*
X109965281Y-91738134D01*
X109946868Y-91749170D01*
X109927462Y-91758349D01*
X109907250Y-91765581D01*
X109886426Y-91770797D01*
X109865191Y-91773947D01*
X109843750Y-91775000D01*
X109406250Y-91775000D01*
X109384809Y-91773947D01*
X109363574Y-91770797D01*
X109342750Y-91765581D01*
X109322538Y-91758349D01*
X109303132Y-91749170D01*
X109284719Y-91738134D01*
X109267476Y-91725346D01*
X109251570Y-91710930D01*
X109237154Y-91695024D01*
X109224366Y-91677781D01*
X109213330Y-91659368D01*
X109204151Y-91639962D01*
X109196919Y-91619750D01*
X109191703Y-91598926D01*
X109188553Y-91577691D01*
X109187500Y-91556250D01*
X109187500Y-91043750D01*
X109188553Y-91022309D01*
X109191703Y-91001074D01*
X109196919Y-90980250D01*
X109204151Y-90960038D01*
X109213330Y-90940632D01*
X109224366Y-90922219D01*
X109237154Y-90904976D01*
X109251570Y-90889070D01*
X109267476Y-90874654D01*
X109284719Y-90861866D01*
X109303132Y-90850830D01*
X109322538Y-90841651D01*
X109342750Y-90834419D01*
X109363574Y-90829203D01*
X109384809Y-90826053D01*
X109406250Y-90825000D01*
X109843750Y-90825000D01*
X109865191Y-90826053D01*
X109865191Y-90826053D01*
G37*
D11*
X109625000Y-91300000D03*
D10*
G36*
X108290191Y-90826053D02*
X108311426Y-90829203D01*
X108332250Y-90834419D01*
X108352462Y-90841651D01*
X108371868Y-90850830D01*
X108390281Y-90861866D01*
X108407524Y-90874654D01*
X108423430Y-90889070D01*
X108437846Y-90904976D01*
X108450634Y-90922219D01*
X108461670Y-90940632D01*
X108470849Y-90960038D01*
X108478081Y-90980250D01*
X108483297Y-91001074D01*
X108486447Y-91022309D01*
X108487500Y-91043750D01*
X108487500Y-91556250D01*
X108486447Y-91577691D01*
X108483297Y-91598926D01*
X108478081Y-91619750D01*
X108470849Y-91639962D01*
X108461670Y-91659368D01*
X108450634Y-91677781D01*
X108437846Y-91695024D01*
X108423430Y-91710930D01*
X108407524Y-91725346D01*
X108390281Y-91738134D01*
X108371868Y-91749170D01*
X108352462Y-91758349D01*
X108332250Y-91765581D01*
X108311426Y-91770797D01*
X108290191Y-91773947D01*
X108268750Y-91775000D01*
X107831250Y-91775000D01*
X107809809Y-91773947D01*
X107788574Y-91770797D01*
X107767750Y-91765581D01*
X107747538Y-91758349D01*
X107728132Y-91749170D01*
X107709719Y-91738134D01*
X107692476Y-91725346D01*
X107676570Y-91710930D01*
X107662154Y-91695024D01*
X107649366Y-91677781D01*
X107638330Y-91659368D01*
X107629151Y-91639962D01*
X107621919Y-91619750D01*
X107616703Y-91598926D01*
X107613553Y-91577691D01*
X107612500Y-91556250D01*
X107612500Y-91043750D01*
X107613553Y-91022309D01*
X107616703Y-91001074D01*
X107621919Y-90980250D01*
X107629151Y-90960038D01*
X107638330Y-90940632D01*
X107649366Y-90922219D01*
X107662154Y-90904976D01*
X107676570Y-90889070D01*
X107692476Y-90874654D01*
X107709719Y-90861866D01*
X107728132Y-90850830D01*
X107747538Y-90841651D01*
X107767750Y-90834419D01*
X107788574Y-90829203D01*
X107809809Y-90826053D01*
X107831250Y-90825000D01*
X108268750Y-90825000D01*
X108290191Y-90826053D01*
X108290191Y-90826053D01*
G37*
D11*
X108050000Y-91300000D03*
G04 #@! TD*
D10*
G04 #@! TO.C,C46*
G36*
X101877691Y-101363553D02*
X101898926Y-101366703D01*
X101919750Y-101371919D01*
X101939962Y-101379151D01*
X101959368Y-101388330D01*
X101977781Y-101399366D01*
X101995024Y-101412154D01*
X102010930Y-101426570D01*
X102025346Y-101442476D01*
X102038134Y-101459719D01*
X102049170Y-101478132D01*
X102058349Y-101497538D01*
X102065581Y-101517750D01*
X102070797Y-101538574D01*
X102073947Y-101559809D01*
X102075000Y-101581250D01*
X102075000Y-102018750D01*
X102073947Y-102040191D01*
X102070797Y-102061426D01*
X102065581Y-102082250D01*
X102058349Y-102102462D01*
X102049170Y-102121868D01*
X102038134Y-102140281D01*
X102025346Y-102157524D01*
X102010930Y-102173430D01*
X101995024Y-102187846D01*
X101977781Y-102200634D01*
X101959368Y-102211670D01*
X101939962Y-102220849D01*
X101919750Y-102228081D01*
X101898926Y-102233297D01*
X101877691Y-102236447D01*
X101856250Y-102237500D01*
X101343750Y-102237500D01*
X101322309Y-102236447D01*
X101301074Y-102233297D01*
X101280250Y-102228081D01*
X101260038Y-102220849D01*
X101240632Y-102211670D01*
X101222219Y-102200634D01*
X101204976Y-102187846D01*
X101189070Y-102173430D01*
X101174654Y-102157524D01*
X101161866Y-102140281D01*
X101150830Y-102121868D01*
X101141651Y-102102462D01*
X101134419Y-102082250D01*
X101129203Y-102061426D01*
X101126053Y-102040191D01*
X101125000Y-102018750D01*
X101125000Y-101581250D01*
X101126053Y-101559809D01*
X101129203Y-101538574D01*
X101134419Y-101517750D01*
X101141651Y-101497538D01*
X101150830Y-101478132D01*
X101161866Y-101459719D01*
X101174654Y-101442476D01*
X101189070Y-101426570D01*
X101204976Y-101412154D01*
X101222219Y-101399366D01*
X101240632Y-101388330D01*
X101260038Y-101379151D01*
X101280250Y-101371919D01*
X101301074Y-101366703D01*
X101322309Y-101363553D01*
X101343750Y-101362500D01*
X101856250Y-101362500D01*
X101877691Y-101363553D01*
X101877691Y-101363553D01*
G37*
D11*
X101600000Y-101800000D03*
D10*
G36*
X101877691Y-99788553D02*
X101898926Y-99791703D01*
X101919750Y-99796919D01*
X101939962Y-99804151D01*
X101959368Y-99813330D01*
X101977781Y-99824366D01*
X101995024Y-99837154D01*
X102010930Y-99851570D01*
X102025346Y-99867476D01*
X102038134Y-99884719D01*
X102049170Y-99903132D01*
X102058349Y-99922538D01*
X102065581Y-99942750D01*
X102070797Y-99963574D01*
X102073947Y-99984809D01*
X102075000Y-100006250D01*
X102075000Y-100443750D01*
X102073947Y-100465191D01*
X102070797Y-100486426D01*
X102065581Y-100507250D01*
X102058349Y-100527462D01*
X102049170Y-100546868D01*
X102038134Y-100565281D01*
X102025346Y-100582524D01*
X102010930Y-100598430D01*
X101995024Y-100612846D01*
X101977781Y-100625634D01*
X101959368Y-100636670D01*
X101939962Y-100645849D01*
X101919750Y-100653081D01*
X101898926Y-100658297D01*
X101877691Y-100661447D01*
X101856250Y-100662500D01*
X101343750Y-100662500D01*
X101322309Y-100661447D01*
X101301074Y-100658297D01*
X101280250Y-100653081D01*
X101260038Y-100645849D01*
X101240632Y-100636670D01*
X101222219Y-100625634D01*
X101204976Y-100612846D01*
X101189070Y-100598430D01*
X101174654Y-100582524D01*
X101161866Y-100565281D01*
X101150830Y-100546868D01*
X101141651Y-100527462D01*
X101134419Y-100507250D01*
X101129203Y-100486426D01*
X101126053Y-100465191D01*
X101125000Y-100443750D01*
X101125000Y-100006250D01*
X101126053Y-99984809D01*
X101129203Y-99963574D01*
X101134419Y-99942750D01*
X101141651Y-99922538D01*
X101150830Y-99903132D01*
X101161866Y-99884719D01*
X101174654Y-99867476D01*
X101189070Y-99851570D01*
X101204976Y-99837154D01*
X101222219Y-99824366D01*
X101240632Y-99813330D01*
X101260038Y-99804151D01*
X101280250Y-99796919D01*
X101301074Y-99791703D01*
X101322309Y-99788553D01*
X101343750Y-99787500D01*
X101856250Y-99787500D01*
X101877691Y-99788553D01*
X101877691Y-99788553D01*
G37*
D11*
X101600000Y-100225000D03*
G04 #@! TD*
D10*
G04 #@! TO.C,C47*
G36*
X105527691Y-89526053D02*
X105548926Y-89529203D01*
X105569750Y-89534419D01*
X105589962Y-89541651D01*
X105609368Y-89550830D01*
X105627781Y-89561866D01*
X105645024Y-89574654D01*
X105660930Y-89589070D01*
X105675346Y-89604976D01*
X105688134Y-89622219D01*
X105699170Y-89640632D01*
X105708349Y-89660038D01*
X105715581Y-89680250D01*
X105720797Y-89701074D01*
X105723947Y-89722309D01*
X105725000Y-89743750D01*
X105725000Y-90256250D01*
X105723947Y-90277691D01*
X105720797Y-90298926D01*
X105715581Y-90319750D01*
X105708349Y-90339962D01*
X105699170Y-90359368D01*
X105688134Y-90377781D01*
X105675346Y-90395024D01*
X105660930Y-90410930D01*
X105645024Y-90425346D01*
X105627781Y-90438134D01*
X105609368Y-90449170D01*
X105589962Y-90458349D01*
X105569750Y-90465581D01*
X105548926Y-90470797D01*
X105527691Y-90473947D01*
X105506250Y-90475000D01*
X105068750Y-90475000D01*
X105047309Y-90473947D01*
X105026074Y-90470797D01*
X105005250Y-90465581D01*
X104985038Y-90458349D01*
X104965632Y-90449170D01*
X104947219Y-90438134D01*
X104929976Y-90425346D01*
X104914070Y-90410930D01*
X104899654Y-90395024D01*
X104886866Y-90377781D01*
X104875830Y-90359368D01*
X104866651Y-90339962D01*
X104859419Y-90319750D01*
X104854203Y-90298926D01*
X104851053Y-90277691D01*
X104850000Y-90256250D01*
X104850000Y-89743750D01*
X104851053Y-89722309D01*
X104854203Y-89701074D01*
X104859419Y-89680250D01*
X104866651Y-89660038D01*
X104875830Y-89640632D01*
X104886866Y-89622219D01*
X104899654Y-89604976D01*
X104914070Y-89589070D01*
X104929976Y-89574654D01*
X104947219Y-89561866D01*
X104965632Y-89550830D01*
X104985038Y-89541651D01*
X105005250Y-89534419D01*
X105026074Y-89529203D01*
X105047309Y-89526053D01*
X105068750Y-89525000D01*
X105506250Y-89525000D01*
X105527691Y-89526053D01*
X105527691Y-89526053D01*
G37*
D11*
X105287500Y-90000000D03*
D10*
G36*
X103952691Y-89526053D02*
X103973926Y-89529203D01*
X103994750Y-89534419D01*
X104014962Y-89541651D01*
X104034368Y-89550830D01*
X104052781Y-89561866D01*
X104070024Y-89574654D01*
X104085930Y-89589070D01*
X104100346Y-89604976D01*
X104113134Y-89622219D01*
X104124170Y-89640632D01*
X104133349Y-89660038D01*
X104140581Y-89680250D01*
X104145797Y-89701074D01*
X104148947Y-89722309D01*
X104150000Y-89743750D01*
X104150000Y-90256250D01*
X104148947Y-90277691D01*
X104145797Y-90298926D01*
X104140581Y-90319750D01*
X104133349Y-90339962D01*
X104124170Y-90359368D01*
X104113134Y-90377781D01*
X104100346Y-90395024D01*
X104085930Y-90410930D01*
X104070024Y-90425346D01*
X104052781Y-90438134D01*
X104034368Y-90449170D01*
X104014962Y-90458349D01*
X103994750Y-90465581D01*
X103973926Y-90470797D01*
X103952691Y-90473947D01*
X103931250Y-90475000D01*
X103493750Y-90475000D01*
X103472309Y-90473947D01*
X103451074Y-90470797D01*
X103430250Y-90465581D01*
X103410038Y-90458349D01*
X103390632Y-90449170D01*
X103372219Y-90438134D01*
X103354976Y-90425346D01*
X103339070Y-90410930D01*
X103324654Y-90395024D01*
X103311866Y-90377781D01*
X103300830Y-90359368D01*
X103291651Y-90339962D01*
X103284419Y-90319750D01*
X103279203Y-90298926D01*
X103276053Y-90277691D01*
X103275000Y-90256250D01*
X103275000Y-89743750D01*
X103276053Y-89722309D01*
X103279203Y-89701074D01*
X103284419Y-89680250D01*
X103291651Y-89660038D01*
X103300830Y-89640632D01*
X103311866Y-89622219D01*
X103324654Y-89604976D01*
X103339070Y-89589070D01*
X103354976Y-89574654D01*
X103372219Y-89561866D01*
X103390632Y-89550830D01*
X103410038Y-89541651D01*
X103430250Y-89534419D01*
X103451074Y-89529203D01*
X103472309Y-89526053D01*
X103493750Y-89525000D01*
X103931250Y-89525000D01*
X103952691Y-89526053D01*
X103952691Y-89526053D01*
G37*
D11*
X103712500Y-90000000D03*
G04 #@! TD*
D10*
G04 #@! TO.C,C48*
G36*
X106877691Y-94338553D02*
X106898926Y-94341703D01*
X106919750Y-94346919D01*
X106939962Y-94354151D01*
X106959368Y-94363330D01*
X106977781Y-94374366D01*
X106995024Y-94387154D01*
X107010930Y-94401570D01*
X107025346Y-94417476D01*
X107038134Y-94434719D01*
X107049170Y-94453132D01*
X107058349Y-94472538D01*
X107065581Y-94492750D01*
X107070797Y-94513574D01*
X107073947Y-94534809D01*
X107075000Y-94556250D01*
X107075000Y-94993750D01*
X107073947Y-95015191D01*
X107070797Y-95036426D01*
X107065581Y-95057250D01*
X107058349Y-95077462D01*
X107049170Y-95096868D01*
X107038134Y-95115281D01*
X107025346Y-95132524D01*
X107010930Y-95148430D01*
X106995024Y-95162846D01*
X106977781Y-95175634D01*
X106959368Y-95186670D01*
X106939962Y-95195849D01*
X106919750Y-95203081D01*
X106898926Y-95208297D01*
X106877691Y-95211447D01*
X106856250Y-95212500D01*
X106343750Y-95212500D01*
X106322309Y-95211447D01*
X106301074Y-95208297D01*
X106280250Y-95203081D01*
X106260038Y-95195849D01*
X106240632Y-95186670D01*
X106222219Y-95175634D01*
X106204976Y-95162846D01*
X106189070Y-95148430D01*
X106174654Y-95132524D01*
X106161866Y-95115281D01*
X106150830Y-95096868D01*
X106141651Y-95077462D01*
X106134419Y-95057250D01*
X106129203Y-95036426D01*
X106126053Y-95015191D01*
X106125000Y-94993750D01*
X106125000Y-94556250D01*
X106126053Y-94534809D01*
X106129203Y-94513574D01*
X106134419Y-94492750D01*
X106141651Y-94472538D01*
X106150830Y-94453132D01*
X106161866Y-94434719D01*
X106174654Y-94417476D01*
X106189070Y-94401570D01*
X106204976Y-94387154D01*
X106222219Y-94374366D01*
X106240632Y-94363330D01*
X106260038Y-94354151D01*
X106280250Y-94346919D01*
X106301074Y-94341703D01*
X106322309Y-94338553D01*
X106343750Y-94337500D01*
X106856250Y-94337500D01*
X106877691Y-94338553D01*
X106877691Y-94338553D01*
G37*
D11*
X106600000Y-94775000D03*
D10*
G36*
X106877691Y-92763553D02*
X106898926Y-92766703D01*
X106919750Y-92771919D01*
X106939962Y-92779151D01*
X106959368Y-92788330D01*
X106977781Y-92799366D01*
X106995024Y-92812154D01*
X107010930Y-92826570D01*
X107025346Y-92842476D01*
X107038134Y-92859719D01*
X107049170Y-92878132D01*
X107058349Y-92897538D01*
X107065581Y-92917750D01*
X107070797Y-92938574D01*
X107073947Y-92959809D01*
X107075000Y-92981250D01*
X107075000Y-93418750D01*
X107073947Y-93440191D01*
X107070797Y-93461426D01*
X107065581Y-93482250D01*
X107058349Y-93502462D01*
X107049170Y-93521868D01*
X107038134Y-93540281D01*
X107025346Y-93557524D01*
X107010930Y-93573430D01*
X106995024Y-93587846D01*
X106977781Y-93600634D01*
X106959368Y-93611670D01*
X106939962Y-93620849D01*
X106919750Y-93628081D01*
X106898926Y-93633297D01*
X106877691Y-93636447D01*
X106856250Y-93637500D01*
X106343750Y-93637500D01*
X106322309Y-93636447D01*
X106301074Y-93633297D01*
X106280250Y-93628081D01*
X106260038Y-93620849D01*
X106240632Y-93611670D01*
X106222219Y-93600634D01*
X106204976Y-93587846D01*
X106189070Y-93573430D01*
X106174654Y-93557524D01*
X106161866Y-93540281D01*
X106150830Y-93521868D01*
X106141651Y-93502462D01*
X106134419Y-93482250D01*
X106129203Y-93461426D01*
X106126053Y-93440191D01*
X106125000Y-93418750D01*
X106125000Y-92981250D01*
X106126053Y-92959809D01*
X106129203Y-92938574D01*
X106134419Y-92917750D01*
X106141651Y-92897538D01*
X106150830Y-92878132D01*
X106161866Y-92859719D01*
X106174654Y-92842476D01*
X106189070Y-92826570D01*
X106204976Y-92812154D01*
X106222219Y-92799366D01*
X106240632Y-92788330D01*
X106260038Y-92779151D01*
X106280250Y-92771919D01*
X106301074Y-92766703D01*
X106322309Y-92763553D01*
X106343750Y-92762500D01*
X106856250Y-92762500D01*
X106877691Y-92763553D01*
X106877691Y-92763553D01*
G37*
D11*
X106600000Y-93200000D03*
G04 #@! TD*
D10*
G04 #@! TO.C,C49*
G36*
X101877691Y-95063553D02*
X101898926Y-95066703D01*
X101919750Y-95071919D01*
X101939962Y-95079151D01*
X101959368Y-95088330D01*
X101977781Y-95099366D01*
X101995024Y-95112154D01*
X102010930Y-95126570D01*
X102025346Y-95142476D01*
X102038134Y-95159719D01*
X102049170Y-95178132D01*
X102058349Y-95197538D01*
X102065581Y-95217750D01*
X102070797Y-95238574D01*
X102073947Y-95259809D01*
X102075000Y-95281250D01*
X102075000Y-95718750D01*
X102073947Y-95740191D01*
X102070797Y-95761426D01*
X102065581Y-95782250D01*
X102058349Y-95802462D01*
X102049170Y-95821868D01*
X102038134Y-95840281D01*
X102025346Y-95857524D01*
X102010930Y-95873430D01*
X101995024Y-95887846D01*
X101977781Y-95900634D01*
X101959368Y-95911670D01*
X101939962Y-95920849D01*
X101919750Y-95928081D01*
X101898926Y-95933297D01*
X101877691Y-95936447D01*
X101856250Y-95937500D01*
X101343750Y-95937500D01*
X101322309Y-95936447D01*
X101301074Y-95933297D01*
X101280250Y-95928081D01*
X101260038Y-95920849D01*
X101240632Y-95911670D01*
X101222219Y-95900634D01*
X101204976Y-95887846D01*
X101189070Y-95873430D01*
X101174654Y-95857524D01*
X101161866Y-95840281D01*
X101150830Y-95821868D01*
X101141651Y-95802462D01*
X101134419Y-95782250D01*
X101129203Y-95761426D01*
X101126053Y-95740191D01*
X101125000Y-95718750D01*
X101125000Y-95281250D01*
X101126053Y-95259809D01*
X101129203Y-95238574D01*
X101134419Y-95217750D01*
X101141651Y-95197538D01*
X101150830Y-95178132D01*
X101161866Y-95159719D01*
X101174654Y-95142476D01*
X101189070Y-95126570D01*
X101204976Y-95112154D01*
X101222219Y-95099366D01*
X101240632Y-95088330D01*
X101260038Y-95079151D01*
X101280250Y-95071919D01*
X101301074Y-95066703D01*
X101322309Y-95063553D01*
X101343750Y-95062500D01*
X101856250Y-95062500D01*
X101877691Y-95063553D01*
X101877691Y-95063553D01*
G37*
D11*
X101600000Y-95500000D03*
D10*
G36*
X101877691Y-93488553D02*
X101898926Y-93491703D01*
X101919750Y-93496919D01*
X101939962Y-93504151D01*
X101959368Y-93513330D01*
X101977781Y-93524366D01*
X101995024Y-93537154D01*
X102010930Y-93551570D01*
X102025346Y-93567476D01*
X102038134Y-93584719D01*
X102049170Y-93603132D01*
X102058349Y-93622538D01*
X102065581Y-93642750D01*
X102070797Y-93663574D01*
X102073947Y-93684809D01*
X102075000Y-93706250D01*
X102075000Y-94143750D01*
X102073947Y-94165191D01*
X102070797Y-94186426D01*
X102065581Y-94207250D01*
X102058349Y-94227462D01*
X102049170Y-94246868D01*
X102038134Y-94265281D01*
X102025346Y-94282524D01*
X102010930Y-94298430D01*
X101995024Y-94312846D01*
X101977781Y-94325634D01*
X101959368Y-94336670D01*
X101939962Y-94345849D01*
X101919750Y-94353081D01*
X101898926Y-94358297D01*
X101877691Y-94361447D01*
X101856250Y-94362500D01*
X101343750Y-94362500D01*
X101322309Y-94361447D01*
X101301074Y-94358297D01*
X101280250Y-94353081D01*
X101260038Y-94345849D01*
X101240632Y-94336670D01*
X101222219Y-94325634D01*
X101204976Y-94312846D01*
X101189070Y-94298430D01*
X101174654Y-94282524D01*
X101161866Y-94265281D01*
X101150830Y-94246868D01*
X101141651Y-94227462D01*
X101134419Y-94207250D01*
X101129203Y-94186426D01*
X101126053Y-94165191D01*
X101125000Y-94143750D01*
X101125000Y-93706250D01*
X101126053Y-93684809D01*
X101129203Y-93663574D01*
X101134419Y-93642750D01*
X101141651Y-93622538D01*
X101150830Y-93603132D01*
X101161866Y-93584719D01*
X101174654Y-93567476D01*
X101189070Y-93551570D01*
X101204976Y-93537154D01*
X101222219Y-93524366D01*
X101240632Y-93513330D01*
X101260038Y-93504151D01*
X101280250Y-93496919D01*
X101301074Y-93491703D01*
X101322309Y-93488553D01*
X101343750Y-93487500D01*
X101856250Y-93487500D01*
X101877691Y-93488553D01*
X101877691Y-93488553D01*
G37*
D11*
X101600000Y-93925000D03*
G04 #@! TD*
D10*
G04 #@! TO.C,C50*
G36*
X105427691Y-91126053D02*
X105448926Y-91129203D01*
X105469750Y-91134419D01*
X105489962Y-91141651D01*
X105509368Y-91150830D01*
X105527781Y-91161866D01*
X105545024Y-91174654D01*
X105560930Y-91189070D01*
X105575346Y-91204976D01*
X105588134Y-91222219D01*
X105599170Y-91240632D01*
X105608349Y-91260038D01*
X105615581Y-91280250D01*
X105620797Y-91301074D01*
X105623947Y-91322309D01*
X105625000Y-91343750D01*
X105625000Y-91856250D01*
X105623947Y-91877691D01*
X105620797Y-91898926D01*
X105615581Y-91919750D01*
X105608349Y-91939962D01*
X105599170Y-91959368D01*
X105588134Y-91977781D01*
X105575346Y-91995024D01*
X105560930Y-92010930D01*
X105545024Y-92025346D01*
X105527781Y-92038134D01*
X105509368Y-92049170D01*
X105489962Y-92058349D01*
X105469750Y-92065581D01*
X105448926Y-92070797D01*
X105427691Y-92073947D01*
X105406250Y-92075000D01*
X104968750Y-92075000D01*
X104947309Y-92073947D01*
X104926074Y-92070797D01*
X104905250Y-92065581D01*
X104885038Y-92058349D01*
X104865632Y-92049170D01*
X104847219Y-92038134D01*
X104829976Y-92025346D01*
X104814070Y-92010930D01*
X104799654Y-91995024D01*
X104786866Y-91977781D01*
X104775830Y-91959368D01*
X104766651Y-91939962D01*
X104759419Y-91919750D01*
X104754203Y-91898926D01*
X104751053Y-91877691D01*
X104750000Y-91856250D01*
X104750000Y-91343750D01*
X104751053Y-91322309D01*
X104754203Y-91301074D01*
X104759419Y-91280250D01*
X104766651Y-91260038D01*
X104775830Y-91240632D01*
X104786866Y-91222219D01*
X104799654Y-91204976D01*
X104814070Y-91189070D01*
X104829976Y-91174654D01*
X104847219Y-91161866D01*
X104865632Y-91150830D01*
X104885038Y-91141651D01*
X104905250Y-91134419D01*
X104926074Y-91129203D01*
X104947309Y-91126053D01*
X104968750Y-91125000D01*
X105406250Y-91125000D01*
X105427691Y-91126053D01*
X105427691Y-91126053D01*
G37*
D11*
X105187500Y-91600000D03*
D10*
G36*
X103852691Y-91126053D02*
X103873926Y-91129203D01*
X103894750Y-91134419D01*
X103914962Y-91141651D01*
X103934368Y-91150830D01*
X103952781Y-91161866D01*
X103970024Y-91174654D01*
X103985930Y-91189070D01*
X104000346Y-91204976D01*
X104013134Y-91222219D01*
X104024170Y-91240632D01*
X104033349Y-91260038D01*
X104040581Y-91280250D01*
X104045797Y-91301074D01*
X104048947Y-91322309D01*
X104050000Y-91343750D01*
X104050000Y-91856250D01*
X104048947Y-91877691D01*
X104045797Y-91898926D01*
X104040581Y-91919750D01*
X104033349Y-91939962D01*
X104024170Y-91959368D01*
X104013134Y-91977781D01*
X104000346Y-91995024D01*
X103985930Y-92010930D01*
X103970024Y-92025346D01*
X103952781Y-92038134D01*
X103934368Y-92049170D01*
X103914962Y-92058349D01*
X103894750Y-92065581D01*
X103873926Y-92070797D01*
X103852691Y-92073947D01*
X103831250Y-92075000D01*
X103393750Y-92075000D01*
X103372309Y-92073947D01*
X103351074Y-92070797D01*
X103330250Y-92065581D01*
X103310038Y-92058349D01*
X103290632Y-92049170D01*
X103272219Y-92038134D01*
X103254976Y-92025346D01*
X103239070Y-92010930D01*
X103224654Y-91995024D01*
X103211866Y-91977781D01*
X103200830Y-91959368D01*
X103191651Y-91939962D01*
X103184419Y-91919750D01*
X103179203Y-91898926D01*
X103176053Y-91877691D01*
X103175000Y-91856250D01*
X103175000Y-91343750D01*
X103176053Y-91322309D01*
X103179203Y-91301074D01*
X103184419Y-91280250D01*
X103191651Y-91260038D01*
X103200830Y-91240632D01*
X103211866Y-91222219D01*
X103224654Y-91204976D01*
X103239070Y-91189070D01*
X103254976Y-91174654D01*
X103272219Y-91161866D01*
X103290632Y-91150830D01*
X103310038Y-91141651D01*
X103330250Y-91134419D01*
X103351074Y-91129203D01*
X103372309Y-91126053D01*
X103393750Y-91125000D01*
X103831250Y-91125000D01*
X103852691Y-91126053D01*
X103852691Y-91126053D01*
G37*
D11*
X103612500Y-91600000D03*
G04 #@! TD*
D10*
G04 #@! TO.C,C51*
G36*
X106677691Y-101351053D02*
X106698926Y-101354203D01*
X106719750Y-101359419D01*
X106739962Y-101366651D01*
X106759368Y-101375830D01*
X106777781Y-101386866D01*
X106795024Y-101399654D01*
X106810930Y-101414070D01*
X106825346Y-101429976D01*
X106838134Y-101447219D01*
X106849170Y-101465632D01*
X106858349Y-101485038D01*
X106865581Y-101505250D01*
X106870797Y-101526074D01*
X106873947Y-101547309D01*
X106875000Y-101568750D01*
X106875000Y-102006250D01*
X106873947Y-102027691D01*
X106870797Y-102048926D01*
X106865581Y-102069750D01*
X106858349Y-102089962D01*
X106849170Y-102109368D01*
X106838134Y-102127781D01*
X106825346Y-102145024D01*
X106810930Y-102160930D01*
X106795024Y-102175346D01*
X106777781Y-102188134D01*
X106759368Y-102199170D01*
X106739962Y-102208349D01*
X106719750Y-102215581D01*
X106698926Y-102220797D01*
X106677691Y-102223947D01*
X106656250Y-102225000D01*
X106143750Y-102225000D01*
X106122309Y-102223947D01*
X106101074Y-102220797D01*
X106080250Y-102215581D01*
X106060038Y-102208349D01*
X106040632Y-102199170D01*
X106022219Y-102188134D01*
X106004976Y-102175346D01*
X105989070Y-102160930D01*
X105974654Y-102145024D01*
X105961866Y-102127781D01*
X105950830Y-102109368D01*
X105941651Y-102089962D01*
X105934419Y-102069750D01*
X105929203Y-102048926D01*
X105926053Y-102027691D01*
X105925000Y-102006250D01*
X105925000Y-101568750D01*
X105926053Y-101547309D01*
X105929203Y-101526074D01*
X105934419Y-101505250D01*
X105941651Y-101485038D01*
X105950830Y-101465632D01*
X105961866Y-101447219D01*
X105974654Y-101429976D01*
X105989070Y-101414070D01*
X106004976Y-101399654D01*
X106022219Y-101386866D01*
X106040632Y-101375830D01*
X106060038Y-101366651D01*
X106080250Y-101359419D01*
X106101074Y-101354203D01*
X106122309Y-101351053D01*
X106143750Y-101350000D01*
X106656250Y-101350000D01*
X106677691Y-101351053D01*
X106677691Y-101351053D01*
G37*
D11*
X106400000Y-101787500D03*
D10*
G36*
X106677691Y-99776053D02*
X106698926Y-99779203D01*
X106719750Y-99784419D01*
X106739962Y-99791651D01*
X106759368Y-99800830D01*
X106777781Y-99811866D01*
X106795024Y-99824654D01*
X106810930Y-99839070D01*
X106825346Y-99854976D01*
X106838134Y-99872219D01*
X106849170Y-99890632D01*
X106858349Y-99910038D01*
X106865581Y-99930250D01*
X106870797Y-99951074D01*
X106873947Y-99972309D01*
X106875000Y-99993750D01*
X106875000Y-100431250D01*
X106873947Y-100452691D01*
X106870797Y-100473926D01*
X106865581Y-100494750D01*
X106858349Y-100514962D01*
X106849170Y-100534368D01*
X106838134Y-100552781D01*
X106825346Y-100570024D01*
X106810930Y-100585930D01*
X106795024Y-100600346D01*
X106777781Y-100613134D01*
X106759368Y-100624170D01*
X106739962Y-100633349D01*
X106719750Y-100640581D01*
X106698926Y-100645797D01*
X106677691Y-100648947D01*
X106656250Y-100650000D01*
X106143750Y-100650000D01*
X106122309Y-100648947D01*
X106101074Y-100645797D01*
X106080250Y-100640581D01*
X106060038Y-100633349D01*
X106040632Y-100624170D01*
X106022219Y-100613134D01*
X106004976Y-100600346D01*
X105989070Y-100585930D01*
X105974654Y-100570024D01*
X105961866Y-100552781D01*
X105950830Y-100534368D01*
X105941651Y-100514962D01*
X105934419Y-100494750D01*
X105929203Y-100473926D01*
X105926053Y-100452691D01*
X105925000Y-100431250D01*
X105925000Y-99993750D01*
X105926053Y-99972309D01*
X105929203Y-99951074D01*
X105934419Y-99930250D01*
X105941651Y-99910038D01*
X105950830Y-99890632D01*
X105961866Y-99872219D01*
X105974654Y-99854976D01*
X105989070Y-99839070D01*
X106004976Y-99824654D01*
X106022219Y-99811866D01*
X106040632Y-99800830D01*
X106060038Y-99791651D01*
X106080250Y-99784419D01*
X106101074Y-99779203D01*
X106122309Y-99776053D01*
X106143750Y-99775000D01*
X106656250Y-99775000D01*
X106677691Y-99776053D01*
X106677691Y-99776053D01*
G37*
D11*
X106400000Y-100212500D03*
G04 #@! TD*
D10*
G04 #@! TO.C,C53*
G36*
X101877691Y-102976053D02*
X101898926Y-102979203D01*
X101919750Y-102984419D01*
X101939962Y-102991651D01*
X101959368Y-103000830D01*
X101977781Y-103011866D01*
X101995024Y-103024654D01*
X102010930Y-103039070D01*
X102025346Y-103054976D01*
X102038134Y-103072219D01*
X102049170Y-103090632D01*
X102058349Y-103110038D01*
X102065581Y-103130250D01*
X102070797Y-103151074D01*
X102073947Y-103172309D01*
X102075000Y-103193750D01*
X102075000Y-103631250D01*
X102073947Y-103652691D01*
X102070797Y-103673926D01*
X102065581Y-103694750D01*
X102058349Y-103714962D01*
X102049170Y-103734368D01*
X102038134Y-103752781D01*
X102025346Y-103770024D01*
X102010930Y-103785930D01*
X101995024Y-103800346D01*
X101977781Y-103813134D01*
X101959368Y-103824170D01*
X101939962Y-103833349D01*
X101919750Y-103840581D01*
X101898926Y-103845797D01*
X101877691Y-103848947D01*
X101856250Y-103850000D01*
X101343750Y-103850000D01*
X101322309Y-103848947D01*
X101301074Y-103845797D01*
X101280250Y-103840581D01*
X101260038Y-103833349D01*
X101240632Y-103824170D01*
X101222219Y-103813134D01*
X101204976Y-103800346D01*
X101189070Y-103785930D01*
X101174654Y-103770024D01*
X101161866Y-103752781D01*
X101150830Y-103734368D01*
X101141651Y-103714962D01*
X101134419Y-103694750D01*
X101129203Y-103673926D01*
X101126053Y-103652691D01*
X101125000Y-103631250D01*
X101125000Y-103193750D01*
X101126053Y-103172309D01*
X101129203Y-103151074D01*
X101134419Y-103130250D01*
X101141651Y-103110038D01*
X101150830Y-103090632D01*
X101161866Y-103072219D01*
X101174654Y-103054976D01*
X101189070Y-103039070D01*
X101204976Y-103024654D01*
X101222219Y-103011866D01*
X101240632Y-103000830D01*
X101260038Y-102991651D01*
X101280250Y-102984419D01*
X101301074Y-102979203D01*
X101322309Y-102976053D01*
X101343750Y-102975000D01*
X101856250Y-102975000D01*
X101877691Y-102976053D01*
X101877691Y-102976053D01*
G37*
D11*
X101600000Y-103412500D03*
D10*
G36*
X101877691Y-104551053D02*
X101898926Y-104554203D01*
X101919750Y-104559419D01*
X101939962Y-104566651D01*
X101959368Y-104575830D01*
X101977781Y-104586866D01*
X101995024Y-104599654D01*
X102010930Y-104614070D01*
X102025346Y-104629976D01*
X102038134Y-104647219D01*
X102049170Y-104665632D01*
X102058349Y-104685038D01*
X102065581Y-104705250D01*
X102070797Y-104726074D01*
X102073947Y-104747309D01*
X102075000Y-104768750D01*
X102075000Y-105206250D01*
X102073947Y-105227691D01*
X102070797Y-105248926D01*
X102065581Y-105269750D01*
X102058349Y-105289962D01*
X102049170Y-105309368D01*
X102038134Y-105327781D01*
X102025346Y-105345024D01*
X102010930Y-105360930D01*
X101995024Y-105375346D01*
X101977781Y-105388134D01*
X101959368Y-105399170D01*
X101939962Y-105408349D01*
X101919750Y-105415581D01*
X101898926Y-105420797D01*
X101877691Y-105423947D01*
X101856250Y-105425000D01*
X101343750Y-105425000D01*
X101322309Y-105423947D01*
X101301074Y-105420797D01*
X101280250Y-105415581D01*
X101260038Y-105408349D01*
X101240632Y-105399170D01*
X101222219Y-105388134D01*
X101204976Y-105375346D01*
X101189070Y-105360930D01*
X101174654Y-105345024D01*
X101161866Y-105327781D01*
X101150830Y-105309368D01*
X101141651Y-105289962D01*
X101134419Y-105269750D01*
X101129203Y-105248926D01*
X101126053Y-105227691D01*
X101125000Y-105206250D01*
X101125000Y-104768750D01*
X101126053Y-104747309D01*
X101129203Y-104726074D01*
X101134419Y-104705250D01*
X101141651Y-104685038D01*
X101150830Y-104665632D01*
X101161866Y-104647219D01*
X101174654Y-104629976D01*
X101189070Y-104614070D01*
X101204976Y-104599654D01*
X101222219Y-104586866D01*
X101240632Y-104575830D01*
X101260038Y-104566651D01*
X101280250Y-104559419D01*
X101301074Y-104554203D01*
X101322309Y-104551053D01*
X101343750Y-104550000D01*
X101856250Y-104550000D01*
X101877691Y-104551053D01*
X101877691Y-104551053D01*
G37*
D11*
X101600000Y-104987500D03*
G04 #@! TD*
D10*
G04 #@! TO.C,C54*
G36*
X100277691Y-94451053D02*
X100298926Y-94454203D01*
X100319750Y-94459419D01*
X100339962Y-94466651D01*
X100359368Y-94475830D01*
X100377781Y-94486866D01*
X100395024Y-94499654D01*
X100410930Y-94514070D01*
X100425346Y-94529976D01*
X100438134Y-94547219D01*
X100449170Y-94565632D01*
X100458349Y-94585038D01*
X100465581Y-94605250D01*
X100470797Y-94626074D01*
X100473947Y-94647309D01*
X100475000Y-94668750D01*
X100475000Y-95106250D01*
X100473947Y-95127691D01*
X100470797Y-95148926D01*
X100465581Y-95169750D01*
X100458349Y-95189962D01*
X100449170Y-95209368D01*
X100438134Y-95227781D01*
X100425346Y-95245024D01*
X100410930Y-95260930D01*
X100395024Y-95275346D01*
X100377781Y-95288134D01*
X100359368Y-95299170D01*
X100339962Y-95308349D01*
X100319750Y-95315581D01*
X100298926Y-95320797D01*
X100277691Y-95323947D01*
X100256250Y-95325000D01*
X99743750Y-95325000D01*
X99722309Y-95323947D01*
X99701074Y-95320797D01*
X99680250Y-95315581D01*
X99660038Y-95308349D01*
X99640632Y-95299170D01*
X99622219Y-95288134D01*
X99604976Y-95275346D01*
X99589070Y-95260930D01*
X99574654Y-95245024D01*
X99561866Y-95227781D01*
X99550830Y-95209368D01*
X99541651Y-95189962D01*
X99534419Y-95169750D01*
X99529203Y-95148926D01*
X99526053Y-95127691D01*
X99525000Y-95106250D01*
X99525000Y-94668750D01*
X99526053Y-94647309D01*
X99529203Y-94626074D01*
X99534419Y-94605250D01*
X99541651Y-94585038D01*
X99550830Y-94565632D01*
X99561866Y-94547219D01*
X99574654Y-94529976D01*
X99589070Y-94514070D01*
X99604976Y-94499654D01*
X99622219Y-94486866D01*
X99640632Y-94475830D01*
X99660038Y-94466651D01*
X99680250Y-94459419D01*
X99701074Y-94454203D01*
X99722309Y-94451053D01*
X99743750Y-94450000D01*
X100256250Y-94450000D01*
X100277691Y-94451053D01*
X100277691Y-94451053D01*
G37*
D11*
X100000000Y-94887500D03*
D10*
G36*
X100277691Y-92876053D02*
X100298926Y-92879203D01*
X100319750Y-92884419D01*
X100339962Y-92891651D01*
X100359368Y-92900830D01*
X100377781Y-92911866D01*
X100395024Y-92924654D01*
X100410930Y-92939070D01*
X100425346Y-92954976D01*
X100438134Y-92972219D01*
X100449170Y-92990632D01*
X100458349Y-93010038D01*
X100465581Y-93030250D01*
X100470797Y-93051074D01*
X100473947Y-93072309D01*
X100475000Y-93093750D01*
X100475000Y-93531250D01*
X100473947Y-93552691D01*
X100470797Y-93573926D01*
X100465581Y-93594750D01*
X100458349Y-93614962D01*
X100449170Y-93634368D01*
X100438134Y-93652781D01*
X100425346Y-93670024D01*
X100410930Y-93685930D01*
X100395024Y-93700346D01*
X100377781Y-93713134D01*
X100359368Y-93724170D01*
X100339962Y-93733349D01*
X100319750Y-93740581D01*
X100298926Y-93745797D01*
X100277691Y-93748947D01*
X100256250Y-93750000D01*
X99743750Y-93750000D01*
X99722309Y-93748947D01*
X99701074Y-93745797D01*
X99680250Y-93740581D01*
X99660038Y-93733349D01*
X99640632Y-93724170D01*
X99622219Y-93713134D01*
X99604976Y-93700346D01*
X99589070Y-93685930D01*
X99574654Y-93670024D01*
X99561866Y-93652781D01*
X99550830Y-93634368D01*
X99541651Y-93614962D01*
X99534419Y-93594750D01*
X99529203Y-93573926D01*
X99526053Y-93552691D01*
X99525000Y-93531250D01*
X99525000Y-93093750D01*
X99526053Y-93072309D01*
X99529203Y-93051074D01*
X99534419Y-93030250D01*
X99541651Y-93010038D01*
X99550830Y-92990632D01*
X99561866Y-92972219D01*
X99574654Y-92954976D01*
X99589070Y-92939070D01*
X99604976Y-92924654D01*
X99622219Y-92911866D01*
X99640632Y-92900830D01*
X99660038Y-92891651D01*
X99680250Y-92884419D01*
X99701074Y-92879203D01*
X99722309Y-92876053D01*
X99743750Y-92875000D01*
X100256250Y-92875000D01*
X100277691Y-92876053D01*
X100277691Y-92876053D01*
G37*
D11*
X100000000Y-93312500D03*
G04 #@! TD*
D10*
G04 #@! TO.C,C56*
G36*
X105527691Y-87326053D02*
X105548926Y-87329203D01*
X105569750Y-87334419D01*
X105589962Y-87341651D01*
X105609368Y-87350830D01*
X105627781Y-87361866D01*
X105645024Y-87374654D01*
X105660930Y-87389070D01*
X105675346Y-87404976D01*
X105688134Y-87422219D01*
X105699170Y-87440632D01*
X105708349Y-87460038D01*
X105715581Y-87480250D01*
X105720797Y-87501074D01*
X105723947Y-87522309D01*
X105725000Y-87543750D01*
X105725000Y-88056250D01*
X105723947Y-88077691D01*
X105720797Y-88098926D01*
X105715581Y-88119750D01*
X105708349Y-88139962D01*
X105699170Y-88159368D01*
X105688134Y-88177781D01*
X105675346Y-88195024D01*
X105660930Y-88210930D01*
X105645024Y-88225346D01*
X105627781Y-88238134D01*
X105609368Y-88249170D01*
X105589962Y-88258349D01*
X105569750Y-88265581D01*
X105548926Y-88270797D01*
X105527691Y-88273947D01*
X105506250Y-88275000D01*
X105068750Y-88275000D01*
X105047309Y-88273947D01*
X105026074Y-88270797D01*
X105005250Y-88265581D01*
X104985038Y-88258349D01*
X104965632Y-88249170D01*
X104947219Y-88238134D01*
X104929976Y-88225346D01*
X104914070Y-88210930D01*
X104899654Y-88195024D01*
X104886866Y-88177781D01*
X104875830Y-88159368D01*
X104866651Y-88139962D01*
X104859419Y-88119750D01*
X104854203Y-88098926D01*
X104851053Y-88077691D01*
X104850000Y-88056250D01*
X104850000Y-87543750D01*
X104851053Y-87522309D01*
X104854203Y-87501074D01*
X104859419Y-87480250D01*
X104866651Y-87460038D01*
X104875830Y-87440632D01*
X104886866Y-87422219D01*
X104899654Y-87404976D01*
X104914070Y-87389070D01*
X104929976Y-87374654D01*
X104947219Y-87361866D01*
X104965632Y-87350830D01*
X104985038Y-87341651D01*
X105005250Y-87334419D01*
X105026074Y-87329203D01*
X105047309Y-87326053D01*
X105068750Y-87325000D01*
X105506250Y-87325000D01*
X105527691Y-87326053D01*
X105527691Y-87326053D01*
G37*
D11*
X105287500Y-87800000D03*
D10*
G36*
X103952691Y-87326053D02*
X103973926Y-87329203D01*
X103994750Y-87334419D01*
X104014962Y-87341651D01*
X104034368Y-87350830D01*
X104052781Y-87361866D01*
X104070024Y-87374654D01*
X104085930Y-87389070D01*
X104100346Y-87404976D01*
X104113134Y-87422219D01*
X104124170Y-87440632D01*
X104133349Y-87460038D01*
X104140581Y-87480250D01*
X104145797Y-87501074D01*
X104148947Y-87522309D01*
X104150000Y-87543750D01*
X104150000Y-88056250D01*
X104148947Y-88077691D01*
X104145797Y-88098926D01*
X104140581Y-88119750D01*
X104133349Y-88139962D01*
X104124170Y-88159368D01*
X104113134Y-88177781D01*
X104100346Y-88195024D01*
X104085930Y-88210930D01*
X104070024Y-88225346D01*
X104052781Y-88238134D01*
X104034368Y-88249170D01*
X104014962Y-88258349D01*
X103994750Y-88265581D01*
X103973926Y-88270797D01*
X103952691Y-88273947D01*
X103931250Y-88275000D01*
X103493750Y-88275000D01*
X103472309Y-88273947D01*
X103451074Y-88270797D01*
X103430250Y-88265581D01*
X103410038Y-88258349D01*
X103390632Y-88249170D01*
X103372219Y-88238134D01*
X103354976Y-88225346D01*
X103339070Y-88210930D01*
X103324654Y-88195024D01*
X103311866Y-88177781D01*
X103300830Y-88159368D01*
X103291651Y-88139962D01*
X103284419Y-88119750D01*
X103279203Y-88098926D01*
X103276053Y-88077691D01*
X103275000Y-88056250D01*
X103275000Y-87543750D01*
X103276053Y-87522309D01*
X103279203Y-87501074D01*
X103284419Y-87480250D01*
X103291651Y-87460038D01*
X103300830Y-87440632D01*
X103311866Y-87422219D01*
X103324654Y-87404976D01*
X103339070Y-87389070D01*
X103354976Y-87374654D01*
X103372219Y-87361866D01*
X103390632Y-87350830D01*
X103410038Y-87341651D01*
X103430250Y-87334419D01*
X103451074Y-87329203D01*
X103472309Y-87326053D01*
X103493750Y-87325000D01*
X103931250Y-87325000D01*
X103952691Y-87326053D01*
X103952691Y-87326053D01*
G37*
D11*
X103712500Y-87800000D03*
G04 #@! TD*
D10*
G04 #@! TO.C,C58*
G36*
X105077691Y-102976053D02*
X105098926Y-102979203D01*
X105119750Y-102984419D01*
X105139962Y-102991651D01*
X105159368Y-103000830D01*
X105177781Y-103011866D01*
X105195024Y-103024654D01*
X105210930Y-103039070D01*
X105225346Y-103054976D01*
X105238134Y-103072219D01*
X105249170Y-103090632D01*
X105258349Y-103110038D01*
X105265581Y-103130250D01*
X105270797Y-103151074D01*
X105273947Y-103172309D01*
X105275000Y-103193750D01*
X105275000Y-103631250D01*
X105273947Y-103652691D01*
X105270797Y-103673926D01*
X105265581Y-103694750D01*
X105258349Y-103714962D01*
X105249170Y-103734368D01*
X105238134Y-103752781D01*
X105225346Y-103770024D01*
X105210930Y-103785930D01*
X105195024Y-103800346D01*
X105177781Y-103813134D01*
X105159368Y-103824170D01*
X105139962Y-103833349D01*
X105119750Y-103840581D01*
X105098926Y-103845797D01*
X105077691Y-103848947D01*
X105056250Y-103850000D01*
X104543750Y-103850000D01*
X104522309Y-103848947D01*
X104501074Y-103845797D01*
X104480250Y-103840581D01*
X104460038Y-103833349D01*
X104440632Y-103824170D01*
X104422219Y-103813134D01*
X104404976Y-103800346D01*
X104389070Y-103785930D01*
X104374654Y-103770024D01*
X104361866Y-103752781D01*
X104350830Y-103734368D01*
X104341651Y-103714962D01*
X104334419Y-103694750D01*
X104329203Y-103673926D01*
X104326053Y-103652691D01*
X104325000Y-103631250D01*
X104325000Y-103193750D01*
X104326053Y-103172309D01*
X104329203Y-103151074D01*
X104334419Y-103130250D01*
X104341651Y-103110038D01*
X104350830Y-103090632D01*
X104361866Y-103072219D01*
X104374654Y-103054976D01*
X104389070Y-103039070D01*
X104404976Y-103024654D01*
X104422219Y-103011866D01*
X104440632Y-103000830D01*
X104460038Y-102991651D01*
X104480250Y-102984419D01*
X104501074Y-102979203D01*
X104522309Y-102976053D01*
X104543750Y-102975000D01*
X105056250Y-102975000D01*
X105077691Y-102976053D01*
X105077691Y-102976053D01*
G37*
D11*
X104800000Y-103412500D03*
D10*
G36*
X105077691Y-104551053D02*
X105098926Y-104554203D01*
X105119750Y-104559419D01*
X105139962Y-104566651D01*
X105159368Y-104575830D01*
X105177781Y-104586866D01*
X105195024Y-104599654D01*
X105210930Y-104614070D01*
X105225346Y-104629976D01*
X105238134Y-104647219D01*
X105249170Y-104665632D01*
X105258349Y-104685038D01*
X105265581Y-104705250D01*
X105270797Y-104726074D01*
X105273947Y-104747309D01*
X105275000Y-104768750D01*
X105275000Y-105206250D01*
X105273947Y-105227691D01*
X105270797Y-105248926D01*
X105265581Y-105269750D01*
X105258349Y-105289962D01*
X105249170Y-105309368D01*
X105238134Y-105327781D01*
X105225346Y-105345024D01*
X105210930Y-105360930D01*
X105195024Y-105375346D01*
X105177781Y-105388134D01*
X105159368Y-105399170D01*
X105139962Y-105408349D01*
X105119750Y-105415581D01*
X105098926Y-105420797D01*
X105077691Y-105423947D01*
X105056250Y-105425000D01*
X104543750Y-105425000D01*
X104522309Y-105423947D01*
X104501074Y-105420797D01*
X104480250Y-105415581D01*
X104460038Y-105408349D01*
X104440632Y-105399170D01*
X104422219Y-105388134D01*
X104404976Y-105375346D01*
X104389070Y-105360930D01*
X104374654Y-105345024D01*
X104361866Y-105327781D01*
X104350830Y-105309368D01*
X104341651Y-105289962D01*
X104334419Y-105269750D01*
X104329203Y-105248926D01*
X104326053Y-105227691D01*
X104325000Y-105206250D01*
X104325000Y-104768750D01*
X104326053Y-104747309D01*
X104329203Y-104726074D01*
X104334419Y-104705250D01*
X104341651Y-104685038D01*
X104350830Y-104665632D01*
X104361866Y-104647219D01*
X104374654Y-104629976D01*
X104389070Y-104614070D01*
X104404976Y-104599654D01*
X104422219Y-104586866D01*
X104440632Y-104575830D01*
X104460038Y-104566651D01*
X104480250Y-104559419D01*
X104501074Y-104554203D01*
X104522309Y-104551053D01*
X104543750Y-104550000D01*
X105056250Y-104550000D01*
X105077691Y-104551053D01*
X105077691Y-104551053D01*
G37*
D11*
X104800000Y-104987500D03*
G04 #@! TD*
D10*
G04 #@! TO.C,C59*
G36*
X105077691Y-101363553D02*
X105098926Y-101366703D01*
X105119750Y-101371919D01*
X105139962Y-101379151D01*
X105159368Y-101388330D01*
X105177781Y-101399366D01*
X105195024Y-101412154D01*
X105210930Y-101426570D01*
X105225346Y-101442476D01*
X105238134Y-101459719D01*
X105249170Y-101478132D01*
X105258349Y-101497538D01*
X105265581Y-101517750D01*
X105270797Y-101538574D01*
X105273947Y-101559809D01*
X105275000Y-101581250D01*
X105275000Y-102018750D01*
X105273947Y-102040191D01*
X105270797Y-102061426D01*
X105265581Y-102082250D01*
X105258349Y-102102462D01*
X105249170Y-102121868D01*
X105238134Y-102140281D01*
X105225346Y-102157524D01*
X105210930Y-102173430D01*
X105195024Y-102187846D01*
X105177781Y-102200634D01*
X105159368Y-102211670D01*
X105139962Y-102220849D01*
X105119750Y-102228081D01*
X105098926Y-102233297D01*
X105077691Y-102236447D01*
X105056250Y-102237500D01*
X104543750Y-102237500D01*
X104522309Y-102236447D01*
X104501074Y-102233297D01*
X104480250Y-102228081D01*
X104460038Y-102220849D01*
X104440632Y-102211670D01*
X104422219Y-102200634D01*
X104404976Y-102187846D01*
X104389070Y-102173430D01*
X104374654Y-102157524D01*
X104361866Y-102140281D01*
X104350830Y-102121868D01*
X104341651Y-102102462D01*
X104334419Y-102082250D01*
X104329203Y-102061426D01*
X104326053Y-102040191D01*
X104325000Y-102018750D01*
X104325000Y-101581250D01*
X104326053Y-101559809D01*
X104329203Y-101538574D01*
X104334419Y-101517750D01*
X104341651Y-101497538D01*
X104350830Y-101478132D01*
X104361866Y-101459719D01*
X104374654Y-101442476D01*
X104389070Y-101426570D01*
X104404976Y-101412154D01*
X104422219Y-101399366D01*
X104440632Y-101388330D01*
X104460038Y-101379151D01*
X104480250Y-101371919D01*
X104501074Y-101366703D01*
X104522309Y-101363553D01*
X104543750Y-101362500D01*
X105056250Y-101362500D01*
X105077691Y-101363553D01*
X105077691Y-101363553D01*
G37*
D11*
X104800000Y-101800000D03*
D10*
G36*
X105077691Y-99788553D02*
X105098926Y-99791703D01*
X105119750Y-99796919D01*
X105139962Y-99804151D01*
X105159368Y-99813330D01*
X105177781Y-99824366D01*
X105195024Y-99837154D01*
X105210930Y-99851570D01*
X105225346Y-99867476D01*
X105238134Y-99884719D01*
X105249170Y-99903132D01*
X105258349Y-99922538D01*
X105265581Y-99942750D01*
X105270797Y-99963574D01*
X105273947Y-99984809D01*
X105275000Y-100006250D01*
X105275000Y-100443750D01*
X105273947Y-100465191D01*
X105270797Y-100486426D01*
X105265581Y-100507250D01*
X105258349Y-100527462D01*
X105249170Y-100546868D01*
X105238134Y-100565281D01*
X105225346Y-100582524D01*
X105210930Y-100598430D01*
X105195024Y-100612846D01*
X105177781Y-100625634D01*
X105159368Y-100636670D01*
X105139962Y-100645849D01*
X105119750Y-100653081D01*
X105098926Y-100658297D01*
X105077691Y-100661447D01*
X105056250Y-100662500D01*
X104543750Y-100662500D01*
X104522309Y-100661447D01*
X104501074Y-100658297D01*
X104480250Y-100653081D01*
X104460038Y-100645849D01*
X104440632Y-100636670D01*
X104422219Y-100625634D01*
X104404976Y-100612846D01*
X104389070Y-100598430D01*
X104374654Y-100582524D01*
X104361866Y-100565281D01*
X104350830Y-100546868D01*
X104341651Y-100527462D01*
X104334419Y-100507250D01*
X104329203Y-100486426D01*
X104326053Y-100465191D01*
X104325000Y-100443750D01*
X104325000Y-100006250D01*
X104326053Y-99984809D01*
X104329203Y-99963574D01*
X104334419Y-99942750D01*
X104341651Y-99922538D01*
X104350830Y-99903132D01*
X104361866Y-99884719D01*
X104374654Y-99867476D01*
X104389070Y-99851570D01*
X104404976Y-99837154D01*
X104422219Y-99824366D01*
X104440632Y-99813330D01*
X104460038Y-99804151D01*
X104480250Y-99796919D01*
X104501074Y-99791703D01*
X104522309Y-99788553D01*
X104543750Y-99787500D01*
X105056250Y-99787500D01*
X105077691Y-99788553D01*
X105077691Y-99788553D01*
G37*
D11*
X104800000Y-100225000D03*
G04 #@! TD*
D10*
G04 #@! TO.C,C60*
G36*
X108277691Y-101351053D02*
X108298926Y-101354203D01*
X108319750Y-101359419D01*
X108339962Y-101366651D01*
X108359368Y-101375830D01*
X108377781Y-101386866D01*
X108395024Y-101399654D01*
X108410930Y-101414070D01*
X108425346Y-101429976D01*
X108438134Y-101447219D01*
X108449170Y-101465632D01*
X108458349Y-101485038D01*
X108465581Y-101505250D01*
X108470797Y-101526074D01*
X108473947Y-101547309D01*
X108475000Y-101568750D01*
X108475000Y-102006250D01*
X108473947Y-102027691D01*
X108470797Y-102048926D01*
X108465581Y-102069750D01*
X108458349Y-102089962D01*
X108449170Y-102109368D01*
X108438134Y-102127781D01*
X108425346Y-102145024D01*
X108410930Y-102160930D01*
X108395024Y-102175346D01*
X108377781Y-102188134D01*
X108359368Y-102199170D01*
X108339962Y-102208349D01*
X108319750Y-102215581D01*
X108298926Y-102220797D01*
X108277691Y-102223947D01*
X108256250Y-102225000D01*
X107743750Y-102225000D01*
X107722309Y-102223947D01*
X107701074Y-102220797D01*
X107680250Y-102215581D01*
X107660038Y-102208349D01*
X107640632Y-102199170D01*
X107622219Y-102188134D01*
X107604976Y-102175346D01*
X107589070Y-102160930D01*
X107574654Y-102145024D01*
X107561866Y-102127781D01*
X107550830Y-102109368D01*
X107541651Y-102089962D01*
X107534419Y-102069750D01*
X107529203Y-102048926D01*
X107526053Y-102027691D01*
X107525000Y-102006250D01*
X107525000Y-101568750D01*
X107526053Y-101547309D01*
X107529203Y-101526074D01*
X107534419Y-101505250D01*
X107541651Y-101485038D01*
X107550830Y-101465632D01*
X107561866Y-101447219D01*
X107574654Y-101429976D01*
X107589070Y-101414070D01*
X107604976Y-101399654D01*
X107622219Y-101386866D01*
X107640632Y-101375830D01*
X107660038Y-101366651D01*
X107680250Y-101359419D01*
X107701074Y-101354203D01*
X107722309Y-101351053D01*
X107743750Y-101350000D01*
X108256250Y-101350000D01*
X108277691Y-101351053D01*
X108277691Y-101351053D01*
G37*
D11*
X108000000Y-101787500D03*
D10*
G36*
X108277691Y-99776053D02*
X108298926Y-99779203D01*
X108319750Y-99784419D01*
X108339962Y-99791651D01*
X108359368Y-99800830D01*
X108377781Y-99811866D01*
X108395024Y-99824654D01*
X108410930Y-99839070D01*
X108425346Y-99854976D01*
X108438134Y-99872219D01*
X108449170Y-99890632D01*
X108458349Y-99910038D01*
X108465581Y-99930250D01*
X108470797Y-99951074D01*
X108473947Y-99972309D01*
X108475000Y-99993750D01*
X108475000Y-100431250D01*
X108473947Y-100452691D01*
X108470797Y-100473926D01*
X108465581Y-100494750D01*
X108458349Y-100514962D01*
X108449170Y-100534368D01*
X108438134Y-100552781D01*
X108425346Y-100570024D01*
X108410930Y-100585930D01*
X108395024Y-100600346D01*
X108377781Y-100613134D01*
X108359368Y-100624170D01*
X108339962Y-100633349D01*
X108319750Y-100640581D01*
X108298926Y-100645797D01*
X108277691Y-100648947D01*
X108256250Y-100650000D01*
X107743750Y-100650000D01*
X107722309Y-100648947D01*
X107701074Y-100645797D01*
X107680250Y-100640581D01*
X107660038Y-100633349D01*
X107640632Y-100624170D01*
X107622219Y-100613134D01*
X107604976Y-100600346D01*
X107589070Y-100585930D01*
X107574654Y-100570024D01*
X107561866Y-100552781D01*
X107550830Y-100534368D01*
X107541651Y-100514962D01*
X107534419Y-100494750D01*
X107529203Y-100473926D01*
X107526053Y-100452691D01*
X107525000Y-100431250D01*
X107525000Y-99993750D01*
X107526053Y-99972309D01*
X107529203Y-99951074D01*
X107534419Y-99930250D01*
X107541651Y-99910038D01*
X107550830Y-99890632D01*
X107561866Y-99872219D01*
X107574654Y-99854976D01*
X107589070Y-99839070D01*
X107604976Y-99824654D01*
X107622219Y-99811866D01*
X107640632Y-99800830D01*
X107660038Y-99791651D01*
X107680250Y-99784419D01*
X107701074Y-99779203D01*
X107722309Y-99776053D01*
X107743750Y-99775000D01*
X108256250Y-99775000D01*
X108277691Y-99776053D01*
X108277691Y-99776053D01*
G37*
D11*
X108000000Y-100212500D03*
G04 #@! TD*
D10*
G04 #@! TO.C,C52*
G36*
X95669931Y-85608493D02*
X95691166Y-85611643D01*
X95711990Y-85616859D01*
X95732202Y-85624091D01*
X95751608Y-85633270D01*
X95770021Y-85644306D01*
X95787264Y-85657094D01*
X95803170Y-85671510D01*
X95817586Y-85687416D01*
X95830374Y-85704659D01*
X95841410Y-85723072D01*
X95850589Y-85742478D01*
X95857821Y-85762690D01*
X95863037Y-85783514D01*
X95866187Y-85804749D01*
X95867240Y-85826190D01*
X95867240Y-86263690D01*
X95866187Y-86285131D01*
X95863037Y-86306366D01*
X95857821Y-86327190D01*
X95850589Y-86347402D01*
X95841410Y-86366808D01*
X95830374Y-86385221D01*
X95817586Y-86402464D01*
X95803170Y-86418370D01*
X95787264Y-86432786D01*
X95770021Y-86445574D01*
X95751608Y-86456610D01*
X95732202Y-86465789D01*
X95711990Y-86473021D01*
X95691166Y-86478237D01*
X95669931Y-86481387D01*
X95648490Y-86482440D01*
X95135990Y-86482440D01*
X95114549Y-86481387D01*
X95093314Y-86478237D01*
X95072490Y-86473021D01*
X95052278Y-86465789D01*
X95032872Y-86456610D01*
X95014459Y-86445574D01*
X94997216Y-86432786D01*
X94981310Y-86418370D01*
X94966894Y-86402464D01*
X94954106Y-86385221D01*
X94943070Y-86366808D01*
X94933891Y-86347402D01*
X94926659Y-86327190D01*
X94921443Y-86306366D01*
X94918293Y-86285131D01*
X94917240Y-86263690D01*
X94917240Y-85826190D01*
X94918293Y-85804749D01*
X94921443Y-85783514D01*
X94926659Y-85762690D01*
X94933891Y-85742478D01*
X94943070Y-85723072D01*
X94954106Y-85704659D01*
X94966894Y-85687416D01*
X94981310Y-85671510D01*
X94997216Y-85657094D01*
X95014459Y-85644306D01*
X95032872Y-85633270D01*
X95052278Y-85624091D01*
X95072490Y-85616859D01*
X95093314Y-85611643D01*
X95114549Y-85608493D01*
X95135990Y-85607440D01*
X95648490Y-85607440D01*
X95669931Y-85608493D01*
X95669931Y-85608493D01*
G37*
D11*
X95392240Y-86044940D03*
D10*
G36*
X95669931Y-87183493D02*
X95691166Y-87186643D01*
X95711990Y-87191859D01*
X95732202Y-87199091D01*
X95751608Y-87208270D01*
X95770021Y-87219306D01*
X95787264Y-87232094D01*
X95803170Y-87246510D01*
X95817586Y-87262416D01*
X95830374Y-87279659D01*
X95841410Y-87298072D01*
X95850589Y-87317478D01*
X95857821Y-87337690D01*
X95863037Y-87358514D01*
X95866187Y-87379749D01*
X95867240Y-87401190D01*
X95867240Y-87838690D01*
X95866187Y-87860131D01*
X95863037Y-87881366D01*
X95857821Y-87902190D01*
X95850589Y-87922402D01*
X95841410Y-87941808D01*
X95830374Y-87960221D01*
X95817586Y-87977464D01*
X95803170Y-87993370D01*
X95787264Y-88007786D01*
X95770021Y-88020574D01*
X95751608Y-88031610D01*
X95732202Y-88040789D01*
X95711990Y-88048021D01*
X95691166Y-88053237D01*
X95669931Y-88056387D01*
X95648490Y-88057440D01*
X95135990Y-88057440D01*
X95114549Y-88056387D01*
X95093314Y-88053237D01*
X95072490Y-88048021D01*
X95052278Y-88040789D01*
X95032872Y-88031610D01*
X95014459Y-88020574D01*
X94997216Y-88007786D01*
X94981310Y-87993370D01*
X94966894Y-87977464D01*
X94954106Y-87960221D01*
X94943070Y-87941808D01*
X94933891Y-87922402D01*
X94926659Y-87902190D01*
X94921443Y-87881366D01*
X94918293Y-87860131D01*
X94917240Y-87838690D01*
X94917240Y-87401190D01*
X94918293Y-87379749D01*
X94921443Y-87358514D01*
X94926659Y-87337690D01*
X94933891Y-87317478D01*
X94943070Y-87298072D01*
X94954106Y-87279659D01*
X94966894Y-87262416D01*
X94981310Y-87246510D01*
X94997216Y-87232094D01*
X95014459Y-87219306D01*
X95032872Y-87208270D01*
X95052278Y-87199091D01*
X95072490Y-87191859D01*
X95093314Y-87186643D01*
X95114549Y-87183493D01*
X95135990Y-87182440D01*
X95648490Y-87182440D01*
X95669931Y-87183493D01*
X95669931Y-87183493D01*
G37*
D11*
X95392240Y-87619940D03*
G04 #@! TD*
D10*
G04 #@! TO.C,C62*
G36*
X103477691Y-101351053D02*
X103498926Y-101354203D01*
X103519750Y-101359419D01*
X103539962Y-101366651D01*
X103559368Y-101375830D01*
X103577781Y-101386866D01*
X103595024Y-101399654D01*
X103610930Y-101414070D01*
X103625346Y-101429976D01*
X103638134Y-101447219D01*
X103649170Y-101465632D01*
X103658349Y-101485038D01*
X103665581Y-101505250D01*
X103670797Y-101526074D01*
X103673947Y-101547309D01*
X103675000Y-101568750D01*
X103675000Y-102006250D01*
X103673947Y-102027691D01*
X103670797Y-102048926D01*
X103665581Y-102069750D01*
X103658349Y-102089962D01*
X103649170Y-102109368D01*
X103638134Y-102127781D01*
X103625346Y-102145024D01*
X103610930Y-102160930D01*
X103595024Y-102175346D01*
X103577781Y-102188134D01*
X103559368Y-102199170D01*
X103539962Y-102208349D01*
X103519750Y-102215581D01*
X103498926Y-102220797D01*
X103477691Y-102223947D01*
X103456250Y-102225000D01*
X102943750Y-102225000D01*
X102922309Y-102223947D01*
X102901074Y-102220797D01*
X102880250Y-102215581D01*
X102860038Y-102208349D01*
X102840632Y-102199170D01*
X102822219Y-102188134D01*
X102804976Y-102175346D01*
X102789070Y-102160930D01*
X102774654Y-102145024D01*
X102761866Y-102127781D01*
X102750830Y-102109368D01*
X102741651Y-102089962D01*
X102734419Y-102069750D01*
X102729203Y-102048926D01*
X102726053Y-102027691D01*
X102725000Y-102006250D01*
X102725000Y-101568750D01*
X102726053Y-101547309D01*
X102729203Y-101526074D01*
X102734419Y-101505250D01*
X102741651Y-101485038D01*
X102750830Y-101465632D01*
X102761866Y-101447219D01*
X102774654Y-101429976D01*
X102789070Y-101414070D01*
X102804976Y-101399654D01*
X102822219Y-101386866D01*
X102840632Y-101375830D01*
X102860038Y-101366651D01*
X102880250Y-101359419D01*
X102901074Y-101354203D01*
X102922309Y-101351053D01*
X102943750Y-101350000D01*
X103456250Y-101350000D01*
X103477691Y-101351053D01*
X103477691Y-101351053D01*
G37*
D11*
X103200000Y-101787500D03*
D10*
G36*
X103477691Y-99776053D02*
X103498926Y-99779203D01*
X103519750Y-99784419D01*
X103539962Y-99791651D01*
X103559368Y-99800830D01*
X103577781Y-99811866D01*
X103595024Y-99824654D01*
X103610930Y-99839070D01*
X103625346Y-99854976D01*
X103638134Y-99872219D01*
X103649170Y-99890632D01*
X103658349Y-99910038D01*
X103665581Y-99930250D01*
X103670797Y-99951074D01*
X103673947Y-99972309D01*
X103675000Y-99993750D01*
X103675000Y-100431250D01*
X103673947Y-100452691D01*
X103670797Y-100473926D01*
X103665581Y-100494750D01*
X103658349Y-100514962D01*
X103649170Y-100534368D01*
X103638134Y-100552781D01*
X103625346Y-100570024D01*
X103610930Y-100585930D01*
X103595024Y-100600346D01*
X103577781Y-100613134D01*
X103559368Y-100624170D01*
X103539962Y-100633349D01*
X103519750Y-100640581D01*
X103498926Y-100645797D01*
X103477691Y-100648947D01*
X103456250Y-100650000D01*
X102943750Y-100650000D01*
X102922309Y-100648947D01*
X102901074Y-100645797D01*
X102880250Y-100640581D01*
X102860038Y-100633349D01*
X102840632Y-100624170D01*
X102822219Y-100613134D01*
X102804976Y-100600346D01*
X102789070Y-100585930D01*
X102774654Y-100570024D01*
X102761866Y-100552781D01*
X102750830Y-100534368D01*
X102741651Y-100514962D01*
X102734419Y-100494750D01*
X102729203Y-100473926D01*
X102726053Y-100452691D01*
X102725000Y-100431250D01*
X102725000Y-99993750D01*
X102726053Y-99972309D01*
X102729203Y-99951074D01*
X102734419Y-99930250D01*
X102741651Y-99910038D01*
X102750830Y-99890632D01*
X102761866Y-99872219D01*
X102774654Y-99854976D01*
X102789070Y-99839070D01*
X102804976Y-99824654D01*
X102822219Y-99811866D01*
X102840632Y-99800830D01*
X102860038Y-99791651D01*
X102880250Y-99784419D01*
X102901074Y-99779203D01*
X102922309Y-99776053D01*
X102943750Y-99775000D01*
X103456250Y-99775000D01*
X103477691Y-99776053D01*
X103477691Y-99776053D01*
G37*
D11*
X103200000Y-100212500D03*
G04 #@! TD*
D10*
G04 #@! TO.C,C64*
G36*
X108277691Y-102976053D02*
X108298926Y-102979203D01*
X108319750Y-102984419D01*
X108339962Y-102991651D01*
X108359368Y-103000830D01*
X108377781Y-103011866D01*
X108395024Y-103024654D01*
X108410930Y-103039070D01*
X108425346Y-103054976D01*
X108438134Y-103072219D01*
X108449170Y-103090632D01*
X108458349Y-103110038D01*
X108465581Y-103130250D01*
X108470797Y-103151074D01*
X108473947Y-103172309D01*
X108475000Y-103193750D01*
X108475000Y-103631250D01*
X108473947Y-103652691D01*
X108470797Y-103673926D01*
X108465581Y-103694750D01*
X108458349Y-103714962D01*
X108449170Y-103734368D01*
X108438134Y-103752781D01*
X108425346Y-103770024D01*
X108410930Y-103785930D01*
X108395024Y-103800346D01*
X108377781Y-103813134D01*
X108359368Y-103824170D01*
X108339962Y-103833349D01*
X108319750Y-103840581D01*
X108298926Y-103845797D01*
X108277691Y-103848947D01*
X108256250Y-103850000D01*
X107743750Y-103850000D01*
X107722309Y-103848947D01*
X107701074Y-103845797D01*
X107680250Y-103840581D01*
X107660038Y-103833349D01*
X107640632Y-103824170D01*
X107622219Y-103813134D01*
X107604976Y-103800346D01*
X107589070Y-103785930D01*
X107574654Y-103770024D01*
X107561866Y-103752781D01*
X107550830Y-103734368D01*
X107541651Y-103714962D01*
X107534419Y-103694750D01*
X107529203Y-103673926D01*
X107526053Y-103652691D01*
X107525000Y-103631250D01*
X107525000Y-103193750D01*
X107526053Y-103172309D01*
X107529203Y-103151074D01*
X107534419Y-103130250D01*
X107541651Y-103110038D01*
X107550830Y-103090632D01*
X107561866Y-103072219D01*
X107574654Y-103054976D01*
X107589070Y-103039070D01*
X107604976Y-103024654D01*
X107622219Y-103011866D01*
X107640632Y-103000830D01*
X107660038Y-102991651D01*
X107680250Y-102984419D01*
X107701074Y-102979203D01*
X107722309Y-102976053D01*
X107743750Y-102975000D01*
X108256250Y-102975000D01*
X108277691Y-102976053D01*
X108277691Y-102976053D01*
G37*
D11*
X108000000Y-103412500D03*
D10*
G36*
X108277691Y-104551053D02*
X108298926Y-104554203D01*
X108319750Y-104559419D01*
X108339962Y-104566651D01*
X108359368Y-104575830D01*
X108377781Y-104586866D01*
X108395024Y-104599654D01*
X108410930Y-104614070D01*
X108425346Y-104629976D01*
X108438134Y-104647219D01*
X108449170Y-104665632D01*
X108458349Y-104685038D01*
X108465581Y-104705250D01*
X108470797Y-104726074D01*
X108473947Y-104747309D01*
X108475000Y-104768750D01*
X108475000Y-105206250D01*
X108473947Y-105227691D01*
X108470797Y-105248926D01*
X108465581Y-105269750D01*
X108458349Y-105289962D01*
X108449170Y-105309368D01*
X108438134Y-105327781D01*
X108425346Y-105345024D01*
X108410930Y-105360930D01*
X108395024Y-105375346D01*
X108377781Y-105388134D01*
X108359368Y-105399170D01*
X108339962Y-105408349D01*
X108319750Y-105415581D01*
X108298926Y-105420797D01*
X108277691Y-105423947D01*
X108256250Y-105425000D01*
X107743750Y-105425000D01*
X107722309Y-105423947D01*
X107701074Y-105420797D01*
X107680250Y-105415581D01*
X107660038Y-105408349D01*
X107640632Y-105399170D01*
X107622219Y-105388134D01*
X107604976Y-105375346D01*
X107589070Y-105360930D01*
X107574654Y-105345024D01*
X107561866Y-105327781D01*
X107550830Y-105309368D01*
X107541651Y-105289962D01*
X107534419Y-105269750D01*
X107529203Y-105248926D01*
X107526053Y-105227691D01*
X107525000Y-105206250D01*
X107525000Y-104768750D01*
X107526053Y-104747309D01*
X107529203Y-104726074D01*
X107534419Y-104705250D01*
X107541651Y-104685038D01*
X107550830Y-104665632D01*
X107561866Y-104647219D01*
X107574654Y-104629976D01*
X107589070Y-104614070D01*
X107604976Y-104599654D01*
X107622219Y-104586866D01*
X107640632Y-104575830D01*
X107660038Y-104566651D01*
X107680250Y-104559419D01*
X107701074Y-104554203D01*
X107722309Y-104551053D01*
X107743750Y-104550000D01*
X108256250Y-104550000D01*
X108277691Y-104551053D01*
X108277691Y-104551053D01*
G37*
D11*
X108000000Y-104987500D03*
G04 #@! TD*
D10*
G04 #@! TO.C,C65*
G36*
X106677691Y-102976053D02*
X106698926Y-102979203D01*
X106719750Y-102984419D01*
X106739962Y-102991651D01*
X106759368Y-103000830D01*
X106777781Y-103011866D01*
X106795024Y-103024654D01*
X106810930Y-103039070D01*
X106825346Y-103054976D01*
X106838134Y-103072219D01*
X106849170Y-103090632D01*
X106858349Y-103110038D01*
X106865581Y-103130250D01*
X106870797Y-103151074D01*
X106873947Y-103172309D01*
X106875000Y-103193750D01*
X106875000Y-103631250D01*
X106873947Y-103652691D01*
X106870797Y-103673926D01*
X106865581Y-103694750D01*
X106858349Y-103714962D01*
X106849170Y-103734368D01*
X106838134Y-103752781D01*
X106825346Y-103770024D01*
X106810930Y-103785930D01*
X106795024Y-103800346D01*
X106777781Y-103813134D01*
X106759368Y-103824170D01*
X106739962Y-103833349D01*
X106719750Y-103840581D01*
X106698926Y-103845797D01*
X106677691Y-103848947D01*
X106656250Y-103850000D01*
X106143750Y-103850000D01*
X106122309Y-103848947D01*
X106101074Y-103845797D01*
X106080250Y-103840581D01*
X106060038Y-103833349D01*
X106040632Y-103824170D01*
X106022219Y-103813134D01*
X106004976Y-103800346D01*
X105989070Y-103785930D01*
X105974654Y-103770024D01*
X105961866Y-103752781D01*
X105950830Y-103734368D01*
X105941651Y-103714962D01*
X105934419Y-103694750D01*
X105929203Y-103673926D01*
X105926053Y-103652691D01*
X105925000Y-103631250D01*
X105925000Y-103193750D01*
X105926053Y-103172309D01*
X105929203Y-103151074D01*
X105934419Y-103130250D01*
X105941651Y-103110038D01*
X105950830Y-103090632D01*
X105961866Y-103072219D01*
X105974654Y-103054976D01*
X105989070Y-103039070D01*
X106004976Y-103024654D01*
X106022219Y-103011866D01*
X106040632Y-103000830D01*
X106060038Y-102991651D01*
X106080250Y-102984419D01*
X106101074Y-102979203D01*
X106122309Y-102976053D01*
X106143750Y-102975000D01*
X106656250Y-102975000D01*
X106677691Y-102976053D01*
X106677691Y-102976053D01*
G37*
D11*
X106400000Y-103412500D03*
D10*
G36*
X106677691Y-104551053D02*
X106698926Y-104554203D01*
X106719750Y-104559419D01*
X106739962Y-104566651D01*
X106759368Y-104575830D01*
X106777781Y-104586866D01*
X106795024Y-104599654D01*
X106810930Y-104614070D01*
X106825346Y-104629976D01*
X106838134Y-104647219D01*
X106849170Y-104665632D01*
X106858349Y-104685038D01*
X106865581Y-104705250D01*
X106870797Y-104726074D01*
X106873947Y-104747309D01*
X106875000Y-104768750D01*
X106875000Y-105206250D01*
X106873947Y-105227691D01*
X106870797Y-105248926D01*
X106865581Y-105269750D01*
X106858349Y-105289962D01*
X106849170Y-105309368D01*
X106838134Y-105327781D01*
X106825346Y-105345024D01*
X106810930Y-105360930D01*
X106795024Y-105375346D01*
X106777781Y-105388134D01*
X106759368Y-105399170D01*
X106739962Y-105408349D01*
X106719750Y-105415581D01*
X106698926Y-105420797D01*
X106677691Y-105423947D01*
X106656250Y-105425000D01*
X106143750Y-105425000D01*
X106122309Y-105423947D01*
X106101074Y-105420797D01*
X106080250Y-105415581D01*
X106060038Y-105408349D01*
X106040632Y-105399170D01*
X106022219Y-105388134D01*
X106004976Y-105375346D01*
X105989070Y-105360930D01*
X105974654Y-105345024D01*
X105961866Y-105327781D01*
X105950830Y-105309368D01*
X105941651Y-105289962D01*
X105934419Y-105269750D01*
X105929203Y-105248926D01*
X105926053Y-105227691D01*
X105925000Y-105206250D01*
X105925000Y-104768750D01*
X105926053Y-104747309D01*
X105929203Y-104726074D01*
X105934419Y-104705250D01*
X105941651Y-104685038D01*
X105950830Y-104665632D01*
X105961866Y-104647219D01*
X105974654Y-104629976D01*
X105989070Y-104614070D01*
X106004976Y-104599654D01*
X106022219Y-104586866D01*
X106040632Y-104575830D01*
X106060038Y-104566651D01*
X106080250Y-104559419D01*
X106101074Y-104554203D01*
X106122309Y-104551053D01*
X106143750Y-104550000D01*
X106656250Y-104550000D01*
X106677691Y-104551053D01*
X106677691Y-104551053D01*
G37*
D11*
X106400000Y-104987500D03*
G04 #@! TD*
D10*
G04 #@! TO.C,C61*
G36*
X103477691Y-102976053D02*
X103498926Y-102979203D01*
X103519750Y-102984419D01*
X103539962Y-102991651D01*
X103559368Y-103000830D01*
X103577781Y-103011866D01*
X103595024Y-103024654D01*
X103610930Y-103039070D01*
X103625346Y-103054976D01*
X103638134Y-103072219D01*
X103649170Y-103090632D01*
X103658349Y-103110038D01*
X103665581Y-103130250D01*
X103670797Y-103151074D01*
X103673947Y-103172309D01*
X103675000Y-103193750D01*
X103675000Y-103631250D01*
X103673947Y-103652691D01*
X103670797Y-103673926D01*
X103665581Y-103694750D01*
X103658349Y-103714962D01*
X103649170Y-103734368D01*
X103638134Y-103752781D01*
X103625346Y-103770024D01*
X103610930Y-103785930D01*
X103595024Y-103800346D01*
X103577781Y-103813134D01*
X103559368Y-103824170D01*
X103539962Y-103833349D01*
X103519750Y-103840581D01*
X103498926Y-103845797D01*
X103477691Y-103848947D01*
X103456250Y-103850000D01*
X102943750Y-103850000D01*
X102922309Y-103848947D01*
X102901074Y-103845797D01*
X102880250Y-103840581D01*
X102860038Y-103833349D01*
X102840632Y-103824170D01*
X102822219Y-103813134D01*
X102804976Y-103800346D01*
X102789070Y-103785930D01*
X102774654Y-103770024D01*
X102761866Y-103752781D01*
X102750830Y-103734368D01*
X102741651Y-103714962D01*
X102734419Y-103694750D01*
X102729203Y-103673926D01*
X102726053Y-103652691D01*
X102725000Y-103631250D01*
X102725000Y-103193750D01*
X102726053Y-103172309D01*
X102729203Y-103151074D01*
X102734419Y-103130250D01*
X102741651Y-103110038D01*
X102750830Y-103090632D01*
X102761866Y-103072219D01*
X102774654Y-103054976D01*
X102789070Y-103039070D01*
X102804976Y-103024654D01*
X102822219Y-103011866D01*
X102840632Y-103000830D01*
X102860038Y-102991651D01*
X102880250Y-102984419D01*
X102901074Y-102979203D01*
X102922309Y-102976053D01*
X102943750Y-102975000D01*
X103456250Y-102975000D01*
X103477691Y-102976053D01*
X103477691Y-102976053D01*
G37*
D11*
X103200000Y-103412500D03*
D10*
G36*
X103477691Y-104551053D02*
X103498926Y-104554203D01*
X103519750Y-104559419D01*
X103539962Y-104566651D01*
X103559368Y-104575830D01*
X103577781Y-104586866D01*
X103595024Y-104599654D01*
X103610930Y-104614070D01*
X103625346Y-104629976D01*
X103638134Y-104647219D01*
X103649170Y-104665632D01*
X103658349Y-104685038D01*
X103665581Y-104705250D01*
X103670797Y-104726074D01*
X103673947Y-104747309D01*
X103675000Y-104768750D01*
X103675000Y-105206250D01*
X103673947Y-105227691D01*
X103670797Y-105248926D01*
X103665581Y-105269750D01*
X103658349Y-105289962D01*
X103649170Y-105309368D01*
X103638134Y-105327781D01*
X103625346Y-105345024D01*
X103610930Y-105360930D01*
X103595024Y-105375346D01*
X103577781Y-105388134D01*
X103559368Y-105399170D01*
X103539962Y-105408349D01*
X103519750Y-105415581D01*
X103498926Y-105420797D01*
X103477691Y-105423947D01*
X103456250Y-105425000D01*
X102943750Y-105425000D01*
X102922309Y-105423947D01*
X102901074Y-105420797D01*
X102880250Y-105415581D01*
X102860038Y-105408349D01*
X102840632Y-105399170D01*
X102822219Y-105388134D01*
X102804976Y-105375346D01*
X102789070Y-105360930D01*
X102774654Y-105345024D01*
X102761866Y-105327781D01*
X102750830Y-105309368D01*
X102741651Y-105289962D01*
X102734419Y-105269750D01*
X102729203Y-105248926D01*
X102726053Y-105227691D01*
X102725000Y-105206250D01*
X102725000Y-104768750D01*
X102726053Y-104747309D01*
X102729203Y-104726074D01*
X102734419Y-104705250D01*
X102741651Y-104685038D01*
X102750830Y-104665632D01*
X102761866Y-104647219D01*
X102774654Y-104629976D01*
X102789070Y-104614070D01*
X102804976Y-104599654D01*
X102822219Y-104586866D01*
X102840632Y-104575830D01*
X102860038Y-104566651D01*
X102880250Y-104559419D01*
X102901074Y-104554203D01*
X102922309Y-104551053D01*
X102943750Y-104550000D01*
X103456250Y-104550000D01*
X103477691Y-104551053D01*
X103477691Y-104551053D01*
G37*
D11*
X103200000Y-104987500D03*
G04 #@! TD*
M02*
