G04 #@! TF.GenerationSoftware,KiCad,Pcbnew,5.1.2*
G04 #@! TF.CreationDate,2019-06-01T11:21:23+02:00*
G04 #@! TF.ProjectId,usb-c-breakout,7573622d-632d-4627-9265-616b6f75742e,rev?*
G04 #@! TF.SameCoordinates,Original*
G04 #@! TF.FileFunction,Soldermask,Bot*
G04 #@! TF.FilePolarity,Negative*
%FSLAX46Y46*%
G04 Gerber Fmt 4.6, Leading zero omitted, Abs format (unit mm)*
G04 Created by KiCad (PCBNEW 5.1.2) date 2019-06-01 11:21:23*
%MOMM*%
%LPD*%
G04 APERTURE LIST*
%ADD10C,0.100000*%
G04 APERTURE END LIST*
D10*
G36*
X115212585Y-105038802D02*
G01*
X115362410Y-105068604D01*
X115644674Y-105185521D01*
X115898705Y-105355259D01*
X116114741Y-105571295D01*
X116284479Y-105825326D01*
X116401396Y-106107590D01*
X116461000Y-106407240D01*
X116461000Y-106712760D01*
X116401396Y-107012410D01*
X116284479Y-107294674D01*
X116114741Y-107548705D01*
X115898705Y-107764741D01*
X115644674Y-107934479D01*
X115362410Y-108051396D01*
X115212585Y-108081198D01*
X115062761Y-108111000D01*
X114757239Y-108111000D01*
X114607415Y-108081198D01*
X114457590Y-108051396D01*
X114175326Y-107934479D01*
X113921295Y-107764741D01*
X113705259Y-107548705D01*
X113535521Y-107294674D01*
X113418604Y-107012410D01*
X113359000Y-106712760D01*
X113359000Y-106407240D01*
X113418604Y-106107590D01*
X113535521Y-105825326D01*
X113705259Y-105571295D01*
X113921295Y-105355259D01*
X114175326Y-105185521D01*
X114457590Y-105068604D01*
X114607415Y-105038802D01*
X114757239Y-105009000D01*
X115062761Y-105009000D01*
X115212585Y-105038802D01*
X115212585Y-105038802D01*
G37*
G36*
X79098213Y-95176249D02*
G01*
X79192652Y-95204897D01*
X79279687Y-95251418D01*
X79355975Y-95314025D01*
X79418582Y-95390313D01*
X79465103Y-95477348D01*
X79493751Y-95571787D01*
X79503424Y-95670000D01*
X79501601Y-95688508D01*
X79501000Y-95700743D01*
X79501000Y-95927084D01*
X79503402Y-95951470D01*
X79510515Y-95974919D01*
X79522066Y-95996530D01*
X79537611Y-96015472D01*
X79556553Y-96031017D01*
X79578164Y-96042568D01*
X79601613Y-96049681D01*
X79625999Y-96052083D01*
X79650385Y-96049681D01*
X79673834Y-96042568D01*
X79695444Y-96031017D01*
X79774528Y-95978175D01*
X79782389Y-95974919D01*
X79817984Y-95960175D01*
X79861157Y-95942292D01*
X79953117Y-95924000D01*
X80046883Y-95924000D01*
X80138843Y-95942292D01*
X80182016Y-95960175D01*
X80225470Y-95978174D01*
X80303432Y-96030267D01*
X80369733Y-96096568D01*
X80421826Y-96174530D01*
X80436689Y-96210412D01*
X80457708Y-96261157D01*
X80476000Y-96353117D01*
X80476000Y-96446883D01*
X80457708Y-96538843D01*
X80455460Y-96544269D01*
X80421826Y-96625470D01*
X80369733Y-96703432D01*
X80303432Y-96769733D01*
X80225470Y-96821826D01*
X80189588Y-96836689D01*
X80138843Y-96857708D01*
X80046883Y-96876000D01*
X79953117Y-96876000D01*
X79861157Y-96857708D01*
X79843060Y-96850212D01*
X79819612Y-96843099D01*
X79795225Y-96840697D01*
X79770839Y-96843099D01*
X79747390Y-96850212D01*
X79725780Y-96861763D01*
X79706838Y-96877308D01*
X79691292Y-96896250D01*
X79679741Y-96917861D01*
X79672628Y-96941309D01*
X79670226Y-96965696D01*
X79672628Y-96990082D01*
X79679741Y-97013532D01*
X79683204Y-97021893D01*
X79683207Y-97021897D01*
X79691119Y-97041000D01*
X79711551Y-97090328D01*
X79726000Y-97162966D01*
X79726000Y-97237034D01*
X79725719Y-97238449D01*
X79711550Y-97309675D01*
X79683207Y-97378103D01*
X79642058Y-97439686D01*
X79589686Y-97492058D01*
X79528103Y-97533207D01*
X79459675Y-97561550D01*
X79459674Y-97561550D01*
X79459672Y-97561551D01*
X79387034Y-97576000D01*
X79312966Y-97576000D01*
X79240326Y-97561551D01*
X79196904Y-97543565D01*
X79173455Y-97536452D01*
X79149069Y-97534050D01*
X79124683Y-97536452D01*
X79101234Y-97543565D01*
X79079624Y-97555116D01*
X79060682Y-97570661D01*
X79045136Y-97589603D01*
X79033585Y-97611214D01*
X79026472Y-97634662D01*
X79011551Y-97709673D01*
X79011550Y-97709675D01*
X78983207Y-97778103D01*
X78942058Y-97839686D01*
X78889686Y-97892058D01*
X78883679Y-97896072D01*
X78864744Y-97911612D01*
X78849199Y-97930553D01*
X78837647Y-97952164D01*
X78830534Y-97975613D01*
X78828132Y-97999999D01*
X78830534Y-98024385D01*
X78837647Y-98047834D01*
X78849197Y-98069445D01*
X78864743Y-98088387D01*
X78883679Y-98103928D01*
X78889686Y-98107942D01*
X78942058Y-98160314D01*
X78983207Y-98221897D01*
X79007399Y-98280304D01*
X79011551Y-98290327D01*
X79026472Y-98365338D01*
X79033585Y-98388786D01*
X79045136Y-98410397D01*
X79060682Y-98429339D01*
X79079624Y-98444884D01*
X79101234Y-98456435D01*
X79124683Y-98463548D01*
X79149069Y-98465950D01*
X79173456Y-98463548D01*
X79196904Y-98456435D01*
X79240326Y-98438449D01*
X79312966Y-98424000D01*
X79387034Y-98424000D01*
X79459672Y-98438449D01*
X79459674Y-98438450D01*
X79459675Y-98438450D01*
X79528103Y-98466793D01*
X79589686Y-98507942D01*
X79642058Y-98560314D01*
X79683207Y-98621897D01*
X79708622Y-98683257D01*
X79711551Y-98690328D01*
X79726000Y-98762966D01*
X79726000Y-98837034D01*
X79715785Y-98888388D01*
X79711550Y-98909675D01*
X79683207Y-98978103D01*
X79642058Y-99039686D01*
X79589686Y-99092058D01*
X79583679Y-99096072D01*
X79564744Y-99111612D01*
X79549199Y-99130553D01*
X79537647Y-99152164D01*
X79530534Y-99175613D01*
X79528132Y-99199999D01*
X79530534Y-99224385D01*
X79537647Y-99247834D01*
X79549197Y-99269445D01*
X79564743Y-99288387D01*
X79583679Y-99303928D01*
X79589686Y-99307942D01*
X79642058Y-99360314D01*
X79683207Y-99421897D01*
X79706565Y-99478290D01*
X79711551Y-99490328D01*
X79726000Y-99562966D01*
X79726000Y-99637034D01*
X79711551Y-99709672D01*
X79711550Y-99709674D01*
X79711550Y-99709675D01*
X79683207Y-99778103D01*
X79642058Y-99839686D01*
X79589686Y-99892058D01*
X79583679Y-99896072D01*
X79564744Y-99911612D01*
X79549199Y-99930553D01*
X79537647Y-99952164D01*
X79530534Y-99975613D01*
X79528132Y-99999999D01*
X79530534Y-100024385D01*
X79537647Y-100047834D01*
X79549197Y-100069445D01*
X79564743Y-100088387D01*
X79583679Y-100103928D01*
X79589686Y-100107942D01*
X79642058Y-100160314D01*
X79683207Y-100221897D01*
X79711550Y-100290325D01*
X79711551Y-100290328D01*
X79726000Y-100362966D01*
X79726000Y-100437034D01*
X79713135Y-100501710D01*
X79711550Y-100509675D01*
X79683207Y-100578103D01*
X79642058Y-100639686D01*
X79589686Y-100692058D01*
X79583679Y-100696072D01*
X79564744Y-100711612D01*
X79549199Y-100730553D01*
X79537647Y-100752164D01*
X79530534Y-100775613D01*
X79528132Y-100799999D01*
X79530534Y-100824385D01*
X79537647Y-100847834D01*
X79549197Y-100869445D01*
X79564743Y-100888387D01*
X79583679Y-100903928D01*
X79589686Y-100907942D01*
X79642058Y-100960314D01*
X79683207Y-101021897D01*
X79707127Y-101079647D01*
X79711551Y-101090328D01*
X79726000Y-101162966D01*
X79726000Y-101237034D01*
X79715785Y-101288388D01*
X79711550Y-101309675D01*
X79683207Y-101378103D01*
X79642058Y-101439686D01*
X79589686Y-101492058D01*
X79528103Y-101533207D01*
X79459675Y-101561550D01*
X79459674Y-101561550D01*
X79459672Y-101561551D01*
X79387034Y-101576000D01*
X79312966Y-101576000D01*
X79240326Y-101561551D01*
X79196904Y-101543565D01*
X79173455Y-101536452D01*
X79149069Y-101534050D01*
X79124683Y-101536452D01*
X79101234Y-101543565D01*
X79079624Y-101555116D01*
X79060682Y-101570661D01*
X79045136Y-101589603D01*
X79033585Y-101611214D01*
X79026472Y-101634662D01*
X79011551Y-101709673D01*
X79011550Y-101709675D01*
X78983207Y-101778103D01*
X78942058Y-101839686D01*
X78889686Y-101892058D01*
X78883679Y-101896072D01*
X78864744Y-101911612D01*
X78849199Y-101930553D01*
X78837647Y-101952164D01*
X78830534Y-101975613D01*
X78828132Y-101999999D01*
X78830534Y-102024385D01*
X78837647Y-102047834D01*
X78849197Y-102069445D01*
X78864743Y-102088387D01*
X78883679Y-102103928D01*
X78889686Y-102107942D01*
X78942058Y-102160314D01*
X78983207Y-102221897D01*
X79007399Y-102280304D01*
X79011551Y-102290327D01*
X79026472Y-102365338D01*
X79033585Y-102388786D01*
X79045136Y-102410397D01*
X79060682Y-102429339D01*
X79079624Y-102444884D01*
X79101234Y-102456435D01*
X79124683Y-102463548D01*
X79149069Y-102465950D01*
X79173456Y-102463548D01*
X79196904Y-102456435D01*
X79240326Y-102438449D01*
X79312966Y-102424000D01*
X79387034Y-102424000D01*
X79459672Y-102438449D01*
X79459674Y-102438450D01*
X79459675Y-102438450D01*
X79528103Y-102466793D01*
X79589686Y-102507942D01*
X79642058Y-102560314D01*
X79683207Y-102621897D01*
X79711550Y-102690325D01*
X79711551Y-102690328D01*
X79726000Y-102762966D01*
X79726000Y-102837034D01*
X79724631Y-102843916D01*
X79722229Y-102868302D01*
X79724631Y-102892688D01*
X79731744Y-102916137D01*
X79743295Y-102937748D01*
X79758840Y-102956690D01*
X79777782Y-102972235D01*
X79799393Y-102983786D01*
X79822842Y-102990899D01*
X79847228Y-102993301D01*
X79883503Y-102987920D01*
X79906689Y-102980887D01*
X80000000Y-102971697D01*
X80093312Y-102980887D01*
X80183039Y-103008106D01*
X80265731Y-103052306D01*
X80338211Y-103111789D01*
X80397694Y-103184269D01*
X80441894Y-103266961D01*
X80469113Y-103356688D01*
X80476000Y-103426617D01*
X80476000Y-103773384D01*
X80469113Y-103843312D01*
X80441894Y-103933039D01*
X80397694Y-104015731D01*
X80338211Y-104088211D01*
X80265731Y-104147694D01*
X80183038Y-104191894D01*
X80093311Y-104219113D01*
X80000000Y-104228303D01*
X79906688Y-104219113D01*
X79816961Y-104191894D01*
X79734269Y-104147694D01*
X79705289Y-104123911D01*
X79684923Y-104110303D01*
X79662284Y-104100925D01*
X79638251Y-104096145D01*
X79613747Y-104096145D01*
X79589714Y-104100925D01*
X79567075Y-104110303D01*
X79546700Y-104123917D01*
X79529373Y-104141244D01*
X79515760Y-104161618D01*
X79506382Y-104184257D01*
X79501000Y-104220542D01*
X79501000Y-104299257D01*
X79501601Y-104311492D01*
X79503424Y-104330000D01*
X79493751Y-104428213D01*
X79465103Y-104522652D01*
X79418582Y-104609687D01*
X79355975Y-104685975D01*
X79279687Y-104748582D01*
X79192652Y-104795103D01*
X79098213Y-104823751D01*
X79024612Y-104831000D01*
X78475388Y-104831000D01*
X78401787Y-104823751D01*
X78307348Y-104795103D01*
X78220313Y-104748582D01*
X78144025Y-104685975D01*
X78081418Y-104609687D01*
X78034897Y-104522652D01*
X78006249Y-104428213D01*
X77996576Y-104330000D01*
X78006249Y-104231787D01*
X78034897Y-104137348D01*
X78081418Y-104050313D01*
X78144025Y-103974025D01*
X78220313Y-103911418D01*
X78307348Y-103864897D01*
X78401787Y-103836249D01*
X78401797Y-103836248D01*
X78410286Y-103833673D01*
X78432925Y-103824296D01*
X78453299Y-103810682D01*
X78470626Y-103793355D01*
X78484240Y-103772981D01*
X78493617Y-103750342D01*
X78498398Y-103726309D01*
X78499000Y-103714056D01*
X78499000Y-103650398D01*
X78506250Y-103576789D01*
X78506250Y-103576787D01*
X78534898Y-103482348D01*
X78581419Y-103395313D01*
X78644026Y-103319025D01*
X78720314Y-103256418D01*
X78807349Y-103209897D01*
X78901788Y-103181249D01*
X78929518Y-103178518D01*
X78953540Y-103173739D01*
X78976179Y-103164362D01*
X78996553Y-103150748D01*
X79013880Y-103133421D01*
X79027494Y-103113046D01*
X79036871Y-103090407D01*
X79041651Y-103066374D01*
X79041651Y-103041870D01*
X79036870Y-103017837D01*
X79027493Y-102995198D01*
X79021195Y-102984691D01*
X79016793Y-102978103D01*
X78988450Y-102909675D01*
X78988449Y-102909673D01*
X78973528Y-102834662D01*
X78966415Y-102811214D01*
X78954864Y-102789603D01*
X78939318Y-102770661D01*
X78920376Y-102755116D01*
X78898766Y-102743565D01*
X78875317Y-102736452D01*
X78850931Y-102734050D01*
X78826544Y-102736452D01*
X78803096Y-102743565D01*
X78759674Y-102761551D01*
X78687034Y-102776000D01*
X78612966Y-102776000D01*
X78540328Y-102761551D01*
X78540326Y-102761550D01*
X78540325Y-102761550D01*
X78471897Y-102733207D01*
X78410314Y-102692058D01*
X78357942Y-102639686D01*
X78316793Y-102578103D01*
X78288450Y-102509675D01*
X78274282Y-102438449D01*
X78274000Y-102437034D01*
X78274000Y-102362966D01*
X78288449Y-102290328D01*
X78288450Y-102290325D01*
X78316793Y-102221897D01*
X78357942Y-102160314D01*
X78410314Y-102107942D01*
X78416321Y-102103928D01*
X78435256Y-102088388D01*
X78450801Y-102069447D01*
X78462353Y-102047836D01*
X78469466Y-102024387D01*
X78471868Y-102000001D01*
X78469466Y-101975615D01*
X78462353Y-101952166D01*
X78450803Y-101930555D01*
X78435257Y-101911613D01*
X78416321Y-101896072D01*
X78410314Y-101892058D01*
X78357942Y-101839686D01*
X78316793Y-101778103D01*
X78288450Y-101709675D01*
X78288450Y-101709674D01*
X78288449Y-101709672D01*
X78274000Y-101637034D01*
X78274000Y-101562966D01*
X78288449Y-101490328D01*
X78293435Y-101478290D01*
X78316793Y-101421897D01*
X78357942Y-101360314D01*
X78410314Y-101307942D01*
X78416321Y-101303928D01*
X78435256Y-101288388D01*
X78450801Y-101269447D01*
X78462353Y-101247836D01*
X78469466Y-101224387D01*
X78471868Y-101200001D01*
X78469466Y-101175615D01*
X78462353Y-101152166D01*
X78450803Y-101130555D01*
X78435257Y-101111613D01*
X78416321Y-101096072D01*
X78410314Y-101092058D01*
X78357942Y-101039686D01*
X78316793Y-100978103D01*
X78288450Y-100909675D01*
X78278196Y-100858125D01*
X78274000Y-100837034D01*
X78274000Y-100762966D01*
X78288449Y-100690328D01*
X78304256Y-100652166D01*
X78316793Y-100621897D01*
X78357942Y-100560314D01*
X78410314Y-100507942D01*
X78471897Y-100466793D01*
X78540325Y-100438450D01*
X78540326Y-100438450D01*
X78540328Y-100438449D01*
X78612966Y-100424000D01*
X78687034Y-100424000D01*
X78759674Y-100438449D01*
X78803096Y-100456435D01*
X78826545Y-100463548D01*
X78850931Y-100465950D01*
X78875317Y-100463548D01*
X78898766Y-100456435D01*
X78920376Y-100444884D01*
X78939318Y-100429339D01*
X78954864Y-100410397D01*
X78966415Y-100388786D01*
X78973528Y-100365338D01*
X78988449Y-100290327D01*
X79000099Y-100262202D01*
X79016793Y-100221897D01*
X79057942Y-100160314D01*
X79110314Y-100107942D01*
X79116321Y-100103928D01*
X79135256Y-100088388D01*
X79150801Y-100069447D01*
X79162353Y-100047836D01*
X79169466Y-100024387D01*
X79171868Y-100000001D01*
X79169466Y-99975615D01*
X79162353Y-99952166D01*
X79150803Y-99930555D01*
X79135257Y-99911613D01*
X79116321Y-99896072D01*
X79110314Y-99892058D01*
X79057942Y-99839686D01*
X79016793Y-99778103D01*
X78988450Y-99709675D01*
X78988449Y-99709673D01*
X78973528Y-99634662D01*
X78966415Y-99611214D01*
X78954864Y-99589603D01*
X78939318Y-99570661D01*
X78920376Y-99555116D01*
X78898766Y-99543565D01*
X78875317Y-99536452D01*
X78850931Y-99534050D01*
X78826544Y-99536452D01*
X78803096Y-99543565D01*
X78759674Y-99561551D01*
X78687034Y-99576000D01*
X78612966Y-99576000D01*
X78540328Y-99561551D01*
X78540326Y-99561550D01*
X78540325Y-99561550D01*
X78471897Y-99533207D01*
X78410314Y-99492058D01*
X78357942Y-99439686D01*
X78316793Y-99378103D01*
X78288450Y-99309675D01*
X78286526Y-99300001D01*
X78274000Y-99237034D01*
X78274000Y-99162966D01*
X78288449Y-99090328D01*
X78288450Y-99090325D01*
X78316793Y-99021897D01*
X78357942Y-98960314D01*
X78410314Y-98907942D01*
X78416321Y-98903928D01*
X78435256Y-98888388D01*
X78450801Y-98869447D01*
X78462353Y-98847836D01*
X78469466Y-98824387D01*
X78471868Y-98800001D01*
X78469466Y-98775615D01*
X78462353Y-98752166D01*
X78450803Y-98730555D01*
X78435257Y-98711613D01*
X78416321Y-98696072D01*
X78410314Y-98692058D01*
X78357942Y-98639686D01*
X78316793Y-98578103D01*
X78288450Y-98509675D01*
X78286866Y-98501710D01*
X78274000Y-98437034D01*
X78274000Y-98362966D01*
X78288449Y-98290328D01*
X78288450Y-98290325D01*
X78316793Y-98221897D01*
X78357942Y-98160314D01*
X78410314Y-98107942D01*
X78416321Y-98103928D01*
X78435256Y-98088388D01*
X78450801Y-98069447D01*
X78462353Y-98047836D01*
X78469466Y-98024387D01*
X78471868Y-98000001D01*
X78469466Y-97975615D01*
X78462353Y-97952166D01*
X78450803Y-97930555D01*
X78435257Y-97911613D01*
X78416321Y-97896072D01*
X78410314Y-97892058D01*
X78357942Y-97839686D01*
X78316793Y-97778103D01*
X78288450Y-97709675D01*
X78288450Y-97709674D01*
X78288449Y-97709672D01*
X78274000Y-97637034D01*
X78274000Y-97562966D01*
X78288449Y-97490328D01*
X78288450Y-97490325D01*
X78316793Y-97421897D01*
X78357942Y-97360314D01*
X78410314Y-97307942D01*
X78471897Y-97266793D01*
X78540325Y-97238450D01*
X78540326Y-97238450D01*
X78540328Y-97238449D01*
X78612966Y-97224000D01*
X78687034Y-97224000D01*
X78759674Y-97238449D01*
X78803096Y-97256435D01*
X78826545Y-97263548D01*
X78850931Y-97265950D01*
X78875317Y-97263548D01*
X78898766Y-97256435D01*
X78920376Y-97244884D01*
X78939318Y-97229339D01*
X78954864Y-97210397D01*
X78966415Y-97188786D01*
X78973528Y-97165338D01*
X78988449Y-97090327D01*
X79008881Y-97041000D01*
X79016793Y-97021897D01*
X79021190Y-97015316D01*
X79032738Y-96993713D01*
X79039851Y-96970264D01*
X79042253Y-96945878D01*
X79039851Y-96921492D01*
X79032739Y-96898043D01*
X79021188Y-96876432D01*
X79005643Y-96857490D01*
X78986701Y-96841945D01*
X78965090Y-96830393D01*
X78941641Y-96823280D01*
X78929530Y-96821483D01*
X78901787Y-96818751D01*
X78807348Y-96790103D01*
X78720313Y-96743582D01*
X78672943Y-96704707D01*
X79363932Y-96704707D01*
X79363982Y-96729211D01*
X79368812Y-96753235D01*
X79378235Y-96775855D01*
X79391890Y-96796201D01*
X79409252Y-96813493D01*
X79429655Y-96827065D01*
X79463885Y-96839287D01*
X79464401Y-96839390D01*
X79488786Y-96841808D01*
X79513174Y-96839423D01*
X79536627Y-96832325D01*
X79558246Y-96820789D01*
X79577198Y-96805256D01*
X79592756Y-96786325D01*
X79604322Y-96764722D01*
X79611451Y-96741278D01*
X79613869Y-96716893D01*
X79611484Y-96692505D01*
X79604386Y-96669052D01*
X79592796Y-96647353D01*
X79592526Y-96646949D01*
X79576979Y-96628009D01*
X79558036Y-96612465D01*
X79536424Y-96600916D01*
X79512974Y-96593805D01*
X79488588Y-96591406D01*
X79464202Y-96593810D01*
X79440754Y-96600926D01*
X79419144Y-96612479D01*
X79400204Y-96628026D01*
X79391836Y-96637277D01*
X79391562Y-96637611D01*
X79377995Y-96658007D01*
X79368664Y-96680664D01*
X79363932Y-96704707D01*
X78672943Y-96704707D01*
X78644025Y-96680975D01*
X78581418Y-96604687D01*
X78534897Y-96517651D01*
X78506249Y-96423212D01*
X78499000Y-96349611D01*
X78499000Y-96285944D01*
X78496598Y-96261558D01*
X78489485Y-96238109D01*
X78477934Y-96216498D01*
X78462389Y-96197556D01*
X78443447Y-96182011D01*
X78421836Y-96170460D01*
X78410286Y-96166327D01*
X78401797Y-96163752D01*
X78401787Y-96163751D01*
X78307348Y-96135103D01*
X78220313Y-96088582D01*
X78144025Y-96025975D01*
X78081418Y-95949687D01*
X78034897Y-95862652D01*
X78006249Y-95768213D01*
X77996576Y-95670000D01*
X78006249Y-95571787D01*
X78034897Y-95477348D01*
X78081418Y-95390313D01*
X78144025Y-95314025D01*
X78220313Y-95251418D01*
X78307348Y-95204897D01*
X78401787Y-95176249D01*
X78475388Y-95169000D01*
X79024612Y-95169000D01*
X79098213Y-95176249D01*
X79098213Y-95176249D01*
G37*
G36*
X73148213Y-103836249D02*
G01*
X73242652Y-103864897D01*
X73329687Y-103911418D01*
X73405975Y-103974025D01*
X73468582Y-104050313D01*
X73515103Y-104137348D01*
X73543751Y-104231787D01*
X73553424Y-104330000D01*
X73543751Y-104428213D01*
X73515103Y-104522652D01*
X73468582Y-104609687D01*
X73405975Y-104685975D01*
X73329687Y-104748582D01*
X73242652Y-104795103D01*
X73148213Y-104823751D01*
X73074612Y-104831000D01*
X72525388Y-104831000D01*
X72451787Y-104823751D01*
X72357348Y-104795103D01*
X72270313Y-104748582D01*
X72194025Y-104685975D01*
X72131418Y-104609687D01*
X72084897Y-104522652D01*
X72056249Y-104428213D01*
X72046576Y-104330000D01*
X72056249Y-104231787D01*
X72084897Y-104137348D01*
X72131418Y-104050313D01*
X72194025Y-103974025D01*
X72270313Y-103911418D01*
X72357348Y-103864897D01*
X72451787Y-103836249D01*
X72525388Y-103829000D01*
X73074612Y-103829000D01*
X73148213Y-103836249D01*
X73148213Y-103836249D01*
G37*
G36*
X113570721Y-103460174D02*
G01*
X113670995Y-103501709D01*
X113670996Y-103501710D01*
X113761242Y-103562010D01*
X113837990Y-103638758D01*
X113845983Y-103650721D01*
X113898291Y-103729005D01*
X113939826Y-103829279D01*
X113961000Y-103935730D01*
X113961000Y-104044270D01*
X113939826Y-104150721D01*
X113898291Y-104250995D01*
X113898290Y-104250996D01*
X113837990Y-104341242D01*
X113761242Y-104417990D01*
X113753425Y-104423213D01*
X113670995Y-104478291D01*
X113570721Y-104519826D01*
X113464270Y-104541000D01*
X113355730Y-104541000D01*
X113249279Y-104519826D01*
X113149005Y-104478291D01*
X113066575Y-104423213D01*
X113058758Y-104417990D01*
X112982010Y-104341242D01*
X112921710Y-104250996D01*
X112921709Y-104250995D01*
X112880174Y-104150721D01*
X112859000Y-104044270D01*
X112859000Y-103935730D01*
X112880174Y-103829279D01*
X112921709Y-103729005D01*
X112974017Y-103650721D01*
X112982010Y-103638758D01*
X113058758Y-103562010D01*
X113149004Y-103501710D01*
X113149005Y-103501709D01*
X113249279Y-103460174D01*
X113355730Y-103439000D01*
X113464270Y-103439000D01*
X113570721Y-103460174D01*
X113570721Y-103460174D01*
G37*
G36*
X115070721Y-102960174D02*
G01*
X115170995Y-103001709D01*
X115195132Y-103017837D01*
X115261242Y-103062010D01*
X115337990Y-103138758D01*
X115337991Y-103138760D01*
X115398291Y-103229005D01*
X115439826Y-103329279D01*
X115461000Y-103435730D01*
X115461000Y-103544270D01*
X115439826Y-103650721D01*
X115398291Y-103750995D01*
X115398290Y-103750996D01*
X115337990Y-103841242D01*
X115261242Y-103917990D01*
X115215812Y-103948345D01*
X115170995Y-103978291D01*
X115070721Y-104019826D01*
X114964270Y-104041000D01*
X114855730Y-104041000D01*
X114749279Y-104019826D01*
X114649005Y-103978291D01*
X114604188Y-103948345D01*
X114558758Y-103917990D01*
X114482010Y-103841242D01*
X114421710Y-103750996D01*
X114421709Y-103750995D01*
X114380174Y-103650721D01*
X114359000Y-103544270D01*
X114359000Y-103435730D01*
X114380174Y-103329279D01*
X114421709Y-103229005D01*
X114482009Y-103138760D01*
X114482010Y-103138758D01*
X114558758Y-103062010D01*
X114624868Y-103017837D01*
X114649005Y-103001709D01*
X114749279Y-102960174D01*
X114855730Y-102939000D01*
X114964270Y-102939000D01*
X115070721Y-102960174D01*
X115070721Y-102960174D01*
G37*
G36*
X113570721Y-101460174D02*
G01*
X113670995Y-101501709D01*
X113670996Y-101501710D01*
X113761242Y-101562010D01*
X113837990Y-101638758D01*
X113837991Y-101638760D01*
X113898291Y-101729005D01*
X113939826Y-101829279D01*
X113961000Y-101935730D01*
X113961000Y-102044270D01*
X113939826Y-102150721D01*
X113898291Y-102250995D01*
X113898290Y-102250996D01*
X113837990Y-102341242D01*
X113761242Y-102417990D01*
X113752247Y-102424000D01*
X113670995Y-102478291D01*
X113570721Y-102519826D01*
X113464270Y-102541000D01*
X113355730Y-102541000D01*
X113249279Y-102519826D01*
X113149005Y-102478291D01*
X113067753Y-102424000D01*
X113058758Y-102417990D01*
X112982010Y-102341242D01*
X112921710Y-102250996D01*
X112921709Y-102250995D01*
X112880174Y-102150721D01*
X112859000Y-102044270D01*
X112859000Y-101935730D01*
X112880174Y-101829279D01*
X112921709Y-101729005D01*
X112982009Y-101638760D01*
X112982010Y-101638758D01*
X113058758Y-101562010D01*
X113149004Y-101501710D01*
X113149005Y-101501709D01*
X113249279Y-101460174D01*
X113355730Y-101439000D01*
X113464270Y-101439000D01*
X113570721Y-101460174D01*
X113570721Y-101460174D01*
G37*
G36*
X115070721Y-100460174D02*
G01*
X115170995Y-100501709D01*
X115170996Y-100501710D01*
X115261242Y-100562010D01*
X115337990Y-100638758D01*
X115362617Y-100675615D01*
X115398291Y-100729005D01*
X115439826Y-100829279D01*
X115461000Y-100935730D01*
X115461000Y-101044270D01*
X115439826Y-101150721D01*
X115398291Y-101250995D01*
X115398290Y-101250996D01*
X115337990Y-101341242D01*
X115261242Y-101417990D01*
X115229798Y-101439000D01*
X115170995Y-101478291D01*
X115070721Y-101519826D01*
X114964270Y-101541000D01*
X114855730Y-101541000D01*
X114749279Y-101519826D01*
X114649005Y-101478291D01*
X114590202Y-101439000D01*
X114558758Y-101417990D01*
X114482010Y-101341242D01*
X114421710Y-101250996D01*
X114421709Y-101250995D01*
X114380174Y-101150721D01*
X114359000Y-101044270D01*
X114359000Y-100935730D01*
X114380174Y-100829279D01*
X114421709Y-100729005D01*
X114457383Y-100675615D01*
X114482010Y-100638758D01*
X114558758Y-100562010D01*
X114649004Y-100501710D01*
X114649005Y-100501709D01*
X114749279Y-100460174D01*
X114855730Y-100439000D01*
X114964270Y-100439000D01*
X115070721Y-100460174D01*
X115070721Y-100460174D01*
G37*
G36*
X95087797Y-98660567D02*
G01*
X95142575Y-98683257D01*
X95142577Y-98683258D01*
X95191876Y-98716198D01*
X95233802Y-98758124D01*
X95266742Y-98807423D01*
X95266743Y-98807425D01*
X95289433Y-98862203D01*
X95301000Y-98920353D01*
X95301000Y-98979647D01*
X95289433Y-99037797D01*
X95266957Y-99092058D01*
X95266742Y-99092577D01*
X95233802Y-99141876D01*
X95191876Y-99183802D01*
X95191873Y-99183804D01*
X95173520Y-99196067D01*
X95154578Y-99211612D01*
X95139033Y-99230554D01*
X95127481Y-99252164D01*
X95120368Y-99275613D01*
X95117966Y-99299999D01*
X95120368Y-99324385D01*
X95127481Y-99347834D01*
X95139032Y-99369445D01*
X95154577Y-99388387D01*
X95173520Y-99403933D01*
X95191876Y-99416198D01*
X95233802Y-99458124D01*
X95266742Y-99507423D01*
X95266743Y-99507425D01*
X95289433Y-99562203D01*
X95301000Y-99620353D01*
X95301000Y-99679647D01*
X95289433Y-99737797D01*
X95266743Y-99792575D01*
X95266742Y-99792577D01*
X95233802Y-99841876D01*
X95191876Y-99883802D01*
X95191873Y-99883804D01*
X95173520Y-99896067D01*
X95154578Y-99911612D01*
X95139033Y-99930554D01*
X95127481Y-99952164D01*
X95120368Y-99975613D01*
X95117966Y-99999999D01*
X95120368Y-100024385D01*
X95127481Y-100047834D01*
X95139032Y-100069445D01*
X95154577Y-100088387D01*
X95173520Y-100103933D01*
X95191876Y-100116198D01*
X95233802Y-100158124D01*
X95266742Y-100207423D01*
X95266743Y-100207425D01*
X95289433Y-100262203D01*
X95301000Y-100320353D01*
X95301000Y-100379647D01*
X95289433Y-100437797D01*
X95266743Y-100492575D01*
X95266742Y-100492577D01*
X95233802Y-100541876D01*
X95191876Y-100583802D01*
X95191873Y-100583804D01*
X95173520Y-100596067D01*
X95154578Y-100611612D01*
X95139033Y-100630554D01*
X95127481Y-100652164D01*
X95120368Y-100675613D01*
X95117966Y-100699999D01*
X95120368Y-100724385D01*
X95127481Y-100747834D01*
X95139032Y-100769445D01*
X95154577Y-100788387D01*
X95173520Y-100803933D01*
X95191876Y-100816198D01*
X95233802Y-100858124D01*
X95266742Y-100907423D01*
X95266743Y-100907425D01*
X95289433Y-100962203D01*
X95301000Y-101020353D01*
X95301000Y-101079647D01*
X95289433Y-101137797D01*
X95266743Y-101192575D01*
X95266742Y-101192577D01*
X95233802Y-101241876D01*
X95191876Y-101283802D01*
X95142577Y-101316742D01*
X95142576Y-101316743D01*
X95142575Y-101316743D01*
X95087797Y-101339433D01*
X95029647Y-101351000D01*
X94970353Y-101351000D01*
X94912203Y-101339433D01*
X94857425Y-101316743D01*
X94857424Y-101316743D01*
X94857423Y-101316742D01*
X94808124Y-101283802D01*
X94766198Y-101241876D01*
X94733258Y-101192577D01*
X94733257Y-101192575D01*
X94710567Y-101137797D01*
X94699000Y-101079647D01*
X94699000Y-101020353D01*
X94710567Y-100962203D01*
X94733257Y-100907425D01*
X94733258Y-100907423D01*
X94766198Y-100858124D01*
X94808124Y-100816198D01*
X94826480Y-100803933D01*
X94845422Y-100788388D01*
X94860967Y-100769446D01*
X94872519Y-100747836D01*
X94879632Y-100724387D01*
X94882034Y-100700001D01*
X94879632Y-100675615D01*
X94872519Y-100652166D01*
X94860968Y-100630555D01*
X94845423Y-100611613D01*
X94826480Y-100596067D01*
X94808127Y-100583804D01*
X94808124Y-100583802D01*
X94766198Y-100541876D01*
X94733258Y-100492577D01*
X94733257Y-100492575D01*
X94710567Y-100437797D01*
X94699000Y-100379647D01*
X94699000Y-100320353D01*
X94710567Y-100262203D01*
X94733257Y-100207425D01*
X94733258Y-100207423D01*
X94766198Y-100158124D01*
X94808124Y-100116198D01*
X94826480Y-100103933D01*
X94845422Y-100088388D01*
X94860967Y-100069446D01*
X94872519Y-100047836D01*
X94879632Y-100024387D01*
X94882034Y-100000001D01*
X94879632Y-99975615D01*
X94872519Y-99952166D01*
X94860968Y-99930555D01*
X94845423Y-99911613D01*
X94826480Y-99896067D01*
X94808127Y-99883804D01*
X94808124Y-99883802D01*
X94766198Y-99841876D01*
X94733258Y-99792577D01*
X94733257Y-99792575D01*
X94710567Y-99737797D01*
X94699000Y-99679647D01*
X94699000Y-99620353D01*
X94710567Y-99562203D01*
X94733257Y-99507425D01*
X94733258Y-99507423D01*
X94766198Y-99458124D01*
X94808124Y-99416198D01*
X94826480Y-99403933D01*
X94845422Y-99388388D01*
X94860967Y-99369446D01*
X94872519Y-99347836D01*
X94879632Y-99324387D01*
X94882034Y-99300001D01*
X94879632Y-99275615D01*
X94872519Y-99252166D01*
X94860968Y-99230555D01*
X94845423Y-99211613D01*
X94826480Y-99196067D01*
X94808127Y-99183804D01*
X94808124Y-99183802D01*
X94766198Y-99141876D01*
X94733258Y-99092577D01*
X94733043Y-99092058D01*
X94710567Y-99037797D01*
X94699000Y-98979647D01*
X94699000Y-98920353D01*
X94710567Y-98862203D01*
X94733257Y-98807425D01*
X94733258Y-98807423D01*
X94766198Y-98758124D01*
X94808124Y-98716198D01*
X94857423Y-98683258D01*
X94857425Y-98683257D01*
X94912203Y-98660567D01*
X94970353Y-98649000D01*
X95029647Y-98649000D01*
X95087797Y-98660567D01*
X95087797Y-98660567D01*
G37*
G36*
X113570721Y-99460174D02*
G01*
X113670995Y-99501709D01*
X113698107Y-99519825D01*
X113761242Y-99562010D01*
X113837990Y-99638758D01*
X113837991Y-99638760D01*
X113898291Y-99729005D01*
X113939826Y-99829279D01*
X113961000Y-99935730D01*
X113961000Y-100044270D01*
X113939826Y-100150721D01*
X113898291Y-100250995D01*
X113890802Y-100262203D01*
X113837990Y-100341242D01*
X113761242Y-100417990D01*
X113731597Y-100437798D01*
X113670995Y-100478291D01*
X113570721Y-100519826D01*
X113464270Y-100541000D01*
X113355730Y-100541000D01*
X113249279Y-100519826D01*
X113149005Y-100478291D01*
X113088403Y-100437798D01*
X113058758Y-100417990D01*
X112982010Y-100341242D01*
X112929198Y-100262203D01*
X112921709Y-100250995D01*
X112880174Y-100150721D01*
X112859000Y-100044270D01*
X112859000Y-99935730D01*
X112880174Y-99829279D01*
X112921709Y-99729005D01*
X112982009Y-99638760D01*
X112982010Y-99638758D01*
X113058758Y-99562010D01*
X113121893Y-99519825D01*
X113149005Y-99501709D01*
X113249279Y-99460174D01*
X113355730Y-99439000D01*
X113464270Y-99439000D01*
X113570721Y-99460174D01*
X113570721Y-99460174D01*
G37*
G36*
X115070721Y-98460174D02*
G01*
X115170995Y-98501709D01*
X115170996Y-98501710D01*
X115261242Y-98562010D01*
X115337990Y-98638758D01*
X115337991Y-98638760D01*
X115398291Y-98729005D01*
X115439826Y-98829279D01*
X115461000Y-98935730D01*
X115461000Y-99044270D01*
X115439826Y-99150721D01*
X115398291Y-99250995D01*
X115387735Y-99266793D01*
X115337990Y-99341242D01*
X115261242Y-99417990D01*
X115229798Y-99439000D01*
X115170995Y-99478291D01*
X115070721Y-99519826D01*
X114964270Y-99541000D01*
X114855730Y-99541000D01*
X114749279Y-99519826D01*
X114649005Y-99478291D01*
X114590202Y-99439000D01*
X114558758Y-99417990D01*
X114482010Y-99341242D01*
X114432265Y-99266793D01*
X114421709Y-99250995D01*
X114380174Y-99150721D01*
X114359000Y-99044270D01*
X114359000Y-98935730D01*
X114380174Y-98829279D01*
X114421709Y-98729005D01*
X114482009Y-98638760D01*
X114482010Y-98638758D01*
X114558758Y-98562010D01*
X114649004Y-98501710D01*
X114649005Y-98501709D01*
X114749279Y-98460174D01*
X114855730Y-98439000D01*
X114964270Y-98439000D01*
X115070721Y-98460174D01*
X115070721Y-98460174D01*
G37*
G36*
X113570721Y-97460174D02*
G01*
X113670995Y-97501709D01*
X113670996Y-97501710D01*
X113761242Y-97562010D01*
X113837990Y-97638758D01*
X113837991Y-97638760D01*
X113898291Y-97729005D01*
X113939826Y-97829279D01*
X113961000Y-97935730D01*
X113961000Y-98044270D01*
X113939826Y-98150721D01*
X113898291Y-98250995D01*
X113898290Y-98250996D01*
X113837990Y-98341242D01*
X113761242Y-98417990D01*
X113752247Y-98424000D01*
X113670995Y-98478291D01*
X113570721Y-98519826D01*
X113464270Y-98541000D01*
X113355730Y-98541000D01*
X113249279Y-98519826D01*
X113149005Y-98478291D01*
X113067753Y-98424000D01*
X113058758Y-98417990D01*
X112982010Y-98341242D01*
X112921710Y-98250996D01*
X112921709Y-98250995D01*
X112880174Y-98150721D01*
X112859000Y-98044270D01*
X112859000Y-97935730D01*
X112880174Y-97829279D01*
X112921709Y-97729005D01*
X112982009Y-97638760D01*
X112982010Y-97638758D01*
X113058758Y-97562010D01*
X113149004Y-97501710D01*
X113149005Y-97501709D01*
X113249279Y-97460174D01*
X113355730Y-97439000D01*
X113464270Y-97439000D01*
X113570721Y-97460174D01*
X113570721Y-97460174D01*
G37*
G36*
X115070721Y-95960174D02*
G01*
X115170995Y-96001709D01*
X115213735Y-96030267D01*
X115261242Y-96062010D01*
X115337990Y-96138758D01*
X115368345Y-96184188D01*
X115398291Y-96229005D01*
X115439826Y-96329279D01*
X115461000Y-96435730D01*
X115461000Y-96544270D01*
X115439826Y-96650721D01*
X115398291Y-96750995D01*
X115381680Y-96775855D01*
X115337990Y-96841242D01*
X115261242Y-96917990D01*
X115226342Y-96941309D01*
X115170995Y-96978291D01*
X115070721Y-97019826D01*
X114964270Y-97041000D01*
X114855730Y-97041000D01*
X114749279Y-97019826D01*
X114649005Y-96978291D01*
X114593658Y-96941309D01*
X114558758Y-96917990D01*
X114482010Y-96841242D01*
X114438320Y-96775855D01*
X114421709Y-96750995D01*
X114380174Y-96650721D01*
X114359000Y-96544270D01*
X114359000Y-96435730D01*
X114380174Y-96329279D01*
X114421709Y-96229005D01*
X114451655Y-96184188D01*
X114482010Y-96138758D01*
X114558758Y-96062010D01*
X114606265Y-96030267D01*
X114649005Y-96001709D01*
X114749279Y-95960174D01*
X114855730Y-95939000D01*
X114964270Y-95939000D01*
X115070721Y-95960174D01*
X115070721Y-95960174D01*
G37*
G36*
X113570721Y-95460174D02*
G01*
X113670995Y-95501709D01*
X113670996Y-95501710D01*
X113761242Y-95562010D01*
X113837990Y-95638758D01*
X113837991Y-95638760D01*
X113898291Y-95729005D01*
X113939826Y-95829279D01*
X113961000Y-95935730D01*
X113961000Y-96044270D01*
X113939826Y-96150721D01*
X113898291Y-96250995D01*
X113891501Y-96261157D01*
X113837990Y-96341242D01*
X113761242Y-96417990D01*
X113718002Y-96446882D01*
X113670995Y-96478291D01*
X113570721Y-96519826D01*
X113464270Y-96541000D01*
X113355730Y-96541000D01*
X113249279Y-96519826D01*
X113149005Y-96478291D01*
X113101998Y-96446882D01*
X113058758Y-96417990D01*
X112982010Y-96341242D01*
X112928499Y-96261157D01*
X112921709Y-96250995D01*
X112880174Y-96150721D01*
X112859000Y-96044270D01*
X112859000Y-95935730D01*
X112880174Y-95829279D01*
X112921709Y-95729005D01*
X112982009Y-95638760D01*
X112982010Y-95638758D01*
X113058758Y-95562010D01*
X113149004Y-95501710D01*
X113149005Y-95501709D01*
X113249279Y-95460174D01*
X113355730Y-95439000D01*
X113464270Y-95439000D01*
X113570721Y-95460174D01*
X113570721Y-95460174D01*
G37*
G36*
X73148213Y-95176249D02*
G01*
X73242652Y-95204897D01*
X73329687Y-95251418D01*
X73405975Y-95314025D01*
X73468582Y-95390313D01*
X73515103Y-95477348D01*
X73543751Y-95571787D01*
X73553424Y-95670000D01*
X73543751Y-95768213D01*
X73515103Y-95862652D01*
X73468582Y-95949687D01*
X73405975Y-96025975D01*
X73329687Y-96088582D01*
X73242652Y-96135103D01*
X73148213Y-96163751D01*
X73074612Y-96171000D01*
X72525388Y-96171000D01*
X72451787Y-96163751D01*
X72357348Y-96135103D01*
X72270313Y-96088582D01*
X72194025Y-96025975D01*
X72131418Y-95949687D01*
X72084897Y-95862652D01*
X72056249Y-95768213D01*
X72046576Y-95670000D01*
X72056249Y-95571787D01*
X72084897Y-95477348D01*
X72131418Y-95390313D01*
X72194025Y-95314025D01*
X72270313Y-95251418D01*
X72357348Y-95204897D01*
X72451787Y-95176249D01*
X72525388Y-95169000D01*
X73074612Y-95169000D01*
X73148213Y-95176249D01*
X73148213Y-95176249D01*
G37*
G36*
X115212585Y-91898802D02*
G01*
X115362410Y-91928604D01*
X115644674Y-92045521D01*
X115898705Y-92215259D01*
X116114741Y-92431295D01*
X116284479Y-92685326D01*
X116401396Y-92967590D01*
X116461000Y-93267240D01*
X116461000Y-93572760D01*
X116401396Y-93872410D01*
X116284479Y-94154674D01*
X116114741Y-94408705D01*
X115898705Y-94624741D01*
X115644674Y-94794479D01*
X115362410Y-94911396D01*
X115212585Y-94941198D01*
X115062761Y-94971000D01*
X114757239Y-94971000D01*
X114607415Y-94941198D01*
X114457590Y-94911396D01*
X114175326Y-94794479D01*
X113921295Y-94624741D01*
X113705259Y-94408705D01*
X113535521Y-94154674D01*
X113418604Y-93872410D01*
X113359000Y-93572760D01*
X113359000Y-93267240D01*
X113418604Y-92967590D01*
X113535521Y-92685326D01*
X113705259Y-92431295D01*
X113921295Y-92215259D01*
X114175326Y-92045521D01*
X114457590Y-91928604D01*
X114607415Y-91898802D01*
X114757239Y-91869000D01*
X115062761Y-91869000D01*
X115212585Y-91898802D01*
X115212585Y-91898802D01*
G37*
G36*
X105520443Y-89275519D02*
G01*
X105586627Y-89282037D01*
X105756466Y-89333557D01*
X105912991Y-89417222D01*
X105948729Y-89446552D01*
X106050186Y-89529814D01*
X106133448Y-89631271D01*
X106162778Y-89667009D01*
X106246443Y-89823534D01*
X106297963Y-89993373D01*
X106315359Y-90170000D01*
X106297963Y-90346627D01*
X106246443Y-90516466D01*
X106162778Y-90672991D01*
X106133448Y-90708729D01*
X106050186Y-90810186D01*
X105948729Y-90893448D01*
X105912991Y-90922778D01*
X105756466Y-91006443D01*
X105586627Y-91057963D01*
X105520442Y-91064482D01*
X105454260Y-91071000D01*
X105365740Y-91071000D01*
X105299558Y-91064482D01*
X105233373Y-91057963D01*
X105063534Y-91006443D01*
X104907009Y-90922778D01*
X104871271Y-90893448D01*
X104769814Y-90810186D01*
X104686552Y-90708729D01*
X104657222Y-90672991D01*
X104573557Y-90516466D01*
X104522037Y-90346627D01*
X104504641Y-90170000D01*
X104522037Y-89993373D01*
X104573557Y-89823534D01*
X104657222Y-89667009D01*
X104686552Y-89631271D01*
X104769814Y-89529814D01*
X104871271Y-89446552D01*
X104907009Y-89417222D01*
X105063534Y-89333557D01*
X105233373Y-89282037D01*
X105299557Y-89275519D01*
X105365740Y-89269000D01*
X105454260Y-89269000D01*
X105520443Y-89275519D01*
X105520443Y-89275519D01*
G37*
G36*
X103771000Y-91071000D02*
G01*
X101969000Y-91071000D01*
X101969000Y-89269000D01*
X103771000Y-89269000D01*
X103771000Y-91071000D01*
X103771000Y-91071000D01*
G37*
G36*
X108060443Y-89275519D02*
G01*
X108126627Y-89282037D01*
X108296466Y-89333557D01*
X108452991Y-89417222D01*
X108488729Y-89446552D01*
X108590186Y-89529814D01*
X108673448Y-89631271D01*
X108702778Y-89667009D01*
X108786443Y-89823534D01*
X108837963Y-89993373D01*
X108855359Y-90170000D01*
X108837963Y-90346627D01*
X108786443Y-90516466D01*
X108702778Y-90672991D01*
X108673448Y-90708729D01*
X108590186Y-90810186D01*
X108488729Y-90893448D01*
X108452991Y-90922778D01*
X108296466Y-91006443D01*
X108126627Y-91057963D01*
X108060442Y-91064482D01*
X107994260Y-91071000D01*
X107905740Y-91071000D01*
X107839558Y-91064482D01*
X107773373Y-91057963D01*
X107603534Y-91006443D01*
X107447009Y-90922778D01*
X107411271Y-90893448D01*
X107309814Y-90810186D01*
X107226552Y-90708729D01*
X107197222Y-90672991D01*
X107113557Y-90516466D01*
X107062037Y-90346627D01*
X107044641Y-90170000D01*
X107062037Y-89993373D01*
X107113557Y-89823534D01*
X107197222Y-89667009D01*
X107226552Y-89631271D01*
X107309814Y-89529814D01*
X107411271Y-89446552D01*
X107447009Y-89417222D01*
X107603534Y-89333557D01*
X107773373Y-89282037D01*
X107839557Y-89275519D01*
X107905740Y-89269000D01*
X107994260Y-89269000D01*
X108060443Y-89275519D01*
X108060443Y-89275519D01*
G37*
G36*
X110600443Y-89275519D02*
G01*
X110666627Y-89282037D01*
X110836466Y-89333557D01*
X110992991Y-89417222D01*
X111028729Y-89446552D01*
X111130186Y-89529814D01*
X111213448Y-89631271D01*
X111242778Y-89667009D01*
X111326443Y-89823534D01*
X111377963Y-89993373D01*
X111395359Y-90170000D01*
X111377963Y-90346627D01*
X111326443Y-90516466D01*
X111242778Y-90672991D01*
X111213448Y-90708729D01*
X111130186Y-90810186D01*
X111028729Y-90893448D01*
X110992991Y-90922778D01*
X110836466Y-91006443D01*
X110666627Y-91057963D01*
X110600442Y-91064482D01*
X110534260Y-91071000D01*
X110445740Y-91071000D01*
X110379558Y-91064482D01*
X110313373Y-91057963D01*
X110143534Y-91006443D01*
X109987009Y-90922778D01*
X109951271Y-90893448D01*
X109849814Y-90810186D01*
X109766552Y-90708729D01*
X109737222Y-90672991D01*
X109653557Y-90516466D01*
X109602037Y-90346627D01*
X109584641Y-90170000D01*
X109602037Y-89993373D01*
X109653557Y-89823534D01*
X109737222Y-89667009D01*
X109766552Y-89631271D01*
X109849814Y-89529814D01*
X109951271Y-89446552D01*
X109987009Y-89417222D01*
X110143534Y-89333557D01*
X110313373Y-89282037D01*
X110379557Y-89275519D01*
X110445740Y-89269000D01*
X110534260Y-89269000D01*
X110600443Y-89275519D01*
X110600443Y-89275519D01*
G37*
G36*
X102980442Y-85465518D02*
G01*
X103046627Y-85472037D01*
X103216466Y-85523557D01*
X103372991Y-85607222D01*
X103408729Y-85636552D01*
X103510186Y-85719814D01*
X103593448Y-85821271D01*
X103622778Y-85857009D01*
X103706443Y-86013534D01*
X103757963Y-86183373D01*
X103775359Y-86360000D01*
X103757963Y-86536627D01*
X103706443Y-86706466D01*
X103622778Y-86862991D01*
X103593448Y-86898729D01*
X103510186Y-87000186D01*
X103408729Y-87083448D01*
X103372991Y-87112778D01*
X103216466Y-87196443D01*
X103046627Y-87247963D01*
X102980442Y-87254482D01*
X102914260Y-87261000D01*
X102825740Y-87261000D01*
X102759558Y-87254482D01*
X102693373Y-87247963D01*
X102523534Y-87196443D01*
X102367009Y-87112778D01*
X102331271Y-87083448D01*
X102229814Y-87000186D01*
X102146552Y-86898729D01*
X102117222Y-86862991D01*
X102033557Y-86706466D01*
X101982037Y-86536627D01*
X101964641Y-86360000D01*
X101982037Y-86183373D01*
X102033557Y-86013534D01*
X102117222Y-85857009D01*
X102146552Y-85821271D01*
X102229814Y-85719814D01*
X102331271Y-85636552D01*
X102367009Y-85607222D01*
X102523534Y-85523557D01*
X102693373Y-85472037D01*
X102759558Y-85465518D01*
X102825740Y-85459000D01*
X102914260Y-85459000D01*
X102980442Y-85465518D01*
X102980442Y-85465518D01*
G37*
G36*
X100440442Y-85465518D02*
G01*
X100506627Y-85472037D01*
X100676466Y-85523557D01*
X100832991Y-85607222D01*
X100868729Y-85636552D01*
X100970186Y-85719814D01*
X101053448Y-85821271D01*
X101082778Y-85857009D01*
X101166443Y-86013534D01*
X101217963Y-86183373D01*
X101235359Y-86360000D01*
X101217963Y-86536627D01*
X101166443Y-86706466D01*
X101082778Y-86862991D01*
X101053448Y-86898729D01*
X100970186Y-87000186D01*
X100868729Y-87083448D01*
X100832991Y-87112778D01*
X100676466Y-87196443D01*
X100506627Y-87247963D01*
X100440442Y-87254482D01*
X100374260Y-87261000D01*
X100285740Y-87261000D01*
X100219558Y-87254482D01*
X100153373Y-87247963D01*
X99983534Y-87196443D01*
X99827009Y-87112778D01*
X99791271Y-87083448D01*
X99689814Y-87000186D01*
X99606552Y-86898729D01*
X99577222Y-86862991D01*
X99493557Y-86706466D01*
X99442037Y-86536627D01*
X99424641Y-86360000D01*
X99442037Y-86183373D01*
X99493557Y-86013534D01*
X99577222Y-85857009D01*
X99606552Y-85821271D01*
X99689814Y-85719814D01*
X99791271Y-85636552D01*
X99827009Y-85607222D01*
X99983534Y-85523557D01*
X100153373Y-85472037D01*
X100219558Y-85465518D01*
X100285740Y-85459000D01*
X100374260Y-85459000D01*
X100440442Y-85465518D01*
X100440442Y-85465518D01*
G37*
G36*
X77580442Y-85465518D02*
G01*
X77646627Y-85472037D01*
X77816466Y-85523557D01*
X77972991Y-85607222D01*
X78008729Y-85636552D01*
X78110186Y-85719814D01*
X78193448Y-85821271D01*
X78222778Y-85857009D01*
X78306443Y-86013534D01*
X78357963Y-86183373D01*
X78375359Y-86360000D01*
X78357963Y-86536627D01*
X78306443Y-86706466D01*
X78222778Y-86862991D01*
X78193448Y-86898729D01*
X78110186Y-87000186D01*
X78008729Y-87083448D01*
X77972991Y-87112778D01*
X77816466Y-87196443D01*
X77646627Y-87247963D01*
X77580442Y-87254482D01*
X77514260Y-87261000D01*
X77425740Y-87261000D01*
X77359558Y-87254482D01*
X77293373Y-87247963D01*
X77123534Y-87196443D01*
X76967009Y-87112778D01*
X76931271Y-87083448D01*
X76829814Y-87000186D01*
X76746552Y-86898729D01*
X76717222Y-86862991D01*
X76633557Y-86706466D01*
X76582037Y-86536627D01*
X76564641Y-86360000D01*
X76582037Y-86183373D01*
X76633557Y-86013534D01*
X76717222Y-85857009D01*
X76746552Y-85821271D01*
X76829814Y-85719814D01*
X76931271Y-85636552D01*
X76967009Y-85607222D01*
X77123534Y-85523557D01*
X77293373Y-85472037D01*
X77359558Y-85465518D01*
X77425740Y-85459000D01*
X77514260Y-85459000D01*
X77580442Y-85465518D01*
X77580442Y-85465518D01*
G37*
G36*
X97900442Y-85465518D02*
G01*
X97966627Y-85472037D01*
X98136466Y-85523557D01*
X98292991Y-85607222D01*
X98328729Y-85636552D01*
X98430186Y-85719814D01*
X98513448Y-85821271D01*
X98542778Y-85857009D01*
X98626443Y-86013534D01*
X98677963Y-86183373D01*
X98695359Y-86360000D01*
X98677963Y-86536627D01*
X98626443Y-86706466D01*
X98542778Y-86862991D01*
X98513448Y-86898729D01*
X98430186Y-87000186D01*
X98328729Y-87083448D01*
X98292991Y-87112778D01*
X98136466Y-87196443D01*
X97966627Y-87247963D01*
X97900442Y-87254482D01*
X97834260Y-87261000D01*
X97745740Y-87261000D01*
X97679558Y-87254482D01*
X97613373Y-87247963D01*
X97443534Y-87196443D01*
X97287009Y-87112778D01*
X97251271Y-87083448D01*
X97149814Y-87000186D01*
X97066552Y-86898729D01*
X97037222Y-86862991D01*
X96953557Y-86706466D01*
X96902037Y-86536627D01*
X96884641Y-86360000D01*
X96902037Y-86183373D01*
X96953557Y-86013534D01*
X97037222Y-85857009D01*
X97066552Y-85821271D01*
X97149814Y-85719814D01*
X97251271Y-85636552D01*
X97287009Y-85607222D01*
X97443534Y-85523557D01*
X97613373Y-85472037D01*
X97679558Y-85465518D01*
X97745740Y-85459000D01*
X97834260Y-85459000D01*
X97900442Y-85465518D01*
X97900442Y-85465518D01*
G37*
G36*
X95360442Y-85465518D02*
G01*
X95426627Y-85472037D01*
X95596466Y-85523557D01*
X95752991Y-85607222D01*
X95788729Y-85636552D01*
X95890186Y-85719814D01*
X95973448Y-85821271D01*
X96002778Y-85857009D01*
X96086443Y-86013534D01*
X96137963Y-86183373D01*
X96155359Y-86360000D01*
X96137963Y-86536627D01*
X96086443Y-86706466D01*
X96002778Y-86862991D01*
X95973448Y-86898729D01*
X95890186Y-87000186D01*
X95788729Y-87083448D01*
X95752991Y-87112778D01*
X95596466Y-87196443D01*
X95426627Y-87247963D01*
X95360442Y-87254482D01*
X95294260Y-87261000D01*
X95205740Y-87261000D01*
X95139558Y-87254482D01*
X95073373Y-87247963D01*
X94903534Y-87196443D01*
X94747009Y-87112778D01*
X94711271Y-87083448D01*
X94609814Y-87000186D01*
X94526552Y-86898729D01*
X94497222Y-86862991D01*
X94413557Y-86706466D01*
X94362037Y-86536627D01*
X94344641Y-86360000D01*
X94362037Y-86183373D01*
X94413557Y-86013534D01*
X94497222Y-85857009D01*
X94526552Y-85821271D01*
X94609814Y-85719814D01*
X94711271Y-85636552D01*
X94747009Y-85607222D01*
X94903534Y-85523557D01*
X95073373Y-85472037D01*
X95139558Y-85465518D01*
X95205740Y-85459000D01*
X95294260Y-85459000D01*
X95360442Y-85465518D01*
X95360442Y-85465518D01*
G37*
G36*
X92820442Y-85465518D02*
G01*
X92886627Y-85472037D01*
X93056466Y-85523557D01*
X93212991Y-85607222D01*
X93248729Y-85636552D01*
X93350186Y-85719814D01*
X93433448Y-85821271D01*
X93462778Y-85857009D01*
X93546443Y-86013534D01*
X93597963Y-86183373D01*
X93615359Y-86360000D01*
X93597963Y-86536627D01*
X93546443Y-86706466D01*
X93462778Y-86862991D01*
X93433448Y-86898729D01*
X93350186Y-87000186D01*
X93248729Y-87083448D01*
X93212991Y-87112778D01*
X93056466Y-87196443D01*
X92886627Y-87247963D01*
X92820442Y-87254482D01*
X92754260Y-87261000D01*
X92665740Y-87261000D01*
X92599558Y-87254482D01*
X92533373Y-87247963D01*
X92363534Y-87196443D01*
X92207009Y-87112778D01*
X92171271Y-87083448D01*
X92069814Y-87000186D01*
X91986552Y-86898729D01*
X91957222Y-86862991D01*
X91873557Y-86706466D01*
X91822037Y-86536627D01*
X91804641Y-86360000D01*
X91822037Y-86183373D01*
X91873557Y-86013534D01*
X91957222Y-85857009D01*
X91986552Y-85821271D01*
X92069814Y-85719814D01*
X92171271Y-85636552D01*
X92207009Y-85607222D01*
X92363534Y-85523557D01*
X92533373Y-85472037D01*
X92599558Y-85465518D01*
X92665740Y-85459000D01*
X92754260Y-85459000D01*
X92820442Y-85465518D01*
X92820442Y-85465518D01*
G37*
G36*
X90280442Y-85465518D02*
G01*
X90346627Y-85472037D01*
X90516466Y-85523557D01*
X90672991Y-85607222D01*
X90708729Y-85636552D01*
X90810186Y-85719814D01*
X90893448Y-85821271D01*
X90922778Y-85857009D01*
X91006443Y-86013534D01*
X91057963Y-86183373D01*
X91075359Y-86360000D01*
X91057963Y-86536627D01*
X91006443Y-86706466D01*
X90922778Y-86862991D01*
X90893448Y-86898729D01*
X90810186Y-87000186D01*
X90708729Y-87083448D01*
X90672991Y-87112778D01*
X90516466Y-87196443D01*
X90346627Y-87247963D01*
X90280442Y-87254482D01*
X90214260Y-87261000D01*
X90125740Y-87261000D01*
X90059558Y-87254482D01*
X89993373Y-87247963D01*
X89823534Y-87196443D01*
X89667009Y-87112778D01*
X89631271Y-87083448D01*
X89529814Y-87000186D01*
X89446552Y-86898729D01*
X89417222Y-86862991D01*
X89333557Y-86706466D01*
X89282037Y-86536627D01*
X89264641Y-86360000D01*
X89282037Y-86183373D01*
X89333557Y-86013534D01*
X89417222Y-85857009D01*
X89446552Y-85821271D01*
X89529814Y-85719814D01*
X89631271Y-85636552D01*
X89667009Y-85607222D01*
X89823534Y-85523557D01*
X89993373Y-85472037D01*
X90059558Y-85465518D01*
X90125740Y-85459000D01*
X90214260Y-85459000D01*
X90280442Y-85465518D01*
X90280442Y-85465518D01*
G37*
G36*
X87740442Y-85465518D02*
G01*
X87806627Y-85472037D01*
X87976466Y-85523557D01*
X88132991Y-85607222D01*
X88168729Y-85636552D01*
X88270186Y-85719814D01*
X88353448Y-85821271D01*
X88382778Y-85857009D01*
X88466443Y-86013534D01*
X88517963Y-86183373D01*
X88535359Y-86360000D01*
X88517963Y-86536627D01*
X88466443Y-86706466D01*
X88382778Y-86862991D01*
X88353448Y-86898729D01*
X88270186Y-87000186D01*
X88168729Y-87083448D01*
X88132991Y-87112778D01*
X87976466Y-87196443D01*
X87806627Y-87247963D01*
X87740442Y-87254482D01*
X87674260Y-87261000D01*
X87585740Y-87261000D01*
X87519558Y-87254482D01*
X87453373Y-87247963D01*
X87283534Y-87196443D01*
X87127009Y-87112778D01*
X87091271Y-87083448D01*
X86989814Y-87000186D01*
X86906552Y-86898729D01*
X86877222Y-86862991D01*
X86793557Y-86706466D01*
X86742037Y-86536627D01*
X86724641Y-86360000D01*
X86742037Y-86183373D01*
X86793557Y-86013534D01*
X86877222Y-85857009D01*
X86906552Y-85821271D01*
X86989814Y-85719814D01*
X87091271Y-85636552D01*
X87127009Y-85607222D01*
X87283534Y-85523557D01*
X87453373Y-85472037D01*
X87519558Y-85465518D01*
X87585740Y-85459000D01*
X87674260Y-85459000D01*
X87740442Y-85465518D01*
X87740442Y-85465518D01*
G37*
G36*
X85200442Y-85465518D02*
G01*
X85266627Y-85472037D01*
X85436466Y-85523557D01*
X85592991Y-85607222D01*
X85628729Y-85636552D01*
X85730186Y-85719814D01*
X85813448Y-85821271D01*
X85842778Y-85857009D01*
X85926443Y-86013534D01*
X85977963Y-86183373D01*
X85995359Y-86360000D01*
X85977963Y-86536627D01*
X85926443Y-86706466D01*
X85842778Y-86862991D01*
X85813448Y-86898729D01*
X85730186Y-87000186D01*
X85628729Y-87083448D01*
X85592991Y-87112778D01*
X85436466Y-87196443D01*
X85266627Y-87247963D01*
X85200442Y-87254482D01*
X85134260Y-87261000D01*
X85045740Y-87261000D01*
X84979558Y-87254482D01*
X84913373Y-87247963D01*
X84743534Y-87196443D01*
X84587009Y-87112778D01*
X84551271Y-87083448D01*
X84449814Y-87000186D01*
X84366552Y-86898729D01*
X84337222Y-86862991D01*
X84253557Y-86706466D01*
X84202037Y-86536627D01*
X84184641Y-86360000D01*
X84202037Y-86183373D01*
X84253557Y-86013534D01*
X84337222Y-85857009D01*
X84366552Y-85821271D01*
X84449814Y-85719814D01*
X84551271Y-85636552D01*
X84587009Y-85607222D01*
X84743534Y-85523557D01*
X84913373Y-85472037D01*
X84979558Y-85465518D01*
X85045740Y-85459000D01*
X85134260Y-85459000D01*
X85200442Y-85465518D01*
X85200442Y-85465518D01*
G37*
G36*
X115680442Y-85465518D02*
G01*
X115746627Y-85472037D01*
X115916466Y-85523557D01*
X116072991Y-85607222D01*
X116108729Y-85636552D01*
X116210186Y-85719814D01*
X116293448Y-85821271D01*
X116322778Y-85857009D01*
X116406443Y-86013534D01*
X116457963Y-86183373D01*
X116475359Y-86360000D01*
X116457963Y-86536627D01*
X116406443Y-86706466D01*
X116322778Y-86862991D01*
X116293448Y-86898729D01*
X116210186Y-87000186D01*
X116108729Y-87083448D01*
X116072991Y-87112778D01*
X115916466Y-87196443D01*
X115746627Y-87247963D01*
X115680442Y-87254482D01*
X115614260Y-87261000D01*
X115525740Y-87261000D01*
X115459558Y-87254482D01*
X115393373Y-87247963D01*
X115223534Y-87196443D01*
X115067009Y-87112778D01*
X115031271Y-87083448D01*
X114929814Y-87000186D01*
X114846552Y-86898729D01*
X114817222Y-86862991D01*
X114733557Y-86706466D01*
X114682037Y-86536627D01*
X114664641Y-86360000D01*
X114682037Y-86183373D01*
X114733557Y-86013534D01*
X114817222Y-85857009D01*
X114846552Y-85821271D01*
X114929814Y-85719814D01*
X115031271Y-85636552D01*
X115067009Y-85607222D01*
X115223534Y-85523557D01*
X115393373Y-85472037D01*
X115459558Y-85465518D01*
X115525740Y-85459000D01*
X115614260Y-85459000D01*
X115680442Y-85465518D01*
X115680442Y-85465518D01*
G37*
G36*
X82660442Y-85465518D02*
G01*
X82726627Y-85472037D01*
X82896466Y-85523557D01*
X83052991Y-85607222D01*
X83088729Y-85636552D01*
X83190186Y-85719814D01*
X83273448Y-85821271D01*
X83302778Y-85857009D01*
X83386443Y-86013534D01*
X83437963Y-86183373D01*
X83455359Y-86360000D01*
X83437963Y-86536627D01*
X83386443Y-86706466D01*
X83302778Y-86862991D01*
X83273448Y-86898729D01*
X83190186Y-87000186D01*
X83088729Y-87083448D01*
X83052991Y-87112778D01*
X82896466Y-87196443D01*
X82726627Y-87247963D01*
X82660442Y-87254482D01*
X82594260Y-87261000D01*
X82505740Y-87261000D01*
X82439558Y-87254482D01*
X82373373Y-87247963D01*
X82203534Y-87196443D01*
X82047009Y-87112778D01*
X82011271Y-87083448D01*
X81909814Y-87000186D01*
X81826552Y-86898729D01*
X81797222Y-86862991D01*
X81713557Y-86706466D01*
X81662037Y-86536627D01*
X81644641Y-86360000D01*
X81662037Y-86183373D01*
X81713557Y-86013534D01*
X81797222Y-85857009D01*
X81826552Y-85821271D01*
X81909814Y-85719814D01*
X82011271Y-85636552D01*
X82047009Y-85607222D01*
X82203534Y-85523557D01*
X82373373Y-85472037D01*
X82439558Y-85465518D01*
X82505740Y-85459000D01*
X82594260Y-85459000D01*
X82660442Y-85465518D01*
X82660442Y-85465518D01*
G37*
G36*
X80120442Y-85465518D02*
G01*
X80186627Y-85472037D01*
X80356466Y-85523557D01*
X80512991Y-85607222D01*
X80548729Y-85636552D01*
X80650186Y-85719814D01*
X80733448Y-85821271D01*
X80762778Y-85857009D01*
X80846443Y-86013534D01*
X80897963Y-86183373D01*
X80915359Y-86360000D01*
X80897963Y-86536627D01*
X80846443Y-86706466D01*
X80762778Y-86862991D01*
X80733448Y-86898729D01*
X80650186Y-87000186D01*
X80548729Y-87083448D01*
X80512991Y-87112778D01*
X80356466Y-87196443D01*
X80186627Y-87247963D01*
X80120442Y-87254482D01*
X80054260Y-87261000D01*
X79965740Y-87261000D01*
X79899558Y-87254482D01*
X79833373Y-87247963D01*
X79663534Y-87196443D01*
X79507009Y-87112778D01*
X79471271Y-87083448D01*
X79369814Y-87000186D01*
X79286552Y-86898729D01*
X79257222Y-86862991D01*
X79173557Y-86706466D01*
X79122037Y-86536627D01*
X79104641Y-86360000D01*
X79122037Y-86183373D01*
X79173557Y-86013534D01*
X79257222Y-85857009D01*
X79286552Y-85821271D01*
X79369814Y-85719814D01*
X79471271Y-85636552D01*
X79507009Y-85607222D01*
X79663534Y-85523557D01*
X79833373Y-85472037D01*
X79899558Y-85465518D01*
X79965740Y-85459000D01*
X80054260Y-85459000D01*
X80120442Y-85465518D01*
X80120442Y-85465518D01*
G37*
G36*
X105520442Y-85465518D02*
G01*
X105586627Y-85472037D01*
X105756466Y-85523557D01*
X105912991Y-85607222D01*
X105948729Y-85636552D01*
X106050186Y-85719814D01*
X106133448Y-85821271D01*
X106162778Y-85857009D01*
X106246443Y-86013534D01*
X106297963Y-86183373D01*
X106315359Y-86360000D01*
X106297963Y-86536627D01*
X106246443Y-86706466D01*
X106162778Y-86862991D01*
X106133448Y-86898729D01*
X106050186Y-87000186D01*
X105948729Y-87083448D01*
X105912991Y-87112778D01*
X105756466Y-87196443D01*
X105586627Y-87247963D01*
X105520442Y-87254482D01*
X105454260Y-87261000D01*
X105365740Y-87261000D01*
X105299558Y-87254482D01*
X105233373Y-87247963D01*
X105063534Y-87196443D01*
X104907009Y-87112778D01*
X104871271Y-87083448D01*
X104769814Y-87000186D01*
X104686552Y-86898729D01*
X104657222Y-86862991D01*
X104573557Y-86706466D01*
X104522037Y-86536627D01*
X104504641Y-86360000D01*
X104522037Y-86183373D01*
X104573557Y-86013534D01*
X104657222Y-85857009D01*
X104686552Y-85821271D01*
X104769814Y-85719814D01*
X104871271Y-85636552D01*
X104907009Y-85607222D01*
X105063534Y-85523557D01*
X105233373Y-85472037D01*
X105299558Y-85465518D01*
X105365740Y-85459000D01*
X105454260Y-85459000D01*
X105520442Y-85465518D01*
X105520442Y-85465518D01*
G37*
G36*
X75040442Y-85465518D02*
G01*
X75106627Y-85472037D01*
X75276466Y-85523557D01*
X75432991Y-85607222D01*
X75468729Y-85636552D01*
X75570186Y-85719814D01*
X75653448Y-85821271D01*
X75682778Y-85857009D01*
X75766443Y-86013534D01*
X75817963Y-86183373D01*
X75835359Y-86360000D01*
X75817963Y-86536627D01*
X75766443Y-86706466D01*
X75682778Y-86862991D01*
X75653448Y-86898729D01*
X75570186Y-87000186D01*
X75468729Y-87083448D01*
X75432991Y-87112778D01*
X75276466Y-87196443D01*
X75106627Y-87247963D01*
X75040442Y-87254482D01*
X74974260Y-87261000D01*
X74885740Y-87261000D01*
X74819558Y-87254482D01*
X74753373Y-87247963D01*
X74583534Y-87196443D01*
X74427009Y-87112778D01*
X74391271Y-87083448D01*
X74289814Y-87000186D01*
X74206552Y-86898729D01*
X74177222Y-86862991D01*
X74093557Y-86706466D01*
X74042037Y-86536627D01*
X74024641Y-86360000D01*
X74042037Y-86183373D01*
X74093557Y-86013534D01*
X74177222Y-85857009D01*
X74206552Y-85821271D01*
X74289814Y-85719814D01*
X74391271Y-85636552D01*
X74427009Y-85607222D01*
X74583534Y-85523557D01*
X74753373Y-85472037D01*
X74819558Y-85465518D01*
X74885740Y-85459000D01*
X74974260Y-85459000D01*
X75040442Y-85465518D01*
X75040442Y-85465518D01*
G37*
G36*
X73291000Y-87261000D02*
G01*
X71489000Y-87261000D01*
X71489000Y-85459000D01*
X73291000Y-85459000D01*
X73291000Y-87261000D01*
X73291000Y-87261000D01*
G37*
G36*
X113140442Y-85465518D02*
G01*
X113206627Y-85472037D01*
X113376466Y-85523557D01*
X113532991Y-85607222D01*
X113568729Y-85636552D01*
X113670186Y-85719814D01*
X113753448Y-85821271D01*
X113782778Y-85857009D01*
X113866443Y-86013534D01*
X113917963Y-86183373D01*
X113935359Y-86360000D01*
X113917963Y-86536627D01*
X113866443Y-86706466D01*
X113782778Y-86862991D01*
X113753448Y-86898729D01*
X113670186Y-87000186D01*
X113568729Y-87083448D01*
X113532991Y-87112778D01*
X113376466Y-87196443D01*
X113206627Y-87247963D01*
X113140442Y-87254482D01*
X113074260Y-87261000D01*
X112985740Y-87261000D01*
X112919558Y-87254482D01*
X112853373Y-87247963D01*
X112683534Y-87196443D01*
X112527009Y-87112778D01*
X112491271Y-87083448D01*
X112389814Y-87000186D01*
X112306552Y-86898729D01*
X112277222Y-86862991D01*
X112193557Y-86706466D01*
X112142037Y-86536627D01*
X112124641Y-86360000D01*
X112142037Y-86183373D01*
X112193557Y-86013534D01*
X112277222Y-85857009D01*
X112306552Y-85821271D01*
X112389814Y-85719814D01*
X112491271Y-85636552D01*
X112527009Y-85607222D01*
X112683534Y-85523557D01*
X112853373Y-85472037D01*
X112919558Y-85465518D01*
X112985740Y-85459000D01*
X113074260Y-85459000D01*
X113140442Y-85465518D01*
X113140442Y-85465518D01*
G37*
G36*
X110600442Y-85465518D02*
G01*
X110666627Y-85472037D01*
X110836466Y-85523557D01*
X110992991Y-85607222D01*
X111028729Y-85636552D01*
X111130186Y-85719814D01*
X111213448Y-85821271D01*
X111242778Y-85857009D01*
X111326443Y-86013534D01*
X111377963Y-86183373D01*
X111395359Y-86360000D01*
X111377963Y-86536627D01*
X111326443Y-86706466D01*
X111242778Y-86862991D01*
X111213448Y-86898729D01*
X111130186Y-87000186D01*
X111028729Y-87083448D01*
X110992991Y-87112778D01*
X110836466Y-87196443D01*
X110666627Y-87247963D01*
X110600442Y-87254482D01*
X110534260Y-87261000D01*
X110445740Y-87261000D01*
X110379558Y-87254482D01*
X110313373Y-87247963D01*
X110143534Y-87196443D01*
X109987009Y-87112778D01*
X109951271Y-87083448D01*
X109849814Y-87000186D01*
X109766552Y-86898729D01*
X109737222Y-86862991D01*
X109653557Y-86706466D01*
X109602037Y-86536627D01*
X109584641Y-86360000D01*
X109602037Y-86183373D01*
X109653557Y-86013534D01*
X109737222Y-85857009D01*
X109766552Y-85821271D01*
X109849814Y-85719814D01*
X109951271Y-85636552D01*
X109987009Y-85607222D01*
X110143534Y-85523557D01*
X110313373Y-85472037D01*
X110379558Y-85465518D01*
X110445740Y-85459000D01*
X110534260Y-85459000D01*
X110600442Y-85465518D01*
X110600442Y-85465518D01*
G37*
G36*
X108060442Y-85465518D02*
G01*
X108126627Y-85472037D01*
X108296466Y-85523557D01*
X108452991Y-85607222D01*
X108488729Y-85636552D01*
X108590186Y-85719814D01*
X108673448Y-85821271D01*
X108702778Y-85857009D01*
X108786443Y-86013534D01*
X108837963Y-86183373D01*
X108855359Y-86360000D01*
X108837963Y-86536627D01*
X108786443Y-86706466D01*
X108702778Y-86862991D01*
X108673448Y-86898729D01*
X108590186Y-87000186D01*
X108488729Y-87083448D01*
X108452991Y-87112778D01*
X108296466Y-87196443D01*
X108126627Y-87247963D01*
X108060442Y-87254482D01*
X107994260Y-87261000D01*
X107905740Y-87261000D01*
X107839558Y-87254482D01*
X107773373Y-87247963D01*
X107603534Y-87196443D01*
X107447009Y-87112778D01*
X107411271Y-87083448D01*
X107309814Y-87000186D01*
X107226552Y-86898729D01*
X107197222Y-86862991D01*
X107113557Y-86706466D01*
X107062037Y-86536627D01*
X107044641Y-86360000D01*
X107062037Y-86183373D01*
X107113557Y-86013534D01*
X107197222Y-85857009D01*
X107226552Y-85821271D01*
X107309814Y-85719814D01*
X107411271Y-85636552D01*
X107447009Y-85607222D01*
X107603534Y-85523557D01*
X107773373Y-85472037D01*
X107839558Y-85465518D01*
X107905740Y-85459000D01*
X107994260Y-85459000D01*
X108060442Y-85465518D01*
X108060442Y-85465518D01*
G37*
G36*
X102980443Y-82925519D02*
G01*
X103046627Y-82932037D01*
X103216466Y-82983557D01*
X103372991Y-83067222D01*
X103408729Y-83096552D01*
X103510186Y-83179814D01*
X103593448Y-83281271D01*
X103622778Y-83317009D01*
X103706443Y-83473534D01*
X103757963Y-83643373D01*
X103775359Y-83820000D01*
X103757963Y-83996627D01*
X103706443Y-84166466D01*
X103622778Y-84322991D01*
X103593448Y-84358729D01*
X103510186Y-84460186D01*
X103408729Y-84543448D01*
X103372991Y-84572778D01*
X103216466Y-84656443D01*
X103046627Y-84707963D01*
X102980443Y-84714481D01*
X102914260Y-84721000D01*
X102825740Y-84721000D01*
X102759557Y-84714481D01*
X102693373Y-84707963D01*
X102523534Y-84656443D01*
X102367009Y-84572778D01*
X102331271Y-84543448D01*
X102229814Y-84460186D01*
X102146552Y-84358729D01*
X102117222Y-84322991D01*
X102033557Y-84166466D01*
X101982037Y-83996627D01*
X101964641Y-83820000D01*
X101982037Y-83643373D01*
X102033557Y-83473534D01*
X102117222Y-83317009D01*
X102146552Y-83281271D01*
X102229814Y-83179814D01*
X102331271Y-83096552D01*
X102367009Y-83067222D01*
X102523534Y-82983557D01*
X102693373Y-82932037D01*
X102759557Y-82925519D01*
X102825740Y-82919000D01*
X102914260Y-82919000D01*
X102980443Y-82925519D01*
X102980443Y-82925519D01*
G37*
G36*
X95360443Y-82925519D02*
G01*
X95426627Y-82932037D01*
X95596466Y-82983557D01*
X95752991Y-83067222D01*
X95788729Y-83096552D01*
X95890186Y-83179814D01*
X95973448Y-83281271D01*
X96002778Y-83317009D01*
X96086443Y-83473534D01*
X96137963Y-83643373D01*
X96155359Y-83820000D01*
X96137963Y-83996627D01*
X96086443Y-84166466D01*
X96002778Y-84322991D01*
X95973448Y-84358729D01*
X95890186Y-84460186D01*
X95788729Y-84543448D01*
X95752991Y-84572778D01*
X95596466Y-84656443D01*
X95426627Y-84707963D01*
X95360443Y-84714481D01*
X95294260Y-84721000D01*
X95205740Y-84721000D01*
X95139557Y-84714481D01*
X95073373Y-84707963D01*
X94903534Y-84656443D01*
X94747009Y-84572778D01*
X94711271Y-84543448D01*
X94609814Y-84460186D01*
X94526552Y-84358729D01*
X94497222Y-84322991D01*
X94413557Y-84166466D01*
X94362037Y-83996627D01*
X94344641Y-83820000D01*
X94362037Y-83643373D01*
X94413557Y-83473534D01*
X94497222Y-83317009D01*
X94526552Y-83281271D01*
X94609814Y-83179814D01*
X94711271Y-83096552D01*
X94747009Y-83067222D01*
X94903534Y-82983557D01*
X95073373Y-82932037D01*
X95139557Y-82925519D01*
X95205740Y-82919000D01*
X95294260Y-82919000D01*
X95360443Y-82925519D01*
X95360443Y-82925519D01*
G37*
G36*
X90280443Y-82925519D02*
G01*
X90346627Y-82932037D01*
X90516466Y-82983557D01*
X90672991Y-83067222D01*
X90708729Y-83096552D01*
X90810186Y-83179814D01*
X90893448Y-83281271D01*
X90922778Y-83317009D01*
X91006443Y-83473534D01*
X91057963Y-83643373D01*
X91075359Y-83820000D01*
X91057963Y-83996627D01*
X91006443Y-84166466D01*
X90922778Y-84322991D01*
X90893448Y-84358729D01*
X90810186Y-84460186D01*
X90708729Y-84543448D01*
X90672991Y-84572778D01*
X90516466Y-84656443D01*
X90346627Y-84707963D01*
X90280443Y-84714481D01*
X90214260Y-84721000D01*
X90125740Y-84721000D01*
X90059557Y-84714481D01*
X89993373Y-84707963D01*
X89823534Y-84656443D01*
X89667009Y-84572778D01*
X89631271Y-84543448D01*
X89529814Y-84460186D01*
X89446552Y-84358729D01*
X89417222Y-84322991D01*
X89333557Y-84166466D01*
X89282037Y-83996627D01*
X89264641Y-83820000D01*
X89282037Y-83643373D01*
X89333557Y-83473534D01*
X89417222Y-83317009D01*
X89446552Y-83281271D01*
X89529814Y-83179814D01*
X89631271Y-83096552D01*
X89667009Y-83067222D01*
X89823534Y-82983557D01*
X89993373Y-82932037D01*
X90059557Y-82925519D01*
X90125740Y-82919000D01*
X90214260Y-82919000D01*
X90280443Y-82925519D01*
X90280443Y-82925519D01*
G37*
G36*
X115680443Y-82925519D02*
G01*
X115746627Y-82932037D01*
X115916466Y-82983557D01*
X116072991Y-83067222D01*
X116108729Y-83096552D01*
X116210186Y-83179814D01*
X116293448Y-83281271D01*
X116322778Y-83317009D01*
X116406443Y-83473534D01*
X116457963Y-83643373D01*
X116475359Y-83820000D01*
X116457963Y-83996627D01*
X116406443Y-84166466D01*
X116322778Y-84322991D01*
X116293448Y-84358729D01*
X116210186Y-84460186D01*
X116108729Y-84543448D01*
X116072991Y-84572778D01*
X115916466Y-84656443D01*
X115746627Y-84707963D01*
X115680443Y-84714481D01*
X115614260Y-84721000D01*
X115525740Y-84721000D01*
X115459557Y-84714481D01*
X115393373Y-84707963D01*
X115223534Y-84656443D01*
X115067009Y-84572778D01*
X115031271Y-84543448D01*
X114929814Y-84460186D01*
X114846552Y-84358729D01*
X114817222Y-84322991D01*
X114733557Y-84166466D01*
X114682037Y-83996627D01*
X114664641Y-83820000D01*
X114682037Y-83643373D01*
X114733557Y-83473534D01*
X114817222Y-83317009D01*
X114846552Y-83281271D01*
X114929814Y-83179814D01*
X115031271Y-83096552D01*
X115067009Y-83067222D01*
X115223534Y-82983557D01*
X115393373Y-82932037D01*
X115459557Y-82925519D01*
X115525740Y-82919000D01*
X115614260Y-82919000D01*
X115680443Y-82925519D01*
X115680443Y-82925519D01*
G37*
G36*
X113140443Y-82925519D02*
G01*
X113206627Y-82932037D01*
X113376466Y-82983557D01*
X113532991Y-83067222D01*
X113568729Y-83096552D01*
X113670186Y-83179814D01*
X113753448Y-83281271D01*
X113782778Y-83317009D01*
X113866443Y-83473534D01*
X113917963Y-83643373D01*
X113935359Y-83820000D01*
X113917963Y-83996627D01*
X113866443Y-84166466D01*
X113782778Y-84322991D01*
X113753448Y-84358729D01*
X113670186Y-84460186D01*
X113568729Y-84543448D01*
X113532991Y-84572778D01*
X113376466Y-84656443D01*
X113206627Y-84707963D01*
X113140443Y-84714481D01*
X113074260Y-84721000D01*
X112985740Y-84721000D01*
X112919557Y-84714481D01*
X112853373Y-84707963D01*
X112683534Y-84656443D01*
X112527009Y-84572778D01*
X112491271Y-84543448D01*
X112389814Y-84460186D01*
X112306552Y-84358729D01*
X112277222Y-84322991D01*
X112193557Y-84166466D01*
X112142037Y-83996627D01*
X112124641Y-83820000D01*
X112142037Y-83643373D01*
X112193557Y-83473534D01*
X112277222Y-83317009D01*
X112306552Y-83281271D01*
X112389814Y-83179814D01*
X112491271Y-83096552D01*
X112527009Y-83067222D01*
X112683534Y-82983557D01*
X112853373Y-82932037D01*
X112919557Y-82925519D01*
X112985740Y-82919000D01*
X113074260Y-82919000D01*
X113140443Y-82925519D01*
X113140443Y-82925519D01*
G37*
G36*
X110600443Y-82925519D02*
G01*
X110666627Y-82932037D01*
X110836466Y-82983557D01*
X110992991Y-83067222D01*
X111028729Y-83096552D01*
X111130186Y-83179814D01*
X111213448Y-83281271D01*
X111242778Y-83317009D01*
X111326443Y-83473534D01*
X111377963Y-83643373D01*
X111395359Y-83820000D01*
X111377963Y-83996627D01*
X111326443Y-84166466D01*
X111242778Y-84322991D01*
X111213448Y-84358729D01*
X111130186Y-84460186D01*
X111028729Y-84543448D01*
X110992991Y-84572778D01*
X110836466Y-84656443D01*
X110666627Y-84707963D01*
X110600443Y-84714481D01*
X110534260Y-84721000D01*
X110445740Y-84721000D01*
X110379557Y-84714481D01*
X110313373Y-84707963D01*
X110143534Y-84656443D01*
X109987009Y-84572778D01*
X109951271Y-84543448D01*
X109849814Y-84460186D01*
X109766552Y-84358729D01*
X109737222Y-84322991D01*
X109653557Y-84166466D01*
X109602037Y-83996627D01*
X109584641Y-83820000D01*
X109602037Y-83643373D01*
X109653557Y-83473534D01*
X109737222Y-83317009D01*
X109766552Y-83281271D01*
X109849814Y-83179814D01*
X109951271Y-83096552D01*
X109987009Y-83067222D01*
X110143534Y-82983557D01*
X110313373Y-82932037D01*
X110379557Y-82925519D01*
X110445740Y-82919000D01*
X110534260Y-82919000D01*
X110600443Y-82925519D01*
X110600443Y-82925519D01*
G37*
G36*
X100440443Y-82925519D02*
G01*
X100506627Y-82932037D01*
X100676466Y-82983557D01*
X100832991Y-83067222D01*
X100868729Y-83096552D01*
X100970186Y-83179814D01*
X101053448Y-83281271D01*
X101082778Y-83317009D01*
X101166443Y-83473534D01*
X101217963Y-83643373D01*
X101235359Y-83820000D01*
X101217963Y-83996627D01*
X101166443Y-84166466D01*
X101082778Y-84322991D01*
X101053448Y-84358729D01*
X100970186Y-84460186D01*
X100868729Y-84543448D01*
X100832991Y-84572778D01*
X100676466Y-84656443D01*
X100506627Y-84707963D01*
X100440443Y-84714481D01*
X100374260Y-84721000D01*
X100285740Y-84721000D01*
X100219557Y-84714481D01*
X100153373Y-84707963D01*
X99983534Y-84656443D01*
X99827009Y-84572778D01*
X99791271Y-84543448D01*
X99689814Y-84460186D01*
X99606552Y-84358729D01*
X99577222Y-84322991D01*
X99493557Y-84166466D01*
X99442037Y-83996627D01*
X99424641Y-83820000D01*
X99442037Y-83643373D01*
X99493557Y-83473534D01*
X99577222Y-83317009D01*
X99606552Y-83281271D01*
X99689814Y-83179814D01*
X99791271Y-83096552D01*
X99827009Y-83067222D01*
X99983534Y-82983557D01*
X100153373Y-82932037D01*
X100219557Y-82925519D01*
X100285740Y-82919000D01*
X100374260Y-82919000D01*
X100440443Y-82925519D01*
X100440443Y-82925519D01*
G37*
G36*
X108060443Y-82925519D02*
G01*
X108126627Y-82932037D01*
X108296466Y-82983557D01*
X108452991Y-83067222D01*
X108488729Y-83096552D01*
X108590186Y-83179814D01*
X108673448Y-83281271D01*
X108702778Y-83317009D01*
X108786443Y-83473534D01*
X108837963Y-83643373D01*
X108855359Y-83820000D01*
X108837963Y-83996627D01*
X108786443Y-84166466D01*
X108702778Y-84322991D01*
X108673448Y-84358729D01*
X108590186Y-84460186D01*
X108488729Y-84543448D01*
X108452991Y-84572778D01*
X108296466Y-84656443D01*
X108126627Y-84707963D01*
X108060443Y-84714481D01*
X107994260Y-84721000D01*
X107905740Y-84721000D01*
X107839557Y-84714481D01*
X107773373Y-84707963D01*
X107603534Y-84656443D01*
X107447009Y-84572778D01*
X107411271Y-84543448D01*
X107309814Y-84460186D01*
X107226552Y-84358729D01*
X107197222Y-84322991D01*
X107113557Y-84166466D01*
X107062037Y-83996627D01*
X107044641Y-83820000D01*
X107062037Y-83643373D01*
X107113557Y-83473534D01*
X107197222Y-83317009D01*
X107226552Y-83281271D01*
X107309814Y-83179814D01*
X107411271Y-83096552D01*
X107447009Y-83067222D01*
X107603534Y-82983557D01*
X107773373Y-82932037D01*
X107839557Y-82925519D01*
X107905740Y-82919000D01*
X107994260Y-82919000D01*
X108060443Y-82925519D01*
X108060443Y-82925519D01*
G37*
G36*
X105520443Y-82925519D02*
G01*
X105586627Y-82932037D01*
X105756466Y-82983557D01*
X105912991Y-83067222D01*
X105948729Y-83096552D01*
X106050186Y-83179814D01*
X106133448Y-83281271D01*
X106162778Y-83317009D01*
X106246443Y-83473534D01*
X106297963Y-83643373D01*
X106315359Y-83820000D01*
X106297963Y-83996627D01*
X106246443Y-84166466D01*
X106162778Y-84322991D01*
X106133448Y-84358729D01*
X106050186Y-84460186D01*
X105948729Y-84543448D01*
X105912991Y-84572778D01*
X105756466Y-84656443D01*
X105586627Y-84707963D01*
X105520443Y-84714481D01*
X105454260Y-84721000D01*
X105365740Y-84721000D01*
X105299557Y-84714481D01*
X105233373Y-84707963D01*
X105063534Y-84656443D01*
X104907009Y-84572778D01*
X104871271Y-84543448D01*
X104769814Y-84460186D01*
X104686552Y-84358729D01*
X104657222Y-84322991D01*
X104573557Y-84166466D01*
X104522037Y-83996627D01*
X104504641Y-83820000D01*
X104522037Y-83643373D01*
X104573557Y-83473534D01*
X104657222Y-83317009D01*
X104686552Y-83281271D01*
X104769814Y-83179814D01*
X104871271Y-83096552D01*
X104907009Y-83067222D01*
X105063534Y-82983557D01*
X105233373Y-82932037D01*
X105299557Y-82925519D01*
X105365740Y-82919000D01*
X105454260Y-82919000D01*
X105520443Y-82925519D01*
X105520443Y-82925519D01*
G37*
G36*
X97900443Y-82925519D02*
G01*
X97966627Y-82932037D01*
X98136466Y-82983557D01*
X98292991Y-83067222D01*
X98328729Y-83096552D01*
X98430186Y-83179814D01*
X98513448Y-83281271D01*
X98542778Y-83317009D01*
X98626443Y-83473534D01*
X98677963Y-83643373D01*
X98695359Y-83820000D01*
X98677963Y-83996627D01*
X98626443Y-84166466D01*
X98542778Y-84322991D01*
X98513448Y-84358729D01*
X98430186Y-84460186D01*
X98328729Y-84543448D01*
X98292991Y-84572778D01*
X98136466Y-84656443D01*
X97966627Y-84707963D01*
X97900443Y-84714481D01*
X97834260Y-84721000D01*
X97745740Y-84721000D01*
X97679557Y-84714481D01*
X97613373Y-84707963D01*
X97443534Y-84656443D01*
X97287009Y-84572778D01*
X97251271Y-84543448D01*
X97149814Y-84460186D01*
X97066552Y-84358729D01*
X97037222Y-84322991D01*
X96953557Y-84166466D01*
X96902037Y-83996627D01*
X96884641Y-83820000D01*
X96902037Y-83643373D01*
X96953557Y-83473534D01*
X97037222Y-83317009D01*
X97066552Y-83281271D01*
X97149814Y-83179814D01*
X97251271Y-83096552D01*
X97287009Y-83067222D01*
X97443534Y-82983557D01*
X97613373Y-82932037D01*
X97679557Y-82925519D01*
X97745740Y-82919000D01*
X97834260Y-82919000D01*
X97900443Y-82925519D01*
X97900443Y-82925519D01*
G37*
G36*
X92820443Y-82925519D02*
G01*
X92886627Y-82932037D01*
X93056466Y-82983557D01*
X93212991Y-83067222D01*
X93248729Y-83096552D01*
X93350186Y-83179814D01*
X93433448Y-83281271D01*
X93462778Y-83317009D01*
X93546443Y-83473534D01*
X93597963Y-83643373D01*
X93615359Y-83820000D01*
X93597963Y-83996627D01*
X93546443Y-84166466D01*
X93462778Y-84322991D01*
X93433448Y-84358729D01*
X93350186Y-84460186D01*
X93248729Y-84543448D01*
X93212991Y-84572778D01*
X93056466Y-84656443D01*
X92886627Y-84707963D01*
X92820443Y-84714481D01*
X92754260Y-84721000D01*
X92665740Y-84721000D01*
X92599557Y-84714481D01*
X92533373Y-84707963D01*
X92363534Y-84656443D01*
X92207009Y-84572778D01*
X92171271Y-84543448D01*
X92069814Y-84460186D01*
X91986552Y-84358729D01*
X91957222Y-84322991D01*
X91873557Y-84166466D01*
X91822037Y-83996627D01*
X91804641Y-83820000D01*
X91822037Y-83643373D01*
X91873557Y-83473534D01*
X91957222Y-83317009D01*
X91986552Y-83281271D01*
X92069814Y-83179814D01*
X92171271Y-83096552D01*
X92207009Y-83067222D01*
X92363534Y-82983557D01*
X92533373Y-82932037D01*
X92599557Y-82925519D01*
X92665740Y-82919000D01*
X92754260Y-82919000D01*
X92820443Y-82925519D01*
X92820443Y-82925519D01*
G37*
G36*
X75040443Y-82925519D02*
G01*
X75106627Y-82932037D01*
X75276466Y-82983557D01*
X75432991Y-83067222D01*
X75468729Y-83096552D01*
X75570186Y-83179814D01*
X75653448Y-83281271D01*
X75682778Y-83317009D01*
X75766443Y-83473534D01*
X75817963Y-83643373D01*
X75835359Y-83820000D01*
X75817963Y-83996627D01*
X75766443Y-84166466D01*
X75682778Y-84322991D01*
X75653448Y-84358729D01*
X75570186Y-84460186D01*
X75468729Y-84543448D01*
X75432991Y-84572778D01*
X75276466Y-84656443D01*
X75106627Y-84707963D01*
X75040443Y-84714481D01*
X74974260Y-84721000D01*
X74885740Y-84721000D01*
X74819557Y-84714481D01*
X74753373Y-84707963D01*
X74583534Y-84656443D01*
X74427009Y-84572778D01*
X74391271Y-84543448D01*
X74289814Y-84460186D01*
X74206552Y-84358729D01*
X74177222Y-84322991D01*
X74093557Y-84166466D01*
X74042037Y-83996627D01*
X74024641Y-83820000D01*
X74042037Y-83643373D01*
X74093557Y-83473534D01*
X74177222Y-83317009D01*
X74206552Y-83281271D01*
X74289814Y-83179814D01*
X74391271Y-83096552D01*
X74427009Y-83067222D01*
X74583534Y-82983557D01*
X74753373Y-82932037D01*
X74819557Y-82925519D01*
X74885740Y-82919000D01*
X74974260Y-82919000D01*
X75040443Y-82925519D01*
X75040443Y-82925519D01*
G37*
G36*
X77580443Y-82925519D02*
G01*
X77646627Y-82932037D01*
X77816466Y-82983557D01*
X77972991Y-83067222D01*
X78008729Y-83096552D01*
X78110186Y-83179814D01*
X78193448Y-83281271D01*
X78222778Y-83317009D01*
X78306443Y-83473534D01*
X78357963Y-83643373D01*
X78375359Y-83820000D01*
X78357963Y-83996627D01*
X78306443Y-84166466D01*
X78222778Y-84322991D01*
X78193448Y-84358729D01*
X78110186Y-84460186D01*
X78008729Y-84543448D01*
X77972991Y-84572778D01*
X77816466Y-84656443D01*
X77646627Y-84707963D01*
X77580443Y-84714481D01*
X77514260Y-84721000D01*
X77425740Y-84721000D01*
X77359557Y-84714481D01*
X77293373Y-84707963D01*
X77123534Y-84656443D01*
X76967009Y-84572778D01*
X76931271Y-84543448D01*
X76829814Y-84460186D01*
X76746552Y-84358729D01*
X76717222Y-84322991D01*
X76633557Y-84166466D01*
X76582037Y-83996627D01*
X76564641Y-83820000D01*
X76582037Y-83643373D01*
X76633557Y-83473534D01*
X76717222Y-83317009D01*
X76746552Y-83281271D01*
X76829814Y-83179814D01*
X76931271Y-83096552D01*
X76967009Y-83067222D01*
X77123534Y-82983557D01*
X77293373Y-82932037D01*
X77359557Y-82925519D01*
X77425740Y-82919000D01*
X77514260Y-82919000D01*
X77580443Y-82925519D01*
X77580443Y-82925519D01*
G37*
G36*
X80120443Y-82925519D02*
G01*
X80186627Y-82932037D01*
X80356466Y-82983557D01*
X80512991Y-83067222D01*
X80548729Y-83096552D01*
X80650186Y-83179814D01*
X80733448Y-83281271D01*
X80762778Y-83317009D01*
X80846443Y-83473534D01*
X80897963Y-83643373D01*
X80915359Y-83820000D01*
X80897963Y-83996627D01*
X80846443Y-84166466D01*
X80762778Y-84322991D01*
X80733448Y-84358729D01*
X80650186Y-84460186D01*
X80548729Y-84543448D01*
X80512991Y-84572778D01*
X80356466Y-84656443D01*
X80186627Y-84707963D01*
X80120443Y-84714481D01*
X80054260Y-84721000D01*
X79965740Y-84721000D01*
X79899557Y-84714481D01*
X79833373Y-84707963D01*
X79663534Y-84656443D01*
X79507009Y-84572778D01*
X79471271Y-84543448D01*
X79369814Y-84460186D01*
X79286552Y-84358729D01*
X79257222Y-84322991D01*
X79173557Y-84166466D01*
X79122037Y-83996627D01*
X79104641Y-83820000D01*
X79122037Y-83643373D01*
X79173557Y-83473534D01*
X79257222Y-83317009D01*
X79286552Y-83281271D01*
X79369814Y-83179814D01*
X79471271Y-83096552D01*
X79507009Y-83067222D01*
X79663534Y-82983557D01*
X79833373Y-82932037D01*
X79899557Y-82925519D01*
X79965740Y-82919000D01*
X80054260Y-82919000D01*
X80120443Y-82925519D01*
X80120443Y-82925519D01*
G37*
G36*
X82660443Y-82925519D02*
G01*
X82726627Y-82932037D01*
X82896466Y-82983557D01*
X83052991Y-83067222D01*
X83088729Y-83096552D01*
X83190186Y-83179814D01*
X83273448Y-83281271D01*
X83302778Y-83317009D01*
X83386443Y-83473534D01*
X83437963Y-83643373D01*
X83455359Y-83820000D01*
X83437963Y-83996627D01*
X83386443Y-84166466D01*
X83302778Y-84322991D01*
X83273448Y-84358729D01*
X83190186Y-84460186D01*
X83088729Y-84543448D01*
X83052991Y-84572778D01*
X82896466Y-84656443D01*
X82726627Y-84707963D01*
X82660443Y-84714481D01*
X82594260Y-84721000D01*
X82505740Y-84721000D01*
X82439557Y-84714481D01*
X82373373Y-84707963D01*
X82203534Y-84656443D01*
X82047009Y-84572778D01*
X82011271Y-84543448D01*
X81909814Y-84460186D01*
X81826552Y-84358729D01*
X81797222Y-84322991D01*
X81713557Y-84166466D01*
X81662037Y-83996627D01*
X81644641Y-83820000D01*
X81662037Y-83643373D01*
X81713557Y-83473534D01*
X81797222Y-83317009D01*
X81826552Y-83281271D01*
X81909814Y-83179814D01*
X82011271Y-83096552D01*
X82047009Y-83067222D01*
X82203534Y-82983557D01*
X82373373Y-82932037D01*
X82439557Y-82925519D01*
X82505740Y-82919000D01*
X82594260Y-82919000D01*
X82660443Y-82925519D01*
X82660443Y-82925519D01*
G37*
G36*
X87740443Y-82925519D02*
G01*
X87806627Y-82932037D01*
X87976466Y-82983557D01*
X88132991Y-83067222D01*
X88168729Y-83096552D01*
X88270186Y-83179814D01*
X88353448Y-83281271D01*
X88382778Y-83317009D01*
X88466443Y-83473534D01*
X88517963Y-83643373D01*
X88535359Y-83820000D01*
X88517963Y-83996627D01*
X88466443Y-84166466D01*
X88382778Y-84322991D01*
X88353448Y-84358729D01*
X88270186Y-84460186D01*
X88168729Y-84543448D01*
X88132991Y-84572778D01*
X87976466Y-84656443D01*
X87806627Y-84707963D01*
X87740443Y-84714481D01*
X87674260Y-84721000D01*
X87585740Y-84721000D01*
X87519557Y-84714481D01*
X87453373Y-84707963D01*
X87283534Y-84656443D01*
X87127009Y-84572778D01*
X87091271Y-84543448D01*
X86989814Y-84460186D01*
X86906552Y-84358729D01*
X86877222Y-84322991D01*
X86793557Y-84166466D01*
X86742037Y-83996627D01*
X86724641Y-83820000D01*
X86742037Y-83643373D01*
X86793557Y-83473534D01*
X86877222Y-83317009D01*
X86906552Y-83281271D01*
X86989814Y-83179814D01*
X87091271Y-83096552D01*
X87127009Y-83067222D01*
X87283534Y-82983557D01*
X87453373Y-82932037D01*
X87519557Y-82925519D01*
X87585740Y-82919000D01*
X87674260Y-82919000D01*
X87740443Y-82925519D01*
X87740443Y-82925519D01*
G37*
G36*
X72500443Y-82925519D02*
G01*
X72566627Y-82932037D01*
X72736466Y-82983557D01*
X72892991Y-83067222D01*
X72928729Y-83096552D01*
X73030186Y-83179814D01*
X73113448Y-83281271D01*
X73142778Y-83317009D01*
X73226443Y-83473534D01*
X73277963Y-83643373D01*
X73295359Y-83820000D01*
X73277963Y-83996627D01*
X73226443Y-84166466D01*
X73142778Y-84322991D01*
X73113448Y-84358729D01*
X73030186Y-84460186D01*
X72928729Y-84543448D01*
X72892991Y-84572778D01*
X72736466Y-84656443D01*
X72566627Y-84707963D01*
X72500443Y-84714481D01*
X72434260Y-84721000D01*
X72345740Y-84721000D01*
X72279557Y-84714481D01*
X72213373Y-84707963D01*
X72043534Y-84656443D01*
X71887009Y-84572778D01*
X71851271Y-84543448D01*
X71749814Y-84460186D01*
X71666552Y-84358729D01*
X71637222Y-84322991D01*
X71553557Y-84166466D01*
X71502037Y-83996627D01*
X71484641Y-83820000D01*
X71502037Y-83643373D01*
X71553557Y-83473534D01*
X71637222Y-83317009D01*
X71666552Y-83281271D01*
X71749814Y-83179814D01*
X71851271Y-83096552D01*
X71887009Y-83067222D01*
X72043534Y-82983557D01*
X72213373Y-82932037D01*
X72279557Y-82925519D01*
X72345740Y-82919000D01*
X72434260Y-82919000D01*
X72500443Y-82925519D01*
X72500443Y-82925519D01*
G37*
G36*
X85200443Y-82925519D02*
G01*
X85266627Y-82932037D01*
X85436466Y-82983557D01*
X85592991Y-83067222D01*
X85628729Y-83096552D01*
X85730186Y-83179814D01*
X85813448Y-83281271D01*
X85842778Y-83317009D01*
X85926443Y-83473534D01*
X85977963Y-83643373D01*
X85995359Y-83820000D01*
X85977963Y-83996627D01*
X85926443Y-84166466D01*
X85842778Y-84322991D01*
X85813448Y-84358729D01*
X85730186Y-84460186D01*
X85628729Y-84543448D01*
X85592991Y-84572778D01*
X85436466Y-84656443D01*
X85266627Y-84707963D01*
X85200443Y-84714481D01*
X85134260Y-84721000D01*
X85045740Y-84721000D01*
X84979557Y-84714481D01*
X84913373Y-84707963D01*
X84743534Y-84656443D01*
X84587009Y-84572778D01*
X84551271Y-84543448D01*
X84449814Y-84460186D01*
X84366552Y-84358729D01*
X84337222Y-84322991D01*
X84253557Y-84166466D01*
X84202037Y-83996627D01*
X84184641Y-83820000D01*
X84202037Y-83643373D01*
X84253557Y-83473534D01*
X84337222Y-83317009D01*
X84366552Y-83281271D01*
X84449814Y-83179814D01*
X84551271Y-83096552D01*
X84587009Y-83067222D01*
X84743534Y-82983557D01*
X84913373Y-82932037D01*
X84979557Y-82925519D01*
X85045740Y-82919000D01*
X85134260Y-82919000D01*
X85200443Y-82925519D01*
X85200443Y-82925519D01*
G37*
M02*
