G04 #@! TF.GenerationSoftware,KiCad,Pcbnew,5.1.2*
G04 #@! TF.CreationDate,2019-06-01T11:21:23+02:00*
G04 #@! TF.ProjectId,usb-c-breakout,7573622d-632d-4627-9265-616b6f75742e,rev?*
G04 #@! TF.SameCoordinates,Original*
G04 #@! TF.FileFunction,Copper,L4,Bot*
G04 #@! TF.FilePolarity,Positive*
%FSLAX46Y46*%
G04 Gerber Fmt 4.6, Leading zero omitted, Abs format (unit mm)*
G04 Created by KiCad (PCBNEW 5.1.2) date 2019-06-01 11:21:23*
%MOMM*%
%LPD*%
G04 APERTURE LIST*
%ADD10R,1.700000X1.700000*%
%ADD11O,1.700000X1.700000*%
%ADD12C,1.000000*%
%ADD13C,3.000000*%
%ADD14C,0.500000*%
%ADD15O,1.400000X0.900000*%
%ADD16C,0.650000*%
%ADD17O,0.900000X1.550000*%
%ADD18C,0.800000*%
%ADD19C,0.152400*%
%ADD20C,0.508000*%
G04 APERTURE END LIST*
D10*
X72390000Y-86360000D03*
D11*
X72390000Y-83820000D03*
X74930000Y-86360000D03*
X74930000Y-83820000D03*
X77470000Y-86360000D03*
X77470000Y-83820000D03*
X80010000Y-86360000D03*
X80010000Y-83820000D03*
X82550000Y-86360000D03*
X82550000Y-83820000D03*
X85090000Y-86360000D03*
X85090000Y-83820000D03*
X87630000Y-86360000D03*
X87630000Y-83820000D03*
X90170000Y-86360000D03*
X90170000Y-83820000D03*
X92710000Y-86360000D03*
X92710000Y-83820000D03*
X95250000Y-86360000D03*
X95250000Y-83820000D03*
X97790000Y-86360000D03*
X97790000Y-83820000D03*
X100330000Y-86360000D03*
X100330000Y-83820000D03*
X102870000Y-86360000D03*
X102870000Y-83820000D03*
X105410000Y-86360000D03*
X105410000Y-83820000D03*
X107950000Y-86360000D03*
X107950000Y-83820000D03*
X110490000Y-86360000D03*
X110490000Y-83820000D03*
X113030000Y-86360000D03*
X113030000Y-83820000D03*
X115570000Y-86360000D03*
X115570000Y-83820000D03*
D12*
X113410000Y-103990000D03*
X113410000Y-101990000D03*
X113410000Y-95990000D03*
X113410000Y-97990000D03*
X113410000Y-99990000D03*
X114910000Y-96490000D03*
X114910000Y-98990000D03*
X114910000Y-100990000D03*
X114910000Y-103490000D03*
D13*
X114910000Y-93420000D03*
X114910000Y-106560000D03*
D11*
X110490000Y-90170000D03*
X107950000Y-90170000D03*
X105410000Y-90170000D03*
D10*
X102870000Y-90170000D03*
D14*
X95000000Y-98950000D03*
X95000000Y-101050000D03*
X95000000Y-100350000D03*
X95000000Y-99650000D03*
D15*
X78750000Y-95670000D03*
X78750000Y-104330000D03*
X72800000Y-104330000D03*
X72800000Y-95670000D03*
D16*
X79350000Y-102800000D03*
X79350000Y-101200000D03*
X79350000Y-100400000D03*
X79350000Y-99600000D03*
X79350000Y-98800000D03*
X79350000Y-97200000D03*
X78650000Y-102400000D03*
X78650000Y-101600000D03*
X78650000Y-100800000D03*
X78650000Y-99200000D03*
X78650000Y-98400000D03*
X78650000Y-97600000D03*
D17*
X79000000Y-104000000D03*
X79000000Y-96000000D03*
D18*
X82677000Y-96713500D03*
X82677000Y-95786500D03*
X82423000Y-103286500D03*
X82423000Y-104213500D03*
X87122000Y-102997000D03*
X87376000Y-97282000D03*
X85100000Y-90600000D03*
X77500000Y-90600000D03*
X103000000Y-98750000D03*
X102500000Y-105250000D03*
X102500000Y-106750000D03*
X96500000Y-105250000D03*
X96500000Y-106750000D03*
X110000000Y-100200000D03*
X110000000Y-101800000D03*
X97282000Y-97663000D03*
X94573473Y-96926527D03*
X82000502Y-100463500D03*
X82000502Y-99536500D03*
X93899998Y-95800000D03*
X86100000Y-98799996D03*
X86000000Y-93303200D03*
X98600000Y-103800000D03*
X99114572Y-104629144D03*
X104400000Y-94900000D03*
X98100000Y-102900000D03*
X94000000Y-102950000D03*
X92500000Y-96500000D03*
X97800000Y-101700000D03*
X115888999Y-88938999D03*
X92693597Y-90600000D03*
X90200000Y-90600000D03*
X82600000Y-90600000D03*
X83500000Y-93500000D03*
X84250000Y-93500000D03*
X100250000Y-101250000D03*
X98000000Y-89200000D03*
X79500000Y-93400000D03*
X85500000Y-105100000D03*
X83500000Y-101000000D03*
X79500000Y-107000000D03*
D19*
X82353200Y-96389700D02*
X81861866Y-96389700D01*
X82677000Y-96713500D02*
X82353200Y-96389700D01*
X80111866Y-98139700D02*
X78910300Y-98139700D01*
X78910300Y-98139700D02*
X78650000Y-98400000D01*
X81861866Y-96389700D02*
X80111866Y-98139700D01*
X82677000Y-95786500D02*
X82353200Y-96110300D01*
X82353200Y-96110300D02*
X81746134Y-96110300D01*
X78910300Y-97860300D02*
X78650000Y-97600000D01*
X81746134Y-96110300D02*
X79996134Y-97860300D01*
X79996134Y-97860300D02*
X78910300Y-97860300D01*
X82099200Y-103610300D02*
X81582866Y-103610300D01*
X82423000Y-103286500D02*
X82099200Y-103610300D01*
X78910300Y-101860300D02*
X78650000Y-101600000D01*
X79832866Y-101860300D02*
X78910300Y-101860300D01*
X81582866Y-103610300D02*
X79832866Y-101860300D01*
X82423000Y-104213500D02*
X82099200Y-103889700D01*
X82099200Y-103889700D02*
X81467134Y-103889700D01*
X78910300Y-102139700D02*
X78650000Y-102400000D01*
X81467134Y-103889700D02*
X79717134Y-102139700D01*
X79717134Y-102139700D02*
X78910300Y-102139700D01*
D20*
X115570000Y-83820000D02*
X115570000Y-86360000D01*
D19*
X75700000Y-100800000D02*
X75100000Y-100200000D01*
X78650000Y-100800000D02*
X75700000Y-100800000D01*
X75100000Y-100200000D02*
X75100000Y-95400000D01*
X75100000Y-95400000D02*
X77800000Y-92700000D01*
X74930000Y-89830000D02*
X77800000Y-92700000D01*
X74930000Y-86360000D02*
X74930000Y-89830000D01*
X94573473Y-96360842D02*
X94573473Y-96926527D01*
X94800000Y-96134315D02*
X94573473Y-96360842D01*
X94800000Y-93500001D02*
X94800000Y-96134315D01*
X77800000Y-92700000D02*
X93999999Y-92700000D01*
X93999999Y-92700000D02*
X94800000Y-93500001D01*
X114202894Y-100990000D02*
X114910000Y-100990000D01*
X112679411Y-101179411D02*
X114013483Y-101179411D01*
X112612654Y-101186933D02*
X112679411Y-101179411D01*
X114013483Y-101179411D02*
X114202894Y-100990000D01*
X112549245Y-101209121D02*
X112612654Y-101186933D01*
X112492364Y-101244862D02*
X112549245Y-101209121D01*
X112379411Y-101729581D02*
X112379411Y-101479411D01*
X112371889Y-101796338D02*
X112379411Y-101729581D01*
X111609576Y-101209121D02*
X111666457Y-101244862D01*
X112444861Y-101292365D02*
X112492364Y-101244862D01*
X95692134Y-106139700D02*
X104357866Y-106139700D01*
X111713960Y-101292365D02*
X111749701Y-101349246D01*
X111844861Y-101916628D02*
X111892364Y-101964131D01*
X111779411Y-101729581D02*
X111786932Y-101796338D01*
X111809120Y-101859747D02*
X111844861Y-101916628D01*
X112313960Y-101916628D02*
X112349701Y-101859747D01*
X112012654Y-102022060D02*
X112079411Y-102029581D01*
X112409120Y-101349246D02*
X112444861Y-101292365D01*
X112386932Y-101412655D02*
X112409120Y-101349246D01*
X109318155Y-101179411D02*
X111479411Y-101179411D01*
X112209576Y-101999872D02*
X112266457Y-101964131D01*
X111546167Y-101186933D02*
X111609576Y-101209121D01*
X104357866Y-106139700D02*
X109318155Y-101179411D01*
X89692134Y-100139700D02*
X95692134Y-106139700D01*
X111666457Y-101244862D02*
X111713960Y-101292365D01*
X82324302Y-100139700D02*
X89692134Y-100139700D01*
X111779411Y-101479411D02*
X111779411Y-101729581D01*
X82000502Y-100463500D02*
X82324302Y-100139700D01*
X111771889Y-101412655D02*
X111779411Y-101479411D01*
X111786932Y-101796338D02*
X111809120Y-101859747D01*
X111892364Y-101964131D02*
X111949245Y-101999872D01*
X111479411Y-101179411D02*
X111546167Y-101186933D01*
X111749701Y-101349246D02*
X111771889Y-101412655D01*
X112349701Y-101859747D02*
X112371889Y-101796338D01*
X111949245Y-101999872D02*
X112012654Y-102022060D01*
X112079411Y-102029581D02*
X112146167Y-102022060D01*
X112379411Y-101479411D02*
X112386932Y-101412655D01*
X112146167Y-102022060D02*
X112209576Y-101999872D01*
X112266457Y-101964131D02*
X112313960Y-101916628D01*
X81163500Y-99536500D02*
X82000502Y-99536500D01*
X79350000Y-100400000D02*
X80300000Y-100400000D01*
X80300000Y-100400000D02*
X81163500Y-99536500D01*
X114410001Y-100289999D02*
X114410001Y-99489999D01*
X104242134Y-105860300D02*
X109202433Y-100900001D01*
X82000502Y-99536500D02*
X82324302Y-99860300D01*
X82324302Y-99860300D02*
X89807866Y-99860300D01*
X113799999Y-100900001D02*
X114410001Y-100289999D01*
X89807866Y-99860300D02*
X95807866Y-105860300D01*
X95807866Y-105860300D02*
X104242134Y-105860300D01*
X114410001Y-99489999D02*
X114910000Y-98990000D01*
X109202433Y-100900001D02*
X113799999Y-100900001D01*
X86100000Y-98799996D02*
X86100000Y-93403200D01*
X86100000Y-93403200D02*
X86000000Y-93303200D01*
X86665685Y-98799996D02*
X86100000Y-98799996D01*
X87000004Y-98799996D02*
X86665685Y-98799996D01*
X93899998Y-95800000D02*
X90000000Y-95800000D01*
X90000000Y-95800000D02*
X87000004Y-98799996D01*
X99165685Y-103800000D02*
X98600000Y-103800000D01*
X99800000Y-103800000D02*
X99165685Y-103800000D01*
X105410000Y-90170000D02*
X105410000Y-98190000D01*
X105410000Y-98190000D02*
X99800000Y-103800000D01*
X99514571Y-104229145D02*
X99114572Y-104629144D01*
X100270855Y-104229145D02*
X99514571Y-104229145D01*
X107950000Y-90170000D02*
X107950000Y-96550000D01*
X107950000Y-96550000D02*
X100270855Y-104229145D01*
X100000000Y-102900000D02*
X98100000Y-102900000D01*
X104400000Y-94900000D02*
X104400000Y-98500000D01*
X104400000Y-98500000D02*
X100000000Y-102900000D01*
D20*
X85090000Y-83820000D02*
X90170000Y-83820000D01*
D19*
X94000000Y-102950000D02*
X94000000Y-98000000D01*
X94000000Y-98000000D02*
X92500000Y-96500000D01*
X83900000Y-90292738D02*
X83900000Y-85170000D01*
X83900000Y-85170000D02*
X82550000Y-83820000D01*
X97800000Y-99189381D02*
X96150000Y-97539381D01*
X97800000Y-101700000D02*
X97800000Y-99189381D01*
X92898346Y-91203201D02*
X84810463Y-91203201D01*
X96150000Y-97539381D02*
X96150000Y-94454855D01*
X96150000Y-94454855D02*
X92898346Y-91203201D01*
X84810463Y-91203201D02*
X83900000Y-90292738D01*
D20*
X100330000Y-86360000D02*
X100330000Y-87562081D01*
X115350000Y-88400000D02*
X115888999Y-88938999D01*
X101167919Y-88400000D02*
X115350000Y-88400000D01*
X100330000Y-87562081D02*
X101167919Y-88400000D01*
X116999999Y-90049999D02*
X115888999Y-88938999D01*
X114910000Y-103490000D02*
X116999999Y-101400001D01*
X116999999Y-101400001D02*
X116999999Y-90049999D01*
X113030000Y-83820000D02*
X110490000Y-83820000D01*
X113030000Y-83820000D02*
X113030000Y-86360000D01*
X99098999Y-88101001D02*
X98399999Y-88800001D01*
X98399999Y-88800001D02*
X98000000Y-89200000D01*
X99098999Y-85051001D02*
X99098999Y-88101001D01*
X100330000Y-83820000D02*
X99098999Y-85051001D01*
D19*
X85200000Y-105100000D02*
X85500000Y-105100000D01*
X79350000Y-101200000D02*
X81300000Y-101200000D01*
X81300000Y-101200000D02*
X85200000Y-105100000D01*
X85500000Y-107000000D02*
X80065685Y-107000000D01*
X80065685Y-107000000D02*
X79500000Y-107000000D01*
X83500000Y-101000000D02*
X86500000Y-104000000D01*
X86500000Y-104000000D02*
X86500000Y-106000000D01*
X86500000Y-106000000D02*
X85500000Y-107000000D01*
M02*
