G04 #@! TF.GenerationSoftware,KiCad,Pcbnew,5.1.2*
G04 #@! TF.CreationDate,2019-06-01T11:21:23+02:00*
G04 #@! TF.ProjectId,usb-c-breakout,7573622d-632d-4627-9265-616b6f75742e,rev?*
G04 #@! TF.SameCoordinates,Original*
G04 #@! TF.FileFunction,Copper,L3,Inr*
G04 #@! TF.FilePolarity,Positive*
%FSLAX46Y46*%
G04 Gerber Fmt 4.6, Leading zero omitted, Abs format (unit mm)*
G04 Created by KiCad (PCBNEW 5.1.2) date 2019-06-01 11:21:23*
%MOMM*%
%LPD*%
G04 APERTURE LIST*
%ADD10R,1.700000X1.700000*%
%ADD11O,1.700000X1.700000*%
%ADD12C,1.000000*%
%ADD13C,3.000000*%
%ADD14C,0.500000*%
%ADD15O,1.400000X0.900000*%
%ADD16C,0.650000*%
%ADD17O,0.900000X1.550000*%
%ADD18C,0.800000*%
%ADD19C,0.508000*%
%ADD20C,0.254000*%
G04 APERTURE END LIST*
D10*
X72390000Y-86360000D03*
D11*
X72390000Y-83820000D03*
X74930000Y-86360000D03*
X74930000Y-83820000D03*
X77470000Y-86360000D03*
X77470000Y-83820000D03*
X80010000Y-86360000D03*
X80010000Y-83820000D03*
X82550000Y-86360000D03*
X82550000Y-83820000D03*
X85090000Y-86360000D03*
X85090000Y-83820000D03*
X87630000Y-86360000D03*
X87630000Y-83820000D03*
X90170000Y-86360000D03*
X90170000Y-83820000D03*
X92710000Y-86360000D03*
X92710000Y-83820000D03*
X95250000Y-86360000D03*
X95250000Y-83820000D03*
X97790000Y-86360000D03*
X97790000Y-83820000D03*
X100330000Y-86360000D03*
X100330000Y-83820000D03*
X102870000Y-86360000D03*
X102870000Y-83820000D03*
X105410000Y-86360000D03*
X105410000Y-83820000D03*
X107950000Y-86360000D03*
X107950000Y-83820000D03*
X110490000Y-86360000D03*
X110490000Y-83820000D03*
X113030000Y-86360000D03*
X113030000Y-83820000D03*
X115570000Y-86360000D03*
X115570000Y-83820000D03*
D12*
X113410000Y-103990000D03*
X113410000Y-101990000D03*
X113410000Y-95990000D03*
X113410000Y-97990000D03*
X113410000Y-99990000D03*
X114910000Y-96490000D03*
X114910000Y-98990000D03*
X114910000Y-100990000D03*
X114910000Y-103490000D03*
D13*
X114910000Y-93420000D03*
X114910000Y-106560000D03*
D11*
X110490000Y-90170000D03*
X107950000Y-90170000D03*
X105410000Y-90170000D03*
D10*
X102870000Y-90170000D03*
D14*
X95000000Y-98950000D03*
X95000000Y-101050000D03*
X95000000Y-100350000D03*
X95000000Y-99650000D03*
D15*
X78750000Y-95670000D03*
X78750000Y-104330000D03*
X72800000Y-104330000D03*
X72800000Y-95670000D03*
D16*
X79350000Y-102800000D03*
X79350000Y-101200000D03*
X79350000Y-100400000D03*
X79350000Y-99600000D03*
X79350000Y-98800000D03*
X79350000Y-97200000D03*
X78650000Y-102400000D03*
X78650000Y-101600000D03*
X78650000Y-100800000D03*
X78650000Y-99200000D03*
X78650000Y-98400000D03*
X78650000Y-97600000D03*
D17*
X79000000Y-104000000D03*
X79000000Y-96000000D03*
D18*
X82677000Y-96713500D03*
X82677000Y-95786500D03*
X82423000Y-103286500D03*
X82423000Y-104213500D03*
X87122000Y-102997000D03*
X87376000Y-97282000D03*
X85100000Y-90600000D03*
X77500000Y-90600000D03*
X103000000Y-98750000D03*
X102500000Y-105250000D03*
X102500000Y-106750000D03*
X96500000Y-105250000D03*
X96500000Y-106750000D03*
X110000000Y-100200000D03*
X110000000Y-101800000D03*
X97282000Y-97663000D03*
X94573473Y-96926527D03*
X82000502Y-100463500D03*
X82000502Y-99536500D03*
X93899998Y-95800000D03*
X86100000Y-98799996D03*
X86000000Y-93303200D03*
X98600000Y-103800000D03*
X99114572Y-104629144D03*
X104400000Y-94900000D03*
X98100000Y-102900000D03*
X94000000Y-102950000D03*
X92500000Y-96500000D03*
X97800000Y-101700000D03*
X115888999Y-88938999D03*
X92693597Y-90600000D03*
X90200000Y-90600000D03*
X82600000Y-90600000D03*
X83500000Y-93500000D03*
X84250000Y-93500000D03*
X100250000Y-101250000D03*
X98000000Y-89200000D03*
X79500000Y-93400000D03*
X85500000Y-105100000D03*
X83500000Y-101000000D03*
X79500000Y-107000000D03*
D19*
X95250000Y-86360000D02*
X100330000Y-86360000D01*
X81000000Y-94900000D02*
X79500000Y-93400000D01*
X79350000Y-101200000D02*
X80500000Y-101200000D01*
X80500000Y-101200000D02*
X81000000Y-100700000D01*
X80600000Y-98800000D02*
X81000000Y-98400000D01*
X79350000Y-98800000D02*
X80600000Y-98800000D01*
X81000000Y-100700000D02*
X81000000Y-98400000D01*
X81000000Y-98400000D02*
X81000000Y-94900000D01*
D20*
G36*
X72084218Y-94674505D02*
G01*
X71898956Y-94784503D01*
X71738714Y-94928530D01*
X71609649Y-95101051D01*
X71516721Y-95295437D01*
X71505592Y-95375999D01*
X71632498Y-95543000D01*
X72673000Y-95543000D01*
X72673000Y-95523000D01*
X72927000Y-95523000D01*
X72927000Y-95543000D01*
X73967502Y-95543000D01*
X74094408Y-95375999D01*
X74083279Y-95295437D01*
X73990351Y-95101051D01*
X73861286Y-94928530D01*
X73701044Y-94784503D01*
X73515782Y-94674505D01*
X73403909Y-94635000D01*
X78146091Y-94635000D01*
X78034218Y-94674505D01*
X77848956Y-94784503D01*
X77688714Y-94928530D01*
X77559649Y-95101051D01*
X77466721Y-95295437D01*
X77455592Y-95375999D01*
X77582498Y-95543000D01*
X77916090Y-95543000D01*
X77915000Y-95548000D01*
X77915000Y-95797000D01*
X77582498Y-95797000D01*
X77455592Y-95964001D01*
X77466721Y-96044563D01*
X77559649Y-96238949D01*
X77688714Y-96411470D01*
X77848956Y-96555497D01*
X77950746Y-96615934D01*
X77960624Y-96661233D01*
X78043263Y-96850827D01*
X78038036Y-96854319D01*
X77904319Y-96988036D01*
X77799259Y-97145269D01*
X77726892Y-97319978D01*
X77690000Y-97505448D01*
X77690000Y-97694552D01*
X77726892Y-97880022D01*
X77776589Y-98000000D01*
X77726892Y-98119978D01*
X77690000Y-98305448D01*
X77690000Y-98494552D01*
X77726892Y-98680022D01*
X77776589Y-98800000D01*
X77726892Y-98919978D01*
X77690000Y-99105448D01*
X77690000Y-99294552D01*
X77726892Y-99480022D01*
X77799259Y-99654731D01*
X77904319Y-99811964D01*
X78038036Y-99945681D01*
X78119330Y-100000000D01*
X78038036Y-100054319D01*
X77904319Y-100188036D01*
X77799259Y-100345269D01*
X77726892Y-100519978D01*
X77690000Y-100705448D01*
X77690000Y-100894552D01*
X77726892Y-101080022D01*
X77776589Y-101200000D01*
X77726892Y-101319978D01*
X77690000Y-101505448D01*
X77690000Y-101694552D01*
X77726892Y-101880022D01*
X77776589Y-102000000D01*
X77726892Y-102119978D01*
X77690000Y-102305448D01*
X77690000Y-102494552D01*
X77726892Y-102680022D01*
X77799259Y-102854731D01*
X77904319Y-103011964D01*
X78038036Y-103145681D01*
X78043263Y-103149173D01*
X77960624Y-103338767D01*
X77950746Y-103384066D01*
X77848956Y-103444503D01*
X77688714Y-103588530D01*
X77559649Y-103761051D01*
X77466721Y-103955437D01*
X77455592Y-104035999D01*
X77582498Y-104203000D01*
X77915000Y-104203000D01*
X77915000Y-104452000D01*
X77916090Y-104457000D01*
X77582498Y-104457000D01*
X77455592Y-104624001D01*
X77466721Y-104704563D01*
X77559649Y-104898949D01*
X77688714Y-105071470D01*
X77848956Y-105215497D01*
X78034218Y-105325495D01*
X78237379Y-105397236D01*
X78450633Y-105427964D01*
X78564339Y-105319418D01*
X78705999Y-105369408D01*
X78873000Y-105242502D01*
X78873000Y-104183000D01*
X78877000Y-104183000D01*
X78877000Y-104203000D01*
X78897000Y-104203000D01*
X78897000Y-104457000D01*
X78877000Y-104457000D01*
X78877000Y-105263419D01*
X79049367Y-105427964D01*
X79262621Y-105397236D01*
X79465782Y-105325495D01*
X79651044Y-105215497D01*
X79811286Y-105071470D01*
X79940351Y-104898949D01*
X79981303Y-104813286D01*
X80000000Y-104815128D01*
X80207795Y-104794662D01*
X80407606Y-104734050D01*
X80591753Y-104635622D01*
X80753159Y-104503159D01*
X80885622Y-104341753D01*
X80984050Y-104157607D01*
X81044662Y-103957796D01*
X81060000Y-103802066D01*
X81060000Y-103397935D01*
X81044662Y-103242205D01*
X81027176Y-103184561D01*
X81388000Y-103184561D01*
X81388000Y-103388439D01*
X81427774Y-103588398D01*
X81494712Y-103750000D01*
X81427774Y-103911602D01*
X81388000Y-104111561D01*
X81388000Y-104315439D01*
X81427774Y-104515398D01*
X81505795Y-104703756D01*
X81619063Y-104873274D01*
X81763226Y-105017437D01*
X81932744Y-105130705D01*
X82121102Y-105208726D01*
X82321061Y-105248500D01*
X82524939Y-105248500D01*
X82724898Y-105208726D01*
X82913256Y-105130705D01*
X83082774Y-105017437D01*
X83102150Y-104998061D01*
X84465000Y-104998061D01*
X84465000Y-105201939D01*
X84504774Y-105401898D01*
X84582795Y-105590256D01*
X84696063Y-105759774D01*
X84840226Y-105903937D01*
X85009744Y-106017205D01*
X85198102Y-106095226D01*
X85398061Y-106135000D01*
X85601939Y-106135000D01*
X85801898Y-106095226D01*
X85990256Y-106017205D01*
X86159774Y-105903937D01*
X86303937Y-105759774D01*
X86417205Y-105590256D01*
X86495226Y-105401898D01*
X86535000Y-105201939D01*
X86535000Y-104998061D01*
X86495226Y-104798102D01*
X86417205Y-104609744D01*
X86303937Y-104440226D01*
X86159774Y-104296063D01*
X85990256Y-104182795D01*
X85801898Y-104104774D01*
X85601939Y-104065000D01*
X85398061Y-104065000D01*
X85198102Y-104104774D01*
X85009744Y-104182795D01*
X84840226Y-104296063D01*
X84696063Y-104440226D01*
X84582795Y-104609744D01*
X84504774Y-104798102D01*
X84465000Y-104998061D01*
X83102150Y-104998061D01*
X83226937Y-104873274D01*
X83340205Y-104703756D01*
X83418226Y-104515398D01*
X83458000Y-104315439D01*
X83458000Y-104111561D01*
X83418226Y-103911602D01*
X83351288Y-103750000D01*
X83418226Y-103588398D01*
X83458000Y-103388439D01*
X83458000Y-103184561D01*
X83418226Y-102984602D01*
X83340205Y-102796244D01*
X83226937Y-102626726D01*
X83082774Y-102482563D01*
X82913256Y-102369295D01*
X82724898Y-102291274D01*
X82524939Y-102251500D01*
X82321061Y-102251500D01*
X82121102Y-102291274D01*
X81932744Y-102369295D01*
X81763226Y-102482563D01*
X81619063Y-102626726D01*
X81505795Y-102796244D01*
X81427774Y-102984602D01*
X81388000Y-103184561D01*
X81027176Y-103184561D01*
X80984050Y-103042394D01*
X80885622Y-102858247D01*
X80753159Y-102696841D01*
X80591753Y-102564378D01*
X80407607Y-102465950D01*
X80228354Y-102411574D01*
X80203187Y-102349874D01*
X80198270Y-102340677D01*
X80002536Y-102327069D01*
X79938695Y-102390910D01*
X79792205Y-102405338D01*
X79610000Y-102460609D01*
X79610000Y-102360395D01*
X79822931Y-102147464D01*
X79818866Y-102089000D01*
X80456340Y-102089000D01*
X80500000Y-102093300D01*
X80543660Y-102089000D01*
X80543667Y-102089000D01*
X80674274Y-102076136D01*
X80841851Y-102025303D01*
X80996291Y-101942753D01*
X81131659Y-101831659D01*
X81159499Y-101797736D01*
X81557116Y-101400119D01*
X81698604Y-101458726D01*
X81898563Y-101498500D01*
X82102441Y-101498500D01*
X82302400Y-101458726D01*
X82490758Y-101380705D01*
X82527303Y-101356287D01*
X82582795Y-101490256D01*
X82696063Y-101659774D01*
X82840226Y-101803937D01*
X83009744Y-101917205D01*
X83198102Y-101995226D01*
X83398061Y-102035000D01*
X83601939Y-102035000D01*
X83801898Y-101995226D01*
X83990256Y-101917205D01*
X84159774Y-101803937D01*
X84303937Y-101659774D01*
X84417205Y-101490256D01*
X84495226Y-101301898D01*
X84535000Y-101101939D01*
X84535000Y-100898061D01*
X84495226Y-100698102D01*
X84417205Y-100509744D01*
X84303937Y-100340226D01*
X84159774Y-100196063D01*
X83990256Y-100082795D01*
X83801898Y-100004774D01*
X83601939Y-99965000D01*
X83398061Y-99965000D01*
X83198102Y-100004774D01*
X83009744Y-100082795D01*
X82973199Y-100107213D01*
X82928790Y-100000000D01*
X82995728Y-99838398D01*
X83035502Y-99638439D01*
X83035502Y-99434561D01*
X82995728Y-99234602D01*
X82917707Y-99046244D01*
X82804439Y-98876726D01*
X82660276Y-98732563D01*
X82608634Y-98698057D01*
X85065000Y-98698057D01*
X85065000Y-98901935D01*
X85104774Y-99101894D01*
X85182795Y-99290252D01*
X85296063Y-99459770D01*
X85440226Y-99603933D01*
X85609744Y-99717201D01*
X85798102Y-99795222D01*
X85998061Y-99834996D01*
X86201939Y-99834996D01*
X86401898Y-99795222D01*
X86590256Y-99717201D01*
X86759774Y-99603933D01*
X86903937Y-99459770D01*
X87017205Y-99290252D01*
X87095226Y-99101894D01*
X87135000Y-98901935D01*
X87135000Y-98698057D01*
X87095226Y-98498098D01*
X87017205Y-98309740D01*
X86903937Y-98140222D01*
X86759774Y-97996059D01*
X86590256Y-97882791D01*
X86401898Y-97804770D01*
X86201939Y-97764996D01*
X85998061Y-97764996D01*
X85798102Y-97804770D01*
X85609744Y-97882791D01*
X85440226Y-97996059D01*
X85296063Y-98140222D01*
X85182795Y-98309740D01*
X85104774Y-98498098D01*
X85065000Y-98698057D01*
X82608634Y-98698057D01*
X82490758Y-98619295D01*
X82302400Y-98541274D01*
X82102441Y-98501500D01*
X81898563Y-98501500D01*
X81889000Y-98503402D01*
X81889000Y-98443661D01*
X81893300Y-98400001D01*
X81889000Y-98356341D01*
X81889000Y-97389211D01*
X82017226Y-97517437D01*
X82186744Y-97630705D01*
X82375102Y-97708726D01*
X82575061Y-97748500D01*
X82778939Y-97748500D01*
X82978898Y-97708726D01*
X83167256Y-97630705D01*
X83336774Y-97517437D01*
X83480937Y-97373274D01*
X83594205Y-97203756D01*
X83672226Y-97015398D01*
X83712000Y-96815439D01*
X83712000Y-96611561D01*
X83672226Y-96411602D01*
X83605288Y-96250000D01*
X83672226Y-96088398D01*
X83712000Y-95888439D01*
X83712000Y-95684561D01*
X83672226Y-95484602D01*
X83594205Y-95296244D01*
X83480937Y-95126726D01*
X83336774Y-94982563D01*
X83167256Y-94869295D01*
X82978898Y-94791274D01*
X82778939Y-94751500D01*
X82575061Y-94751500D01*
X82375102Y-94791274D01*
X82186744Y-94869295D01*
X82017226Y-94982563D01*
X81889000Y-95110789D01*
X81889000Y-94943659D01*
X81893300Y-94899999D01*
X81889000Y-94856339D01*
X81889000Y-94856333D01*
X81876136Y-94725726D01*
X81876136Y-94725724D01*
X81848615Y-94635000D01*
X83756327Y-94635000D01*
X92965000Y-102922806D01*
X92965000Y-103051939D01*
X93004774Y-103251898D01*
X93082795Y-103440256D01*
X93196063Y-103609774D01*
X93340226Y-103753937D01*
X93509744Y-103867205D01*
X93698102Y-103945226D01*
X93898061Y-103985000D01*
X94101939Y-103985000D01*
X94301898Y-103945226D01*
X94490256Y-103867205D01*
X94659774Y-103753937D01*
X94778711Y-103635000D01*
X97371289Y-103635000D01*
X97440226Y-103703937D01*
X97565000Y-103787308D01*
X97565000Y-103901939D01*
X97604774Y-104101898D01*
X97682795Y-104290256D01*
X97796063Y-104459774D01*
X97940226Y-104603937D01*
X98079572Y-104697045D01*
X98079572Y-104731083D01*
X98119346Y-104931042D01*
X98197367Y-105119400D01*
X98310635Y-105288918D01*
X98454798Y-105433081D01*
X98624316Y-105546349D01*
X98812674Y-105624370D01*
X99012633Y-105664144D01*
X99216511Y-105664144D01*
X99416470Y-105624370D01*
X99604828Y-105546349D01*
X99774346Y-105433081D01*
X99918509Y-105288918D01*
X100031777Y-105119400D01*
X100109798Y-104931042D01*
X100149572Y-104731083D01*
X100149572Y-104527205D01*
X100109798Y-104327246D01*
X100031777Y-104138888D01*
X99918509Y-103969370D01*
X99774346Y-103825207D01*
X99635000Y-103732099D01*
X99635000Y-103698061D01*
X99622456Y-103635000D01*
X104000000Y-103635000D01*
X104123882Y-103622799D01*
X104243004Y-103586664D01*
X104352787Y-103527983D01*
X104449013Y-103449013D01*
X108263026Y-99635000D01*
X112326599Y-99635000D01*
X112278269Y-99848905D01*
X112272489Y-100072406D01*
X112310423Y-100292740D01*
X112390613Y-100501440D01*
X112418412Y-100553450D01*
X112631834Y-100588561D01*
X113230395Y-99990000D01*
X113216253Y-99975858D01*
X113395858Y-99796253D01*
X113410000Y-99810395D01*
X113424143Y-99796253D01*
X113603748Y-99975858D01*
X113589605Y-99990000D01*
X113603748Y-100004143D01*
X113424143Y-100183748D01*
X113410000Y-100169605D01*
X112811439Y-100768166D01*
X112846550Y-100981588D01*
X112864379Y-100989519D01*
X112686480Y-101108388D01*
X112528388Y-101266480D01*
X112404176Y-101452376D01*
X112318617Y-101658933D01*
X112275000Y-101878212D01*
X112275000Y-102101788D01*
X112318617Y-102321067D01*
X112404176Y-102527624D01*
X112528388Y-102713520D01*
X112686480Y-102871612D01*
X112863660Y-102990000D01*
X112686480Y-103108388D01*
X112528388Y-103266480D01*
X112404176Y-103452376D01*
X112318617Y-103658933D01*
X112275000Y-103878212D01*
X112275000Y-104101788D01*
X112318617Y-104321067D01*
X112404176Y-104527624D01*
X112528388Y-104713520D01*
X112686480Y-104871612D01*
X112872376Y-104995824D01*
X113078933Y-105081383D01*
X113298212Y-105125000D01*
X113311914Y-105125000D01*
X113303653Y-105133261D01*
X113418345Y-105247953D01*
X113102786Y-105403962D01*
X112911980Y-105778745D01*
X112797956Y-106183551D01*
X112765098Y-106602824D01*
X112814666Y-107020451D01*
X112944757Y-107420383D01*
X113102786Y-107716038D01*
X113418347Y-107872048D01*
X114730395Y-106560000D01*
X115089605Y-106560000D01*
X116401653Y-107872048D01*
X116717214Y-107716038D01*
X116908020Y-107341255D01*
X117022044Y-106936449D01*
X117054902Y-106517176D01*
X117005334Y-106099549D01*
X116875243Y-105699617D01*
X116717214Y-105403962D01*
X116401653Y-105247952D01*
X115089605Y-106560000D01*
X114730395Y-106560000D01*
X114716253Y-106545858D01*
X114895858Y-106366253D01*
X114910000Y-106380395D01*
X116222048Y-105068347D01*
X116066038Y-104752786D01*
X115691255Y-104561980D01*
X115450223Y-104494087D01*
X115633520Y-104371612D01*
X115791612Y-104213520D01*
X115915824Y-104027624D01*
X116001383Y-103821067D01*
X116045000Y-103601788D01*
X116045000Y-103378212D01*
X116001383Y-103158933D01*
X115915824Y-102952376D01*
X115791612Y-102766480D01*
X115633520Y-102608388D01*
X115447624Y-102484176D01*
X115241067Y-102398617D01*
X115021788Y-102355000D01*
X114798212Y-102355000D01*
X114578933Y-102398617D01*
X114446547Y-102453453D01*
X114501383Y-102321067D01*
X114545000Y-102101788D01*
X114545000Y-102067327D01*
X114578933Y-102081383D01*
X114798212Y-102125000D01*
X115021788Y-102125000D01*
X115241067Y-102081383D01*
X115447624Y-101995824D01*
X115633520Y-101871612D01*
X115791612Y-101713520D01*
X115915824Y-101527624D01*
X116001383Y-101321067D01*
X116045000Y-101101788D01*
X116045000Y-100878212D01*
X116001383Y-100658933D01*
X115915824Y-100452376D01*
X115791612Y-100266480D01*
X115633520Y-100108388D01*
X115456340Y-99990000D01*
X115633520Y-99871612D01*
X115791612Y-99713520D01*
X115844077Y-99635000D01*
X117340000Y-99635000D01*
X117340000Y-108340000D01*
X116079492Y-108340000D01*
X116222048Y-108051653D01*
X114910000Y-106739605D01*
X113597952Y-108051653D01*
X113740508Y-108340000D01*
X70660000Y-108340000D01*
X70660000Y-106898061D01*
X78465000Y-106898061D01*
X78465000Y-107101939D01*
X78504774Y-107301898D01*
X78582795Y-107490256D01*
X78696063Y-107659774D01*
X78840226Y-107803937D01*
X79009744Y-107917205D01*
X79198102Y-107995226D01*
X79398061Y-108035000D01*
X79601939Y-108035000D01*
X79801898Y-107995226D01*
X79990256Y-107917205D01*
X80159774Y-107803937D01*
X80303937Y-107659774D01*
X80417205Y-107490256D01*
X80495226Y-107301898D01*
X80535000Y-107101939D01*
X80535000Y-106898061D01*
X80495226Y-106698102D01*
X80417205Y-106509744D01*
X80303937Y-106340226D01*
X80159774Y-106196063D01*
X79990256Y-106082795D01*
X79801898Y-106004774D01*
X79601939Y-105965000D01*
X79398061Y-105965000D01*
X79198102Y-106004774D01*
X79009744Y-106082795D01*
X78840226Y-106196063D01*
X78696063Y-106340226D01*
X78582795Y-106509744D01*
X78504774Y-106698102D01*
X78465000Y-106898061D01*
X70660000Y-106898061D01*
X70660000Y-104624001D01*
X71505592Y-104624001D01*
X71516721Y-104704563D01*
X71609649Y-104898949D01*
X71738714Y-105071470D01*
X71898956Y-105215497D01*
X72084218Y-105325495D01*
X72287379Y-105397236D01*
X72500633Y-105427964D01*
X72673000Y-105263419D01*
X72673000Y-104457000D01*
X72927000Y-104457000D01*
X72927000Y-105263419D01*
X73099367Y-105427964D01*
X73312621Y-105397236D01*
X73515782Y-105325495D01*
X73701044Y-105215497D01*
X73861286Y-105071470D01*
X73990351Y-104898949D01*
X74083279Y-104704563D01*
X74094408Y-104624001D01*
X73967502Y-104457000D01*
X72927000Y-104457000D01*
X72673000Y-104457000D01*
X71632498Y-104457000D01*
X71505592Y-104624001D01*
X70660000Y-104624001D01*
X70660000Y-104035999D01*
X71505592Y-104035999D01*
X71632498Y-104203000D01*
X72673000Y-104203000D01*
X72673000Y-103396581D01*
X72927000Y-103396581D01*
X72927000Y-104203000D01*
X73967502Y-104203000D01*
X74094408Y-104035999D01*
X74083279Y-103955437D01*
X73990351Y-103761051D01*
X73861286Y-103588530D01*
X73701044Y-103444503D01*
X73515782Y-103334505D01*
X73312621Y-103262764D01*
X73099367Y-103232036D01*
X72927000Y-103396581D01*
X72673000Y-103396581D01*
X72500633Y-103232036D01*
X72287379Y-103262764D01*
X72084218Y-103334505D01*
X71898956Y-103444503D01*
X71738714Y-103588530D01*
X71609649Y-103761051D01*
X71516721Y-103955437D01*
X71505592Y-104035999D01*
X70660000Y-104035999D01*
X70660000Y-95964001D01*
X71505592Y-95964001D01*
X71516721Y-96044563D01*
X71609649Y-96238949D01*
X71738714Y-96411470D01*
X71898956Y-96555497D01*
X72084218Y-96665495D01*
X72287379Y-96737236D01*
X72500633Y-96767964D01*
X72673000Y-96603419D01*
X72673000Y-95797000D01*
X72927000Y-95797000D01*
X72927000Y-96603419D01*
X73099367Y-96767964D01*
X73312621Y-96737236D01*
X73515782Y-96665495D01*
X73701044Y-96555497D01*
X73861286Y-96411470D01*
X73990351Y-96238949D01*
X74083279Y-96044563D01*
X74094408Y-95964001D01*
X73967502Y-95797000D01*
X72927000Y-95797000D01*
X72673000Y-95797000D01*
X71632498Y-95797000D01*
X71505592Y-95964001D01*
X70660000Y-95964001D01*
X70660000Y-94635000D01*
X72196091Y-94635000D01*
X72084218Y-94674505D01*
X72084218Y-94674505D01*
G37*
X72084218Y-94674505D02*
X71898956Y-94784503D01*
X71738714Y-94928530D01*
X71609649Y-95101051D01*
X71516721Y-95295437D01*
X71505592Y-95375999D01*
X71632498Y-95543000D01*
X72673000Y-95543000D01*
X72673000Y-95523000D01*
X72927000Y-95523000D01*
X72927000Y-95543000D01*
X73967502Y-95543000D01*
X74094408Y-95375999D01*
X74083279Y-95295437D01*
X73990351Y-95101051D01*
X73861286Y-94928530D01*
X73701044Y-94784503D01*
X73515782Y-94674505D01*
X73403909Y-94635000D01*
X78146091Y-94635000D01*
X78034218Y-94674505D01*
X77848956Y-94784503D01*
X77688714Y-94928530D01*
X77559649Y-95101051D01*
X77466721Y-95295437D01*
X77455592Y-95375999D01*
X77582498Y-95543000D01*
X77916090Y-95543000D01*
X77915000Y-95548000D01*
X77915000Y-95797000D01*
X77582498Y-95797000D01*
X77455592Y-95964001D01*
X77466721Y-96044563D01*
X77559649Y-96238949D01*
X77688714Y-96411470D01*
X77848956Y-96555497D01*
X77950746Y-96615934D01*
X77960624Y-96661233D01*
X78043263Y-96850827D01*
X78038036Y-96854319D01*
X77904319Y-96988036D01*
X77799259Y-97145269D01*
X77726892Y-97319978D01*
X77690000Y-97505448D01*
X77690000Y-97694552D01*
X77726892Y-97880022D01*
X77776589Y-98000000D01*
X77726892Y-98119978D01*
X77690000Y-98305448D01*
X77690000Y-98494552D01*
X77726892Y-98680022D01*
X77776589Y-98800000D01*
X77726892Y-98919978D01*
X77690000Y-99105448D01*
X77690000Y-99294552D01*
X77726892Y-99480022D01*
X77799259Y-99654731D01*
X77904319Y-99811964D01*
X78038036Y-99945681D01*
X78119330Y-100000000D01*
X78038036Y-100054319D01*
X77904319Y-100188036D01*
X77799259Y-100345269D01*
X77726892Y-100519978D01*
X77690000Y-100705448D01*
X77690000Y-100894552D01*
X77726892Y-101080022D01*
X77776589Y-101200000D01*
X77726892Y-101319978D01*
X77690000Y-101505448D01*
X77690000Y-101694552D01*
X77726892Y-101880022D01*
X77776589Y-102000000D01*
X77726892Y-102119978D01*
X77690000Y-102305448D01*
X77690000Y-102494552D01*
X77726892Y-102680022D01*
X77799259Y-102854731D01*
X77904319Y-103011964D01*
X78038036Y-103145681D01*
X78043263Y-103149173D01*
X77960624Y-103338767D01*
X77950746Y-103384066D01*
X77848956Y-103444503D01*
X77688714Y-103588530D01*
X77559649Y-103761051D01*
X77466721Y-103955437D01*
X77455592Y-104035999D01*
X77582498Y-104203000D01*
X77915000Y-104203000D01*
X77915000Y-104452000D01*
X77916090Y-104457000D01*
X77582498Y-104457000D01*
X77455592Y-104624001D01*
X77466721Y-104704563D01*
X77559649Y-104898949D01*
X77688714Y-105071470D01*
X77848956Y-105215497D01*
X78034218Y-105325495D01*
X78237379Y-105397236D01*
X78450633Y-105427964D01*
X78564339Y-105319418D01*
X78705999Y-105369408D01*
X78873000Y-105242502D01*
X78873000Y-104183000D01*
X78877000Y-104183000D01*
X78877000Y-104203000D01*
X78897000Y-104203000D01*
X78897000Y-104457000D01*
X78877000Y-104457000D01*
X78877000Y-105263419D01*
X79049367Y-105427964D01*
X79262621Y-105397236D01*
X79465782Y-105325495D01*
X79651044Y-105215497D01*
X79811286Y-105071470D01*
X79940351Y-104898949D01*
X79981303Y-104813286D01*
X80000000Y-104815128D01*
X80207795Y-104794662D01*
X80407606Y-104734050D01*
X80591753Y-104635622D01*
X80753159Y-104503159D01*
X80885622Y-104341753D01*
X80984050Y-104157607D01*
X81044662Y-103957796D01*
X81060000Y-103802066D01*
X81060000Y-103397935D01*
X81044662Y-103242205D01*
X81027176Y-103184561D01*
X81388000Y-103184561D01*
X81388000Y-103388439D01*
X81427774Y-103588398D01*
X81494712Y-103750000D01*
X81427774Y-103911602D01*
X81388000Y-104111561D01*
X81388000Y-104315439D01*
X81427774Y-104515398D01*
X81505795Y-104703756D01*
X81619063Y-104873274D01*
X81763226Y-105017437D01*
X81932744Y-105130705D01*
X82121102Y-105208726D01*
X82321061Y-105248500D01*
X82524939Y-105248500D01*
X82724898Y-105208726D01*
X82913256Y-105130705D01*
X83082774Y-105017437D01*
X83102150Y-104998061D01*
X84465000Y-104998061D01*
X84465000Y-105201939D01*
X84504774Y-105401898D01*
X84582795Y-105590256D01*
X84696063Y-105759774D01*
X84840226Y-105903937D01*
X85009744Y-106017205D01*
X85198102Y-106095226D01*
X85398061Y-106135000D01*
X85601939Y-106135000D01*
X85801898Y-106095226D01*
X85990256Y-106017205D01*
X86159774Y-105903937D01*
X86303937Y-105759774D01*
X86417205Y-105590256D01*
X86495226Y-105401898D01*
X86535000Y-105201939D01*
X86535000Y-104998061D01*
X86495226Y-104798102D01*
X86417205Y-104609744D01*
X86303937Y-104440226D01*
X86159774Y-104296063D01*
X85990256Y-104182795D01*
X85801898Y-104104774D01*
X85601939Y-104065000D01*
X85398061Y-104065000D01*
X85198102Y-104104774D01*
X85009744Y-104182795D01*
X84840226Y-104296063D01*
X84696063Y-104440226D01*
X84582795Y-104609744D01*
X84504774Y-104798102D01*
X84465000Y-104998061D01*
X83102150Y-104998061D01*
X83226937Y-104873274D01*
X83340205Y-104703756D01*
X83418226Y-104515398D01*
X83458000Y-104315439D01*
X83458000Y-104111561D01*
X83418226Y-103911602D01*
X83351288Y-103750000D01*
X83418226Y-103588398D01*
X83458000Y-103388439D01*
X83458000Y-103184561D01*
X83418226Y-102984602D01*
X83340205Y-102796244D01*
X83226937Y-102626726D01*
X83082774Y-102482563D01*
X82913256Y-102369295D01*
X82724898Y-102291274D01*
X82524939Y-102251500D01*
X82321061Y-102251500D01*
X82121102Y-102291274D01*
X81932744Y-102369295D01*
X81763226Y-102482563D01*
X81619063Y-102626726D01*
X81505795Y-102796244D01*
X81427774Y-102984602D01*
X81388000Y-103184561D01*
X81027176Y-103184561D01*
X80984050Y-103042394D01*
X80885622Y-102858247D01*
X80753159Y-102696841D01*
X80591753Y-102564378D01*
X80407607Y-102465950D01*
X80228354Y-102411574D01*
X80203187Y-102349874D01*
X80198270Y-102340677D01*
X80002536Y-102327069D01*
X79938695Y-102390910D01*
X79792205Y-102405338D01*
X79610000Y-102460609D01*
X79610000Y-102360395D01*
X79822931Y-102147464D01*
X79818866Y-102089000D01*
X80456340Y-102089000D01*
X80500000Y-102093300D01*
X80543660Y-102089000D01*
X80543667Y-102089000D01*
X80674274Y-102076136D01*
X80841851Y-102025303D01*
X80996291Y-101942753D01*
X81131659Y-101831659D01*
X81159499Y-101797736D01*
X81557116Y-101400119D01*
X81698604Y-101458726D01*
X81898563Y-101498500D01*
X82102441Y-101498500D01*
X82302400Y-101458726D01*
X82490758Y-101380705D01*
X82527303Y-101356287D01*
X82582795Y-101490256D01*
X82696063Y-101659774D01*
X82840226Y-101803937D01*
X83009744Y-101917205D01*
X83198102Y-101995226D01*
X83398061Y-102035000D01*
X83601939Y-102035000D01*
X83801898Y-101995226D01*
X83990256Y-101917205D01*
X84159774Y-101803937D01*
X84303937Y-101659774D01*
X84417205Y-101490256D01*
X84495226Y-101301898D01*
X84535000Y-101101939D01*
X84535000Y-100898061D01*
X84495226Y-100698102D01*
X84417205Y-100509744D01*
X84303937Y-100340226D01*
X84159774Y-100196063D01*
X83990256Y-100082795D01*
X83801898Y-100004774D01*
X83601939Y-99965000D01*
X83398061Y-99965000D01*
X83198102Y-100004774D01*
X83009744Y-100082795D01*
X82973199Y-100107213D01*
X82928790Y-100000000D01*
X82995728Y-99838398D01*
X83035502Y-99638439D01*
X83035502Y-99434561D01*
X82995728Y-99234602D01*
X82917707Y-99046244D01*
X82804439Y-98876726D01*
X82660276Y-98732563D01*
X82608634Y-98698057D01*
X85065000Y-98698057D01*
X85065000Y-98901935D01*
X85104774Y-99101894D01*
X85182795Y-99290252D01*
X85296063Y-99459770D01*
X85440226Y-99603933D01*
X85609744Y-99717201D01*
X85798102Y-99795222D01*
X85998061Y-99834996D01*
X86201939Y-99834996D01*
X86401898Y-99795222D01*
X86590256Y-99717201D01*
X86759774Y-99603933D01*
X86903937Y-99459770D01*
X87017205Y-99290252D01*
X87095226Y-99101894D01*
X87135000Y-98901935D01*
X87135000Y-98698057D01*
X87095226Y-98498098D01*
X87017205Y-98309740D01*
X86903937Y-98140222D01*
X86759774Y-97996059D01*
X86590256Y-97882791D01*
X86401898Y-97804770D01*
X86201939Y-97764996D01*
X85998061Y-97764996D01*
X85798102Y-97804770D01*
X85609744Y-97882791D01*
X85440226Y-97996059D01*
X85296063Y-98140222D01*
X85182795Y-98309740D01*
X85104774Y-98498098D01*
X85065000Y-98698057D01*
X82608634Y-98698057D01*
X82490758Y-98619295D01*
X82302400Y-98541274D01*
X82102441Y-98501500D01*
X81898563Y-98501500D01*
X81889000Y-98503402D01*
X81889000Y-98443661D01*
X81893300Y-98400001D01*
X81889000Y-98356341D01*
X81889000Y-97389211D01*
X82017226Y-97517437D01*
X82186744Y-97630705D01*
X82375102Y-97708726D01*
X82575061Y-97748500D01*
X82778939Y-97748500D01*
X82978898Y-97708726D01*
X83167256Y-97630705D01*
X83336774Y-97517437D01*
X83480937Y-97373274D01*
X83594205Y-97203756D01*
X83672226Y-97015398D01*
X83712000Y-96815439D01*
X83712000Y-96611561D01*
X83672226Y-96411602D01*
X83605288Y-96250000D01*
X83672226Y-96088398D01*
X83712000Y-95888439D01*
X83712000Y-95684561D01*
X83672226Y-95484602D01*
X83594205Y-95296244D01*
X83480937Y-95126726D01*
X83336774Y-94982563D01*
X83167256Y-94869295D01*
X82978898Y-94791274D01*
X82778939Y-94751500D01*
X82575061Y-94751500D01*
X82375102Y-94791274D01*
X82186744Y-94869295D01*
X82017226Y-94982563D01*
X81889000Y-95110789D01*
X81889000Y-94943659D01*
X81893300Y-94899999D01*
X81889000Y-94856339D01*
X81889000Y-94856333D01*
X81876136Y-94725726D01*
X81876136Y-94725724D01*
X81848615Y-94635000D01*
X83756327Y-94635000D01*
X92965000Y-102922806D01*
X92965000Y-103051939D01*
X93004774Y-103251898D01*
X93082795Y-103440256D01*
X93196063Y-103609774D01*
X93340226Y-103753937D01*
X93509744Y-103867205D01*
X93698102Y-103945226D01*
X93898061Y-103985000D01*
X94101939Y-103985000D01*
X94301898Y-103945226D01*
X94490256Y-103867205D01*
X94659774Y-103753937D01*
X94778711Y-103635000D01*
X97371289Y-103635000D01*
X97440226Y-103703937D01*
X97565000Y-103787308D01*
X97565000Y-103901939D01*
X97604774Y-104101898D01*
X97682795Y-104290256D01*
X97796063Y-104459774D01*
X97940226Y-104603937D01*
X98079572Y-104697045D01*
X98079572Y-104731083D01*
X98119346Y-104931042D01*
X98197367Y-105119400D01*
X98310635Y-105288918D01*
X98454798Y-105433081D01*
X98624316Y-105546349D01*
X98812674Y-105624370D01*
X99012633Y-105664144D01*
X99216511Y-105664144D01*
X99416470Y-105624370D01*
X99604828Y-105546349D01*
X99774346Y-105433081D01*
X99918509Y-105288918D01*
X100031777Y-105119400D01*
X100109798Y-104931042D01*
X100149572Y-104731083D01*
X100149572Y-104527205D01*
X100109798Y-104327246D01*
X100031777Y-104138888D01*
X99918509Y-103969370D01*
X99774346Y-103825207D01*
X99635000Y-103732099D01*
X99635000Y-103698061D01*
X99622456Y-103635000D01*
X104000000Y-103635000D01*
X104123882Y-103622799D01*
X104243004Y-103586664D01*
X104352787Y-103527983D01*
X104449013Y-103449013D01*
X108263026Y-99635000D01*
X112326599Y-99635000D01*
X112278269Y-99848905D01*
X112272489Y-100072406D01*
X112310423Y-100292740D01*
X112390613Y-100501440D01*
X112418412Y-100553450D01*
X112631834Y-100588561D01*
X113230395Y-99990000D01*
X113216253Y-99975858D01*
X113395858Y-99796253D01*
X113410000Y-99810395D01*
X113424143Y-99796253D01*
X113603748Y-99975858D01*
X113589605Y-99990000D01*
X113603748Y-100004143D01*
X113424143Y-100183748D01*
X113410000Y-100169605D01*
X112811439Y-100768166D01*
X112846550Y-100981588D01*
X112864379Y-100989519D01*
X112686480Y-101108388D01*
X112528388Y-101266480D01*
X112404176Y-101452376D01*
X112318617Y-101658933D01*
X112275000Y-101878212D01*
X112275000Y-102101788D01*
X112318617Y-102321067D01*
X112404176Y-102527624D01*
X112528388Y-102713520D01*
X112686480Y-102871612D01*
X112863660Y-102990000D01*
X112686480Y-103108388D01*
X112528388Y-103266480D01*
X112404176Y-103452376D01*
X112318617Y-103658933D01*
X112275000Y-103878212D01*
X112275000Y-104101788D01*
X112318617Y-104321067D01*
X112404176Y-104527624D01*
X112528388Y-104713520D01*
X112686480Y-104871612D01*
X112872376Y-104995824D01*
X113078933Y-105081383D01*
X113298212Y-105125000D01*
X113311914Y-105125000D01*
X113303653Y-105133261D01*
X113418345Y-105247953D01*
X113102786Y-105403962D01*
X112911980Y-105778745D01*
X112797956Y-106183551D01*
X112765098Y-106602824D01*
X112814666Y-107020451D01*
X112944757Y-107420383D01*
X113102786Y-107716038D01*
X113418347Y-107872048D01*
X114730395Y-106560000D01*
X115089605Y-106560000D01*
X116401653Y-107872048D01*
X116717214Y-107716038D01*
X116908020Y-107341255D01*
X117022044Y-106936449D01*
X117054902Y-106517176D01*
X117005334Y-106099549D01*
X116875243Y-105699617D01*
X116717214Y-105403962D01*
X116401653Y-105247952D01*
X115089605Y-106560000D01*
X114730395Y-106560000D01*
X114716253Y-106545858D01*
X114895858Y-106366253D01*
X114910000Y-106380395D01*
X116222048Y-105068347D01*
X116066038Y-104752786D01*
X115691255Y-104561980D01*
X115450223Y-104494087D01*
X115633520Y-104371612D01*
X115791612Y-104213520D01*
X115915824Y-104027624D01*
X116001383Y-103821067D01*
X116045000Y-103601788D01*
X116045000Y-103378212D01*
X116001383Y-103158933D01*
X115915824Y-102952376D01*
X115791612Y-102766480D01*
X115633520Y-102608388D01*
X115447624Y-102484176D01*
X115241067Y-102398617D01*
X115021788Y-102355000D01*
X114798212Y-102355000D01*
X114578933Y-102398617D01*
X114446547Y-102453453D01*
X114501383Y-102321067D01*
X114545000Y-102101788D01*
X114545000Y-102067327D01*
X114578933Y-102081383D01*
X114798212Y-102125000D01*
X115021788Y-102125000D01*
X115241067Y-102081383D01*
X115447624Y-101995824D01*
X115633520Y-101871612D01*
X115791612Y-101713520D01*
X115915824Y-101527624D01*
X116001383Y-101321067D01*
X116045000Y-101101788D01*
X116045000Y-100878212D01*
X116001383Y-100658933D01*
X115915824Y-100452376D01*
X115791612Y-100266480D01*
X115633520Y-100108388D01*
X115456340Y-99990000D01*
X115633520Y-99871612D01*
X115791612Y-99713520D01*
X115844077Y-99635000D01*
X117340000Y-99635000D01*
X117340000Y-108340000D01*
X116079492Y-108340000D01*
X116222048Y-108051653D01*
X114910000Y-106739605D01*
X113597952Y-108051653D01*
X113740508Y-108340000D01*
X70660000Y-108340000D01*
X70660000Y-106898061D01*
X78465000Y-106898061D01*
X78465000Y-107101939D01*
X78504774Y-107301898D01*
X78582795Y-107490256D01*
X78696063Y-107659774D01*
X78840226Y-107803937D01*
X79009744Y-107917205D01*
X79198102Y-107995226D01*
X79398061Y-108035000D01*
X79601939Y-108035000D01*
X79801898Y-107995226D01*
X79990256Y-107917205D01*
X80159774Y-107803937D01*
X80303937Y-107659774D01*
X80417205Y-107490256D01*
X80495226Y-107301898D01*
X80535000Y-107101939D01*
X80535000Y-106898061D01*
X80495226Y-106698102D01*
X80417205Y-106509744D01*
X80303937Y-106340226D01*
X80159774Y-106196063D01*
X79990256Y-106082795D01*
X79801898Y-106004774D01*
X79601939Y-105965000D01*
X79398061Y-105965000D01*
X79198102Y-106004774D01*
X79009744Y-106082795D01*
X78840226Y-106196063D01*
X78696063Y-106340226D01*
X78582795Y-106509744D01*
X78504774Y-106698102D01*
X78465000Y-106898061D01*
X70660000Y-106898061D01*
X70660000Y-104624001D01*
X71505592Y-104624001D01*
X71516721Y-104704563D01*
X71609649Y-104898949D01*
X71738714Y-105071470D01*
X71898956Y-105215497D01*
X72084218Y-105325495D01*
X72287379Y-105397236D01*
X72500633Y-105427964D01*
X72673000Y-105263419D01*
X72673000Y-104457000D01*
X72927000Y-104457000D01*
X72927000Y-105263419D01*
X73099367Y-105427964D01*
X73312621Y-105397236D01*
X73515782Y-105325495D01*
X73701044Y-105215497D01*
X73861286Y-105071470D01*
X73990351Y-104898949D01*
X74083279Y-104704563D01*
X74094408Y-104624001D01*
X73967502Y-104457000D01*
X72927000Y-104457000D01*
X72673000Y-104457000D01*
X71632498Y-104457000D01*
X71505592Y-104624001D01*
X70660000Y-104624001D01*
X70660000Y-104035999D01*
X71505592Y-104035999D01*
X71632498Y-104203000D01*
X72673000Y-104203000D01*
X72673000Y-103396581D01*
X72927000Y-103396581D01*
X72927000Y-104203000D01*
X73967502Y-104203000D01*
X74094408Y-104035999D01*
X74083279Y-103955437D01*
X73990351Y-103761051D01*
X73861286Y-103588530D01*
X73701044Y-103444503D01*
X73515782Y-103334505D01*
X73312621Y-103262764D01*
X73099367Y-103232036D01*
X72927000Y-103396581D01*
X72673000Y-103396581D01*
X72500633Y-103232036D01*
X72287379Y-103262764D01*
X72084218Y-103334505D01*
X71898956Y-103444503D01*
X71738714Y-103588530D01*
X71609649Y-103761051D01*
X71516721Y-103955437D01*
X71505592Y-104035999D01*
X70660000Y-104035999D01*
X70660000Y-95964001D01*
X71505592Y-95964001D01*
X71516721Y-96044563D01*
X71609649Y-96238949D01*
X71738714Y-96411470D01*
X71898956Y-96555497D01*
X72084218Y-96665495D01*
X72287379Y-96737236D01*
X72500633Y-96767964D01*
X72673000Y-96603419D01*
X72673000Y-95797000D01*
X72927000Y-95797000D01*
X72927000Y-96603419D01*
X73099367Y-96767964D01*
X73312621Y-96737236D01*
X73515782Y-96665495D01*
X73701044Y-96555497D01*
X73861286Y-96411470D01*
X73990351Y-96238949D01*
X74083279Y-96044563D01*
X74094408Y-95964001D01*
X73967502Y-95797000D01*
X72927000Y-95797000D01*
X72673000Y-95797000D01*
X71632498Y-95797000D01*
X71505592Y-95964001D01*
X70660000Y-95964001D01*
X70660000Y-94635000D01*
X72196091Y-94635000D01*
X72084218Y-94674505D01*
G36*
X71334866Y-82764866D02*
G01*
X71149294Y-82990986D01*
X71011401Y-83248966D01*
X70926487Y-83528889D01*
X70897815Y-83820000D01*
X70926487Y-84111111D01*
X71011401Y-84391034D01*
X71149294Y-84649014D01*
X71334866Y-84875134D01*
X71364687Y-84899607D01*
X71295820Y-84920498D01*
X71185506Y-84979463D01*
X71088815Y-85058815D01*
X71009463Y-85155506D01*
X70950498Y-85265820D01*
X70914188Y-85385518D01*
X70901928Y-85510000D01*
X70901928Y-87210000D01*
X70914188Y-87334482D01*
X70950498Y-87454180D01*
X71009463Y-87564494D01*
X71088815Y-87661185D01*
X71185506Y-87740537D01*
X71295820Y-87799502D01*
X71415518Y-87835812D01*
X71540000Y-87848072D01*
X73240000Y-87848072D01*
X73364482Y-87835812D01*
X73484180Y-87799502D01*
X73594494Y-87740537D01*
X73691185Y-87661185D01*
X73770537Y-87564494D01*
X73829502Y-87454180D01*
X73850393Y-87385313D01*
X73874866Y-87415134D01*
X74100986Y-87600706D01*
X74358966Y-87738599D01*
X74638889Y-87823513D01*
X74857050Y-87845000D01*
X75002950Y-87845000D01*
X75221111Y-87823513D01*
X75501034Y-87738599D01*
X75759014Y-87600706D01*
X75985134Y-87415134D01*
X76170706Y-87189014D01*
X76200000Y-87134209D01*
X76229294Y-87189014D01*
X76414866Y-87415134D01*
X76640986Y-87600706D01*
X76898966Y-87738599D01*
X77178889Y-87823513D01*
X77397050Y-87845000D01*
X77542950Y-87845000D01*
X77761111Y-87823513D01*
X78041034Y-87738599D01*
X78299014Y-87600706D01*
X78525134Y-87415134D01*
X78710706Y-87189014D01*
X78740000Y-87134209D01*
X78769294Y-87189014D01*
X78954866Y-87415134D01*
X79180986Y-87600706D01*
X79438966Y-87738599D01*
X79718889Y-87823513D01*
X79937050Y-87845000D01*
X80082950Y-87845000D01*
X80301111Y-87823513D01*
X80581034Y-87738599D01*
X80839014Y-87600706D01*
X81065134Y-87415134D01*
X81250706Y-87189014D01*
X81280000Y-87134209D01*
X81309294Y-87189014D01*
X81494866Y-87415134D01*
X81720986Y-87600706D01*
X81978966Y-87738599D01*
X82258889Y-87823513D01*
X82477050Y-87845000D01*
X82622950Y-87845000D01*
X82841111Y-87823513D01*
X83121034Y-87738599D01*
X83379014Y-87600706D01*
X83605134Y-87415134D01*
X83790706Y-87189014D01*
X83820000Y-87134209D01*
X83849294Y-87189014D01*
X84034866Y-87415134D01*
X84260986Y-87600706D01*
X84518966Y-87738599D01*
X84798889Y-87823513D01*
X85017050Y-87845000D01*
X85162950Y-87845000D01*
X85381111Y-87823513D01*
X85661034Y-87738599D01*
X85919014Y-87600706D01*
X86145134Y-87415134D01*
X86330706Y-87189014D01*
X86360000Y-87134209D01*
X86389294Y-87189014D01*
X86574866Y-87415134D01*
X86800986Y-87600706D01*
X87058966Y-87738599D01*
X87338889Y-87823513D01*
X87557050Y-87845000D01*
X87702950Y-87845000D01*
X87921111Y-87823513D01*
X88201034Y-87738599D01*
X88459014Y-87600706D01*
X88685134Y-87415134D01*
X88870706Y-87189014D01*
X88900000Y-87134209D01*
X88929294Y-87189014D01*
X89114866Y-87415134D01*
X89340986Y-87600706D01*
X89598966Y-87738599D01*
X89878889Y-87823513D01*
X90097050Y-87845000D01*
X90242950Y-87845000D01*
X90461111Y-87823513D01*
X90741034Y-87738599D01*
X90999014Y-87600706D01*
X91225134Y-87415134D01*
X91410706Y-87189014D01*
X91440000Y-87134209D01*
X91469294Y-87189014D01*
X91654866Y-87415134D01*
X91880986Y-87600706D01*
X92138966Y-87738599D01*
X92418889Y-87823513D01*
X92637050Y-87845000D01*
X92782950Y-87845000D01*
X93001111Y-87823513D01*
X93281034Y-87738599D01*
X93539014Y-87600706D01*
X93765134Y-87415134D01*
X93950706Y-87189014D01*
X93980000Y-87134209D01*
X94009294Y-87189014D01*
X94194866Y-87415134D01*
X94420986Y-87600706D01*
X94678966Y-87738599D01*
X94958889Y-87823513D01*
X95177050Y-87845000D01*
X95322950Y-87845000D01*
X95541111Y-87823513D01*
X95821034Y-87738599D01*
X96079014Y-87600706D01*
X96305134Y-87415134D01*
X96441477Y-87249000D01*
X96598523Y-87249000D01*
X96734866Y-87415134D01*
X96960986Y-87600706D01*
X97218966Y-87738599D01*
X97498889Y-87823513D01*
X97717050Y-87845000D01*
X97862950Y-87845000D01*
X98081111Y-87823513D01*
X98361034Y-87738599D01*
X98619014Y-87600706D01*
X98845134Y-87415134D01*
X98981477Y-87249000D01*
X99138523Y-87249000D01*
X99274866Y-87415134D01*
X99500986Y-87600706D01*
X99758966Y-87738599D01*
X100038889Y-87823513D01*
X100257050Y-87845000D01*
X100402950Y-87845000D01*
X100621111Y-87823513D01*
X100901034Y-87738599D01*
X101159014Y-87600706D01*
X101385134Y-87415134D01*
X101570706Y-87189014D01*
X101600000Y-87134209D01*
X101629294Y-87189014D01*
X101814866Y-87415134D01*
X102040986Y-87600706D01*
X102298966Y-87738599D01*
X102578889Y-87823513D01*
X102797050Y-87845000D01*
X102942950Y-87845000D01*
X103161111Y-87823513D01*
X103441034Y-87738599D01*
X103699014Y-87600706D01*
X103925134Y-87415134D01*
X104110706Y-87189014D01*
X104140000Y-87134209D01*
X104169294Y-87189014D01*
X104354866Y-87415134D01*
X104580986Y-87600706D01*
X104838966Y-87738599D01*
X105118889Y-87823513D01*
X105337050Y-87845000D01*
X105482950Y-87845000D01*
X105701111Y-87823513D01*
X105981034Y-87738599D01*
X106239014Y-87600706D01*
X106465134Y-87415134D01*
X106650706Y-87189014D01*
X106680000Y-87134209D01*
X106709294Y-87189014D01*
X106894866Y-87415134D01*
X107120986Y-87600706D01*
X107378966Y-87738599D01*
X107658889Y-87823513D01*
X107877050Y-87845000D01*
X108022950Y-87845000D01*
X108241111Y-87823513D01*
X108521034Y-87738599D01*
X108779014Y-87600706D01*
X109005134Y-87415134D01*
X109190706Y-87189014D01*
X109220000Y-87134209D01*
X109249294Y-87189014D01*
X109434866Y-87415134D01*
X109660986Y-87600706D01*
X109918966Y-87738599D01*
X110198889Y-87823513D01*
X110417050Y-87845000D01*
X110562950Y-87845000D01*
X110781111Y-87823513D01*
X111061034Y-87738599D01*
X111319014Y-87600706D01*
X111545134Y-87415134D01*
X111730706Y-87189014D01*
X111765201Y-87124477D01*
X111834822Y-87241355D01*
X112029731Y-87457588D01*
X112263080Y-87631641D01*
X112525901Y-87756825D01*
X112673110Y-87801476D01*
X112903000Y-87680155D01*
X112903000Y-86487000D01*
X112883000Y-86487000D01*
X112883000Y-86233000D01*
X112903000Y-86233000D01*
X112903000Y-83947000D01*
X110617000Y-83947000D01*
X110617000Y-83967000D01*
X110363000Y-83967000D01*
X110363000Y-83947000D01*
X108077000Y-83947000D01*
X108077000Y-83967000D01*
X107823000Y-83967000D01*
X107823000Y-83947000D01*
X105537000Y-83947000D01*
X105537000Y-83967000D01*
X105283000Y-83967000D01*
X105283000Y-83947000D01*
X102997000Y-83947000D01*
X102997000Y-83967000D01*
X102743000Y-83967000D01*
X102743000Y-83947000D01*
X100457000Y-83947000D01*
X100457000Y-83967000D01*
X100203000Y-83967000D01*
X100203000Y-83947000D01*
X100183000Y-83947000D01*
X100183000Y-83693000D01*
X100203000Y-83693000D01*
X100203000Y-83673000D01*
X100457000Y-83673000D01*
X100457000Y-83693000D01*
X102743000Y-83693000D01*
X102743000Y-83673000D01*
X102997000Y-83673000D01*
X102997000Y-83693000D01*
X105283000Y-83693000D01*
X105283000Y-83673000D01*
X105537000Y-83673000D01*
X105537000Y-83693000D01*
X107823000Y-83693000D01*
X107823000Y-83673000D01*
X108077000Y-83673000D01*
X108077000Y-83693000D01*
X110363000Y-83693000D01*
X110363000Y-83673000D01*
X110617000Y-83673000D01*
X110617000Y-83693000D01*
X112903000Y-83693000D01*
X112903000Y-83673000D01*
X113157000Y-83673000D01*
X113157000Y-83693000D01*
X113177000Y-83693000D01*
X113177000Y-83947000D01*
X113157000Y-83947000D01*
X113157000Y-86233000D01*
X113177000Y-86233000D01*
X113177000Y-86487000D01*
X113157000Y-86487000D01*
X113157000Y-87680155D01*
X113386890Y-87801476D01*
X113534099Y-87756825D01*
X113796920Y-87631641D01*
X114030269Y-87457588D01*
X114225178Y-87241355D01*
X114294799Y-87124477D01*
X114329294Y-87189014D01*
X114514866Y-87415134D01*
X114740986Y-87600706D01*
X114998966Y-87738599D01*
X115278889Y-87823513D01*
X115497050Y-87845000D01*
X115642950Y-87845000D01*
X115861111Y-87823513D01*
X116141034Y-87738599D01*
X116399014Y-87600706D01*
X116625134Y-87415134D01*
X116810706Y-87189014D01*
X116948599Y-86931034D01*
X117033513Y-86651111D01*
X117062185Y-86360000D01*
X117033513Y-86068889D01*
X116948599Y-85788966D01*
X116810706Y-85530986D01*
X116625134Y-85304866D01*
X116399014Y-85119294D01*
X116344209Y-85090000D01*
X116399014Y-85060706D01*
X116625134Y-84875134D01*
X116810706Y-84649014D01*
X116948599Y-84391034D01*
X117033513Y-84111111D01*
X117062185Y-83820000D01*
X117033513Y-83528889D01*
X116948599Y-83248966D01*
X116810706Y-82990986D01*
X116625134Y-82764866D01*
X116497354Y-82660000D01*
X117340001Y-82660000D01*
X117340000Y-98873000D01*
X116043963Y-98873000D01*
X116001383Y-98658933D01*
X115915824Y-98452376D01*
X115791612Y-98266480D01*
X115633520Y-98108388D01*
X115447624Y-97984176D01*
X115241067Y-97898617D01*
X115021788Y-97855000D01*
X114798212Y-97855000D01*
X114578933Y-97898617D01*
X114545000Y-97912673D01*
X114545000Y-97878212D01*
X114501383Y-97658933D01*
X114446547Y-97526547D01*
X114578933Y-97581383D01*
X114798212Y-97625000D01*
X115021788Y-97625000D01*
X115241067Y-97581383D01*
X115447624Y-97495824D01*
X115633520Y-97371612D01*
X115791612Y-97213520D01*
X115915824Y-97027624D01*
X116001383Y-96821067D01*
X116045000Y-96601788D01*
X116045000Y-96378212D01*
X116001383Y-96158933D01*
X115915824Y-95952376D01*
X115791612Y-95766480D01*
X115633520Y-95608388D01*
X115454210Y-95488577D01*
X115532756Y-95472953D01*
X115921302Y-95312012D01*
X116270983Y-95078363D01*
X116568363Y-94780983D01*
X116802012Y-94431302D01*
X116962953Y-94042756D01*
X117045000Y-93630279D01*
X117045000Y-93209721D01*
X116962953Y-92797244D01*
X116802012Y-92408698D01*
X116568363Y-92059017D01*
X116270983Y-91761637D01*
X115921302Y-91527988D01*
X115532756Y-91367047D01*
X115120279Y-91285000D01*
X114699721Y-91285000D01*
X114287244Y-91367047D01*
X113898698Y-91527988D01*
X113549017Y-91761637D01*
X113251637Y-92059017D01*
X113017988Y-92408698D01*
X112857047Y-92797244D01*
X112775000Y-93209721D01*
X112775000Y-93630279D01*
X112857047Y-94042756D01*
X113017988Y-94431302D01*
X113251637Y-94780983D01*
X113325654Y-94855000D01*
X113298212Y-94855000D01*
X113078933Y-94898617D01*
X112872376Y-94984176D01*
X112686480Y-95108388D01*
X112528388Y-95266480D01*
X112404176Y-95452376D01*
X112318617Y-95658933D01*
X112275000Y-95878212D01*
X112275000Y-96101788D01*
X112318617Y-96321067D01*
X112404176Y-96527624D01*
X112528388Y-96713520D01*
X112686480Y-96871612D01*
X112863660Y-96990000D01*
X112686480Y-97108388D01*
X112528388Y-97266480D01*
X112404176Y-97452376D01*
X112318617Y-97658933D01*
X112275000Y-97878212D01*
X112275000Y-98101788D01*
X112318617Y-98321067D01*
X112404176Y-98527624D01*
X112528388Y-98713520D01*
X112686480Y-98871612D01*
X112688557Y-98873000D01*
X108000000Y-98873000D01*
X107975224Y-98875440D01*
X107951399Y-98882667D01*
X107929443Y-98894403D01*
X107910197Y-98910197D01*
X103947394Y-102873000D01*
X99135000Y-102873000D01*
X99135000Y-102798061D01*
X99095226Y-102598102D01*
X99017205Y-102409744D01*
X98903937Y-102240226D01*
X98759774Y-102096063D01*
X98756991Y-102094204D01*
X98795226Y-102001898D01*
X98835000Y-101801939D01*
X98835000Y-101598061D01*
X98795226Y-101398102D01*
X98717205Y-101209744D01*
X98603937Y-101040226D01*
X98459774Y-100896063D01*
X98290256Y-100782795D01*
X98101898Y-100704774D01*
X97901939Y-100665000D01*
X97698061Y-100665000D01*
X97498102Y-100704774D01*
X97309744Y-100782795D01*
X97140226Y-100896063D01*
X96996063Y-101040226D01*
X96882795Y-101209744D01*
X96804774Y-101398102D01*
X96765000Y-101598061D01*
X96765000Y-101801939D01*
X96804774Y-102001898D01*
X96882795Y-102190256D01*
X96996063Y-102359774D01*
X97140226Y-102503937D01*
X97143009Y-102505796D01*
X97104774Y-102598102D01*
X97065000Y-102798061D01*
X97065000Y-102873000D01*
X95035000Y-102873000D01*
X95035000Y-102848061D01*
X94995226Y-102648102D01*
X94917205Y-102459744D01*
X94803937Y-102290226D01*
X94659774Y-102146063D01*
X94490256Y-102032795D01*
X94301898Y-101954774D01*
X94101939Y-101915000D01*
X93898061Y-101915000D01*
X93698102Y-101954774D01*
X93509744Y-102032795D01*
X93340226Y-102146063D01*
X93293237Y-102193052D01*
X89592996Y-98862835D01*
X94115000Y-98862835D01*
X94115000Y-99037165D01*
X94149010Y-99208145D01*
X94187057Y-99300000D01*
X94149010Y-99391855D01*
X94115000Y-99562835D01*
X94115000Y-99737165D01*
X94149010Y-99908145D01*
X94187057Y-100000000D01*
X94149010Y-100091855D01*
X94115000Y-100262835D01*
X94115000Y-100437165D01*
X94149010Y-100608145D01*
X94187057Y-100700000D01*
X94149010Y-100791855D01*
X94115000Y-100962835D01*
X94115000Y-101137165D01*
X94149010Y-101308145D01*
X94215723Y-101469205D01*
X94312576Y-101614155D01*
X94435845Y-101737424D01*
X94580795Y-101834277D01*
X94741855Y-101900990D01*
X94912835Y-101935000D01*
X95087165Y-101935000D01*
X95258145Y-101900990D01*
X95419205Y-101834277D01*
X95564155Y-101737424D01*
X95687424Y-101614155D01*
X95784277Y-101469205D01*
X95850990Y-101308145D01*
X95885000Y-101137165D01*
X95885000Y-100962835D01*
X95850990Y-100791855D01*
X95812943Y-100700000D01*
X95850990Y-100608145D01*
X95885000Y-100437165D01*
X95885000Y-100262835D01*
X95850990Y-100091855D01*
X95812943Y-100000000D01*
X95850990Y-99908145D01*
X95885000Y-99737165D01*
X95885000Y-99562835D01*
X95850990Y-99391855D01*
X95812943Y-99300000D01*
X95850990Y-99208145D01*
X95885000Y-99037165D01*
X95885000Y-98862835D01*
X95850990Y-98691855D01*
X95784277Y-98530795D01*
X95687424Y-98385845D01*
X95564155Y-98262576D01*
X95419205Y-98165723D01*
X95258145Y-98099010D01*
X95087165Y-98065000D01*
X94912835Y-98065000D01*
X94741855Y-98099010D01*
X94580795Y-98165723D01*
X94435845Y-98262576D01*
X94312576Y-98385845D01*
X94215723Y-98530795D01*
X94149010Y-98691855D01*
X94115000Y-98862835D01*
X89592996Y-98862835D01*
X88317112Y-97714540D01*
X88371226Y-97583898D01*
X88411000Y-97383939D01*
X88411000Y-97180061D01*
X88371226Y-96980102D01*
X88293205Y-96791744D01*
X88179937Y-96622226D01*
X88035774Y-96478063D01*
X87916043Y-96398061D01*
X91465000Y-96398061D01*
X91465000Y-96601939D01*
X91504774Y-96801898D01*
X91582795Y-96990256D01*
X91696063Y-97159774D01*
X91840226Y-97303937D01*
X92009744Y-97417205D01*
X92198102Y-97495226D01*
X92398061Y-97535000D01*
X92601939Y-97535000D01*
X92801898Y-97495226D01*
X92990256Y-97417205D01*
X93159774Y-97303937D01*
X93303937Y-97159774D01*
X93417205Y-96990256D01*
X93495226Y-96801898D01*
X93504283Y-96756365D01*
X93548408Y-96774643D01*
X93538473Y-96824588D01*
X93538473Y-97028466D01*
X93578247Y-97228425D01*
X93656268Y-97416783D01*
X93769536Y-97586301D01*
X93913699Y-97730464D01*
X94083217Y-97843732D01*
X94271575Y-97921753D01*
X94471534Y-97961527D01*
X94675412Y-97961527D01*
X94875371Y-97921753D01*
X95063729Y-97843732D01*
X95233247Y-97730464D01*
X95377410Y-97586301D01*
X95394274Y-97561061D01*
X96247000Y-97561061D01*
X96247000Y-97764939D01*
X96286774Y-97964898D01*
X96364795Y-98153256D01*
X96478063Y-98322774D01*
X96622226Y-98466937D01*
X96791744Y-98580205D01*
X96980102Y-98658226D01*
X97180061Y-98698000D01*
X97383939Y-98698000D01*
X97583898Y-98658226D01*
X97608438Y-98648061D01*
X101965000Y-98648061D01*
X101965000Y-98851939D01*
X102004774Y-99051898D01*
X102082795Y-99240256D01*
X102196063Y-99409774D01*
X102340226Y-99553937D01*
X102509744Y-99667205D01*
X102698102Y-99745226D01*
X102898061Y-99785000D01*
X103101939Y-99785000D01*
X103301898Y-99745226D01*
X103490256Y-99667205D01*
X103659774Y-99553937D01*
X103803937Y-99409774D01*
X103917205Y-99240256D01*
X103995226Y-99051898D01*
X104035000Y-98851939D01*
X104035000Y-98648061D01*
X103995226Y-98448102D01*
X103917205Y-98259744D01*
X103803937Y-98090226D01*
X103659774Y-97946063D01*
X103490256Y-97832795D01*
X103301898Y-97754774D01*
X103101939Y-97715000D01*
X102898061Y-97715000D01*
X102698102Y-97754774D01*
X102509744Y-97832795D01*
X102340226Y-97946063D01*
X102196063Y-98090226D01*
X102082795Y-98259744D01*
X102004774Y-98448102D01*
X101965000Y-98648061D01*
X97608438Y-98648061D01*
X97772256Y-98580205D01*
X97941774Y-98466937D01*
X98085937Y-98322774D01*
X98199205Y-98153256D01*
X98277226Y-97964898D01*
X98317000Y-97764939D01*
X98317000Y-97561061D01*
X98277226Y-97361102D01*
X98199205Y-97172744D01*
X98085937Y-97003226D01*
X97941774Y-96859063D01*
X97772256Y-96745795D01*
X97583898Y-96667774D01*
X97383939Y-96628000D01*
X97180061Y-96628000D01*
X96980102Y-96667774D01*
X96791744Y-96745795D01*
X96622226Y-96859063D01*
X96478063Y-97003226D01*
X96364795Y-97172744D01*
X96286774Y-97361102D01*
X96247000Y-97561061D01*
X95394274Y-97561061D01*
X95490678Y-97416783D01*
X95568699Y-97228425D01*
X95608473Y-97028466D01*
X95608473Y-96824588D01*
X95568699Y-96624629D01*
X95490678Y-96436271D01*
X95377410Y-96266753D01*
X95233247Y-96122590D01*
X95063729Y-96009322D01*
X94925063Y-95951884D01*
X94934998Y-95901939D01*
X94934998Y-95698061D01*
X94895224Y-95498102D01*
X94817203Y-95309744D01*
X94703935Y-95140226D01*
X94559772Y-94996063D01*
X94390254Y-94882795D01*
X94201896Y-94804774D01*
X94168148Y-94798061D01*
X103365000Y-94798061D01*
X103365000Y-95001939D01*
X103404774Y-95201898D01*
X103482795Y-95390256D01*
X103596063Y-95559774D01*
X103740226Y-95703937D01*
X103909744Y-95817205D01*
X104098102Y-95895226D01*
X104298061Y-95935000D01*
X104501939Y-95935000D01*
X104701898Y-95895226D01*
X104890256Y-95817205D01*
X105059774Y-95703937D01*
X105203937Y-95559774D01*
X105317205Y-95390256D01*
X105395226Y-95201898D01*
X105435000Y-95001939D01*
X105435000Y-94798061D01*
X105395226Y-94598102D01*
X105317205Y-94409744D01*
X105203937Y-94240226D01*
X105059774Y-94096063D01*
X104890256Y-93982795D01*
X104701898Y-93904774D01*
X104501939Y-93865000D01*
X104298061Y-93865000D01*
X104098102Y-93904774D01*
X103909744Y-93982795D01*
X103740226Y-94096063D01*
X103596063Y-94240226D01*
X103482795Y-94409744D01*
X103404774Y-94598102D01*
X103365000Y-94798061D01*
X94168148Y-94798061D01*
X94001937Y-94765000D01*
X93798059Y-94765000D01*
X93598100Y-94804774D01*
X93409742Y-94882795D01*
X93240224Y-94996063D01*
X93096061Y-95140226D01*
X92982793Y-95309744D01*
X92904772Y-95498102D01*
X92895715Y-95543635D01*
X92801898Y-95504774D01*
X92601939Y-95465000D01*
X92398061Y-95465000D01*
X92198102Y-95504774D01*
X92009744Y-95582795D01*
X91840226Y-95696063D01*
X91696063Y-95840226D01*
X91582795Y-96009744D01*
X91504774Y-96198102D01*
X91465000Y-96398061D01*
X87916043Y-96398061D01*
X87866256Y-96364795D01*
X87677898Y-96286774D01*
X87477939Y-96247000D01*
X87274061Y-96247000D01*
X87074102Y-96286774D01*
X86885744Y-96364795D01*
X86846518Y-96391005D01*
X84084959Y-93905602D01*
X84064910Y-93890841D01*
X84042367Y-93880275D01*
X84018196Y-93874310D01*
X84000000Y-93873000D01*
X81230235Y-93873000D01*
X80558496Y-93201261D01*
X84965000Y-93201261D01*
X84965000Y-93405139D01*
X85004774Y-93605098D01*
X85082795Y-93793456D01*
X85196063Y-93962974D01*
X85340226Y-94107137D01*
X85509744Y-94220405D01*
X85698102Y-94298426D01*
X85898061Y-94338200D01*
X86101939Y-94338200D01*
X86301898Y-94298426D01*
X86490256Y-94220405D01*
X86659774Y-94107137D01*
X86803937Y-93962974D01*
X86917205Y-93793456D01*
X86995226Y-93605098D01*
X87035000Y-93405139D01*
X87035000Y-93201261D01*
X86995226Y-93001302D01*
X86917205Y-92812944D01*
X86803937Y-92643426D01*
X86659774Y-92499263D01*
X86490256Y-92385995D01*
X86301898Y-92307974D01*
X86101939Y-92268200D01*
X85898061Y-92268200D01*
X85698102Y-92307974D01*
X85509744Y-92385995D01*
X85340226Y-92499263D01*
X85196063Y-92643426D01*
X85082795Y-92812944D01*
X85004774Y-93001302D01*
X84965000Y-93201261D01*
X80558496Y-93201261D01*
X80505130Y-93147895D01*
X80495226Y-93098102D01*
X80417205Y-92909744D01*
X80303937Y-92740226D01*
X80159774Y-92596063D01*
X79990256Y-92482795D01*
X79801898Y-92404774D01*
X79601939Y-92365000D01*
X79398061Y-92365000D01*
X79198102Y-92404774D01*
X79009744Y-92482795D01*
X78840226Y-92596063D01*
X78696063Y-92740226D01*
X78582795Y-92909744D01*
X78504774Y-93098102D01*
X78465000Y-93298061D01*
X78465000Y-93501939D01*
X78504774Y-93701898D01*
X78575647Y-93873000D01*
X70660000Y-93873000D01*
X70660000Y-90498061D01*
X76465000Y-90498061D01*
X76465000Y-90701939D01*
X76504774Y-90901898D01*
X76582795Y-91090256D01*
X76696063Y-91259774D01*
X76840226Y-91403937D01*
X77009744Y-91517205D01*
X77198102Y-91595226D01*
X77398061Y-91635000D01*
X77601939Y-91635000D01*
X77801898Y-91595226D01*
X77990256Y-91517205D01*
X78159774Y-91403937D01*
X78303937Y-91259774D01*
X78417205Y-91090256D01*
X78495226Y-90901898D01*
X78535000Y-90701939D01*
X78535000Y-90498061D01*
X84065000Y-90498061D01*
X84065000Y-90701939D01*
X84104774Y-90901898D01*
X84182795Y-91090256D01*
X84296063Y-91259774D01*
X84440226Y-91403937D01*
X84609744Y-91517205D01*
X84798102Y-91595226D01*
X84998061Y-91635000D01*
X85201939Y-91635000D01*
X85401898Y-91595226D01*
X85590256Y-91517205D01*
X85759774Y-91403937D01*
X85903937Y-91259774D01*
X86017205Y-91090256D01*
X86095226Y-90901898D01*
X86135000Y-90701939D01*
X86135000Y-90498061D01*
X86095226Y-90298102D01*
X86017205Y-90109744D01*
X85903937Y-89940226D01*
X85759774Y-89796063D01*
X85590256Y-89682795D01*
X85401898Y-89604774D01*
X85201939Y-89565000D01*
X84998061Y-89565000D01*
X84798102Y-89604774D01*
X84609744Y-89682795D01*
X84440226Y-89796063D01*
X84296063Y-89940226D01*
X84182795Y-90109744D01*
X84104774Y-90298102D01*
X84065000Y-90498061D01*
X78535000Y-90498061D01*
X78495226Y-90298102D01*
X78417205Y-90109744D01*
X78303937Y-89940226D01*
X78159774Y-89796063D01*
X77990256Y-89682795D01*
X77801898Y-89604774D01*
X77601939Y-89565000D01*
X77398061Y-89565000D01*
X77198102Y-89604774D01*
X77009744Y-89682795D01*
X76840226Y-89796063D01*
X76696063Y-89940226D01*
X76582795Y-90109744D01*
X76504774Y-90298102D01*
X76465000Y-90498061D01*
X70660000Y-90498061D01*
X70660000Y-89320000D01*
X101381928Y-89320000D01*
X101381928Y-91020000D01*
X101394188Y-91144482D01*
X101430498Y-91264180D01*
X101489463Y-91374494D01*
X101568815Y-91471185D01*
X101665506Y-91550537D01*
X101775820Y-91609502D01*
X101895518Y-91645812D01*
X102020000Y-91658072D01*
X103720000Y-91658072D01*
X103844482Y-91645812D01*
X103964180Y-91609502D01*
X104074494Y-91550537D01*
X104171185Y-91471185D01*
X104250537Y-91374494D01*
X104309502Y-91264180D01*
X104330393Y-91195313D01*
X104354866Y-91225134D01*
X104580986Y-91410706D01*
X104838966Y-91548599D01*
X105118889Y-91633513D01*
X105337050Y-91655000D01*
X105482950Y-91655000D01*
X105701111Y-91633513D01*
X105981034Y-91548599D01*
X106239014Y-91410706D01*
X106465134Y-91225134D01*
X106650706Y-90999014D01*
X106680000Y-90944209D01*
X106709294Y-90999014D01*
X106894866Y-91225134D01*
X107120986Y-91410706D01*
X107378966Y-91548599D01*
X107658889Y-91633513D01*
X107877050Y-91655000D01*
X108022950Y-91655000D01*
X108241111Y-91633513D01*
X108521034Y-91548599D01*
X108779014Y-91410706D01*
X109005134Y-91225134D01*
X109190706Y-90999014D01*
X109220000Y-90944209D01*
X109249294Y-90999014D01*
X109434866Y-91225134D01*
X109660986Y-91410706D01*
X109918966Y-91548599D01*
X110198889Y-91633513D01*
X110417050Y-91655000D01*
X110562950Y-91655000D01*
X110781111Y-91633513D01*
X111061034Y-91548599D01*
X111319014Y-91410706D01*
X111545134Y-91225134D01*
X111730706Y-90999014D01*
X111868599Y-90741034D01*
X111953513Y-90461111D01*
X111982185Y-90170000D01*
X111953513Y-89878889D01*
X111868599Y-89598966D01*
X111730706Y-89340986D01*
X111545134Y-89114866D01*
X111319014Y-88929294D01*
X111146457Y-88837060D01*
X114853999Y-88837060D01*
X114853999Y-89040938D01*
X114893773Y-89240897D01*
X114971794Y-89429255D01*
X115085062Y-89598773D01*
X115229225Y-89742936D01*
X115398743Y-89856204D01*
X115587101Y-89934225D01*
X115787060Y-89973999D01*
X115990938Y-89973999D01*
X116190897Y-89934225D01*
X116379255Y-89856204D01*
X116548773Y-89742936D01*
X116692936Y-89598773D01*
X116806204Y-89429255D01*
X116884225Y-89240897D01*
X116923999Y-89040938D01*
X116923999Y-88837060D01*
X116884225Y-88637101D01*
X116806204Y-88448743D01*
X116692936Y-88279225D01*
X116548773Y-88135062D01*
X116379255Y-88021794D01*
X116190897Y-87943773D01*
X115990938Y-87903999D01*
X115787060Y-87903999D01*
X115587101Y-87943773D01*
X115398743Y-88021794D01*
X115229225Y-88135062D01*
X115085062Y-88279225D01*
X114971794Y-88448743D01*
X114893773Y-88637101D01*
X114853999Y-88837060D01*
X111146457Y-88837060D01*
X111061034Y-88791401D01*
X110781111Y-88706487D01*
X110562950Y-88685000D01*
X110417050Y-88685000D01*
X110198889Y-88706487D01*
X109918966Y-88791401D01*
X109660986Y-88929294D01*
X109434866Y-89114866D01*
X109249294Y-89340986D01*
X109220000Y-89395791D01*
X109190706Y-89340986D01*
X109005134Y-89114866D01*
X108779014Y-88929294D01*
X108521034Y-88791401D01*
X108241111Y-88706487D01*
X108022950Y-88685000D01*
X107877050Y-88685000D01*
X107658889Y-88706487D01*
X107378966Y-88791401D01*
X107120986Y-88929294D01*
X106894866Y-89114866D01*
X106709294Y-89340986D01*
X106680000Y-89395791D01*
X106650706Y-89340986D01*
X106465134Y-89114866D01*
X106239014Y-88929294D01*
X105981034Y-88791401D01*
X105701111Y-88706487D01*
X105482950Y-88685000D01*
X105337050Y-88685000D01*
X105118889Y-88706487D01*
X104838966Y-88791401D01*
X104580986Y-88929294D01*
X104354866Y-89114866D01*
X104330393Y-89144687D01*
X104309502Y-89075820D01*
X104250537Y-88965506D01*
X104171185Y-88868815D01*
X104074494Y-88789463D01*
X103964180Y-88730498D01*
X103844482Y-88694188D01*
X103720000Y-88681928D01*
X102020000Y-88681928D01*
X101895518Y-88694188D01*
X101775820Y-88730498D01*
X101665506Y-88789463D01*
X101568815Y-88868815D01*
X101489463Y-88965506D01*
X101430498Y-89075820D01*
X101394188Y-89195518D01*
X101381928Y-89320000D01*
X70660000Y-89320000D01*
X70660000Y-82660000D01*
X71462646Y-82660000D01*
X71334866Y-82764866D01*
X71334866Y-82764866D01*
G37*
X71334866Y-82764866D02*
X71149294Y-82990986D01*
X71011401Y-83248966D01*
X70926487Y-83528889D01*
X70897815Y-83820000D01*
X70926487Y-84111111D01*
X71011401Y-84391034D01*
X71149294Y-84649014D01*
X71334866Y-84875134D01*
X71364687Y-84899607D01*
X71295820Y-84920498D01*
X71185506Y-84979463D01*
X71088815Y-85058815D01*
X71009463Y-85155506D01*
X70950498Y-85265820D01*
X70914188Y-85385518D01*
X70901928Y-85510000D01*
X70901928Y-87210000D01*
X70914188Y-87334482D01*
X70950498Y-87454180D01*
X71009463Y-87564494D01*
X71088815Y-87661185D01*
X71185506Y-87740537D01*
X71295820Y-87799502D01*
X71415518Y-87835812D01*
X71540000Y-87848072D01*
X73240000Y-87848072D01*
X73364482Y-87835812D01*
X73484180Y-87799502D01*
X73594494Y-87740537D01*
X73691185Y-87661185D01*
X73770537Y-87564494D01*
X73829502Y-87454180D01*
X73850393Y-87385313D01*
X73874866Y-87415134D01*
X74100986Y-87600706D01*
X74358966Y-87738599D01*
X74638889Y-87823513D01*
X74857050Y-87845000D01*
X75002950Y-87845000D01*
X75221111Y-87823513D01*
X75501034Y-87738599D01*
X75759014Y-87600706D01*
X75985134Y-87415134D01*
X76170706Y-87189014D01*
X76200000Y-87134209D01*
X76229294Y-87189014D01*
X76414866Y-87415134D01*
X76640986Y-87600706D01*
X76898966Y-87738599D01*
X77178889Y-87823513D01*
X77397050Y-87845000D01*
X77542950Y-87845000D01*
X77761111Y-87823513D01*
X78041034Y-87738599D01*
X78299014Y-87600706D01*
X78525134Y-87415134D01*
X78710706Y-87189014D01*
X78740000Y-87134209D01*
X78769294Y-87189014D01*
X78954866Y-87415134D01*
X79180986Y-87600706D01*
X79438966Y-87738599D01*
X79718889Y-87823513D01*
X79937050Y-87845000D01*
X80082950Y-87845000D01*
X80301111Y-87823513D01*
X80581034Y-87738599D01*
X80839014Y-87600706D01*
X81065134Y-87415134D01*
X81250706Y-87189014D01*
X81280000Y-87134209D01*
X81309294Y-87189014D01*
X81494866Y-87415134D01*
X81720986Y-87600706D01*
X81978966Y-87738599D01*
X82258889Y-87823513D01*
X82477050Y-87845000D01*
X82622950Y-87845000D01*
X82841111Y-87823513D01*
X83121034Y-87738599D01*
X83379014Y-87600706D01*
X83605134Y-87415134D01*
X83790706Y-87189014D01*
X83820000Y-87134209D01*
X83849294Y-87189014D01*
X84034866Y-87415134D01*
X84260986Y-87600706D01*
X84518966Y-87738599D01*
X84798889Y-87823513D01*
X85017050Y-87845000D01*
X85162950Y-87845000D01*
X85381111Y-87823513D01*
X85661034Y-87738599D01*
X85919014Y-87600706D01*
X86145134Y-87415134D01*
X86330706Y-87189014D01*
X86360000Y-87134209D01*
X86389294Y-87189014D01*
X86574866Y-87415134D01*
X86800986Y-87600706D01*
X87058966Y-87738599D01*
X87338889Y-87823513D01*
X87557050Y-87845000D01*
X87702950Y-87845000D01*
X87921111Y-87823513D01*
X88201034Y-87738599D01*
X88459014Y-87600706D01*
X88685134Y-87415134D01*
X88870706Y-87189014D01*
X88900000Y-87134209D01*
X88929294Y-87189014D01*
X89114866Y-87415134D01*
X89340986Y-87600706D01*
X89598966Y-87738599D01*
X89878889Y-87823513D01*
X90097050Y-87845000D01*
X90242950Y-87845000D01*
X90461111Y-87823513D01*
X90741034Y-87738599D01*
X90999014Y-87600706D01*
X91225134Y-87415134D01*
X91410706Y-87189014D01*
X91440000Y-87134209D01*
X91469294Y-87189014D01*
X91654866Y-87415134D01*
X91880986Y-87600706D01*
X92138966Y-87738599D01*
X92418889Y-87823513D01*
X92637050Y-87845000D01*
X92782950Y-87845000D01*
X93001111Y-87823513D01*
X93281034Y-87738599D01*
X93539014Y-87600706D01*
X93765134Y-87415134D01*
X93950706Y-87189014D01*
X93980000Y-87134209D01*
X94009294Y-87189014D01*
X94194866Y-87415134D01*
X94420986Y-87600706D01*
X94678966Y-87738599D01*
X94958889Y-87823513D01*
X95177050Y-87845000D01*
X95322950Y-87845000D01*
X95541111Y-87823513D01*
X95821034Y-87738599D01*
X96079014Y-87600706D01*
X96305134Y-87415134D01*
X96441477Y-87249000D01*
X96598523Y-87249000D01*
X96734866Y-87415134D01*
X96960986Y-87600706D01*
X97218966Y-87738599D01*
X97498889Y-87823513D01*
X97717050Y-87845000D01*
X97862950Y-87845000D01*
X98081111Y-87823513D01*
X98361034Y-87738599D01*
X98619014Y-87600706D01*
X98845134Y-87415134D01*
X98981477Y-87249000D01*
X99138523Y-87249000D01*
X99274866Y-87415134D01*
X99500986Y-87600706D01*
X99758966Y-87738599D01*
X100038889Y-87823513D01*
X100257050Y-87845000D01*
X100402950Y-87845000D01*
X100621111Y-87823513D01*
X100901034Y-87738599D01*
X101159014Y-87600706D01*
X101385134Y-87415134D01*
X101570706Y-87189014D01*
X101600000Y-87134209D01*
X101629294Y-87189014D01*
X101814866Y-87415134D01*
X102040986Y-87600706D01*
X102298966Y-87738599D01*
X102578889Y-87823513D01*
X102797050Y-87845000D01*
X102942950Y-87845000D01*
X103161111Y-87823513D01*
X103441034Y-87738599D01*
X103699014Y-87600706D01*
X103925134Y-87415134D01*
X104110706Y-87189014D01*
X104140000Y-87134209D01*
X104169294Y-87189014D01*
X104354866Y-87415134D01*
X104580986Y-87600706D01*
X104838966Y-87738599D01*
X105118889Y-87823513D01*
X105337050Y-87845000D01*
X105482950Y-87845000D01*
X105701111Y-87823513D01*
X105981034Y-87738599D01*
X106239014Y-87600706D01*
X106465134Y-87415134D01*
X106650706Y-87189014D01*
X106680000Y-87134209D01*
X106709294Y-87189014D01*
X106894866Y-87415134D01*
X107120986Y-87600706D01*
X107378966Y-87738599D01*
X107658889Y-87823513D01*
X107877050Y-87845000D01*
X108022950Y-87845000D01*
X108241111Y-87823513D01*
X108521034Y-87738599D01*
X108779014Y-87600706D01*
X109005134Y-87415134D01*
X109190706Y-87189014D01*
X109220000Y-87134209D01*
X109249294Y-87189014D01*
X109434866Y-87415134D01*
X109660986Y-87600706D01*
X109918966Y-87738599D01*
X110198889Y-87823513D01*
X110417050Y-87845000D01*
X110562950Y-87845000D01*
X110781111Y-87823513D01*
X111061034Y-87738599D01*
X111319014Y-87600706D01*
X111545134Y-87415134D01*
X111730706Y-87189014D01*
X111765201Y-87124477D01*
X111834822Y-87241355D01*
X112029731Y-87457588D01*
X112263080Y-87631641D01*
X112525901Y-87756825D01*
X112673110Y-87801476D01*
X112903000Y-87680155D01*
X112903000Y-86487000D01*
X112883000Y-86487000D01*
X112883000Y-86233000D01*
X112903000Y-86233000D01*
X112903000Y-83947000D01*
X110617000Y-83947000D01*
X110617000Y-83967000D01*
X110363000Y-83967000D01*
X110363000Y-83947000D01*
X108077000Y-83947000D01*
X108077000Y-83967000D01*
X107823000Y-83967000D01*
X107823000Y-83947000D01*
X105537000Y-83947000D01*
X105537000Y-83967000D01*
X105283000Y-83967000D01*
X105283000Y-83947000D01*
X102997000Y-83947000D01*
X102997000Y-83967000D01*
X102743000Y-83967000D01*
X102743000Y-83947000D01*
X100457000Y-83947000D01*
X100457000Y-83967000D01*
X100203000Y-83967000D01*
X100203000Y-83947000D01*
X100183000Y-83947000D01*
X100183000Y-83693000D01*
X100203000Y-83693000D01*
X100203000Y-83673000D01*
X100457000Y-83673000D01*
X100457000Y-83693000D01*
X102743000Y-83693000D01*
X102743000Y-83673000D01*
X102997000Y-83673000D01*
X102997000Y-83693000D01*
X105283000Y-83693000D01*
X105283000Y-83673000D01*
X105537000Y-83673000D01*
X105537000Y-83693000D01*
X107823000Y-83693000D01*
X107823000Y-83673000D01*
X108077000Y-83673000D01*
X108077000Y-83693000D01*
X110363000Y-83693000D01*
X110363000Y-83673000D01*
X110617000Y-83673000D01*
X110617000Y-83693000D01*
X112903000Y-83693000D01*
X112903000Y-83673000D01*
X113157000Y-83673000D01*
X113157000Y-83693000D01*
X113177000Y-83693000D01*
X113177000Y-83947000D01*
X113157000Y-83947000D01*
X113157000Y-86233000D01*
X113177000Y-86233000D01*
X113177000Y-86487000D01*
X113157000Y-86487000D01*
X113157000Y-87680155D01*
X113386890Y-87801476D01*
X113534099Y-87756825D01*
X113796920Y-87631641D01*
X114030269Y-87457588D01*
X114225178Y-87241355D01*
X114294799Y-87124477D01*
X114329294Y-87189014D01*
X114514866Y-87415134D01*
X114740986Y-87600706D01*
X114998966Y-87738599D01*
X115278889Y-87823513D01*
X115497050Y-87845000D01*
X115642950Y-87845000D01*
X115861111Y-87823513D01*
X116141034Y-87738599D01*
X116399014Y-87600706D01*
X116625134Y-87415134D01*
X116810706Y-87189014D01*
X116948599Y-86931034D01*
X117033513Y-86651111D01*
X117062185Y-86360000D01*
X117033513Y-86068889D01*
X116948599Y-85788966D01*
X116810706Y-85530986D01*
X116625134Y-85304866D01*
X116399014Y-85119294D01*
X116344209Y-85090000D01*
X116399014Y-85060706D01*
X116625134Y-84875134D01*
X116810706Y-84649014D01*
X116948599Y-84391034D01*
X117033513Y-84111111D01*
X117062185Y-83820000D01*
X117033513Y-83528889D01*
X116948599Y-83248966D01*
X116810706Y-82990986D01*
X116625134Y-82764866D01*
X116497354Y-82660000D01*
X117340001Y-82660000D01*
X117340000Y-98873000D01*
X116043963Y-98873000D01*
X116001383Y-98658933D01*
X115915824Y-98452376D01*
X115791612Y-98266480D01*
X115633520Y-98108388D01*
X115447624Y-97984176D01*
X115241067Y-97898617D01*
X115021788Y-97855000D01*
X114798212Y-97855000D01*
X114578933Y-97898617D01*
X114545000Y-97912673D01*
X114545000Y-97878212D01*
X114501383Y-97658933D01*
X114446547Y-97526547D01*
X114578933Y-97581383D01*
X114798212Y-97625000D01*
X115021788Y-97625000D01*
X115241067Y-97581383D01*
X115447624Y-97495824D01*
X115633520Y-97371612D01*
X115791612Y-97213520D01*
X115915824Y-97027624D01*
X116001383Y-96821067D01*
X116045000Y-96601788D01*
X116045000Y-96378212D01*
X116001383Y-96158933D01*
X115915824Y-95952376D01*
X115791612Y-95766480D01*
X115633520Y-95608388D01*
X115454210Y-95488577D01*
X115532756Y-95472953D01*
X115921302Y-95312012D01*
X116270983Y-95078363D01*
X116568363Y-94780983D01*
X116802012Y-94431302D01*
X116962953Y-94042756D01*
X117045000Y-93630279D01*
X117045000Y-93209721D01*
X116962953Y-92797244D01*
X116802012Y-92408698D01*
X116568363Y-92059017D01*
X116270983Y-91761637D01*
X115921302Y-91527988D01*
X115532756Y-91367047D01*
X115120279Y-91285000D01*
X114699721Y-91285000D01*
X114287244Y-91367047D01*
X113898698Y-91527988D01*
X113549017Y-91761637D01*
X113251637Y-92059017D01*
X113017988Y-92408698D01*
X112857047Y-92797244D01*
X112775000Y-93209721D01*
X112775000Y-93630279D01*
X112857047Y-94042756D01*
X113017988Y-94431302D01*
X113251637Y-94780983D01*
X113325654Y-94855000D01*
X113298212Y-94855000D01*
X113078933Y-94898617D01*
X112872376Y-94984176D01*
X112686480Y-95108388D01*
X112528388Y-95266480D01*
X112404176Y-95452376D01*
X112318617Y-95658933D01*
X112275000Y-95878212D01*
X112275000Y-96101788D01*
X112318617Y-96321067D01*
X112404176Y-96527624D01*
X112528388Y-96713520D01*
X112686480Y-96871612D01*
X112863660Y-96990000D01*
X112686480Y-97108388D01*
X112528388Y-97266480D01*
X112404176Y-97452376D01*
X112318617Y-97658933D01*
X112275000Y-97878212D01*
X112275000Y-98101788D01*
X112318617Y-98321067D01*
X112404176Y-98527624D01*
X112528388Y-98713520D01*
X112686480Y-98871612D01*
X112688557Y-98873000D01*
X108000000Y-98873000D01*
X107975224Y-98875440D01*
X107951399Y-98882667D01*
X107929443Y-98894403D01*
X107910197Y-98910197D01*
X103947394Y-102873000D01*
X99135000Y-102873000D01*
X99135000Y-102798061D01*
X99095226Y-102598102D01*
X99017205Y-102409744D01*
X98903937Y-102240226D01*
X98759774Y-102096063D01*
X98756991Y-102094204D01*
X98795226Y-102001898D01*
X98835000Y-101801939D01*
X98835000Y-101598061D01*
X98795226Y-101398102D01*
X98717205Y-101209744D01*
X98603937Y-101040226D01*
X98459774Y-100896063D01*
X98290256Y-100782795D01*
X98101898Y-100704774D01*
X97901939Y-100665000D01*
X97698061Y-100665000D01*
X97498102Y-100704774D01*
X97309744Y-100782795D01*
X97140226Y-100896063D01*
X96996063Y-101040226D01*
X96882795Y-101209744D01*
X96804774Y-101398102D01*
X96765000Y-101598061D01*
X96765000Y-101801939D01*
X96804774Y-102001898D01*
X96882795Y-102190256D01*
X96996063Y-102359774D01*
X97140226Y-102503937D01*
X97143009Y-102505796D01*
X97104774Y-102598102D01*
X97065000Y-102798061D01*
X97065000Y-102873000D01*
X95035000Y-102873000D01*
X95035000Y-102848061D01*
X94995226Y-102648102D01*
X94917205Y-102459744D01*
X94803937Y-102290226D01*
X94659774Y-102146063D01*
X94490256Y-102032795D01*
X94301898Y-101954774D01*
X94101939Y-101915000D01*
X93898061Y-101915000D01*
X93698102Y-101954774D01*
X93509744Y-102032795D01*
X93340226Y-102146063D01*
X93293237Y-102193052D01*
X89592996Y-98862835D01*
X94115000Y-98862835D01*
X94115000Y-99037165D01*
X94149010Y-99208145D01*
X94187057Y-99300000D01*
X94149010Y-99391855D01*
X94115000Y-99562835D01*
X94115000Y-99737165D01*
X94149010Y-99908145D01*
X94187057Y-100000000D01*
X94149010Y-100091855D01*
X94115000Y-100262835D01*
X94115000Y-100437165D01*
X94149010Y-100608145D01*
X94187057Y-100700000D01*
X94149010Y-100791855D01*
X94115000Y-100962835D01*
X94115000Y-101137165D01*
X94149010Y-101308145D01*
X94215723Y-101469205D01*
X94312576Y-101614155D01*
X94435845Y-101737424D01*
X94580795Y-101834277D01*
X94741855Y-101900990D01*
X94912835Y-101935000D01*
X95087165Y-101935000D01*
X95258145Y-101900990D01*
X95419205Y-101834277D01*
X95564155Y-101737424D01*
X95687424Y-101614155D01*
X95784277Y-101469205D01*
X95850990Y-101308145D01*
X95885000Y-101137165D01*
X95885000Y-100962835D01*
X95850990Y-100791855D01*
X95812943Y-100700000D01*
X95850990Y-100608145D01*
X95885000Y-100437165D01*
X95885000Y-100262835D01*
X95850990Y-100091855D01*
X95812943Y-100000000D01*
X95850990Y-99908145D01*
X95885000Y-99737165D01*
X95885000Y-99562835D01*
X95850990Y-99391855D01*
X95812943Y-99300000D01*
X95850990Y-99208145D01*
X95885000Y-99037165D01*
X95885000Y-98862835D01*
X95850990Y-98691855D01*
X95784277Y-98530795D01*
X95687424Y-98385845D01*
X95564155Y-98262576D01*
X95419205Y-98165723D01*
X95258145Y-98099010D01*
X95087165Y-98065000D01*
X94912835Y-98065000D01*
X94741855Y-98099010D01*
X94580795Y-98165723D01*
X94435845Y-98262576D01*
X94312576Y-98385845D01*
X94215723Y-98530795D01*
X94149010Y-98691855D01*
X94115000Y-98862835D01*
X89592996Y-98862835D01*
X88317112Y-97714540D01*
X88371226Y-97583898D01*
X88411000Y-97383939D01*
X88411000Y-97180061D01*
X88371226Y-96980102D01*
X88293205Y-96791744D01*
X88179937Y-96622226D01*
X88035774Y-96478063D01*
X87916043Y-96398061D01*
X91465000Y-96398061D01*
X91465000Y-96601939D01*
X91504774Y-96801898D01*
X91582795Y-96990256D01*
X91696063Y-97159774D01*
X91840226Y-97303937D01*
X92009744Y-97417205D01*
X92198102Y-97495226D01*
X92398061Y-97535000D01*
X92601939Y-97535000D01*
X92801898Y-97495226D01*
X92990256Y-97417205D01*
X93159774Y-97303937D01*
X93303937Y-97159774D01*
X93417205Y-96990256D01*
X93495226Y-96801898D01*
X93504283Y-96756365D01*
X93548408Y-96774643D01*
X93538473Y-96824588D01*
X93538473Y-97028466D01*
X93578247Y-97228425D01*
X93656268Y-97416783D01*
X93769536Y-97586301D01*
X93913699Y-97730464D01*
X94083217Y-97843732D01*
X94271575Y-97921753D01*
X94471534Y-97961527D01*
X94675412Y-97961527D01*
X94875371Y-97921753D01*
X95063729Y-97843732D01*
X95233247Y-97730464D01*
X95377410Y-97586301D01*
X95394274Y-97561061D01*
X96247000Y-97561061D01*
X96247000Y-97764939D01*
X96286774Y-97964898D01*
X96364795Y-98153256D01*
X96478063Y-98322774D01*
X96622226Y-98466937D01*
X96791744Y-98580205D01*
X96980102Y-98658226D01*
X97180061Y-98698000D01*
X97383939Y-98698000D01*
X97583898Y-98658226D01*
X97608438Y-98648061D01*
X101965000Y-98648061D01*
X101965000Y-98851939D01*
X102004774Y-99051898D01*
X102082795Y-99240256D01*
X102196063Y-99409774D01*
X102340226Y-99553937D01*
X102509744Y-99667205D01*
X102698102Y-99745226D01*
X102898061Y-99785000D01*
X103101939Y-99785000D01*
X103301898Y-99745226D01*
X103490256Y-99667205D01*
X103659774Y-99553937D01*
X103803937Y-99409774D01*
X103917205Y-99240256D01*
X103995226Y-99051898D01*
X104035000Y-98851939D01*
X104035000Y-98648061D01*
X103995226Y-98448102D01*
X103917205Y-98259744D01*
X103803937Y-98090226D01*
X103659774Y-97946063D01*
X103490256Y-97832795D01*
X103301898Y-97754774D01*
X103101939Y-97715000D01*
X102898061Y-97715000D01*
X102698102Y-97754774D01*
X102509744Y-97832795D01*
X102340226Y-97946063D01*
X102196063Y-98090226D01*
X102082795Y-98259744D01*
X102004774Y-98448102D01*
X101965000Y-98648061D01*
X97608438Y-98648061D01*
X97772256Y-98580205D01*
X97941774Y-98466937D01*
X98085937Y-98322774D01*
X98199205Y-98153256D01*
X98277226Y-97964898D01*
X98317000Y-97764939D01*
X98317000Y-97561061D01*
X98277226Y-97361102D01*
X98199205Y-97172744D01*
X98085937Y-97003226D01*
X97941774Y-96859063D01*
X97772256Y-96745795D01*
X97583898Y-96667774D01*
X97383939Y-96628000D01*
X97180061Y-96628000D01*
X96980102Y-96667774D01*
X96791744Y-96745795D01*
X96622226Y-96859063D01*
X96478063Y-97003226D01*
X96364795Y-97172744D01*
X96286774Y-97361102D01*
X96247000Y-97561061D01*
X95394274Y-97561061D01*
X95490678Y-97416783D01*
X95568699Y-97228425D01*
X95608473Y-97028466D01*
X95608473Y-96824588D01*
X95568699Y-96624629D01*
X95490678Y-96436271D01*
X95377410Y-96266753D01*
X95233247Y-96122590D01*
X95063729Y-96009322D01*
X94925063Y-95951884D01*
X94934998Y-95901939D01*
X94934998Y-95698061D01*
X94895224Y-95498102D01*
X94817203Y-95309744D01*
X94703935Y-95140226D01*
X94559772Y-94996063D01*
X94390254Y-94882795D01*
X94201896Y-94804774D01*
X94168148Y-94798061D01*
X103365000Y-94798061D01*
X103365000Y-95001939D01*
X103404774Y-95201898D01*
X103482795Y-95390256D01*
X103596063Y-95559774D01*
X103740226Y-95703937D01*
X103909744Y-95817205D01*
X104098102Y-95895226D01*
X104298061Y-95935000D01*
X104501939Y-95935000D01*
X104701898Y-95895226D01*
X104890256Y-95817205D01*
X105059774Y-95703937D01*
X105203937Y-95559774D01*
X105317205Y-95390256D01*
X105395226Y-95201898D01*
X105435000Y-95001939D01*
X105435000Y-94798061D01*
X105395226Y-94598102D01*
X105317205Y-94409744D01*
X105203937Y-94240226D01*
X105059774Y-94096063D01*
X104890256Y-93982795D01*
X104701898Y-93904774D01*
X104501939Y-93865000D01*
X104298061Y-93865000D01*
X104098102Y-93904774D01*
X103909744Y-93982795D01*
X103740226Y-94096063D01*
X103596063Y-94240226D01*
X103482795Y-94409744D01*
X103404774Y-94598102D01*
X103365000Y-94798061D01*
X94168148Y-94798061D01*
X94001937Y-94765000D01*
X93798059Y-94765000D01*
X93598100Y-94804774D01*
X93409742Y-94882795D01*
X93240224Y-94996063D01*
X93096061Y-95140226D01*
X92982793Y-95309744D01*
X92904772Y-95498102D01*
X92895715Y-95543635D01*
X92801898Y-95504774D01*
X92601939Y-95465000D01*
X92398061Y-95465000D01*
X92198102Y-95504774D01*
X92009744Y-95582795D01*
X91840226Y-95696063D01*
X91696063Y-95840226D01*
X91582795Y-96009744D01*
X91504774Y-96198102D01*
X91465000Y-96398061D01*
X87916043Y-96398061D01*
X87866256Y-96364795D01*
X87677898Y-96286774D01*
X87477939Y-96247000D01*
X87274061Y-96247000D01*
X87074102Y-96286774D01*
X86885744Y-96364795D01*
X86846518Y-96391005D01*
X84084959Y-93905602D01*
X84064910Y-93890841D01*
X84042367Y-93880275D01*
X84018196Y-93874310D01*
X84000000Y-93873000D01*
X81230235Y-93873000D01*
X80558496Y-93201261D01*
X84965000Y-93201261D01*
X84965000Y-93405139D01*
X85004774Y-93605098D01*
X85082795Y-93793456D01*
X85196063Y-93962974D01*
X85340226Y-94107137D01*
X85509744Y-94220405D01*
X85698102Y-94298426D01*
X85898061Y-94338200D01*
X86101939Y-94338200D01*
X86301898Y-94298426D01*
X86490256Y-94220405D01*
X86659774Y-94107137D01*
X86803937Y-93962974D01*
X86917205Y-93793456D01*
X86995226Y-93605098D01*
X87035000Y-93405139D01*
X87035000Y-93201261D01*
X86995226Y-93001302D01*
X86917205Y-92812944D01*
X86803937Y-92643426D01*
X86659774Y-92499263D01*
X86490256Y-92385995D01*
X86301898Y-92307974D01*
X86101939Y-92268200D01*
X85898061Y-92268200D01*
X85698102Y-92307974D01*
X85509744Y-92385995D01*
X85340226Y-92499263D01*
X85196063Y-92643426D01*
X85082795Y-92812944D01*
X85004774Y-93001302D01*
X84965000Y-93201261D01*
X80558496Y-93201261D01*
X80505130Y-93147895D01*
X80495226Y-93098102D01*
X80417205Y-92909744D01*
X80303937Y-92740226D01*
X80159774Y-92596063D01*
X79990256Y-92482795D01*
X79801898Y-92404774D01*
X79601939Y-92365000D01*
X79398061Y-92365000D01*
X79198102Y-92404774D01*
X79009744Y-92482795D01*
X78840226Y-92596063D01*
X78696063Y-92740226D01*
X78582795Y-92909744D01*
X78504774Y-93098102D01*
X78465000Y-93298061D01*
X78465000Y-93501939D01*
X78504774Y-93701898D01*
X78575647Y-93873000D01*
X70660000Y-93873000D01*
X70660000Y-90498061D01*
X76465000Y-90498061D01*
X76465000Y-90701939D01*
X76504774Y-90901898D01*
X76582795Y-91090256D01*
X76696063Y-91259774D01*
X76840226Y-91403937D01*
X77009744Y-91517205D01*
X77198102Y-91595226D01*
X77398061Y-91635000D01*
X77601939Y-91635000D01*
X77801898Y-91595226D01*
X77990256Y-91517205D01*
X78159774Y-91403937D01*
X78303937Y-91259774D01*
X78417205Y-91090256D01*
X78495226Y-90901898D01*
X78535000Y-90701939D01*
X78535000Y-90498061D01*
X84065000Y-90498061D01*
X84065000Y-90701939D01*
X84104774Y-90901898D01*
X84182795Y-91090256D01*
X84296063Y-91259774D01*
X84440226Y-91403937D01*
X84609744Y-91517205D01*
X84798102Y-91595226D01*
X84998061Y-91635000D01*
X85201939Y-91635000D01*
X85401898Y-91595226D01*
X85590256Y-91517205D01*
X85759774Y-91403937D01*
X85903937Y-91259774D01*
X86017205Y-91090256D01*
X86095226Y-90901898D01*
X86135000Y-90701939D01*
X86135000Y-90498061D01*
X86095226Y-90298102D01*
X86017205Y-90109744D01*
X85903937Y-89940226D01*
X85759774Y-89796063D01*
X85590256Y-89682795D01*
X85401898Y-89604774D01*
X85201939Y-89565000D01*
X84998061Y-89565000D01*
X84798102Y-89604774D01*
X84609744Y-89682795D01*
X84440226Y-89796063D01*
X84296063Y-89940226D01*
X84182795Y-90109744D01*
X84104774Y-90298102D01*
X84065000Y-90498061D01*
X78535000Y-90498061D01*
X78495226Y-90298102D01*
X78417205Y-90109744D01*
X78303937Y-89940226D01*
X78159774Y-89796063D01*
X77990256Y-89682795D01*
X77801898Y-89604774D01*
X77601939Y-89565000D01*
X77398061Y-89565000D01*
X77198102Y-89604774D01*
X77009744Y-89682795D01*
X76840226Y-89796063D01*
X76696063Y-89940226D01*
X76582795Y-90109744D01*
X76504774Y-90298102D01*
X76465000Y-90498061D01*
X70660000Y-90498061D01*
X70660000Y-89320000D01*
X101381928Y-89320000D01*
X101381928Y-91020000D01*
X101394188Y-91144482D01*
X101430498Y-91264180D01*
X101489463Y-91374494D01*
X101568815Y-91471185D01*
X101665506Y-91550537D01*
X101775820Y-91609502D01*
X101895518Y-91645812D01*
X102020000Y-91658072D01*
X103720000Y-91658072D01*
X103844482Y-91645812D01*
X103964180Y-91609502D01*
X104074494Y-91550537D01*
X104171185Y-91471185D01*
X104250537Y-91374494D01*
X104309502Y-91264180D01*
X104330393Y-91195313D01*
X104354866Y-91225134D01*
X104580986Y-91410706D01*
X104838966Y-91548599D01*
X105118889Y-91633513D01*
X105337050Y-91655000D01*
X105482950Y-91655000D01*
X105701111Y-91633513D01*
X105981034Y-91548599D01*
X106239014Y-91410706D01*
X106465134Y-91225134D01*
X106650706Y-90999014D01*
X106680000Y-90944209D01*
X106709294Y-90999014D01*
X106894866Y-91225134D01*
X107120986Y-91410706D01*
X107378966Y-91548599D01*
X107658889Y-91633513D01*
X107877050Y-91655000D01*
X108022950Y-91655000D01*
X108241111Y-91633513D01*
X108521034Y-91548599D01*
X108779014Y-91410706D01*
X109005134Y-91225134D01*
X109190706Y-90999014D01*
X109220000Y-90944209D01*
X109249294Y-90999014D01*
X109434866Y-91225134D01*
X109660986Y-91410706D01*
X109918966Y-91548599D01*
X110198889Y-91633513D01*
X110417050Y-91655000D01*
X110562950Y-91655000D01*
X110781111Y-91633513D01*
X111061034Y-91548599D01*
X111319014Y-91410706D01*
X111545134Y-91225134D01*
X111730706Y-90999014D01*
X111868599Y-90741034D01*
X111953513Y-90461111D01*
X111982185Y-90170000D01*
X111953513Y-89878889D01*
X111868599Y-89598966D01*
X111730706Y-89340986D01*
X111545134Y-89114866D01*
X111319014Y-88929294D01*
X111146457Y-88837060D01*
X114853999Y-88837060D01*
X114853999Y-89040938D01*
X114893773Y-89240897D01*
X114971794Y-89429255D01*
X115085062Y-89598773D01*
X115229225Y-89742936D01*
X115398743Y-89856204D01*
X115587101Y-89934225D01*
X115787060Y-89973999D01*
X115990938Y-89973999D01*
X116190897Y-89934225D01*
X116379255Y-89856204D01*
X116548773Y-89742936D01*
X116692936Y-89598773D01*
X116806204Y-89429255D01*
X116884225Y-89240897D01*
X116923999Y-89040938D01*
X116923999Y-88837060D01*
X116884225Y-88637101D01*
X116806204Y-88448743D01*
X116692936Y-88279225D01*
X116548773Y-88135062D01*
X116379255Y-88021794D01*
X116190897Y-87943773D01*
X115990938Y-87903999D01*
X115787060Y-87903999D01*
X115587101Y-87943773D01*
X115398743Y-88021794D01*
X115229225Y-88135062D01*
X115085062Y-88279225D01*
X114971794Y-88448743D01*
X114893773Y-88637101D01*
X114853999Y-88837060D01*
X111146457Y-88837060D01*
X111061034Y-88791401D01*
X110781111Y-88706487D01*
X110562950Y-88685000D01*
X110417050Y-88685000D01*
X110198889Y-88706487D01*
X109918966Y-88791401D01*
X109660986Y-88929294D01*
X109434866Y-89114866D01*
X109249294Y-89340986D01*
X109220000Y-89395791D01*
X109190706Y-89340986D01*
X109005134Y-89114866D01*
X108779014Y-88929294D01*
X108521034Y-88791401D01*
X108241111Y-88706487D01*
X108022950Y-88685000D01*
X107877050Y-88685000D01*
X107658889Y-88706487D01*
X107378966Y-88791401D01*
X107120986Y-88929294D01*
X106894866Y-89114866D01*
X106709294Y-89340986D01*
X106680000Y-89395791D01*
X106650706Y-89340986D01*
X106465134Y-89114866D01*
X106239014Y-88929294D01*
X105981034Y-88791401D01*
X105701111Y-88706487D01*
X105482950Y-88685000D01*
X105337050Y-88685000D01*
X105118889Y-88706487D01*
X104838966Y-88791401D01*
X104580986Y-88929294D01*
X104354866Y-89114866D01*
X104330393Y-89144687D01*
X104309502Y-89075820D01*
X104250537Y-88965506D01*
X104171185Y-88868815D01*
X104074494Y-88789463D01*
X103964180Y-88730498D01*
X103844482Y-88694188D01*
X103720000Y-88681928D01*
X102020000Y-88681928D01*
X101895518Y-88694188D01*
X101775820Y-88730498D01*
X101665506Y-88789463D01*
X101568815Y-88868815D01*
X101489463Y-88965506D01*
X101430498Y-89075820D01*
X101394188Y-89195518D01*
X101381928Y-89320000D01*
X70660000Y-89320000D01*
X70660000Y-82660000D01*
X71462646Y-82660000D01*
X71334866Y-82764866D01*
M02*
