M48
; DRILL file {KiCad 5.1.2} date Sat 01 Jun 2019 11:21:24 AM CEST
; FORMAT={-:-/ absolute / inch / decimal}
; #@! TF.CreationDate,2019-06-01T11:21:24+02:00
; #@! TF.GenerationSoftware,Kicad,Pcbnew,5.1.2
; #@! TF.FileFunction,Plated,1,4,PTH
FMAT,2
INCH
T1C0.0118
T2C0.0157
T3C0.0236
T4C0.0276
T5C0.0394
T6C0.0906
%
G90
G05
T1
X3.7402Y-3.8957
X3.7402Y-3.9232
X3.7402Y-3.9508
X3.7402Y-3.9783
T2
X3.0512Y-3.5669
X3.1299Y-3.6772
X3.1299Y-4.2126
X3.2284Y-3.9188
X3.2284Y-3.9553
X3.245Y-4.0664
X3.245Y-4.1029
X3.252Y-3.5669
X3.255Y-3.7711
X3.255Y-3.8076
X3.2874Y-3.6811
X3.2874Y-3.9764
X3.3169Y-3.6811
X3.3504Y-3.5669
X3.3661Y-4.1378
X3.3858Y-3.6734
X3.3898Y-3.8898
X3.43Y-4.055
X3.44Y-3.83
X3.5512Y-3.5669
X3.6417Y-3.7992
X3.6494Y-3.5669
X3.6969Y-3.7717
X3.7008Y-4.0531
X3.7234Y-3.816
X3.7992Y-4.1437
X3.7992Y-4.2028
X3.83Y-3.845
X3.8504Y-4.0039
X3.8583Y-3.5118
X3.8622Y-4.0512
X3.8819Y-4.0866
X3.9021Y-4.1193
X3.9469Y-3.9862
X4.0354Y-4.1437
X4.0354Y-4.2028
X4.0551Y-3.8878
X4.1102Y-3.7362
X4.3307Y-3.9449
X4.3307Y-4.0079
X4.5626Y-3.5015
X3.0965Y-3.8425
X3.0965Y-3.874
X3.0965Y-3.9055
X3.0965Y-3.9685
X3.0965Y-4.0
X3.0965Y-4.0315
X3.124Y-3.8268
X3.124Y-3.8898
X3.124Y-3.9213
X3.124Y-3.9528
X3.124Y-3.9843
X3.124Y-4.0472
T4
X4.465Y-3.7791
X4.465Y-3.8579
X4.465Y-3.9366
X4.465Y-4.0154
X4.465Y-4.0941
X4.524Y-3.7988
X4.524Y-3.8972
X4.524Y-3.976
X4.524Y-4.0744
T5
X4.05Y-3.55
X4.15Y-3.55
X4.25Y-3.55
X4.35Y-3.55
X2.85Y-3.3
X2.85Y-3.4
X2.95Y-3.3
X2.95Y-3.4
X3.05Y-3.3
X3.05Y-3.4
X3.15Y-3.3
X3.15Y-3.4
X3.25Y-3.3
X3.25Y-3.4
X3.35Y-3.3
X3.35Y-3.4
X3.45Y-3.3
X3.45Y-3.4
X3.55Y-3.3
X3.55Y-3.4
X3.65Y-3.3
X3.65Y-3.4
X3.75Y-3.3
X3.75Y-3.4
X3.85Y-3.3
X3.85Y-3.4
X3.95Y-3.3
X3.95Y-3.4
X4.05Y-3.3
X4.05Y-3.4
X4.15Y-3.3
X4.15Y-3.4
X4.25Y-3.3
X4.25Y-3.4
X4.35Y-3.3
X4.35Y-3.4
X4.45Y-3.3
X4.45Y-3.4
X4.55Y-3.3
X4.55Y-3.4
T6
X4.524Y-3.678
X4.524Y-4.1953
T3
G00X2.876Y-3.7665
M15
G01X2.8563Y-3.7665
M16
G05
G00X2.876Y-4.1075
M15
G01X2.8563Y-4.1075
M16
G05
G00X3.1102Y-3.7665
M15
G01X3.0906Y-3.7665
M16
G05
G00X3.1102Y-4.1075
M15
G01X3.0906Y-4.1075
M16
G05
G00X3.1102Y-3.7667
M15
G01X3.1102Y-3.7923
M16
G05
G00X3.1102Y-4.0817
M15
G01X3.1102Y-4.1073
M16
G05
T0
M30
