G04 #@! TF.GenerationSoftware,KiCad,Pcbnew,5.1.2*
G04 #@! TF.CreationDate,2019-06-01T11:21:23+02:00*
G04 #@! TF.ProjectId,usb-c-breakout,7573622d-632d-4627-9265-616b6f75742e,rev?*
G04 #@! TF.SameCoordinates,Original*
G04 #@! TF.FileFunction,Paste,Top*
G04 #@! TF.FilePolarity,Positive*
%FSLAX46Y46*%
G04 Gerber Fmt 4.6, Leading zero omitted, Abs format (unit mm)*
G04 Created by KiCad (PCBNEW 5.1.2) date 2019-06-01 11:21:23*
%MOMM*%
%LPD*%
G04 APERTURE LIST*
%ADD10C,0.100000*%
%ADD11C,0.875000*%
%ADD12R,0.300000X0.300000*%
%ADD13R,0.200000X0.500000*%
%ADD14R,0.500000X0.200000*%
%ADD15C,0.590000*%
%ADD16R,0.475000X0.200000*%
%ADD17R,0.700000X0.300000*%
G04 APERTURE END LIST*
D10*
G36*
X82333191Y-92998053D02*
G01*
X82354426Y-93001203D01*
X82375250Y-93006419D01*
X82395462Y-93013651D01*
X82414868Y-93022830D01*
X82433281Y-93033866D01*
X82450524Y-93046654D01*
X82466430Y-93061070D01*
X82480846Y-93076976D01*
X82493634Y-93094219D01*
X82504670Y-93112632D01*
X82513849Y-93132038D01*
X82521081Y-93152250D01*
X82526297Y-93173074D01*
X82529447Y-93194309D01*
X82530500Y-93215750D01*
X82530500Y-93728250D01*
X82529447Y-93749691D01*
X82526297Y-93770926D01*
X82521081Y-93791750D01*
X82513849Y-93811962D01*
X82504670Y-93831368D01*
X82493634Y-93849781D01*
X82480846Y-93867024D01*
X82466430Y-93882930D01*
X82450524Y-93897346D01*
X82433281Y-93910134D01*
X82414868Y-93921170D01*
X82395462Y-93930349D01*
X82375250Y-93937581D01*
X82354426Y-93942797D01*
X82333191Y-93945947D01*
X82311750Y-93947000D01*
X81874250Y-93947000D01*
X81852809Y-93945947D01*
X81831574Y-93942797D01*
X81810750Y-93937581D01*
X81790538Y-93930349D01*
X81771132Y-93921170D01*
X81752719Y-93910134D01*
X81735476Y-93897346D01*
X81719570Y-93882930D01*
X81705154Y-93867024D01*
X81692366Y-93849781D01*
X81681330Y-93831368D01*
X81672151Y-93811962D01*
X81664919Y-93791750D01*
X81659703Y-93770926D01*
X81656553Y-93749691D01*
X81655500Y-93728250D01*
X81655500Y-93215750D01*
X81656553Y-93194309D01*
X81659703Y-93173074D01*
X81664919Y-93152250D01*
X81672151Y-93132038D01*
X81681330Y-93112632D01*
X81692366Y-93094219D01*
X81705154Y-93076976D01*
X81719570Y-93061070D01*
X81735476Y-93046654D01*
X81752719Y-93033866D01*
X81771132Y-93022830D01*
X81790538Y-93013651D01*
X81810750Y-93006419D01*
X81831574Y-93001203D01*
X81852809Y-92998053D01*
X81874250Y-92997000D01*
X82311750Y-92997000D01*
X82333191Y-92998053D01*
X82333191Y-92998053D01*
G37*
D11*
X82093000Y-93472000D03*
D10*
G36*
X80758191Y-92998053D02*
G01*
X80779426Y-93001203D01*
X80800250Y-93006419D01*
X80820462Y-93013651D01*
X80839868Y-93022830D01*
X80858281Y-93033866D01*
X80875524Y-93046654D01*
X80891430Y-93061070D01*
X80905846Y-93076976D01*
X80918634Y-93094219D01*
X80929670Y-93112632D01*
X80938849Y-93132038D01*
X80946081Y-93152250D01*
X80951297Y-93173074D01*
X80954447Y-93194309D01*
X80955500Y-93215750D01*
X80955500Y-93728250D01*
X80954447Y-93749691D01*
X80951297Y-93770926D01*
X80946081Y-93791750D01*
X80938849Y-93811962D01*
X80929670Y-93831368D01*
X80918634Y-93849781D01*
X80905846Y-93867024D01*
X80891430Y-93882930D01*
X80875524Y-93897346D01*
X80858281Y-93910134D01*
X80839868Y-93921170D01*
X80820462Y-93930349D01*
X80800250Y-93937581D01*
X80779426Y-93942797D01*
X80758191Y-93945947D01*
X80736750Y-93947000D01*
X80299250Y-93947000D01*
X80277809Y-93945947D01*
X80256574Y-93942797D01*
X80235750Y-93937581D01*
X80215538Y-93930349D01*
X80196132Y-93921170D01*
X80177719Y-93910134D01*
X80160476Y-93897346D01*
X80144570Y-93882930D01*
X80130154Y-93867024D01*
X80117366Y-93849781D01*
X80106330Y-93831368D01*
X80097151Y-93811962D01*
X80089919Y-93791750D01*
X80084703Y-93770926D01*
X80081553Y-93749691D01*
X80080500Y-93728250D01*
X80080500Y-93215750D01*
X80081553Y-93194309D01*
X80084703Y-93173074D01*
X80089919Y-93152250D01*
X80097151Y-93132038D01*
X80106330Y-93112632D01*
X80117366Y-93094219D01*
X80130154Y-93076976D01*
X80144570Y-93061070D01*
X80160476Y-93046654D01*
X80177719Y-93033866D01*
X80196132Y-93022830D01*
X80215538Y-93013651D01*
X80235750Y-93006419D01*
X80256574Y-93001203D01*
X80277809Y-92998053D01*
X80299250Y-92997000D01*
X80736750Y-92997000D01*
X80758191Y-92998053D01*
X80758191Y-92998053D01*
G37*
D11*
X80518000Y-93472000D03*
D12*
X94780000Y-99775000D03*
X94780000Y-99325000D03*
X94780000Y-100225000D03*
X94780000Y-101125000D03*
X94780000Y-100675000D03*
X94780000Y-98875000D03*
X95225000Y-101125000D03*
X95225000Y-100675000D03*
X95225000Y-98875000D03*
X95225000Y-99325000D03*
X95225000Y-99775000D03*
X95225000Y-100225000D03*
D13*
X94800000Y-102000000D03*
X95200000Y-102000000D03*
D14*
X94000000Y-98200000D03*
X94000000Y-98600000D03*
X94000000Y-100200000D03*
X94000000Y-101800000D03*
X94000000Y-101400000D03*
X94000000Y-100600000D03*
X94000000Y-99000000D03*
X94000000Y-99800000D03*
X94000000Y-101000000D03*
X94000000Y-99400000D03*
D13*
X94800000Y-98000000D03*
X95200000Y-98000000D03*
D14*
X96000000Y-98200000D03*
X96000000Y-98600000D03*
X96000000Y-99000000D03*
X96000000Y-99400000D03*
X96000000Y-99800000D03*
X96000000Y-100200000D03*
X96000000Y-100600000D03*
X96000000Y-101000000D03*
X96000000Y-101400000D03*
X96000000Y-101800000D03*
D10*
G36*
X77656958Y-88374710D02*
G01*
X77671276Y-88376834D01*
X77685317Y-88380351D01*
X77698946Y-88385228D01*
X77712031Y-88391417D01*
X77724447Y-88398858D01*
X77736073Y-88407481D01*
X77746798Y-88417202D01*
X77756519Y-88427927D01*
X77765142Y-88439553D01*
X77772583Y-88451969D01*
X77778772Y-88465054D01*
X77783649Y-88478683D01*
X77787166Y-88492724D01*
X77789290Y-88507042D01*
X77790000Y-88521500D01*
X77790000Y-88816500D01*
X77789290Y-88830958D01*
X77787166Y-88845276D01*
X77783649Y-88859317D01*
X77778772Y-88872946D01*
X77772583Y-88886031D01*
X77765142Y-88898447D01*
X77756519Y-88910073D01*
X77746798Y-88920798D01*
X77736073Y-88930519D01*
X77724447Y-88939142D01*
X77712031Y-88946583D01*
X77698946Y-88952772D01*
X77685317Y-88957649D01*
X77671276Y-88961166D01*
X77656958Y-88963290D01*
X77642500Y-88964000D01*
X77297500Y-88964000D01*
X77283042Y-88963290D01*
X77268724Y-88961166D01*
X77254683Y-88957649D01*
X77241054Y-88952772D01*
X77227969Y-88946583D01*
X77215553Y-88939142D01*
X77203927Y-88930519D01*
X77193202Y-88920798D01*
X77183481Y-88910073D01*
X77174858Y-88898447D01*
X77167417Y-88886031D01*
X77161228Y-88872946D01*
X77156351Y-88859317D01*
X77152834Y-88845276D01*
X77150710Y-88830958D01*
X77150000Y-88816500D01*
X77150000Y-88521500D01*
X77150710Y-88507042D01*
X77152834Y-88492724D01*
X77156351Y-88478683D01*
X77161228Y-88465054D01*
X77167417Y-88451969D01*
X77174858Y-88439553D01*
X77183481Y-88427927D01*
X77193202Y-88417202D01*
X77203927Y-88407481D01*
X77215553Y-88398858D01*
X77227969Y-88391417D01*
X77241054Y-88385228D01*
X77254683Y-88380351D01*
X77268724Y-88376834D01*
X77283042Y-88374710D01*
X77297500Y-88374000D01*
X77642500Y-88374000D01*
X77656958Y-88374710D01*
X77656958Y-88374710D01*
G37*
D15*
X77470000Y-88669000D03*
D10*
G36*
X77656958Y-89344710D02*
G01*
X77671276Y-89346834D01*
X77685317Y-89350351D01*
X77698946Y-89355228D01*
X77712031Y-89361417D01*
X77724447Y-89368858D01*
X77736073Y-89377481D01*
X77746798Y-89387202D01*
X77756519Y-89397927D01*
X77765142Y-89409553D01*
X77772583Y-89421969D01*
X77778772Y-89435054D01*
X77783649Y-89448683D01*
X77787166Y-89462724D01*
X77789290Y-89477042D01*
X77790000Y-89491500D01*
X77790000Y-89786500D01*
X77789290Y-89800958D01*
X77787166Y-89815276D01*
X77783649Y-89829317D01*
X77778772Y-89842946D01*
X77772583Y-89856031D01*
X77765142Y-89868447D01*
X77756519Y-89880073D01*
X77746798Y-89890798D01*
X77736073Y-89900519D01*
X77724447Y-89909142D01*
X77712031Y-89916583D01*
X77698946Y-89922772D01*
X77685317Y-89927649D01*
X77671276Y-89931166D01*
X77656958Y-89933290D01*
X77642500Y-89934000D01*
X77297500Y-89934000D01*
X77283042Y-89933290D01*
X77268724Y-89931166D01*
X77254683Y-89927649D01*
X77241054Y-89922772D01*
X77227969Y-89916583D01*
X77215553Y-89909142D01*
X77203927Y-89900519D01*
X77193202Y-89890798D01*
X77183481Y-89880073D01*
X77174858Y-89868447D01*
X77167417Y-89856031D01*
X77161228Y-89842946D01*
X77156351Y-89829317D01*
X77152834Y-89815276D01*
X77150710Y-89800958D01*
X77150000Y-89786500D01*
X77150000Y-89491500D01*
X77150710Y-89477042D01*
X77152834Y-89462724D01*
X77156351Y-89448683D01*
X77161228Y-89435054D01*
X77167417Y-89421969D01*
X77174858Y-89409553D01*
X77183481Y-89397927D01*
X77193202Y-89387202D01*
X77203927Y-89377481D01*
X77215553Y-89368858D01*
X77227969Y-89361417D01*
X77241054Y-89355228D01*
X77254683Y-89350351D01*
X77268724Y-89346834D01*
X77283042Y-89344710D01*
X77297500Y-89344000D01*
X77642500Y-89344000D01*
X77656958Y-89344710D01*
X77656958Y-89344710D01*
G37*
D15*
X77470000Y-89639000D03*
D10*
G36*
X82736958Y-89344710D02*
G01*
X82751276Y-89346834D01*
X82765317Y-89350351D01*
X82778946Y-89355228D01*
X82792031Y-89361417D01*
X82804447Y-89368858D01*
X82816073Y-89377481D01*
X82826798Y-89387202D01*
X82836519Y-89397927D01*
X82845142Y-89409553D01*
X82852583Y-89421969D01*
X82858772Y-89435054D01*
X82863649Y-89448683D01*
X82867166Y-89462724D01*
X82869290Y-89477042D01*
X82870000Y-89491500D01*
X82870000Y-89786500D01*
X82869290Y-89800958D01*
X82867166Y-89815276D01*
X82863649Y-89829317D01*
X82858772Y-89842946D01*
X82852583Y-89856031D01*
X82845142Y-89868447D01*
X82836519Y-89880073D01*
X82826798Y-89890798D01*
X82816073Y-89900519D01*
X82804447Y-89909142D01*
X82792031Y-89916583D01*
X82778946Y-89922772D01*
X82765317Y-89927649D01*
X82751276Y-89931166D01*
X82736958Y-89933290D01*
X82722500Y-89934000D01*
X82377500Y-89934000D01*
X82363042Y-89933290D01*
X82348724Y-89931166D01*
X82334683Y-89927649D01*
X82321054Y-89922772D01*
X82307969Y-89916583D01*
X82295553Y-89909142D01*
X82283927Y-89900519D01*
X82273202Y-89890798D01*
X82263481Y-89880073D01*
X82254858Y-89868447D01*
X82247417Y-89856031D01*
X82241228Y-89842946D01*
X82236351Y-89829317D01*
X82232834Y-89815276D01*
X82230710Y-89800958D01*
X82230000Y-89786500D01*
X82230000Y-89491500D01*
X82230710Y-89477042D01*
X82232834Y-89462724D01*
X82236351Y-89448683D01*
X82241228Y-89435054D01*
X82247417Y-89421969D01*
X82254858Y-89409553D01*
X82263481Y-89397927D01*
X82273202Y-89387202D01*
X82283927Y-89377481D01*
X82295553Y-89368858D01*
X82307969Y-89361417D01*
X82321054Y-89355228D01*
X82334683Y-89350351D01*
X82348724Y-89346834D01*
X82363042Y-89344710D01*
X82377500Y-89344000D01*
X82722500Y-89344000D01*
X82736958Y-89344710D01*
X82736958Y-89344710D01*
G37*
D15*
X82550000Y-89639000D03*
D10*
G36*
X82736958Y-88374710D02*
G01*
X82751276Y-88376834D01*
X82765317Y-88380351D01*
X82778946Y-88385228D01*
X82792031Y-88391417D01*
X82804447Y-88398858D01*
X82816073Y-88407481D01*
X82826798Y-88417202D01*
X82836519Y-88427927D01*
X82845142Y-88439553D01*
X82852583Y-88451969D01*
X82858772Y-88465054D01*
X82863649Y-88478683D01*
X82867166Y-88492724D01*
X82869290Y-88507042D01*
X82870000Y-88521500D01*
X82870000Y-88816500D01*
X82869290Y-88830958D01*
X82867166Y-88845276D01*
X82863649Y-88859317D01*
X82858772Y-88872946D01*
X82852583Y-88886031D01*
X82845142Y-88898447D01*
X82836519Y-88910073D01*
X82826798Y-88920798D01*
X82816073Y-88930519D01*
X82804447Y-88939142D01*
X82792031Y-88946583D01*
X82778946Y-88952772D01*
X82765317Y-88957649D01*
X82751276Y-88961166D01*
X82736958Y-88963290D01*
X82722500Y-88964000D01*
X82377500Y-88964000D01*
X82363042Y-88963290D01*
X82348724Y-88961166D01*
X82334683Y-88957649D01*
X82321054Y-88952772D01*
X82307969Y-88946583D01*
X82295553Y-88939142D01*
X82283927Y-88930519D01*
X82273202Y-88920798D01*
X82263481Y-88910073D01*
X82254858Y-88898447D01*
X82247417Y-88886031D01*
X82241228Y-88872946D01*
X82236351Y-88859317D01*
X82232834Y-88845276D01*
X82230710Y-88830958D01*
X82230000Y-88816500D01*
X82230000Y-88521500D01*
X82230710Y-88507042D01*
X82232834Y-88492724D01*
X82236351Y-88478683D01*
X82241228Y-88465054D01*
X82247417Y-88451969D01*
X82254858Y-88439553D01*
X82263481Y-88427927D01*
X82273202Y-88417202D01*
X82283927Y-88407481D01*
X82295553Y-88398858D01*
X82307969Y-88391417D01*
X82321054Y-88385228D01*
X82334683Y-88380351D01*
X82348724Y-88376834D01*
X82363042Y-88374710D01*
X82377500Y-88374000D01*
X82722500Y-88374000D01*
X82736958Y-88374710D01*
X82736958Y-88374710D01*
G37*
D15*
X82550000Y-88669000D03*
D10*
G36*
X85276958Y-88374710D02*
G01*
X85291276Y-88376834D01*
X85305317Y-88380351D01*
X85318946Y-88385228D01*
X85332031Y-88391417D01*
X85344447Y-88398858D01*
X85356073Y-88407481D01*
X85366798Y-88417202D01*
X85376519Y-88427927D01*
X85385142Y-88439553D01*
X85392583Y-88451969D01*
X85398772Y-88465054D01*
X85403649Y-88478683D01*
X85407166Y-88492724D01*
X85409290Y-88507042D01*
X85410000Y-88521500D01*
X85410000Y-88816500D01*
X85409290Y-88830958D01*
X85407166Y-88845276D01*
X85403649Y-88859317D01*
X85398772Y-88872946D01*
X85392583Y-88886031D01*
X85385142Y-88898447D01*
X85376519Y-88910073D01*
X85366798Y-88920798D01*
X85356073Y-88930519D01*
X85344447Y-88939142D01*
X85332031Y-88946583D01*
X85318946Y-88952772D01*
X85305317Y-88957649D01*
X85291276Y-88961166D01*
X85276958Y-88963290D01*
X85262500Y-88964000D01*
X84917500Y-88964000D01*
X84903042Y-88963290D01*
X84888724Y-88961166D01*
X84874683Y-88957649D01*
X84861054Y-88952772D01*
X84847969Y-88946583D01*
X84835553Y-88939142D01*
X84823927Y-88930519D01*
X84813202Y-88920798D01*
X84803481Y-88910073D01*
X84794858Y-88898447D01*
X84787417Y-88886031D01*
X84781228Y-88872946D01*
X84776351Y-88859317D01*
X84772834Y-88845276D01*
X84770710Y-88830958D01*
X84770000Y-88816500D01*
X84770000Y-88521500D01*
X84770710Y-88507042D01*
X84772834Y-88492724D01*
X84776351Y-88478683D01*
X84781228Y-88465054D01*
X84787417Y-88451969D01*
X84794858Y-88439553D01*
X84803481Y-88427927D01*
X84813202Y-88417202D01*
X84823927Y-88407481D01*
X84835553Y-88398858D01*
X84847969Y-88391417D01*
X84861054Y-88385228D01*
X84874683Y-88380351D01*
X84888724Y-88376834D01*
X84903042Y-88374710D01*
X84917500Y-88374000D01*
X85262500Y-88374000D01*
X85276958Y-88374710D01*
X85276958Y-88374710D01*
G37*
D15*
X85090000Y-88669000D03*
D10*
G36*
X85276958Y-89344710D02*
G01*
X85291276Y-89346834D01*
X85305317Y-89350351D01*
X85318946Y-89355228D01*
X85332031Y-89361417D01*
X85344447Y-89368858D01*
X85356073Y-89377481D01*
X85366798Y-89387202D01*
X85376519Y-89397927D01*
X85385142Y-89409553D01*
X85392583Y-89421969D01*
X85398772Y-89435054D01*
X85403649Y-89448683D01*
X85407166Y-89462724D01*
X85409290Y-89477042D01*
X85410000Y-89491500D01*
X85410000Y-89786500D01*
X85409290Y-89800958D01*
X85407166Y-89815276D01*
X85403649Y-89829317D01*
X85398772Y-89842946D01*
X85392583Y-89856031D01*
X85385142Y-89868447D01*
X85376519Y-89880073D01*
X85366798Y-89890798D01*
X85356073Y-89900519D01*
X85344447Y-89909142D01*
X85332031Y-89916583D01*
X85318946Y-89922772D01*
X85305317Y-89927649D01*
X85291276Y-89931166D01*
X85276958Y-89933290D01*
X85262500Y-89934000D01*
X84917500Y-89934000D01*
X84903042Y-89933290D01*
X84888724Y-89931166D01*
X84874683Y-89927649D01*
X84861054Y-89922772D01*
X84847969Y-89916583D01*
X84835553Y-89909142D01*
X84823927Y-89900519D01*
X84813202Y-89890798D01*
X84803481Y-89880073D01*
X84794858Y-89868447D01*
X84787417Y-89856031D01*
X84781228Y-89842946D01*
X84776351Y-89829317D01*
X84772834Y-89815276D01*
X84770710Y-89800958D01*
X84770000Y-89786500D01*
X84770000Y-89491500D01*
X84770710Y-89477042D01*
X84772834Y-89462724D01*
X84776351Y-89448683D01*
X84781228Y-89435054D01*
X84787417Y-89421969D01*
X84794858Y-89409553D01*
X84803481Y-89397927D01*
X84813202Y-89387202D01*
X84823927Y-89377481D01*
X84835553Y-89368858D01*
X84847969Y-89361417D01*
X84861054Y-89355228D01*
X84874683Y-89350351D01*
X84888724Y-89346834D01*
X84903042Y-89344710D01*
X84917500Y-89344000D01*
X85262500Y-89344000D01*
X85276958Y-89344710D01*
X85276958Y-89344710D01*
G37*
D15*
X85090000Y-89639000D03*
D10*
G36*
X90356958Y-89344710D02*
G01*
X90371276Y-89346834D01*
X90385317Y-89350351D01*
X90398946Y-89355228D01*
X90412031Y-89361417D01*
X90424447Y-89368858D01*
X90436073Y-89377481D01*
X90446798Y-89387202D01*
X90456519Y-89397927D01*
X90465142Y-89409553D01*
X90472583Y-89421969D01*
X90478772Y-89435054D01*
X90483649Y-89448683D01*
X90487166Y-89462724D01*
X90489290Y-89477042D01*
X90490000Y-89491500D01*
X90490000Y-89786500D01*
X90489290Y-89800958D01*
X90487166Y-89815276D01*
X90483649Y-89829317D01*
X90478772Y-89842946D01*
X90472583Y-89856031D01*
X90465142Y-89868447D01*
X90456519Y-89880073D01*
X90446798Y-89890798D01*
X90436073Y-89900519D01*
X90424447Y-89909142D01*
X90412031Y-89916583D01*
X90398946Y-89922772D01*
X90385317Y-89927649D01*
X90371276Y-89931166D01*
X90356958Y-89933290D01*
X90342500Y-89934000D01*
X89997500Y-89934000D01*
X89983042Y-89933290D01*
X89968724Y-89931166D01*
X89954683Y-89927649D01*
X89941054Y-89922772D01*
X89927969Y-89916583D01*
X89915553Y-89909142D01*
X89903927Y-89900519D01*
X89893202Y-89890798D01*
X89883481Y-89880073D01*
X89874858Y-89868447D01*
X89867417Y-89856031D01*
X89861228Y-89842946D01*
X89856351Y-89829317D01*
X89852834Y-89815276D01*
X89850710Y-89800958D01*
X89850000Y-89786500D01*
X89850000Y-89491500D01*
X89850710Y-89477042D01*
X89852834Y-89462724D01*
X89856351Y-89448683D01*
X89861228Y-89435054D01*
X89867417Y-89421969D01*
X89874858Y-89409553D01*
X89883481Y-89397927D01*
X89893202Y-89387202D01*
X89903927Y-89377481D01*
X89915553Y-89368858D01*
X89927969Y-89361417D01*
X89941054Y-89355228D01*
X89954683Y-89350351D01*
X89968724Y-89346834D01*
X89983042Y-89344710D01*
X89997500Y-89344000D01*
X90342500Y-89344000D01*
X90356958Y-89344710D01*
X90356958Y-89344710D01*
G37*
D15*
X90170000Y-89639000D03*
D10*
G36*
X90356958Y-88374710D02*
G01*
X90371276Y-88376834D01*
X90385317Y-88380351D01*
X90398946Y-88385228D01*
X90412031Y-88391417D01*
X90424447Y-88398858D01*
X90436073Y-88407481D01*
X90446798Y-88417202D01*
X90456519Y-88427927D01*
X90465142Y-88439553D01*
X90472583Y-88451969D01*
X90478772Y-88465054D01*
X90483649Y-88478683D01*
X90487166Y-88492724D01*
X90489290Y-88507042D01*
X90490000Y-88521500D01*
X90490000Y-88816500D01*
X90489290Y-88830958D01*
X90487166Y-88845276D01*
X90483649Y-88859317D01*
X90478772Y-88872946D01*
X90472583Y-88886031D01*
X90465142Y-88898447D01*
X90456519Y-88910073D01*
X90446798Y-88920798D01*
X90436073Y-88930519D01*
X90424447Y-88939142D01*
X90412031Y-88946583D01*
X90398946Y-88952772D01*
X90385317Y-88957649D01*
X90371276Y-88961166D01*
X90356958Y-88963290D01*
X90342500Y-88964000D01*
X89997500Y-88964000D01*
X89983042Y-88963290D01*
X89968724Y-88961166D01*
X89954683Y-88957649D01*
X89941054Y-88952772D01*
X89927969Y-88946583D01*
X89915553Y-88939142D01*
X89903927Y-88930519D01*
X89893202Y-88920798D01*
X89883481Y-88910073D01*
X89874858Y-88898447D01*
X89867417Y-88886031D01*
X89861228Y-88872946D01*
X89856351Y-88859317D01*
X89852834Y-88845276D01*
X89850710Y-88830958D01*
X89850000Y-88816500D01*
X89850000Y-88521500D01*
X89850710Y-88507042D01*
X89852834Y-88492724D01*
X89856351Y-88478683D01*
X89861228Y-88465054D01*
X89867417Y-88451969D01*
X89874858Y-88439553D01*
X89883481Y-88427927D01*
X89893202Y-88417202D01*
X89903927Y-88407481D01*
X89915553Y-88398858D01*
X89927969Y-88391417D01*
X89941054Y-88385228D01*
X89954683Y-88380351D01*
X89968724Y-88376834D01*
X89983042Y-88374710D01*
X89997500Y-88374000D01*
X90342500Y-88374000D01*
X90356958Y-88374710D01*
X90356958Y-88374710D01*
G37*
D15*
X90170000Y-88669000D03*
D10*
G36*
X92896958Y-89344710D02*
G01*
X92911276Y-89346834D01*
X92925317Y-89350351D01*
X92938946Y-89355228D01*
X92952031Y-89361417D01*
X92964447Y-89368858D01*
X92976073Y-89377481D01*
X92986798Y-89387202D01*
X92996519Y-89397927D01*
X93005142Y-89409553D01*
X93012583Y-89421969D01*
X93018772Y-89435054D01*
X93023649Y-89448683D01*
X93027166Y-89462724D01*
X93029290Y-89477042D01*
X93030000Y-89491500D01*
X93030000Y-89786500D01*
X93029290Y-89800958D01*
X93027166Y-89815276D01*
X93023649Y-89829317D01*
X93018772Y-89842946D01*
X93012583Y-89856031D01*
X93005142Y-89868447D01*
X92996519Y-89880073D01*
X92986798Y-89890798D01*
X92976073Y-89900519D01*
X92964447Y-89909142D01*
X92952031Y-89916583D01*
X92938946Y-89922772D01*
X92925317Y-89927649D01*
X92911276Y-89931166D01*
X92896958Y-89933290D01*
X92882500Y-89934000D01*
X92537500Y-89934000D01*
X92523042Y-89933290D01*
X92508724Y-89931166D01*
X92494683Y-89927649D01*
X92481054Y-89922772D01*
X92467969Y-89916583D01*
X92455553Y-89909142D01*
X92443927Y-89900519D01*
X92433202Y-89890798D01*
X92423481Y-89880073D01*
X92414858Y-89868447D01*
X92407417Y-89856031D01*
X92401228Y-89842946D01*
X92396351Y-89829317D01*
X92392834Y-89815276D01*
X92390710Y-89800958D01*
X92390000Y-89786500D01*
X92390000Y-89491500D01*
X92390710Y-89477042D01*
X92392834Y-89462724D01*
X92396351Y-89448683D01*
X92401228Y-89435054D01*
X92407417Y-89421969D01*
X92414858Y-89409553D01*
X92423481Y-89397927D01*
X92433202Y-89387202D01*
X92443927Y-89377481D01*
X92455553Y-89368858D01*
X92467969Y-89361417D01*
X92481054Y-89355228D01*
X92494683Y-89350351D01*
X92508724Y-89346834D01*
X92523042Y-89344710D01*
X92537500Y-89344000D01*
X92882500Y-89344000D01*
X92896958Y-89344710D01*
X92896958Y-89344710D01*
G37*
D15*
X92710000Y-89639000D03*
D10*
G36*
X92896958Y-88374710D02*
G01*
X92911276Y-88376834D01*
X92925317Y-88380351D01*
X92938946Y-88385228D01*
X92952031Y-88391417D01*
X92964447Y-88398858D01*
X92976073Y-88407481D01*
X92986798Y-88417202D01*
X92996519Y-88427927D01*
X93005142Y-88439553D01*
X93012583Y-88451969D01*
X93018772Y-88465054D01*
X93023649Y-88478683D01*
X93027166Y-88492724D01*
X93029290Y-88507042D01*
X93030000Y-88521500D01*
X93030000Y-88816500D01*
X93029290Y-88830958D01*
X93027166Y-88845276D01*
X93023649Y-88859317D01*
X93018772Y-88872946D01*
X93012583Y-88886031D01*
X93005142Y-88898447D01*
X92996519Y-88910073D01*
X92986798Y-88920798D01*
X92976073Y-88930519D01*
X92964447Y-88939142D01*
X92952031Y-88946583D01*
X92938946Y-88952772D01*
X92925317Y-88957649D01*
X92911276Y-88961166D01*
X92896958Y-88963290D01*
X92882500Y-88964000D01*
X92537500Y-88964000D01*
X92523042Y-88963290D01*
X92508724Y-88961166D01*
X92494683Y-88957649D01*
X92481054Y-88952772D01*
X92467969Y-88946583D01*
X92455553Y-88939142D01*
X92443927Y-88930519D01*
X92433202Y-88920798D01*
X92423481Y-88910073D01*
X92414858Y-88898447D01*
X92407417Y-88886031D01*
X92401228Y-88872946D01*
X92396351Y-88859317D01*
X92392834Y-88845276D01*
X92390710Y-88830958D01*
X92390000Y-88816500D01*
X92390000Y-88521500D01*
X92390710Y-88507042D01*
X92392834Y-88492724D01*
X92396351Y-88478683D01*
X92401228Y-88465054D01*
X92407417Y-88451969D01*
X92414858Y-88439553D01*
X92423481Y-88427927D01*
X92433202Y-88417202D01*
X92443927Y-88407481D01*
X92455553Y-88398858D01*
X92467969Y-88391417D01*
X92481054Y-88385228D01*
X92494683Y-88380351D01*
X92508724Y-88376834D01*
X92523042Y-88374710D01*
X92537500Y-88374000D01*
X92882500Y-88374000D01*
X92896958Y-88374710D01*
X92896958Y-88374710D01*
G37*
D15*
X92710000Y-88669000D03*
D10*
G36*
X103056958Y-93154710D02*
G01*
X103071276Y-93156834D01*
X103085317Y-93160351D01*
X103098946Y-93165228D01*
X103112031Y-93171417D01*
X103124447Y-93178858D01*
X103136073Y-93187481D01*
X103146798Y-93197202D01*
X103156519Y-93207927D01*
X103165142Y-93219553D01*
X103172583Y-93231969D01*
X103178772Y-93245054D01*
X103183649Y-93258683D01*
X103187166Y-93272724D01*
X103189290Y-93287042D01*
X103190000Y-93301500D01*
X103190000Y-93596500D01*
X103189290Y-93610958D01*
X103187166Y-93625276D01*
X103183649Y-93639317D01*
X103178772Y-93652946D01*
X103172583Y-93666031D01*
X103165142Y-93678447D01*
X103156519Y-93690073D01*
X103146798Y-93700798D01*
X103136073Y-93710519D01*
X103124447Y-93719142D01*
X103112031Y-93726583D01*
X103098946Y-93732772D01*
X103085317Y-93737649D01*
X103071276Y-93741166D01*
X103056958Y-93743290D01*
X103042500Y-93744000D01*
X102697500Y-93744000D01*
X102683042Y-93743290D01*
X102668724Y-93741166D01*
X102654683Y-93737649D01*
X102641054Y-93732772D01*
X102627969Y-93726583D01*
X102615553Y-93719142D01*
X102603927Y-93710519D01*
X102593202Y-93700798D01*
X102583481Y-93690073D01*
X102574858Y-93678447D01*
X102567417Y-93666031D01*
X102561228Y-93652946D01*
X102556351Y-93639317D01*
X102552834Y-93625276D01*
X102550710Y-93610958D01*
X102550000Y-93596500D01*
X102550000Y-93301500D01*
X102550710Y-93287042D01*
X102552834Y-93272724D01*
X102556351Y-93258683D01*
X102561228Y-93245054D01*
X102567417Y-93231969D01*
X102574858Y-93219553D01*
X102583481Y-93207927D01*
X102593202Y-93197202D01*
X102603927Y-93187481D01*
X102615553Y-93178858D01*
X102627969Y-93171417D01*
X102641054Y-93165228D01*
X102654683Y-93160351D01*
X102668724Y-93156834D01*
X102683042Y-93154710D01*
X102697500Y-93154000D01*
X103042500Y-93154000D01*
X103056958Y-93154710D01*
X103056958Y-93154710D01*
G37*
D15*
X102870000Y-93449000D03*
D10*
G36*
X103056958Y-92184710D02*
G01*
X103071276Y-92186834D01*
X103085317Y-92190351D01*
X103098946Y-92195228D01*
X103112031Y-92201417D01*
X103124447Y-92208858D01*
X103136073Y-92217481D01*
X103146798Y-92227202D01*
X103156519Y-92237927D01*
X103165142Y-92249553D01*
X103172583Y-92261969D01*
X103178772Y-92275054D01*
X103183649Y-92288683D01*
X103187166Y-92302724D01*
X103189290Y-92317042D01*
X103190000Y-92331500D01*
X103190000Y-92626500D01*
X103189290Y-92640958D01*
X103187166Y-92655276D01*
X103183649Y-92669317D01*
X103178772Y-92682946D01*
X103172583Y-92696031D01*
X103165142Y-92708447D01*
X103156519Y-92720073D01*
X103146798Y-92730798D01*
X103136073Y-92740519D01*
X103124447Y-92749142D01*
X103112031Y-92756583D01*
X103098946Y-92762772D01*
X103085317Y-92767649D01*
X103071276Y-92771166D01*
X103056958Y-92773290D01*
X103042500Y-92774000D01*
X102697500Y-92774000D01*
X102683042Y-92773290D01*
X102668724Y-92771166D01*
X102654683Y-92767649D01*
X102641054Y-92762772D01*
X102627969Y-92756583D01*
X102615553Y-92749142D01*
X102603927Y-92740519D01*
X102593202Y-92730798D01*
X102583481Y-92720073D01*
X102574858Y-92708447D01*
X102567417Y-92696031D01*
X102561228Y-92682946D01*
X102556351Y-92669317D01*
X102552834Y-92655276D01*
X102550710Y-92640958D01*
X102550000Y-92626500D01*
X102550000Y-92331500D01*
X102550710Y-92317042D01*
X102552834Y-92302724D01*
X102556351Y-92288683D01*
X102561228Y-92275054D01*
X102567417Y-92261969D01*
X102574858Y-92249553D01*
X102583481Y-92237927D01*
X102593202Y-92227202D01*
X102603927Y-92217481D01*
X102615553Y-92208858D01*
X102627969Y-92201417D01*
X102641054Y-92195228D01*
X102654683Y-92190351D01*
X102668724Y-92186834D01*
X102683042Y-92184710D01*
X102697500Y-92184000D01*
X103042500Y-92184000D01*
X103056958Y-92184710D01*
X103056958Y-92184710D01*
G37*
D15*
X102870000Y-92479000D03*
D10*
G36*
X105596958Y-93154710D02*
G01*
X105611276Y-93156834D01*
X105625317Y-93160351D01*
X105638946Y-93165228D01*
X105652031Y-93171417D01*
X105664447Y-93178858D01*
X105676073Y-93187481D01*
X105686798Y-93197202D01*
X105696519Y-93207927D01*
X105705142Y-93219553D01*
X105712583Y-93231969D01*
X105718772Y-93245054D01*
X105723649Y-93258683D01*
X105727166Y-93272724D01*
X105729290Y-93287042D01*
X105730000Y-93301500D01*
X105730000Y-93596500D01*
X105729290Y-93610958D01*
X105727166Y-93625276D01*
X105723649Y-93639317D01*
X105718772Y-93652946D01*
X105712583Y-93666031D01*
X105705142Y-93678447D01*
X105696519Y-93690073D01*
X105686798Y-93700798D01*
X105676073Y-93710519D01*
X105664447Y-93719142D01*
X105652031Y-93726583D01*
X105638946Y-93732772D01*
X105625317Y-93737649D01*
X105611276Y-93741166D01*
X105596958Y-93743290D01*
X105582500Y-93744000D01*
X105237500Y-93744000D01*
X105223042Y-93743290D01*
X105208724Y-93741166D01*
X105194683Y-93737649D01*
X105181054Y-93732772D01*
X105167969Y-93726583D01*
X105155553Y-93719142D01*
X105143927Y-93710519D01*
X105133202Y-93700798D01*
X105123481Y-93690073D01*
X105114858Y-93678447D01*
X105107417Y-93666031D01*
X105101228Y-93652946D01*
X105096351Y-93639317D01*
X105092834Y-93625276D01*
X105090710Y-93610958D01*
X105090000Y-93596500D01*
X105090000Y-93301500D01*
X105090710Y-93287042D01*
X105092834Y-93272724D01*
X105096351Y-93258683D01*
X105101228Y-93245054D01*
X105107417Y-93231969D01*
X105114858Y-93219553D01*
X105123481Y-93207927D01*
X105133202Y-93197202D01*
X105143927Y-93187481D01*
X105155553Y-93178858D01*
X105167969Y-93171417D01*
X105181054Y-93165228D01*
X105194683Y-93160351D01*
X105208724Y-93156834D01*
X105223042Y-93154710D01*
X105237500Y-93154000D01*
X105582500Y-93154000D01*
X105596958Y-93154710D01*
X105596958Y-93154710D01*
G37*
D15*
X105410000Y-93449000D03*
D10*
G36*
X105596958Y-92184710D02*
G01*
X105611276Y-92186834D01*
X105625317Y-92190351D01*
X105638946Y-92195228D01*
X105652031Y-92201417D01*
X105664447Y-92208858D01*
X105676073Y-92217481D01*
X105686798Y-92227202D01*
X105696519Y-92237927D01*
X105705142Y-92249553D01*
X105712583Y-92261969D01*
X105718772Y-92275054D01*
X105723649Y-92288683D01*
X105727166Y-92302724D01*
X105729290Y-92317042D01*
X105730000Y-92331500D01*
X105730000Y-92626500D01*
X105729290Y-92640958D01*
X105727166Y-92655276D01*
X105723649Y-92669317D01*
X105718772Y-92682946D01*
X105712583Y-92696031D01*
X105705142Y-92708447D01*
X105696519Y-92720073D01*
X105686798Y-92730798D01*
X105676073Y-92740519D01*
X105664447Y-92749142D01*
X105652031Y-92756583D01*
X105638946Y-92762772D01*
X105625317Y-92767649D01*
X105611276Y-92771166D01*
X105596958Y-92773290D01*
X105582500Y-92774000D01*
X105237500Y-92774000D01*
X105223042Y-92773290D01*
X105208724Y-92771166D01*
X105194683Y-92767649D01*
X105181054Y-92762772D01*
X105167969Y-92756583D01*
X105155553Y-92749142D01*
X105143927Y-92740519D01*
X105133202Y-92730798D01*
X105123481Y-92720073D01*
X105114858Y-92708447D01*
X105107417Y-92696031D01*
X105101228Y-92682946D01*
X105096351Y-92669317D01*
X105092834Y-92655276D01*
X105090710Y-92640958D01*
X105090000Y-92626500D01*
X105090000Y-92331500D01*
X105090710Y-92317042D01*
X105092834Y-92302724D01*
X105096351Y-92288683D01*
X105101228Y-92275054D01*
X105107417Y-92261969D01*
X105114858Y-92249553D01*
X105123481Y-92237927D01*
X105133202Y-92227202D01*
X105143927Y-92217481D01*
X105155553Y-92208858D01*
X105167969Y-92201417D01*
X105181054Y-92195228D01*
X105194683Y-92190351D01*
X105208724Y-92186834D01*
X105223042Y-92184710D01*
X105237500Y-92184000D01*
X105582500Y-92184000D01*
X105596958Y-92184710D01*
X105596958Y-92184710D01*
G37*
D15*
X105410000Y-92479000D03*
D10*
G36*
X108136958Y-93154710D02*
G01*
X108151276Y-93156834D01*
X108165317Y-93160351D01*
X108178946Y-93165228D01*
X108192031Y-93171417D01*
X108204447Y-93178858D01*
X108216073Y-93187481D01*
X108226798Y-93197202D01*
X108236519Y-93207927D01*
X108245142Y-93219553D01*
X108252583Y-93231969D01*
X108258772Y-93245054D01*
X108263649Y-93258683D01*
X108267166Y-93272724D01*
X108269290Y-93287042D01*
X108270000Y-93301500D01*
X108270000Y-93596500D01*
X108269290Y-93610958D01*
X108267166Y-93625276D01*
X108263649Y-93639317D01*
X108258772Y-93652946D01*
X108252583Y-93666031D01*
X108245142Y-93678447D01*
X108236519Y-93690073D01*
X108226798Y-93700798D01*
X108216073Y-93710519D01*
X108204447Y-93719142D01*
X108192031Y-93726583D01*
X108178946Y-93732772D01*
X108165317Y-93737649D01*
X108151276Y-93741166D01*
X108136958Y-93743290D01*
X108122500Y-93744000D01*
X107777500Y-93744000D01*
X107763042Y-93743290D01*
X107748724Y-93741166D01*
X107734683Y-93737649D01*
X107721054Y-93732772D01*
X107707969Y-93726583D01*
X107695553Y-93719142D01*
X107683927Y-93710519D01*
X107673202Y-93700798D01*
X107663481Y-93690073D01*
X107654858Y-93678447D01*
X107647417Y-93666031D01*
X107641228Y-93652946D01*
X107636351Y-93639317D01*
X107632834Y-93625276D01*
X107630710Y-93610958D01*
X107630000Y-93596500D01*
X107630000Y-93301500D01*
X107630710Y-93287042D01*
X107632834Y-93272724D01*
X107636351Y-93258683D01*
X107641228Y-93245054D01*
X107647417Y-93231969D01*
X107654858Y-93219553D01*
X107663481Y-93207927D01*
X107673202Y-93197202D01*
X107683927Y-93187481D01*
X107695553Y-93178858D01*
X107707969Y-93171417D01*
X107721054Y-93165228D01*
X107734683Y-93160351D01*
X107748724Y-93156834D01*
X107763042Y-93154710D01*
X107777500Y-93154000D01*
X108122500Y-93154000D01*
X108136958Y-93154710D01*
X108136958Y-93154710D01*
G37*
D15*
X107950000Y-93449000D03*
D10*
G36*
X108136958Y-92184710D02*
G01*
X108151276Y-92186834D01*
X108165317Y-92190351D01*
X108178946Y-92195228D01*
X108192031Y-92201417D01*
X108204447Y-92208858D01*
X108216073Y-92217481D01*
X108226798Y-92227202D01*
X108236519Y-92237927D01*
X108245142Y-92249553D01*
X108252583Y-92261969D01*
X108258772Y-92275054D01*
X108263649Y-92288683D01*
X108267166Y-92302724D01*
X108269290Y-92317042D01*
X108270000Y-92331500D01*
X108270000Y-92626500D01*
X108269290Y-92640958D01*
X108267166Y-92655276D01*
X108263649Y-92669317D01*
X108258772Y-92682946D01*
X108252583Y-92696031D01*
X108245142Y-92708447D01*
X108236519Y-92720073D01*
X108226798Y-92730798D01*
X108216073Y-92740519D01*
X108204447Y-92749142D01*
X108192031Y-92756583D01*
X108178946Y-92762772D01*
X108165317Y-92767649D01*
X108151276Y-92771166D01*
X108136958Y-92773290D01*
X108122500Y-92774000D01*
X107777500Y-92774000D01*
X107763042Y-92773290D01*
X107748724Y-92771166D01*
X107734683Y-92767649D01*
X107721054Y-92762772D01*
X107707969Y-92756583D01*
X107695553Y-92749142D01*
X107683927Y-92740519D01*
X107673202Y-92730798D01*
X107663481Y-92720073D01*
X107654858Y-92708447D01*
X107647417Y-92696031D01*
X107641228Y-92682946D01*
X107636351Y-92669317D01*
X107632834Y-92655276D01*
X107630710Y-92640958D01*
X107630000Y-92626500D01*
X107630000Y-92331500D01*
X107630710Y-92317042D01*
X107632834Y-92302724D01*
X107636351Y-92288683D01*
X107641228Y-92275054D01*
X107647417Y-92261969D01*
X107654858Y-92249553D01*
X107663481Y-92237927D01*
X107673202Y-92227202D01*
X107683927Y-92217481D01*
X107695553Y-92208858D01*
X107707969Y-92201417D01*
X107721054Y-92195228D01*
X107734683Y-92190351D01*
X107748724Y-92186834D01*
X107763042Y-92184710D01*
X107777500Y-92184000D01*
X108122500Y-92184000D01*
X108136958Y-92184710D01*
X108136958Y-92184710D01*
G37*
D15*
X107950000Y-92479000D03*
D10*
G36*
X110676958Y-93154710D02*
G01*
X110691276Y-93156834D01*
X110705317Y-93160351D01*
X110718946Y-93165228D01*
X110732031Y-93171417D01*
X110744447Y-93178858D01*
X110756073Y-93187481D01*
X110766798Y-93197202D01*
X110776519Y-93207927D01*
X110785142Y-93219553D01*
X110792583Y-93231969D01*
X110798772Y-93245054D01*
X110803649Y-93258683D01*
X110807166Y-93272724D01*
X110809290Y-93287042D01*
X110810000Y-93301500D01*
X110810000Y-93596500D01*
X110809290Y-93610958D01*
X110807166Y-93625276D01*
X110803649Y-93639317D01*
X110798772Y-93652946D01*
X110792583Y-93666031D01*
X110785142Y-93678447D01*
X110776519Y-93690073D01*
X110766798Y-93700798D01*
X110756073Y-93710519D01*
X110744447Y-93719142D01*
X110732031Y-93726583D01*
X110718946Y-93732772D01*
X110705317Y-93737649D01*
X110691276Y-93741166D01*
X110676958Y-93743290D01*
X110662500Y-93744000D01*
X110317500Y-93744000D01*
X110303042Y-93743290D01*
X110288724Y-93741166D01*
X110274683Y-93737649D01*
X110261054Y-93732772D01*
X110247969Y-93726583D01*
X110235553Y-93719142D01*
X110223927Y-93710519D01*
X110213202Y-93700798D01*
X110203481Y-93690073D01*
X110194858Y-93678447D01*
X110187417Y-93666031D01*
X110181228Y-93652946D01*
X110176351Y-93639317D01*
X110172834Y-93625276D01*
X110170710Y-93610958D01*
X110170000Y-93596500D01*
X110170000Y-93301500D01*
X110170710Y-93287042D01*
X110172834Y-93272724D01*
X110176351Y-93258683D01*
X110181228Y-93245054D01*
X110187417Y-93231969D01*
X110194858Y-93219553D01*
X110203481Y-93207927D01*
X110213202Y-93197202D01*
X110223927Y-93187481D01*
X110235553Y-93178858D01*
X110247969Y-93171417D01*
X110261054Y-93165228D01*
X110274683Y-93160351D01*
X110288724Y-93156834D01*
X110303042Y-93154710D01*
X110317500Y-93154000D01*
X110662500Y-93154000D01*
X110676958Y-93154710D01*
X110676958Y-93154710D01*
G37*
D15*
X110490000Y-93449000D03*
D10*
G36*
X110676958Y-92184710D02*
G01*
X110691276Y-92186834D01*
X110705317Y-92190351D01*
X110718946Y-92195228D01*
X110732031Y-92201417D01*
X110744447Y-92208858D01*
X110756073Y-92217481D01*
X110766798Y-92227202D01*
X110776519Y-92237927D01*
X110785142Y-92249553D01*
X110792583Y-92261969D01*
X110798772Y-92275054D01*
X110803649Y-92288683D01*
X110807166Y-92302724D01*
X110809290Y-92317042D01*
X110810000Y-92331500D01*
X110810000Y-92626500D01*
X110809290Y-92640958D01*
X110807166Y-92655276D01*
X110803649Y-92669317D01*
X110798772Y-92682946D01*
X110792583Y-92696031D01*
X110785142Y-92708447D01*
X110776519Y-92720073D01*
X110766798Y-92730798D01*
X110756073Y-92740519D01*
X110744447Y-92749142D01*
X110732031Y-92756583D01*
X110718946Y-92762772D01*
X110705317Y-92767649D01*
X110691276Y-92771166D01*
X110676958Y-92773290D01*
X110662500Y-92774000D01*
X110317500Y-92774000D01*
X110303042Y-92773290D01*
X110288724Y-92771166D01*
X110274683Y-92767649D01*
X110261054Y-92762772D01*
X110247969Y-92756583D01*
X110235553Y-92749142D01*
X110223927Y-92740519D01*
X110213202Y-92730798D01*
X110203481Y-92720073D01*
X110194858Y-92708447D01*
X110187417Y-92696031D01*
X110181228Y-92682946D01*
X110176351Y-92669317D01*
X110172834Y-92655276D01*
X110170710Y-92640958D01*
X110170000Y-92626500D01*
X110170000Y-92331500D01*
X110170710Y-92317042D01*
X110172834Y-92302724D01*
X110176351Y-92288683D01*
X110181228Y-92275054D01*
X110187417Y-92261969D01*
X110194858Y-92249553D01*
X110203481Y-92237927D01*
X110213202Y-92227202D01*
X110223927Y-92217481D01*
X110235553Y-92208858D01*
X110247969Y-92201417D01*
X110261054Y-92195228D01*
X110274683Y-92190351D01*
X110288724Y-92186834D01*
X110303042Y-92184710D01*
X110317500Y-92184000D01*
X110662500Y-92184000D01*
X110676958Y-92184710D01*
X110676958Y-92184710D01*
G37*
D15*
X110490000Y-92479000D03*
D10*
G36*
X104596958Y-103185710D02*
G01*
X104611276Y-103187834D01*
X104625317Y-103191351D01*
X104638946Y-103196228D01*
X104652031Y-103202417D01*
X104664447Y-103209858D01*
X104676073Y-103218481D01*
X104686798Y-103228202D01*
X104696519Y-103238927D01*
X104705142Y-103250553D01*
X104712583Y-103262969D01*
X104718772Y-103276054D01*
X104723649Y-103289683D01*
X104727166Y-103303724D01*
X104729290Y-103318042D01*
X104730000Y-103332500D01*
X104730000Y-103677500D01*
X104729290Y-103691958D01*
X104727166Y-103706276D01*
X104723649Y-103720317D01*
X104718772Y-103733946D01*
X104712583Y-103747031D01*
X104705142Y-103759447D01*
X104696519Y-103771073D01*
X104686798Y-103781798D01*
X104676073Y-103791519D01*
X104664447Y-103800142D01*
X104652031Y-103807583D01*
X104638946Y-103813772D01*
X104625317Y-103818649D01*
X104611276Y-103822166D01*
X104596958Y-103824290D01*
X104582500Y-103825000D01*
X104287500Y-103825000D01*
X104273042Y-103824290D01*
X104258724Y-103822166D01*
X104244683Y-103818649D01*
X104231054Y-103813772D01*
X104217969Y-103807583D01*
X104205553Y-103800142D01*
X104193927Y-103791519D01*
X104183202Y-103781798D01*
X104173481Y-103771073D01*
X104164858Y-103759447D01*
X104157417Y-103747031D01*
X104151228Y-103733946D01*
X104146351Y-103720317D01*
X104142834Y-103706276D01*
X104140710Y-103691958D01*
X104140000Y-103677500D01*
X104140000Y-103332500D01*
X104140710Y-103318042D01*
X104142834Y-103303724D01*
X104146351Y-103289683D01*
X104151228Y-103276054D01*
X104157417Y-103262969D01*
X104164858Y-103250553D01*
X104173481Y-103238927D01*
X104183202Y-103228202D01*
X104193927Y-103218481D01*
X104205553Y-103209858D01*
X104217969Y-103202417D01*
X104231054Y-103196228D01*
X104244683Y-103191351D01*
X104258724Y-103187834D01*
X104273042Y-103185710D01*
X104287500Y-103185000D01*
X104582500Y-103185000D01*
X104596958Y-103185710D01*
X104596958Y-103185710D01*
G37*
D15*
X104435000Y-103505000D03*
D10*
G36*
X105566958Y-103185710D02*
G01*
X105581276Y-103187834D01*
X105595317Y-103191351D01*
X105608946Y-103196228D01*
X105622031Y-103202417D01*
X105634447Y-103209858D01*
X105646073Y-103218481D01*
X105656798Y-103228202D01*
X105666519Y-103238927D01*
X105675142Y-103250553D01*
X105682583Y-103262969D01*
X105688772Y-103276054D01*
X105693649Y-103289683D01*
X105697166Y-103303724D01*
X105699290Y-103318042D01*
X105700000Y-103332500D01*
X105700000Y-103677500D01*
X105699290Y-103691958D01*
X105697166Y-103706276D01*
X105693649Y-103720317D01*
X105688772Y-103733946D01*
X105682583Y-103747031D01*
X105675142Y-103759447D01*
X105666519Y-103771073D01*
X105656798Y-103781798D01*
X105646073Y-103791519D01*
X105634447Y-103800142D01*
X105622031Y-103807583D01*
X105608946Y-103813772D01*
X105595317Y-103818649D01*
X105581276Y-103822166D01*
X105566958Y-103824290D01*
X105552500Y-103825000D01*
X105257500Y-103825000D01*
X105243042Y-103824290D01*
X105228724Y-103822166D01*
X105214683Y-103818649D01*
X105201054Y-103813772D01*
X105187969Y-103807583D01*
X105175553Y-103800142D01*
X105163927Y-103791519D01*
X105153202Y-103781798D01*
X105143481Y-103771073D01*
X105134858Y-103759447D01*
X105127417Y-103747031D01*
X105121228Y-103733946D01*
X105116351Y-103720317D01*
X105112834Y-103706276D01*
X105110710Y-103691958D01*
X105110000Y-103677500D01*
X105110000Y-103332500D01*
X105110710Y-103318042D01*
X105112834Y-103303724D01*
X105116351Y-103289683D01*
X105121228Y-103276054D01*
X105127417Y-103262969D01*
X105134858Y-103250553D01*
X105143481Y-103238927D01*
X105153202Y-103228202D01*
X105163927Y-103218481D01*
X105175553Y-103209858D01*
X105187969Y-103202417D01*
X105201054Y-103196228D01*
X105214683Y-103191351D01*
X105228724Y-103187834D01*
X105243042Y-103185710D01*
X105257500Y-103185000D01*
X105552500Y-103185000D01*
X105566958Y-103185710D01*
X105566958Y-103185710D01*
G37*
D15*
X105405000Y-103505000D03*
D10*
G36*
X104596958Y-102169710D02*
G01*
X104611276Y-102171834D01*
X104625317Y-102175351D01*
X104638946Y-102180228D01*
X104652031Y-102186417D01*
X104664447Y-102193858D01*
X104676073Y-102202481D01*
X104686798Y-102212202D01*
X104696519Y-102222927D01*
X104705142Y-102234553D01*
X104712583Y-102246969D01*
X104718772Y-102260054D01*
X104723649Y-102273683D01*
X104727166Y-102287724D01*
X104729290Y-102302042D01*
X104730000Y-102316500D01*
X104730000Y-102661500D01*
X104729290Y-102675958D01*
X104727166Y-102690276D01*
X104723649Y-102704317D01*
X104718772Y-102717946D01*
X104712583Y-102731031D01*
X104705142Y-102743447D01*
X104696519Y-102755073D01*
X104686798Y-102765798D01*
X104676073Y-102775519D01*
X104664447Y-102784142D01*
X104652031Y-102791583D01*
X104638946Y-102797772D01*
X104625317Y-102802649D01*
X104611276Y-102806166D01*
X104596958Y-102808290D01*
X104582500Y-102809000D01*
X104287500Y-102809000D01*
X104273042Y-102808290D01*
X104258724Y-102806166D01*
X104244683Y-102802649D01*
X104231054Y-102797772D01*
X104217969Y-102791583D01*
X104205553Y-102784142D01*
X104193927Y-102775519D01*
X104183202Y-102765798D01*
X104173481Y-102755073D01*
X104164858Y-102743447D01*
X104157417Y-102731031D01*
X104151228Y-102717946D01*
X104146351Y-102704317D01*
X104142834Y-102690276D01*
X104140710Y-102675958D01*
X104140000Y-102661500D01*
X104140000Y-102316500D01*
X104140710Y-102302042D01*
X104142834Y-102287724D01*
X104146351Y-102273683D01*
X104151228Y-102260054D01*
X104157417Y-102246969D01*
X104164858Y-102234553D01*
X104173481Y-102222927D01*
X104183202Y-102212202D01*
X104193927Y-102202481D01*
X104205553Y-102193858D01*
X104217969Y-102186417D01*
X104231054Y-102180228D01*
X104244683Y-102175351D01*
X104258724Y-102171834D01*
X104273042Y-102169710D01*
X104287500Y-102169000D01*
X104582500Y-102169000D01*
X104596958Y-102169710D01*
X104596958Y-102169710D01*
G37*
D15*
X104435000Y-102489000D03*
D10*
G36*
X105566958Y-102169710D02*
G01*
X105581276Y-102171834D01*
X105595317Y-102175351D01*
X105608946Y-102180228D01*
X105622031Y-102186417D01*
X105634447Y-102193858D01*
X105646073Y-102202481D01*
X105656798Y-102212202D01*
X105666519Y-102222927D01*
X105675142Y-102234553D01*
X105682583Y-102246969D01*
X105688772Y-102260054D01*
X105693649Y-102273683D01*
X105697166Y-102287724D01*
X105699290Y-102302042D01*
X105700000Y-102316500D01*
X105700000Y-102661500D01*
X105699290Y-102675958D01*
X105697166Y-102690276D01*
X105693649Y-102704317D01*
X105688772Y-102717946D01*
X105682583Y-102731031D01*
X105675142Y-102743447D01*
X105666519Y-102755073D01*
X105656798Y-102765798D01*
X105646073Y-102775519D01*
X105634447Y-102784142D01*
X105622031Y-102791583D01*
X105608946Y-102797772D01*
X105595317Y-102802649D01*
X105581276Y-102806166D01*
X105566958Y-102808290D01*
X105552500Y-102809000D01*
X105257500Y-102809000D01*
X105243042Y-102808290D01*
X105228724Y-102806166D01*
X105214683Y-102802649D01*
X105201054Y-102797772D01*
X105187969Y-102791583D01*
X105175553Y-102784142D01*
X105163927Y-102775519D01*
X105153202Y-102765798D01*
X105143481Y-102755073D01*
X105134858Y-102743447D01*
X105127417Y-102731031D01*
X105121228Y-102717946D01*
X105116351Y-102704317D01*
X105112834Y-102690276D01*
X105110710Y-102675958D01*
X105110000Y-102661500D01*
X105110000Y-102316500D01*
X105110710Y-102302042D01*
X105112834Y-102287724D01*
X105116351Y-102273683D01*
X105121228Y-102260054D01*
X105127417Y-102246969D01*
X105134858Y-102234553D01*
X105143481Y-102222927D01*
X105153202Y-102212202D01*
X105163927Y-102202481D01*
X105175553Y-102193858D01*
X105187969Y-102186417D01*
X105201054Y-102180228D01*
X105214683Y-102175351D01*
X105228724Y-102171834D01*
X105243042Y-102169710D01*
X105257500Y-102169000D01*
X105552500Y-102169000D01*
X105566958Y-102169710D01*
X105566958Y-102169710D01*
G37*
D15*
X105405000Y-102489000D03*
D10*
G36*
X94928958Y-104965710D02*
G01*
X94943276Y-104967834D01*
X94957317Y-104971351D01*
X94970946Y-104976228D01*
X94984031Y-104982417D01*
X94996447Y-104989858D01*
X95008073Y-104998481D01*
X95018798Y-105008202D01*
X95028519Y-105018927D01*
X95037142Y-105030553D01*
X95044583Y-105042969D01*
X95050772Y-105056054D01*
X95055649Y-105069683D01*
X95059166Y-105083724D01*
X95061290Y-105098042D01*
X95062000Y-105112500D01*
X95062000Y-105407500D01*
X95061290Y-105421958D01*
X95059166Y-105436276D01*
X95055649Y-105450317D01*
X95050772Y-105463946D01*
X95044583Y-105477031D01*
X95037142Y-105489447D01*
X95028519Y-105501073D01*
X95018798Y-105511798D01*
X95008073Y-105521519D01*
X94996447Y-105530142D01*
X94984031Y-105537583D01*
X94970946Y-105543772D01*
X94957317Y-105548649D01*
X94943276Y-105552166D01*
X94928958Y-105554290D01*
X94914500Y-105555000D01*
X94569500Y-105555000D01*
X94555042Y-105554290D01*
X94540724Y-105552166D01*
X94526683Y-105548649D01*
X94513054Y-105543772D01*
X94499969Y-105537583D01*
X94487553Y-105530142D01*
X94475927Y-105521519D01*
X94465202Y-105511798D01*
X94455481Y-105501073D01*
X94446858Y-105489447D01*
X94439417Y-105477031D01*
X94433228Y-105463946D01*
X94428351Y-105450317D01*
X94424834Y-105436276D01*
X94422710Y-105421958D01*
X94422000Y-105407500D01*
X94422000Y-105112500D01*
X94422710Y-105098042D01*
X94424834Y-105083724D01*
X94428351Y-105069683D01*
X94433228Y-105056054D01*
X94439417Y-105042969D01*
X94446858Y-105030553D01*
X94455481Y-105018927D01*
X94465202Y-105008202D01*
X94475927Y-104998481D01*
X94487553Y-104989858D01*
X94499969Y-104982417D01*
X94513054Y-104976228D01*
X94526683Y-104971351D01*
X94540724Y-104967834D01*
X94555042Y-104965710D01*
X94569500Y-104965000D01*
X94914500Y-104965000D01*
X94928958Y-104965710D01*
X94928958Y-104965710D01*
G37*
D15*
X94742000Y-105260000D03*
D10*
G36*
X94928958Y-103995710D02*
G01*
X94943276Y-103997834D01*
X94957317Y-104001351D01*
X94970946Y-104006228D01*
X94984031Y-104012417D01*
X94996447Y-104019858D01*
X95008073Y-104028481D01*
X95018798Y-104038202D01*
X95028519Y-104048927D01*
X95037142Y-104060553D01*
X95044583Y-104072969D01*
X95050772Y-104086054D01*
X95055649Y-104099683D01*
X95059166Y-104113724D01*
X95061290Y-104128042D01*
X95062000Y-104142500D01*
X95062000Y-104437500D01*
X95061290Y-104451958D01*
X95059166Y-104466276D01*
X95055649Y-104480317D01*
X95050772Y-104493946D01*
X95044583Y-104507031D01*
X95037142Y-104519447D01*
X95028519Y-104531073D01*
X95018798Y-104541798D01*
X95008073Y-104551519D01*
X94996447Y-104560142D01*
X94984031Y-104567583D01*
X94970946Y-104573772D01*
X94957317Y-104578649D01*
X94943276Y-104582166D01*
X94928958Y-104584290D01*
X94914500Y-104585000D01*
X94569500Y-104585000D01*
X94555042Y-104584290D01*
X94540724Y-104582166D01*
X94526683Y-104578649D01*
X94513054Y-104573772D01*
X94499969Y-104567583D01*
X94487553Y-104560142D01*
X94475927Y-104551519D01*
X94465202Y-104541798D01*
X94455481Y-104531073D01*
X94446858Y-104519447D01*
X94439417Y-104507031D01*
X94433228Y-104493946D01*
X94428351Y-104480317D01*
X94424834Y-104466276D01*
X94422710Y-104451958D01*
X94422000Y-104437500D01*
X94422000Y-104142500D01*
X94422710Y-104128042D01*
X94424834Y-104113724D01*
X94428351Y-104099683D01*
X94433228Y-104086054D01*
X94439417Y-104072969D01*
X94446858Y-104060553D01*
X94455481Y-104048927D01*
X94465202Y-104038202D01*
X94475927Y-104028481D01*
X94487553Y-104019858D01*
X94499969Y-104012417D01*
X94513054Y-104006228D01*
X94526683Y-104001351D01*
X94540724Y-103997834D01*
X94555042Y-103995710D01*
X94569500Y-103995000D01*
X94914500Y-103995000D01*
X94928958Y-103995710D01*
X94928958Y-103995710D01*
G37*
D15*
X94742000Y-104290000D03*
D10*
G36*
X104578958Y-96200710D02*
G01*
X104593276Y-96202834D01*
X104607317Y-96206351D01*
X104620946Y-96211228D01*
X104634031Y-96217417D01*
X104646447Y-96224858D01*
X104658073Y-96233481D01*
X104668798Y-96243202D01*
X104678519Y-96253927D01*
X104687142Y-96265553D01*
X104694583Y-96277969D01*
X104700772Y-96291054D01*
X104705649Y-96304683D01*
X104709166Y-96318724D01*
X104711290Y-96333042D01*
X104712000Y-96347500D01*
X104712000Y-96692500D01*
X104711290Y-96706958D01*
X104709166Y-96721276D01*
X104705649Y-96735317D01*
X104700772Y-96748946D01*
X104694583Y-96762031D01*
X104687142Y-96774447D01*
X104678519Y-96786073D01*
X104668798Y-96796798D01*
X104658073Y-96806519D01*
X104646447Y-96815142D01*
X104634031Y-96822583D01*
X104620946Y-96828772D01*
X104607317Y-96833649D01*
X104593276Y-96837166D01*
X104578958Y-96839290D01*
X104564500Y-96840000D01*
X104269500Y-96840000D01*
X104255042Y-96839290D01*
X104240724Y-96837166D01*
X104226683Y-96833649D01*
X104213054Y-96828772D01*
X104199969Y-96822583D01*
X104187553Y-96815142D01*
X104175927Y-96806519D01*
X104165202Y-96796798D01*
X104155481Y-96786073D01*
X104146858Y-96774447D01*
X104139417Y-96762031D01*
X104133228Y-96748946D01*
X104128351Y-96735317D01*
X104124834Y-96721276D01*
X104122710Y-96706958D01*
X104122000Y-96692500D01*
X104122000Y-96347500D01*
X104122710Y-96333042D01*
X104124834Y-96318724D01*
X104128351Y-96304683D01*
X104133228Y-96291054D01*
X104139417Y-96277969D01*
X104146858Y-96265553D01*
X104155481Y-96253927D01*
X104165202Y-96243202D01*
X104175927Y-96233481D01*
X104187553Y-96224858D01*
X104199969Y-96217417D01*
X104213054Y-96211228D01*
X104226683Y-96206351D01*
X104240724Y-96202834D01*
X104255042Y-96200710D01*
X104269500Y-96200000D01*
X104564500Y-96200000D01*
X104578958Y-96200710D01*
X104578958Y-96200710D01*
G37*
D15*
X104417000Y-96520000D03*
D10*
G36*
X105548958Y-96200710D02*
G01*
X105563276Y-96202834D01*
X105577317Y-96206351D01*
X105590946Y-96211228D01*
X105604031Y-96217417D01*
X105616447Y-96224858D01*
X105628073Y-96233481D01*
X105638798Y-96243202D01*
X105648519Y-96253927D01*
X105657142Y-96265553D01*
X105664583Y-96277969D01*
X105670772Y-96291054D01*
X105675649Y-96304683D01*
X105679166Y-96318724D01*
X105681290Y-96333042D01*
X105682000Y-96347500D01*
X105682000Y-96692500D01*
X105681290Y-96706958D01*
X105679166Y-96721276D01*
X105675649Y-96735317D01*
X105670772Y-96748946D01*
X105664583Y-96762031D01*
X105657142Y-96774447D01*
X105648519Y-96786073D01*
X105638798Y-96796798D01*
X105628073Y-96806519D01*
X105616447Y-96815142D01*
X105604031Y-96822583D01*
X105590946Y-96828772D01*
X105577317Y-96833649D01*
X105563276Y-96837166D01*
X105548958Y-96839290D01*
X105534500Y-96840000D01*
X105239500Y-96840000D01*
X105225042Y-96839290D01*
X105210724Y-96837166D01*
X105196683Y-96833649D01*
X105183054Y-96828772D01*
X105169969Y-96822583D01*
X105157553Y-96815142D01*
X105145927Y-96806519D01*
X105135202Y-96796798D01*
X105125481Y-96786073D01*
X105116858Y-96774447D01*
X105109417Y-96762031D01*
X105103228Y-96748946D01*
X105098351Y-96735317D01*
X105094834Y-96721276D01*
X105092710Y-96706958D01*
X105092000Y-96692500D01*
X105092000Y-96347500D01*
X105092710Y-96333042D01*
X105094834Y-96318724D01*
X105098351Y-96304683D01*
X105103228Y-96291054D01*
X105109417Y-96277969D01*
X105116858Y-96265553D01*
X105125481Y-96253927D01*
X105135202Y-96243202D01*
X105145927Y-96233481D01*
X105157553Y-96224858D01*
X105169969Y-96217417D01*
X105183054Y-96211228D01*
X105196683Y-96206351D01*
X105210724Y-96202834D01*
X105225042Y-96200710D01*
X105239500Y-96200000D01*
X105534500Y-96200000D01*
X105548958Y-96200710D01*
X105548958Y-96200710D01*
G37*
D15*
X105387000Y-96520000D03*
D10*
G36*
X104578958Y-97180710D02*
G01*
X104593276Y-97182834D01*
X104607317Y-97186351D01*
X104620946Y-97191228D01*
X104634031Y-97197417D01*
X104646447Y-97204858D01*
X104658073Y-97213481D01*
X104668798Y-97223202D01*
X104678519Y-97233927D01*
X104687142Y-97245553D01*
X104694583Y-97257969D01*
X104700772Y-97271054D01*
X104705649Y-97284683D01*
X104709166Y-97298724D01*
X104711290Y-97313042D01*
X104712000Y-97327500D01*
X104712000Y-97672500D01*
X104711290Y-97686958D01*
X104709166Y-97701276D01*
X104705649Y-97715317D01*
X104700772Y-97728946D01*
X104694583Y-97742031D01*
X104687142Y-97754447D01*
X104678519Y-97766073D01*
X104668798Y-97776798D01*
X104658073Y-97786519D01*
X104646447Y-97795142D01*
X104634031Y-97802583D01*
X104620946Y-97808772D01*
X104607317Y-97813649D01*
X104593276Y-97817166D01*
X104578958Y-97819290D01*
X104564500Y-97820000D01*
X104269500Y-97820000D01*
X104255042Y-97819290D01*
X104240724Y-97817166D01*
X104226683Y-97813649D01*
X104213054Y-97808772D01*
X104199969Y-97802583D01*
X104187553Y-97795142D01*
X104175927Y-97786519D01*
X104165202Y-97776798D01*
X104155481Y-97766073D01*
X104146858Y-97754447D01*
X104139417Y-97742031D01*
X104133228Y-97728946D01*
X104128351Y-97715317D01*
X104124834Y-97701276D01*
X104122710Y-97686958D01*
X104122000Y-97672500D01*
X104122000Y-97327500D01*
X104122710Y-97313042D01*
X104124834Y-97298724D01*
X104128351Y-97284683D01*
X104133228Y-97271054D01*
X104139417Y-97257969D01*
X104146858Y-97245553D01*
X104155481Y-97233927D01*
X104165202Y-97223202D01*
X104175927Y-97213481D01*
X104187553Y-97204858D01*
X104199969Y-97197417D01*
X104213054Y-97191228D01*
X104226683Y-97186351D01*
X104240724Y-97182834D01*
X104255042Y-97180710D01*
X104269500Y-97180000D01*
X104564500Y-97180000D01*
X104578958Y-97180710D01*
X104578958Y-97180710D01*
G37*
D15*
X104417000Y-97500000D03*
D10*
G36*
X105548958Y-97180710D02*
G01*
X105563276Y-97182834D01*
X105577317Y-97186351D01*
X105590946Y-97191228D01*
X105604031Y-97197417D01*
X105616447Y-97204858D01*
X105628073Y-97213481D01*
X105638798Y-97223202D01*
X105648519Y-97233927D01*
X105657142Y-97245553D01*
X105664583Y-97257969D01*
X105670772Y-97271054D01*
X105675649Y-97284683D01*
X105679166Y-97298724D01*
X105681290Y-97313042D01*
X105682000Y-97327500D01*
X105682000Y-97672500D01*
X105681290Y-97686958D01*
X105679166Y-97701276D01*
X105675649Y-97715317D01*
X105670772Y-97728946D01*
X105664583Y-97742031D01*
X105657142Y-97754447D01*
X105648519Y-97766073D01*
X105638798Y-97776798D01*
X105628073Y-97786519D01*
X105616447Y-97795142D01*
X105604031Y-97802583D01*
X105590946Y-97808772D01*
X105577317Y-97813649D01*
X105563276Y-97817166D01*
X105548958Y-97819290D01*
X105534500Y-97820000D01*
X105239500Y-97820000D01*
X105225042Y-97819290D01*
X105210724Y-97817166D01*
X105196683Y-97813649D01*
X105183054Y-97808772D01*
X105169969Y-97802583D01*
X105157553Y-97795142D01*
X105145927Y-97786519D01*
X105135202Y-97776798D01*
X105125481Y-97766073D01*
X105116858Y-97754447D01*
X105109417Y-97742031D01*
X105103228Y-97728946D01*
X105098351Y-97715317D01*
X105094834Y-97701276D01*
X105092710Y-97686958D01*
X105092000Y-97672500D01*
X105092000Y-97327500D01*
X105092710Y-97313042D01*
X105094834Y-97298724D01*
X105098351Y-97284683D01*
X105103228Y-97271054D01*
X105109417Y-97257969D01*
X105116858Y-97245553D01*
X105125481Y-97233927D01*
X105135202Y-97223202D01*
X105145927Y-97213481D01*
X105157553Y-97204858D01*
X105169969Y-97197417D01*
X105183054Y-97191228D01*
X105196683Y-97186351D01*
X105210724Y-97182834D01*
X105225042Y-97180710D01*
X105239500Y-97180000D01*
X105534500Y-97180000D01*
X105548958Y-97180710D01*
X105548958Y-97180710D01*
G37*
D15*
X105387000Y-97500000D03*
D10*
G36*
X114802691Y-90276053D02*
G01*
X114823926Y-90279203D01*
X114844750Y-90284419D01*
X114864962Y-90291651D01*
X114884368Y-90300830D01*
X114902781Y-90311866D01*
X114920024Y-90324654D01*
X114935930Y-90339070D01*
X114950346Y-90354976D01*
X114963134Y-90372219D01*
X114974170Y-90390632D01*
X114983349Y-90410038D01*
X114990581Y-90430250D01*
X114995797Y-90451074D01*
X114998947Y-90472309D01*
X115000000Y-90493750D01*
X115000000Y-91006250D01*
X114998947Y-91027691D01*
X114995797Y-91048926D01*
X114990581Y-91069750D01*
X114983349Y-91089962D01*
X114974170Y-91109368D01*
X114963134Y-91127781D01*
X114950346Y-91145024D01*
X114935930Y-91160930D01*
X114920024Y-91175346D01*
X114902781Y-91188134D01*
X114884368Y-91199170D01*
X114864962Y-91208349D01*
X114844750Y-91215581D01*
X114823926Y-91220797D01*
X114802691Y-91223947D01*
X114781250Y-91225000D01*
X114343750Y-91225000D01*
X114322309Y-91223947D01*
X114301074Y-91220797D01*
X114280250Y-91215581D01*
X114260038Y-91208349D01*
X114240632Y-91199170D01*
X114222219Y-91188134D01*
X114204976Y-91175346D01*
X114189070Y-91160930D01*
X114174654Y-91145024D01*
X114161866Y-91127781D01*
X114150830Y-91109368D01*
X114141651Y-91089962D01*
X114134419Y-91069750D01*
X114129203Y-91048926D01*
X114126053Y-91027691D01*
X114125000Y-91006250D01*
X114125000Y-90493750D01*
X114126053Y-90472309D01*
X114129203Y-90451074D01*
X114134419Y-90430250D01*
X114141651Y-90410038D01*
X114150830Y-90390632D01*
X114161866Y-90372219D01*
X114174654Y-90354976D01*
X114189070Y-90339070D01*
X114204976Y-90324654D01*
X114222219Y-90311866D01*
X114240632Y-90300830D01*
X114260038Y-90291651D01*
X114280250Y-90284419D01*
X114301074Y-90279203D01*
X114322309Y-90276053D01*
X114343750Y-90275000D01*
X114781250Y-90275000D01*
X114802691Y-90276053D01*
X114802691Y-90276053D01*
G37*
D11*
X114562500Y-90750000D03*
D10*
G36*
X116377691Y-90276053D02*
G01*
X116398926Y-90279203D01*
X116419750Y-90284419D01*
X116439962Y-90291651D01*
X116459368Y-90300830D01*
X116477781Y-90311866D01*
X116495024Y-90324654D01*
X116510930Y-90339070D01*
X116525346Y-90354976D01*
X116538134Y-90372219D01*
X116549170Y-90390632D01*
X116558349Y-90410038D01*
X116565581Y-90430250D01*
X116570797Y-90451074D01*
X116573947Y-90472309D01*
X116575000Y-90493750D01*
X116575000Y-91006250D01*
X116573947Y-91027691D01*
X116570797Y-91048926D01*
X116565581Y-91069750D01*
X116558349Y-91089962D01*
X116549170Y-91109368D01*
X116538134Y-91127781D01*
X116525346Y-91145024D01*
X116510930Y-91160930D01*
X116495024Y-91175346D01*
X116477781Y-91188134D01*
X116459368Y-91199170D01*
X116439962Y-91208349D01*
X116419750Y-91215581D01*
X116398926Y-91220797D01*
X116377691Y-91223947D01*
X116356250Y-91225000D01*
X115918750Y-91225000D01*
X115897309Y-91223947D01*
X115876074Y-91220797D01*
X115855250Y-91215581D01*
X115835038Y-91208349D01*
X115815632Y-91199170D01*
X115797219Y-91188134D01*
X115779976Y-91175346D01*
X115764070Y-91160930D01*
X115749654Y-91145024D01*
X115736866Y-91127781D01*
X115725830Y-91109368D01*
X115716651Y-91089962D01*
X115709419Y-91069750D01*
X115704203Y-91048926D01*
X115701053Y-91027691D01*
X115700000Y-91006250D01*
X115700000Y-90493750D01*
X115701053Y-90472309D01*
X115704203Y-90451074D01*
X115709419Y-90430250D01*
X115716651Y-90410038D01*
X115725830Y-90390632D01*
X115736866Y-90372219D01*
X115749654Y-90354976D01*
X115764070Y-90339070D01*
X115779976Y-90324654D01*
X115797219Y-90311866D01*
X115815632Y-90300830D01*
X115835038Y-90291651D01*
X115855250Y-90284419D01*
X115876074Y-90279203D01*
X115897309Y-90276053D01*
X115918750Y-90275000D01*
X116356250Y-90275000D01*
X116377691Y-90276053D01*
X116377691Y-90276053D01*
G37*
D11*
X116137500Y-90750000D03*
D10*
G36*
X102027691Y-98526053D02*
G01*
X102048926Y-98529203D01*
X102069750Y-98534419D01*
X102089962Y-98541651D01*
X102109368Y-98550830D01*
X102127781Y-98561866D01*
X102145024Y-98574654D01*
X102160930Y-98589070D01*
X102175346Y-98604976D01*
X102188134Y-98622219D01*
X102199170Y-98640632D01*
X102208349Y-98660038D01*
X102215581Y-98680250D01*
X102220797Y-98701074D01*
X102223947Y-98722309D01*
X102225000Y-98743750D01*
X102225000Y-99256250D01*
X102223947Y-99277691D01*
X102220797Y-99298926D01*
X102215581Y-99319750D01*
X102208349Y-99339962D01*
X102199170Y-99359368D01*
X102188134Y-99377781D01*
X102175346Y-99395024D01*
X102160930Y-99410930D01*
X102145024Y-99425346D01*
X102127781Y-99438134D01*
X102109368Y-99449170D01*
X102089962Y-99458349D01*
X102069750Y-99465581D01*
X102048926Y-99470797D01*
X102027691Y-99473947D01*
X102006250Y-99475000D01*
X101568750Y-99475000D01*
X101547309Y-99473947D01*
X101526074Y-99470797D01*
X101505250Y-99465581D01*
X101485038Y-99458349D01*
X101465632Y-99449170D01*
X101447219Y-99438134D01*
X101429976Y-99425346D01*
X101414070Y-99410930D01*
X101399654Y-99395024D01*
X101386866Y-99377781D01*
X101375830Y-99359368D01*
X101366651Y-99339962D01*
X101359419Y-99319750D01*
X101354203Y-99298926D01*
X101351053Y-99277691D01*
X101350000Y-99256250D01*
X101350000Y-98743750D01*
X101351053Y-98722309D01*
X101354203Y-98701074D01*
X101359419Y-98680250D01*
X101366651Y-98660038D01*
X101375830Y-98640632D01*
X101386866Y-98622219D01*
X101399654Y-98604976D01*
X101414070Y-98589070D01*
X101429976Y-98574654D01*
X101447219Y-98561866D01*
X101465632Y-98550830D01*
X101485038Y-98541651D01*
X101505250Y-98534419D01*
X101526074Y-98529203D01*
X101547309Y-98526053D01*
X101568750Y-98525000D01*
X102006250Y-98525000D01*
X102027691Y-98526053D01*
X102027691Y-98526053D01*
G37*
D11*
X101787500Y-99000000D03*
D10*
G36*
X100452691Y-98526053D02*
G01*
X100473926Y-98529203D01*
X100494750Y-98534419D01*
X100514962Y-98541651D01*
X100534368Y-98550830D01*
X100552781Y-98561866D01*
X100570024Y-98574654D01*
X100585930Y-98589070D01*
X100600346Y-98604976D01*
X100613134Y-98622219D01*
X100624170Y-98640632D01*
X100633349Y-98660038D01*
X100640581Y-98680250D01*
X100645797Y-98701074D01*
X100648947Y-98722309D01*
X100650000Y-98743750D01*
X100650000Y-99256250D01*
X100648947Y-99277691D01*
X100645797Y-99298926D01*
X100640581Y-99319750D01*
X100633349Y-99339962D01*
X100624170Y-99359368D01*
X100613134Y-99377781D01*
X100600346Y-99395024D01*
X100585930Y-99410930D01*
X100570024Y-99425346D01*
X100552781Y-99438134D01*
X100534368Y-99449170D01*
X100514962Y-99458349D01*
X100494750Y-99465581D01*
X100473926Y-99470797D01*
X100452691Y-99473947D01*
X100431250Y-99475000D01*
X99993750Y-99475000D01*
X99972309Y-99473947D01*
X99951074Y-99470797D01*
X99930250Y-99465581D01*
X99910038Y-99458349D01*
X99890632Y-99449170D01*
X99872219Y-99438134D01*
X99854976Y-99425346D01*
X99839070Y-99410930D01*
X99824654Y-99395024D01*
X99811866Y-99377781D01*
X99800830Y-99359368D01*
X99791651Y-99339962D01*
X99784419Y-99319750D01*
X99779203Y-99298926D01*
X99776053Y-99277691D01*
X99775000Y-99256250D01*
X99775000Y-98743750D01*
X99776053Y-98722309D01*
X99779203Y-98701074D01*
X99784419Y-98680250D01*
X99791651Y-98660038D01*
X99800830Y-98640632D01*
X99811866Y-98622219D01*
X99824654Y-98604976D01*
X99839070Y-98589070D01*
X99854976Y-98574654D01*
X99872219Y-98561866D01*
X99890632Y-98550830D01*
X99910038Y-98541651D01*
X99930250Y-98534419D01*
X99951074Y-98529203D01*
X99972309Y-98526053D01*
X99993750Y-98525000D01*
X100431250Y-98525000D01*
X100452691Y-98526053D01*
X100452691Y-98526053D01*
G37*
D11*
X100212500Y-99000000D03*
D10*
G36*
X101396958Y-99930710D02*
G01*
X101411276Y-99932834D01*
X101425317Y-99936351D01*
X101438946Y-99941228D01*
X101452031Y-99947417D01*
X101464447Y-99954858D01*
X101476073Y-99963481D01*
X101486798Y-99973202D01*
X101496519Y-99983927D01*
X101505142Y-99995553D01*
X101512583Y-100007969D01*
X101518772Y-100021054D01*
X101523649Y-100034683D01*
X101527166Y-100048724D01*
X101529290Y-100063042D01*
X101530000Y-100077500D01*
X101530000Y-100422500D01*
X101529290Y-100436958D01*
X101527166Y-100451276D01*
X101523649Y-100465317D01*
X101518772Y-100478946D01*
X101512583Y-100492031D01*
X101505142Y-100504447D01*
X101496519Y-100516073D01*
X101486798Y-100526798D01*
X101476073Y-100536519D01*
X101464447Y-100545142D01*
X101452031Y-100552583D01*
X101438946Y-100558772D01*
X101425317Y-100563649D01*
X101411276Y-100567166D01*
X101396958Y-100569290D01*
X101382500Y-100570000D01*
X101087500Y-100570000D01*
X101073042Y-100569290D01*
X101058724Y-100567166D01*
X101044683Y-100563649D01*
X101031054Y-100558772D01*
X101017969Y-100552583D01*
X101005553Y-100545142D01*
X100993927Y-100536519D01*
X100983202Y-100526798D01*
X100973481Y-100516073D01*
X100964858Y-100504447D01*
X100957417Y-100492031D01*
X100951228Y-100478946D01*
X100946351Y-100465317D01*
X100942834Y-100451276D01*
X100940710Y-100436958D01*
X100940000Y-100422500D01*
X100940000Y-100077500D01*
X100940710Y-100063042D01*
X100942834Y-100048724D01*
X100946351Y-100034683D01*
X100951228Y-100021054D01*
X100957417Y-100007969D01*
X100964858Y-99995553D01*
X100973481Y-99983927D01*
X100983202Y-99973202D01*
X100993927Y-99963481D01*
X101005553Y-99954858D01*
X101017969Y-99947417D01*
X101031054Y-99941228D01*
X101044683Y-99936351D01*
X101058724Y-99932834D01*
X101073042Y-99930710D01*
X101087500Y-99930000D01*
X101382500Y-99930000D01*
X101396958Y-99930710D01*
X101396958Y-99930710D01*
G37*
D15*
X101235000Y-100250000D03*
D10*
G36*
X100426958Y-99930710D02*
G01*
X100441276Y-99932834D01*
X100455317Y-99936351D01*
X100468946Y-99941228D01*
X100482031Y-99947417D01*
X100494447Y-99954858D01*
X100506073Y-99963481D01*
X100516798Y-99973202D01*
X100526519Y-99983927D01*
X100535142Y-99995553D01*
X100542583Y-100007969D01*
X100548772Y-100021054D01*
X100553649Y-100034683D01*
X100557166Y-100048724D01*
X100559290Y-100063042D01*
X100560000Y-100077500D01*
X100560000Y-100422500D01*
X100559290Y-100436958D01*
X100557166Y-100451276D01*
X100553649Y-100465317D01*
X100548772Y-100478946D01*
X100542583Y-100492031D01*
X100535142Y-100504447D01*
X100526519Y-100516073D01*
X100516798Y-100526798D01*
X100506073Y-100536519D01*
X100494447Y-100545142D01*
X100482031Y-100552583D01*
X100468946Y-100558772D01*
X100455317Y-100563649D01*
X100441276Y-100567166D01*
X100426958Y-100569290D01*
X100412500Y-100570000D01*
X100117500Y-100570000D01*
X100103042Y-100569290D01*
X100088724Y-100567166D01*
X100074683Y-100563649D01*
X100061054Y-100558772D01*
X100047969Y-100552583D01*
X100035553Y-100545142D01*
X100023927Y-100536519D01*
X100013202Y-100526798D01*
X100003481Y-100516073D01*
X99994858Y-100504447D01*
X99987417Y-100492031D01*
X99981228Y-100478946D01*
X99976351Y-100465317D01*
X99972834Y-100451276D01*
X99970710Y-100436958D01*
X99970000Y-100422500D01*
X99970000Y-100077500D01*
X99970710Y-100063042D01*
X99972834Y-100048724D01*
X99976351Y-100034683D01*
X99981228Y-100021054D01*
X99987417Y-100007969D01*
X99994858Y-99995553D01*
X100003481Y-99983927D01*
X100013202Y-99973202D01*
X100023927Y-99963481D01*
X100035553Y-99954858D01*
X100047969Y-99947417D01*
X100061054Y-99941228D01*
X100074683Y-99936351D01*
X100088724Y-99932834D01*
X100103042Y-99930710D01*
X100117500Y-99930000D01*
X100412500Y-99930000D01*
X100426958Y-99930710D01*
X100426958Y-99930710D01*
G37*
D15*
X100265000Y-100250000D03*
D10*
G36*
X88676958Y-103930710D02*
G01*
X88691276Y-103932834D01*
X88705317Y-103936351D01*
X88718946Y-103941228D01*
X88732031Y-103947417D01*
X88744447Y-103954858D01*
X88756073Y-103963481D01*
X88766798Y-103973202D01*
X88776519Y-103983927D01*
X88785142Y-103995553D01*
X88792583Y-104007969D01*
X88798772Y-104021054D01*
X88803649Y-104034683D01*
X88807166Y-104048724D01*
X88809290Y-104063042D01*
X88810000Y-104077500D01*
X88810000Y-104422500D01*
X88809290Y-104436958D01*
X88807166Y-104451276D01*
X88803649Y-104465317D01*
X88798772Y-104478946D01*
X88792583Y-104492031D01*
X88785142Y-104504447D01*
X88776519Y-104516073D01*
X88766798Y-104526798D01*
X88756073Y-104536519D01*
X88744447Y-104545142D01*
X88732031Y-104552583D01*
X88718946Y-104558772D01*
X88705317Y-104563649D01*
X88691276Y-104567166D01*
X88676958Y-104569290D01*
X88662500Y-104570000D01*
X88367500Y-104570000D01*
X88353042Y-104569290D01*
X88338724Y-104567166D01*
X88324683Y-104563649D01*
X88311054Y-104558772D01*
X88297969Y-104552583D01*
X88285553Y-104545142D01*
X88273927Y-104536519D01*
X88263202Y-104526798D01*
X88253481Y-104516073D01*
X88244858Y-104504447D01*
X88237417Y-104492031D01*
X88231228Y-104478946D01*
X88226351Y-104465317D01*
X88222834Y-104451276D01*
X88220710Y-104436958D01*
X88220000Y-104422500D01*
X88220000Y-104077500D01*
X88220710Y-104063042D01*
X88222834Y-104048724D01*
X88226351Y-104034683D01*
X88231228Y-104021054D01*
X88237417Y-104007969D01*
X88244858Y-103995553D01*
X88253481Y-103983927D01*
X88263202Y-103973202D01*
X88273927Y-103963481D01*
X88285553Y-103954858D01*
X88297969Y-103947417D01*
X88311054Y-103941228D01*
X88324683Y-103936351D01*
X88338724Y-103932834D01*
X88353042Y-103930710D01*
X88367500Y-103930000D01*
X88662500Y-103930000D01*
X88676958Y-103930710D01*
X88676958Y-103930710D01*
G37*
D15*
X88515000Y-104250000D03*
D10*
G36*
X89646958Y-103930710D02*
G01*
X89661276Y-103932834D01*
X89675317Y-103936351D01*
X89688946Y-103941228D01*
X89702031Y-103947417D01*
X89714447Y-103954858D01*
X89726073Y-103963481D01*
X89736798Y-103973202D01*
X89746519Y-103983927D01*
X89755142Y-103995553D01*
X89762583Y-104007969D01*
X89768772Y-104021054D01*
X89773649Y-104034683D01*
X89777166Y-104048724D01*
X89779290Y-104063042D01*
X89780000Y-104077500D01*
X89780000Y-104422500D01*
X89779290Y-104436958D01*
X89777166Y-104451276D01*
X89773649Y-104465317D01*
X89768772Y-104478946D01*
X89762583Y-104492031D01*
X89755142Y-104504447D01*
X89746519Y-104516073D01*
X89736798Y-104526798D01*
X89726073Y-104536519D01*
X89714447Y-104545142D01*
X89702031Y-104552583D01*
X89688946Y-104558772D01*
X89675317Y-104563649D01*
X89661276Y-104567166D01*
X89646958Y-104569290D01*
X89632500Y-104570000D01*
X89337500Y-104570000D01*
X89323042Y-104569290D01*
X89308724Y-104567166D01*
X89294683Y-104563649D01*
X89281054Y-104558772D01*
X89267969Y-104552583D01*
X89255553Y-104545142D01*
X89243927Y-104536519D01*
X89233202Y-104526798D01*
X89223481Y-104516073D01*
X89214858Y-104504447D01*
X89207417Y-104492031D01*
X89201228Y-104478946D01*
X89196351Y-104465317D01*
X89192834Y-104451276D01*
X89190710Y-104436958D01*
X89190000Y-104422500D01*
X89190000Y-104077500D01*
X89190710Y-104063042D01*
X89192834Y-104048724D01*
X89196351Y-104034683D01*
X89201228Y-104021054D01*
X89207417Y-104007969D01*
X89214858Y-103995553D01*
X89223481Y-103983927D01*
X89233202Y-103973202D01*
X89243927Y-103963481D01*
X89255553Y-103954858D01*
X89267969Y-103947417D01*
X89281054Y-103941228D01*
X89294683Y-103936351D01*
X89308724Y-103932834D01*
X89323042Y-103930710D01*
X89337500Y-103930000D01*
X89632500Y-103930000D01*
X89646958Y-103930710D01*
X89646958Y-103930710D01*
G37*
D15*
X89485000Y-104250000D03*
D10*
G36*
X88676958Y-102930710D02*
G01*
X88691276Y-102932834D01*
X88705317Y-102936351D01*
X88718946Y-102941228D01*
X88732031Y-102947417D01*
X88744447Y-102954858D01*
X88756073Y-102963481D01*
X88766798Y-102973202D01*
X88776519Y-102983927D01*
X88785142Y-102995553D01*
X88792583Y-103007969D01*
X88798772Y-103021054D01*
X88803649Y-103034683D01*
X88807166Y-103048724D01*
X88809290Y-103063042D01*
X88810000Y-103077500D01*
X88810000Y-103422500D01*
X88809290Y-103436958D01*
X88807166Y-103451276D01*
X88803649Y-103465317D01*
X88798772Y-103478946D01*
X88792583Y-103492031D01*
X88785142Y-103504447D01*
X88776519Y-103516073D01*
X88766798Y-103526798D01*
X88756073Y-103536519D01*
X88744447Y-103545142D01*
X88732031Y-103552583D01*
X88718946Y-103558772D01*
X88705317Y-103563649D01*
X88691276Y-103567166D01*
X88676958Y-103569290D01*
X88662500Y-103570000D01*
X88367500Y-103570000D01*
X88353042Y-103569290D01*
X88338724Y-103567166D01*
X88324683Y-103563649D01*
X88311054Y-103558772D01*
X88297969Y-103552583D01*
X88285553Y-103545142D01*
X88273927Y-103536519D01*
X88263202Y-103526798D01*
X88253481Y-103516073D01*
X88244858Y-103504447D01*
X88237417Y-103492031D01*
X88231228Y-103478946D01*
X88226351Y-103465317D01*
X88222834Y-103451276D01*
X88220710Y-103436958D01*
X88220000Y-103422500D01*
X88220000Y-103077500D01*
X88220710Y-103063042D01*
X88222834Y-103048724D01*
X88226351Y-103034683D01*
X88231228Y-103021054D01*
X88237417Y-103007969D01*
X88244858Y-102995553D01*
X88253481Y-102983927D01*
X88263202Y-102973202D01*
X88273927Y-102963481D01*
X88285553Y-102954858D01*
X88297969Y-102947417D01*
X88311054Y-102941228D01*
X88324683Y-102936351D01*
X88338724Y-102932834D01*
X88353042Y-102930710D01*
X88367500Y-102930000D01*
X88662500Y-102930000D01*
X88676958Y-102930710D01*
X88676958Y-102930710D01*
G37*
D15*
X88515000Y-103250000D03*
D10*
G36*
X89646958Y-102930710D02*
G01*
X89661276Y-102932834D01*
X89675317Y-102936351D01*
X89688946Y-102941228D01*
X89702031Y-102947417D01*
X89714447Y-102954858D01*
X89726073Y-102963481D01*
X89736798Y-102973202D01*
X89746519Y-102983927D01*
X89755142Y-102995553D01*
X89762583Y-103007969D01*
X89768772Y-103021054D01*
X89773649Y-103034683D01*
X89777166Y-103048724D01*
X89779290Y-103063042D01*
X89780000Y-103077500D01*
X89780000Y-103422500D01*
X89779290Y-103436958D01*
X89777166Y-103451276D01*
X89773649Y-103465317D01*
X89768772Y-103478946D01*
X89762583Y-103492031D01*
X89755142Y-103504447D01*
X89746519Y-103516073D01*
X89736798Y-103526798D01*
X89726073Y-103536519D01*
X89714447Y-103545142D01*
X89702031Y-103552583D01*
X89688946Y-103558772D01*
X89675317Y-103563649D01*
X89661276Y-103567166D01*
X89646958Y-103569290D01*
X89632500Y-103570000D01*
X89337500Y-103570000D01*
X89323042Y-103569290D01*
X89308724Y-103567166D01*
X89294683Y-103563649D01*
X89281054Y-103558772D01*
X89267969Y-103552583D01*
X89255553Y-103545142D01*
X89243927Y-103536519D01*
X89233202Y-103526798D01*
X89223481Y-103516073D01*
X89214858Y-103504447D01*
X89207417Y-103492031D01*
X89201228Y-103478946D01*
X89196351Y-103465317D01*
X89192834Y-103451276D01*
X89190710Y-103436958D01*
X89190000Y-103422500D01*
X89190000Y-103077500D01*
X89190710Y-103063042D01*
X89192834Y-103048724D01*
X89196351Y-103034683D01*
X89201228Y-103021054D01*
X89207417Y-103007969D01*
X89214858Y-102995553D01*
X89223481Y-102983927D01*
X89233202Y-102973202D01*
X89243927Y-102963481D01*
X89255553Y-102954858D01*
X89267969Y-102947417D01*
X89281054Y-102941228D01*
X89294683Y-102936351D01*
X89308724Y-102932834D01*
X89323042Y-102930710D01*
X89337500Y-102930000D01*
X89632500Y-102930000D01*
X89646958Y-102930710D01*
X89646958Y-102930710D01*
G37*
D15*
X89485000Y-103250000D03*
D10*
G36*
X88676958Y-101430710D02*
G01*
X88691276Y-101432834D01*
X88705317Y-101436351D01*
X88718946Y-101441228D01*
X88732031Y-101447417D01*
X88744447Y-101454858D01*
X88756073Y-101463481D01*
X88766798Y-101473202D01*
X88776519Y-101483927D01*
X88785142Y-101495553D01*
X88792583Y-101507969D01*
X88798772Y-101521054D01*
X88803649Y-101534683D01*
X88807166Y-101548724D01*
X88809290Y-101563042D01*
X88810000Y-101577500D01*
X88810000Y-101922500D01*
X88809290Y-101936958D01*
X88807166Y-101951276D01*
X88803649Y-101965317D01*
X88798772Y-101978946D01*
X88792583Y-101992031D01*
X88785142Y-102004447D01*
X88776519Y-102016073D01*
X88766798Y-102026798D01*
X88756073Y-102036519D01*
X88744447Y-102045142D01*
X88732031Y-102052583D01*
X88718946Y-102058772D01*
X88705317Y-102063649D01*
X88691276Y-102067166D01*
X88676958Y-102069290D01*
X88662500Y-102070000D01*
X88367500Y-102070000D01*
X88353042Y-102069290D01*
X88338724Y-102067166D01*
X88324683Y-102063649D01*
X88311054Y-102058772D01*
X88297969Y-102052583D01*
X88285553Y-102045142D01*
X88273927Y-102036519D01*
X88263202Y-102026798D01*
X88253481Y-102016073D01*
X88244858Y-102004447D01*
X88237417Y-101992031D01*
X88231228Y-101978946D01*
X88226351Y-101965317D01*
X88222834Y-101951276D01*
X88220710Y-101936958D01*
X88220000Y-101922500D01*
X88220000Y-101577500D01*
X88220710Y-101563042D01*
X88222834Y-101548724D01*
X88226351Y-101534683D01*
X88231228Y-101521054D01*
X88237417Y-101507969D01*
X88244858Y-101495553D01*
X88253481Y-101483927D01*
X88263202Y-101473202D01*
X88273927Y-101463481D01*
X88285553Y-101454858D01*
X88297969Y-101447417D01*
X88311054Y-101441228D01*
X88324683Y-101436351D01*
X88338724Y-101432834D01*
X88353042Y-101430710D01*
X88367500Y-101430000D01*
X88662500Y-101430000D01*
X88676958Y-101430710D01*
X88676958Y-101430710D01*
G37*
D15*
X88515000Y-101750000D03*
D10*
G36*
X89646958Y-101430710D02*
G01*
X89661276Y-101432834D01*
X89675317Y-101436351D01*
X89688946Y-101441228D01*
X89702031Y-101447417D01*
X89714447Y-101454858D01*
X89726073Y-101463481D01*
X89736798Y-101473202D01*
X89746519Y-101483927D01*
X89755142Y-101495553D01*
X89762583Y-101507969D01*
X89768772Y-101521054D01*
X89773649Y-101534683D01*
X89777166Y-101548724D01*
X89779290Y-101563042D01*
X89780000Y-101577500D01*
X89780000Y-101922500D01*
X89779290Y-101936958D01*
X89777166Y-101951276D01*
X89773649Y-101965317D01*
X89768772Y-101978946D01*
X89762583Y-101992031D01*
X89755142Y-102004447D01*
X89746519Y-102016073D01*
X89736798Y-102026798D01*
X89726073Y-102036519D01*
X89714447Y-102045142D01*
X89702031Y-102052583D01*
X89688946Y-102058772D01*
X89675317Y-102063649D01*
X89661276Y-102067166D01*
X89646958Y-102069290D01*
X89632500Y-102070000D01*
X89337500Y-102070000D01*
X89323042Y-102069290D01*
X89308724Y-102067166D01*
X89294683Y-102063649D01*
X89281054Y-102058772D01*
X89267969Y-102052583D01*
X89255553Y-102045142D01*
X89243927Y-102036519D01*
X89233202Y-102026798D01*
X89223481Y-102016073D01*
X89214858Y-102004447D01*
X89207417Y-101992031D01*
X89201228Y-101978946D01*
X89196351Y-101965317D01*
X89192834Y-101951276D01*
X89190710Y-101936958D01*
X89190000Y-101922500D01*
X89190000Y-101577500D01*
X89190710Y-101563042D01*
X89192834Y-101548724D01*
X89196351Y-101534683D01*
X89201228Y-101521054D01*
X89207417Y-101507969D01*
X89214858Y-101495553D01*
X89223481Y-101483927D01*
X89233202Y-101473202D01*
X89243927Y-101463481D01*
X89255553Y-101454858D01*
X89267969Y-101447417D01*
X89281054Y-101441228D01*
X89294683Y-101436351D01*
X89308724Y-101432834D01*
X89323042Y-101430710D01*
X89337500Y-101430000D01*
X89632500Y-101430000D01*
X89646958Y-101430710D01*
X89646958Y-101430710D01*
G37*
D15*
X89485000Y-101750000D03*
D10*
G36*
X88676958Y-100430710D02*
G01*
X88691276Y-100432834D01*
X88705317Y-100436351D01*
X88718946Y-100441228D01*
X88732031Y-100447417D01*
X88744447Y-100454858D01*
X88756073Y-100463481D01*
X88766798Y-100473202D01*
X88776519Y-100483927D01*
X88785142Y-100495553D01*
X88792583Y-100507969D01*
X88798772Y-100521054D01*
X88803649Y-100534683D01*
X88807166Y-100548724D01*
X88809290Y-100563042D01*
X88810000Y-100577500D01*
X88810000Y-100922500D01*
X88809290Y-100936958D01*
X88807166Y-100951276D01*
X88803649Y-100965317D01*
X88798772Y-100978946D01*
X88792583Y-100992031D01*
X88785142Y-101004447D01*
X88776519Y-101016073D01*
X88766798Y-101026798D01*
X88756073Y-101036519D01*
X88744447Y-101045142D01*
X88732031Y-101052583D01*
X88718946Y-101058772D01*
X88705317Y-101063649D01*
X88691276Y-101067166D01*
X88676958Y-101069290D01*
X88662500Y-101070000D01*
X88367500Y-101070000D01*
X88353042Y-101069290D01*
X88338724Y-101067166D01*
X88324683Y-101063649D01*
X88311054Y-101058772D01*
X88297969Y-101052583D01*
X88285553Y-101045142D01*
X88273927Y-101036519D01*
X88263202Y-101026798D01*
X88253481Y-101016073D01*
X88244858Y-101004447D01*
X88237417Y-100992031D01*
X88231228Y-100978946D01*
X88226351Y-100965317D01*
X88222834Y-100951276D01*
X88220710Y-100936958D01*
X88220000Y-100922500D01*
X88220000Y-100577500D01*
X88220710Y-100563042D01*
X88222834Y-100548724D01*
X88226351Y-100534683D01*
X88231228Y-100521054D01*
X88237417Y-100507969D01*
X88244858Y-100495553D01*
X88253481Y-100483927D01*
X88263202Y-100473202D01*
X88273927Y-100463481D01*
X88285553Y-100454858D01*
X88297969Y-100447417D01*
X88311054Y-100441228D01*
X88324683Y-100436351D01*
X88338724Y-100432834D01*
X88353042Y-100430710D01*
X88367500Y-100430000D01*
X88662500Y-100430000D01*
X88676958Y-100430710D01*
X88676958Y-100430710D01*
G37*
D15*
X88515000Y-100750000D03*
D10*
G36*
X89646958Y-100430710D02*
G01*
X89661276Y-100432834D01*
X89675317Y-100436351D01*
X89688946Y-100441228D01*
X89702031Y-100447417D01*
X89714447Y-100454858D01*
X89726073Y-100463481D01*
X89736798Y-100473202D01*
X89746519Y-100483927D01*
X89755142Y-100495553D01*
X89762583Y-100507969D01*
X89768772Y-100521054D01*
X89773649Y-100534683D01*
X89777166Y-100548724D01*
X89779290Y-100563042D01*
X89780000Y-100577500D01*
X89780000Y-100922500D01*
X89779290Y-100936958D01*
X89777166Y-100951276D01*
X89773649Y-100965317D01*
X89768772Y-100978946D01*
X89762583Y-100992031D01*
X89755142Y-101004447D01*
X89746519Y-101016073D01*
X89736798Y-101026798D01*
X89726073Y-101036519D01*
X89714447Y-101045142D01*
X89702031Y-101052583D01*
X89688946Y-101058772D01*
X89675317Y-101063649D01*
X89661276Y-101067166D01*
X89646958Y-101069290D01*
X89632500Y-101070000D01*
X89337500Y-101070000D01*
X89323042Y-101069290D01*
X89308724Y-101067166D01*
X89294683Y-101063649D01*
X89281054Y-101058772D01*
X89267969Y-101052583D01*
X89255553Y-101045142D01*
X89243927Y-101036519D01*
X89233202Y-101026798D01*
X89223481Y-101016073D01*
X89214858Y-101004447D01*
X89207417Y-100992031D01*
X89201228Y-100978946D01*
X89196351Y-100965317D01*
X89192834Y-100951276D01*
X89190710Y-100936958D01*
X89190000Y-100922500D01*
X89190000Y-100577500D01*
X89190710Y-100563042D01*
X89192834Y-100548724D01*
X89196351Y-100534683D01*
X89201228Y-100521054D01*
X89207417Y-100507969D01*
X89214858Y-100495553D01*
X89223481Y-100483927D01*
X89233202Y-100473202D01*
X89243927Y-100463481D01*
X89255553Y-100454858D01*
X89267969Y-100447417D01*
X89281054Y-100441228D01*
X89294683Y-100436351D01*
X89308724Y-100432834D01*
X89323042Y-100430710D01*
X89337500Y-100430000D01*
X89632500Y-100430000D01*
X89646958Y-100430710D01*
X89646958Y-100430710D01*
G37*
D15*
X89485000Y-100750000D03*
D10*
G36*
X88676958Y-97930710D02*
G01*
X88691276Y-97932834D01*
X88705317Y-97936351D01*
X88718946Y-97941228D01*
X88732031Y-97947417D01*
X88744447Y-97954858D01*
X88756073Y-97963481D01*
X88766798Y-97973202D01*
X88776519Y-97983927D01*
X88785142Y-97995553D01*
X88792583Y-98007969D01*
X88798772Y-98021054D01*
X88803649Y-98034683D01*
X88807166Y-98048724D01*
X88809290Y-98063042D01*
X88810000Y-98077500D01*
X88810000Y-98422500D01*
X88809290Y-98436958D01*
X88807166Y-98451276D01*
X88803649Y-98465317D01*
X88798772Y-98478946D01*
X88792583Y-98492031D01*
X88785142Y-98504447D01*
X88776519Y-98516073D01*
X88766798Y-98526798D01*
X88756073Y-98536519D01*
X88744447Y-98545142D01*
X88732031Y-98552583D01*
X88718946Y-98558772D01*
X88705317Y-98563649D01*
X88691276Y-98567166D01*
X88676958Y-98569290D01*
X88662500Y-98570000D01*
X88367500Y-98570000D01*
X88353042Y-98569290D01*
X88338724Y-98567166D01*
X88324683Y-98563649D01*
X88311054Y-98558772D01*
X88297969Y-98552583D01*
X88285553Y-98545142D01*
X88273927Y-98536519D01*
X88263202Y-98526798D01*
X88253481Y-98516073D01*
X88244858Y-98504447D01*
X88237417Y-98492031D01*
X88231228Y-98478946D01*
X88226351Y-98465317D01*
X88222834Y-98451276D01*
X88220710Y-98436958D01*
X88220000Y-98422500D01*
X88220000Y-98077500D01*
X88220710Y-98063042D01*
X88222834Y-98048724D01*
X88226351Y-98034683D01*
X88231228Y-98021054D01*
X88237417Y-98007969D01*
X88244858Y-97995553D01*
X88253481Y-97983927D01*
X88263202Y-97973202D01*
X88273927Y-97963481D01*
X88285553Y-97954858D01*
X88297969Y-97947417D01*
X88311054Y-97941228D01*
X88324683Y-97936351D01*
X88338724Y-97932834D01*
X88353042Y-97930710D01*
X88367500Y-97930000D01*
X88662500Y-97930000D01*
X88676958Y-97930710D01*
X88676958Y-97930710D01*
G37*
D15*
X88515000Y-98250000D03*
D10*
G36*
X89646958Y-97930710D02*
G01*
X89661276Y-97932834D01*
X89675317Y-97936351D01*
X89688946Y-97941228D01*
X89702031Y-97947417D01*
X89714447Y-97954858D01*
X89726073Y-97963481D01*
X89736798Y-97973202D01*
X89746519Y-97983927D01*
X89755142Y-97995553D01*
X89762583Y-98007969D01*
X89768772Y-98021054D01*
X89773649Y-98034683D01*
X89777166Y-98048724D01*
X89779290Y-98063042D01*
X89780000Y-98077500D01*
X89780000Y-98422500D01*
X89779290Y-98436958D01*
X89777166Y-98451276D01*
X89773649Y-98465317D01*
X89768772Y-98478946D01*
X89762583Y-98492031D01*
X89755142Y-98504447D01*
X89746519Y-98516073D01*
X89736798Y-98526798D01*
X89726073Y-98536519D01*
X89714447Y-98545142D01*
X89702031Y-98552583D01*
X89688946Y-98558772D01*
X89675317Y-98563649D01*
X89661276Y-98567166D01*
X89646958Y-98569290D01*
X89632500Y-98570000D01*
X89337500Y-98570000D01*
X89323042Y-98569290D01*
X89308724Y-98567166D01*
X89294683Y-98563649D01*
X89281054Y-98558772D01*
X89267969Y-98552583D01*
X89255553Y-98545142D01*
X89243927Y-98536519D01*
X89233202Y-98526798D01*
X89223481Y-98516073D01*
X89214858Y-98504447D01*
X89207417Y-98492031D01*
X89201228Y-98478946D01*
X89196351Y-98465317D01*
X89192834Y-98451276D01*
X89190710Y-98436958D01*
X89190000Y-98422500D01*
X89190000Y-98077500D01*
X89190710Y-98063042D01*
X89192834Y-98048724D01*
X89196351Y-98034683D01*
X89201228Y-98021054D01*
X89207417Y-98007969D01*
X89214858Y-97995553D01*
X89223481Y-97983927D01*
X89233202Y-97973202D01*
X89243927Y-97963481D01*
X89255553Y-97954858D01*
X89267969Y-97947417D01*
X89281054Y-97941228D01*
X89294683Y-97936351D01*
X89308724Y-97932834D01*
X89323042Y-97930710D01*
X89337500Y-97930000D01*
X89632500Y-97930000D01*
X89646958Y-97930710D01*
X89646958Y-97930710D01*
G37*
D15*
X89485000Y-98250000D03*
D10*
G36*
X88676958Y-98930710D02*
G01*
X88691276Y-98932834D01*
X88705317Y-98936351D01*
X88718946Y-98941228D01*
X88732031Y-98947417D01*
X88744447Y-98954858D01*
X88756073Y-98963481D01*
X88766798Y-98973202D01*
X88776519Y-98983927D01*
X88785142Y-98995553D01*
X88792583Y-99007969D01*
X88798772Y-99021054D01*
X88803649Y-99034683D01*
X88807166Y-99048724D01*
X88809290Y-99063042D01*
X88810000Y-99077500D01*
X88810000Y-99422500D01*
X88809290Y-99436958D01*
X88807166Y-99451276D01*
X88803649Y-99465317D01*
X88798772Y-99478946D01*
X88792583Y-99492031D01*
X88785142Y-99504447D01*
X88776519Y-99516073D01*
X88766798Y-99526798D01*
X88756073Y-99536519D01*
X88744447Y-99545142D01*
X88732031Y-99552583D01*
X88718946Y-99558772D01*
X88705317Y-99563649D01*
X88691276Y-99567166D01*
X88676958Y-99569290D01*
X88662500Y-99570000D01*
X88367500Y-99570000D01*
X88353042Y-99569290D01*
X88338724Y-99567166D01*
X88324683Y-99563649D01*
X88311054Y-99558772D01*
X88297969Y-99552583D01*
X88285553Y-99545142D01*
X88273927Y-99536519D01*
X88263202Y-99526798D01*
X88253481Y-99516073D01*
X88244858Y-99504447D01*
X88237417Y-99492031D01*
X88231228Y-99478946D01*
X88226351Y-99465317D01*
X88222834Y-99451276D01*
X88220710Y-99436958D01*
X88220000Y-99422500D01*
X88220000Y-99077500D01*
X88220710Y-99063042D01*
X88222834Y-99048724D01*
X88226351Y-99034683D01*
X88231228Y-99021054D01*
X88237417Y-99007969D01*
X88244858Y-98995553D01*
X88253481Y-98983927D01*
X88263202Y-98973202D01*
X88273927Y-98963481D01*
X88285553Y-98954858D01*
X88297969Y-98947417D01*
X88311054Y-98941228D01*
X88324683Y-98936351D01*
X88338724Y-98932834D01*
X88353042Y-98930710D01*
X88367500Y-98930000D01*
X88662500Y-98930000D01*
X88676958Y-98930710D01*
X88676958Y-98930710D01*
G37*
D15*
X88515000Y-99250000D03*
D10*
G36*
X89646958Y-98930710D02*
G01*
X89661276Y-98932834D01*
X89675317Y-98936351D01*
X89688946Y-98941228D01*
X89702031Y-98947417D01*
X89714447Y-98954858D01*
X89726073Y-98963481D01*
X89736798Y-98973202D01*
X89746519Y-98983927D01*
X89755142Y-98995553D01*
X89762583Y-99007969D01*
X89768772Y-99021054D01*
X89773649Y-99034683D01*
X89777166Y-99048724D01*
X89779290Y-99063042D01*
X89780000Y-99077500D01*
X89780000Y-99422500D01*
X89779290Y-99436958D01*
X89777166Y-99451276D01*
X89773649Y-99465317D01*
X89768772Y-99478946D01*
X89762583Y-99492031D01*
X89755142Y-99504447D01*
X89746519Y-99516073D01*
X89736798Y-99526798D01*
X89726073Y-99536519D01*
X89714447Y-99545142D01*
X89702031Y-99552583D01*
X89688946Y-99558772D01*
X89675317Y-99563649D01*
X89661276Y-99567166D01*
X89646958Y-99569290D01*
X89632500Y-99570000D01*
X89337500Y-99570000D01*
X89323042Y-99569290D01*
X89308724Y-99567166D01*
X89294683Y-99563649D01*
X89281054Y-99558772D01*
X89267969Y-99552583D01*
X89255553Y-99545142D01*
X89243927Y-99536519D01*
X89233202Y-99526798D01*
X89223481Y-99516073D01*
X89214858Y-99504447D01*
X89207417Y-99492031D01*
X89201228Y-99478946D01*
X89196351Y-99465317D01*
X89192834Y-99451276D01*
X89190710Y-99436958D01*
X89190000Y-99422500D01*
X89190000Y-99077500D01*
X89190710Y-99063042D01*
X89192834Y-99048724D01*
X89196351Y-99034683D01*
X89201228Y-99021054D01*
X89207417Y-99007969D01*
X89214858Y-98995553D01*
X89223481Y-98983927D01*
X89233202Y-98973202D01*
X89243927Y-98963481D01*
X89255553Y-98954858D01*
X89267969Y-98947417D01*
X89281054Y-98941228D01*
X89294683Y-98936351D01*
X89308724Y-98932834D01*
X89323042Y-98930710D01*
X89337500Y-98930000D01*
X89632500Y-98930000D01*
X89646958Y-98930710D01*
X89646958Y-98930710D01*
G37*
D15*
X89485000Y-99250000D03*
D10*
G36*
X88676958Y-95430710D02*
G01*
X88691276Y-95432834D01*
X88705317Y-95436351D01*
X88718946Y-95441228D01*
X88732031Y-95447417D01*
X88744447Y-95454858D01*
X88756073Y-95463481D01*
X88766798Y-95473202D01*
X88776519Y-95483927D01*
X88785142Y-95495553D01*
X88792583Y-95507969D01*
X88798772Y-95521054D01*
X88803649Y-95534683D01*
X88807166Y-95548724D01*
X88809290Y-95563042D01*
X88810000Y-95577500D01*
X88810000Y-95922500D01*
X88809290Y-95936958D01*
X88807166Y-95951276D01*
X88803649Y-95965317D01*
X88798772Y-95978946D01*
X88792583Y-95992031D01*
X88785142Y-96004447D01*
X88776519Y-96016073D01*
X88766798Y-96026798D01*
X88756073Y-96036519D01*
X88744447Y-96045142D01*
X88732031Y-96052583D01*
X88718946Y-96058772D01*
X88705317Y-96063649D01*
X88691276Y-96067166D01*
X88676958Y-96069290D01*
X88662500Y-96070000D01*
X88367500Y-96070000D01*
X88353042Y-96069290D01*
X88338724Y-96067166D01*
X88324683Y-96063649D01*
X88311054Y-96058772D01*
X88297969Y-96052583D01*
X88285553Y-96045142D01*
X88273927Y-96036519D01*
X88263202Y-96026798D01*
X88253481Y-96016073D01*
X88244858Y-96004447D01*
X88237417Y-95992031D01*
X88231228Y-95978946D01*
X88226351Y-95965317D01*
X88222834Y-95951276D01*
X88220710Y-95936958D01*
X88220000Y-95922500D01*
X88220000Y-95577500D01*
X88220710Y-95563042D01*
X88222834Y-95548724D01*
X88226351Y-95534683D01*
X88231228Y-95521054D01*
X88237417Y-95507969D01*
X88244858Y-95495553D01*
X88253481Y-95483927D01*
X88263202Y-95473202D01*
X88273927Y-95463481D01*
X88285553Y-95454858D01*
X88297969Y-95447417D01*
X88311054Y-95441228D01*
X88324683Y-95436351D01*
X88338724Y-95432834D01*
X88353042Y-95430710D01*
X88367500Y-95430000D01*
X88662500Y-95430000D01*
X88676958Y-95430710D01*
X88676958Y-95430710D01*
G37*
D15*
X88515000Y-95750000D03*
D10*
G36*
X89646958Y-95430710D02*
G01*
X89661276Y-95432834D01*
X89675317Y-95436351D01*
X89688946Y-95441228D01*
X89702031Y-95447417D01*
X89714447Y-95454858D01*
X89726073Y-95463481D01*
X89736798Y-95473202D01*
X89746519Y-95483927D01*
X89755142Y-95495553D01*
X89762583Y-95507969D01*
X89768772Y-95521054D01*
X89773649Y-95534683D01*
X89777166Y-95548724D01*
X89779290Y-95563042D01*
X89780000Y-95577500D01*
X89780000Y-95922500D01*
X89779290Y-95936958D01*
X89777166Y-95951276D01*
X89773649Y-95965317D01*
X89768772Y-95978946D01*
X89762583Y-95992031D01*
X89755142Y-96004447D01*
X89746519Y-96016073D01*
X89736798Y-96026798D01*
X89726073Y-96036519D01*
X89714447Y-96045142D01*
X89702031Y-96052583D01*
X89688946Y-96058772D01*
X89675317Y-96063649D01*
X89661276Y-96067166D01*
X89646958Y-96069290D01*
X89632500Y-96070000D01*
X89337500Y-96070000D01*
X89323042Y-96069290D01*
X89308724Y-96067166D01*
X89294683Y-96063649D01*
X89281054Y-96058772D01*
X89267969Y-96052583D01*
X89255553Y-96045142D01*
X89243927Y-96036519D01*
X89233202Y-96026798D01*
X89223481Y-96016073D01*
X89214858Y-96004447D01*
X89207417Y-95992031D01*
X89201228Y-95978946D01*
X89196351Y-95965317D01*
X89192834Y-95951276D01*
X89190710Y-95936958D01*
X89190000Y-95922500D01*
X89190000Y-95577500D01*
X89190710Y-95563042D01*
X89192834Y-95548724D01*
X89196351Y-95534683D01*
X89201228Y-95521054D01*
X89207417Y-95507969D01*
X89214858Y-95495553D01*
X89223481Y-95483927D01*
X89233202Y-95473202D01*
X89243927Y-95463481D01*
X89255553Y-95454858D01*
X89267969Y-95447417D01*
X89281054Y-95441228D01*
X89294683Y-95436351D01*
X89308724Y-95432834D01*
X89323042Y-95430710D01*
X89337500Y-95430000D01*
X89632500Y-95430000D01*
X89646958Y-95430710D01*
X89646958Y-95430710D01*
G37*
D15*
X89485000Y-95750000D03*
D10*
G36*
X88676958Y-96430710D02*
G01*
X88691276Y-96432834D01*
X88705317Y-96436351D01*
X88718946Y-96441228D01*
X88732031Y-96447417D01*
X88744447Y-96454858D01*
X88756073Y-96463481D01*
X88766798Y-96473202D01*
X88776519Y-96483927D01*
X88785142Y-96495553D01*
X88792583Y-96507969D01*
X88798772Y-96521054D01*
X88803649Y-96534683D01*
X88807166Y-96548724D01*
X88809290Y-96563042D01*
X88810000Y-96577500D01*
X88810000Y-96922500D01*
X88809290Y-96936958D01*
X88807166Y-96951276D01*
X88803649Y-96965317D01*
X88798772Y-96978946D01*
X88792583Y-96992031D01*
X88785142Y-97004447D01*
X88776519Y-97016073D01*
X88766798Y-97026798D01*
X88756073Y-97036519D01*
X88744447Y-97045142D01*
X88732031Y-97052583D01*
X88718946Y-97058772D01*
X88705317Y-97063649D01*
X88691276Y-97067166D01*
X88676958Y-97069290D01*
X88662500Y-97070000D01*
X88367500Y-97070000D01*
X88353042Y-97069290D01*
X88338724Y-97067166D01*
X88324683Y-97063649D01*
X88311054Y-97058772D01*
X88297969Y-97052583D01*
X88285553Y-97045142D01*
X88273927Y-97036519D01*
X88263202Y-97026798D01*
X88253481Y-97016073D01*
X88244858Y-97004447D01*
X88237417Y-96992031D01*
X88231228Y-96978946D01*
X88226351Y-96965317D01*
X88222834Y-96951276D01*
X88220710Y-96936958D01*
X88220000Y-96922500D01*
X88220000Y-96577500D01*
X88220710Y-96563042D01*
X88222834Y-96548724D01*
X88226351Y-96534683D01*
X88231228Y-96521054D01*
X88237417Y-96507969D01*
X88244858Y-96495553D01*
X88253481Y-96483927D01*
X88263202Y-96473202D01*
X88273927Y-96463481D01*
X88285553Y-96454858D01*
X88297969Y-96447417D01*
X88311054Y-96441228D01*
X88324683Y-96436351D01*
X88338724Y-96432834D01*
X88353042Y-96430710D01*
X88367500Y-96430000D01*
X88662500Y-96430000D01*
X88676958Y-96430710D01*
X88676958Y-96430710D01*
G37*
D15*
X88515000Y-96750000D03*
D10*
G36*
X89646958Y-96430710D02*
G01*
X89661276Y-96432834D01*
X89675317Y-96436351D01*
X89688946Y-96441228D01*
X89702031Y-96447417D01*
X89714447Y-96454858D01*
X89726073Y-96463481D01*
X89736798Y-96473202D01*
X89746519Y-96483927D01*
X89755142Y-96495553D01*
X89762583Y-96507969D01*
X89768772Y-96521054D01*
X89773649Y-96534683D01*
X89777166Y-96548724D01*
X89779290Y-96563042D01*
X89780000Y-96577500D01*
X89780000Y-96922500D01*
X89779290Y-96936958D01*
X89777166Y-96951276D01*
X89773649Y-96965317D01*
X89768772Y-96978946D01*
X89762583Y-96992031D01*
X89755142Y-97004447D01*
X89746519Y-97016073D01*
X89736798Y-97026798D01*
X89726073Y-97036519D01*
X89714447Y-97045142D01*
X89702031Y-97052583D01*
X89688946Y-97058772D01*
X89675317Y-97063649D01*
X89661276Y-97067166D01*
X89646958Y-97069290D01*
X89632500Y-97070000D01*
X89337500Y-97070000D01*
X89323042Y-97069290D01*
X89308724Y-97067166D01*
X89294683Y-97063649D01*
X89281054Y-97058772D01*
X89267969Y-97052583D01*
X89255553Y-97045142D01*
X89243927Y-97036519D01*
X89233202Y-97026798D01*
X89223481Y-97016073D01*
X89214858Y-97004447D01*
X89207417Y-96992031D01*
X89201228Y-96978946D01*
X89196351Y-96965317D01*
X89192834Y-96951276D01*
X89190710Y-96936958D01*
X89190000Y-96922500D01*
X89190000Y-96577500D01*
X89190710Y-96563042D01*
X89192834Y-96548724D01*
X89196351Y-96534683D01*
X89201228Y-96521054D01*
X89207417Y-96507969D01*
X89214858Y-96495553D01*
X89223481Y-96483927D01*
X89233202Y-96473202D01*
X89243927Y-96463481D01*
X89255553Y-96454858D01*
X89267969Y-96447417D01*
X89281054Y-96441228D01*
X89294683Y-96436351D01*
X89308724Y-96432834D01*
X89323042Y-96430710D01*
X89337500Y-96430000D01*
X89632500Y-96430000D01*
X89646958Y-96430710D01*
X89646958Y-96430710D01*
G37*
D15*
X89485000Y-96750000D03*
D16*
X84612500Y-104000000D03*
X84612500Y-103500000D03*
X85387500Y-104000000D03*
X85387500Y-103500000D03*
X85387500Y-102000000D03*
X85387500Y-102500000D03*
X84612500Y-102000000D03*
X84612500Y-102500000D03*
X84612500Y-103000000D03*
X85387500Y-103000000D03*
X84612500Y-98000000D03*
X84612500Y-97500000D03*
X85387500Y-98000000D03*
X85387500Y-97500000D03*
X85387500Y-96000000D03*
X85387500Y-96500000D03*
X84612500Y-96000000D03*
X84612500Y-96500000D03*
X84612500Y-97000000D03*
X85387500Y-97000000D03*
D17*
X80660000Y-97250000D03*
X80660000Y-97750000D03*
X80660000Y-98250000D03*
X80660000Y-98750000D03*
X80660000Y-99250000D03*
X80660000Y-99750000D03*
X80660000Y-100250000D03*
X80660000Y-102750000D03*
X80660000Y-101750000D03*
X80660000Y-101250000D03*
X80660000Y-100750000D03*
X80660000Y-102250000D03*
M02*
