G04 #@! TF.GenerationSoftware,KiCad,Pcbnew,5.1.2*
G04 #@! TF.CreationDate,2019-06-01T11:21:23+02:00*
G04 #@! TF.ProjectId,usb-c-breakout,7573622d-632d-4627-9265-616b6f75742e,rev?*
G04 #@! TF.SameCoordinates,Original*
G04 #@! TF.FileFunction,Legend,Bot*
G04 #@! TF.FilePolarity,Positive*
%FSLAX46Y46*%
G04 Gerber Fmt 4.6, Leading zero omitted, Abs format (unit mm)*
G04 Created by KiCad (PCBNEW 5.1.2) date 2019-06-01 11:21:23*
%MOMM*%
%LPD*%
G04 APERTURE LIST*
%ADD10C,0.120000*%
%ADD11C,0.150000*%
G04 APERTURE END LIST*
D10*
X115570000Y-86360000D02*
X115570000Y-88265000D01*
D11*
X115070000Y-89124404D02*
X115022380Y-89029166D01*
X115022380Y-88886309D01*
X115070000Y-88743452D01*
X115165238Y-88648214D01*
X115260476Y-88600595D01*
X115450952Y-88552976D01*
X115593809Y-88552976D01*
X115784285Y-88600595D01*
X115879523Y-88648214D01*
X115974761Y-88743452D01*
X116022380Y-88886309D01*
X116022380Y-88981547D01*
X115974761Y-89124404D01*
X115927142Y-89172023D01*
X115593809Y-89172023D01*
X115593809Y-88981547D01*
X116022380Y-89600595D02*
X115022380Y-89600595D01*
X116022380Y-90172023D01*
X115022380Y-90172023D01*
X116022380Y-90648214D02*
X115022380Y-90648214D01*
X115022380Y-90886309D01*
X115070000Y-91029166D01*
X115165238Y-91124404D01*
X115260476Y-91172023D01*
X115450952Y-91219642D01*
X115593809Y-91219642D01*
X115784285Y-91172023D01*
X115879523Y-91124404D01*
X115974761Y-91029166D01*
X116022380Y-90886309D01*
X116022380Y-90648214D01*
D10*
X113030000Y-86360000D02*
X113030000Y-88265000D01*
D11*
X112482380Y-88457738D02*
X113482380Y-88791071D01*
X112482380Y-89124404D01*
X113482380Y-89457738D02*
X112482380Y-89457738D01*
X112482380Y-89695833D01*
X112530000Y-89838690D01*
X112625238Y-89933928D01*
X112720476Y-89981547D01*
X112910952Y-90029166D01*
X113053809Y-90029166D01*
X113244285Y-89981547D01*
X113339523Y-89933928D01*
X113434761Y-89838690D01*
X113482380Y-89695833D01*
X113482380Y-89457738D01*
X113482380Y-90457738D02*
X112482380Y-90457738D01*
X112482380Y-90695833D01*
X112530000Y-90838690D01*
X112625238Y-90933928D01*
X112720476Y-90981547D01*
X112910952Y-91029166D01*
X113053809Y-91029166D01*
X113244285Y-90981547D01*
X113339523Y-90933928D01*
X113434761Y-90838690D01*
X113482380Y-90695833D01*
X113482380Y-90457738D01*
D10*
X101600000Y-88265000D02*
X101600000Y-88900000D01*
X109220000Y-88265000D02*
X101600000Y-88265000D01*
X102870000Y-86360000D02*
X101600000Y-88265000D01*
X105410000Y-86360000D02*
X104140000Y-88265000D01*
X110490000Y-86360000D02*
X109220000Y-88265000D01*
X107950000Y-86360000D02*
X106680000Y-88265000D01*
D11*
X103322380Y-98125595D02*
X102322380Y-98125595D01*
X102322380Y-98506547D01*
X102370000Y-98601785D01*
X102417619Y-98649404D01*
X102512857Y-98697023D01*
X102655714Y-98697023D01*
X102750952Y-98649404D01*
X102798571Y-98601785D01*
X102846190Y-98506547D01*
X102846190Y-98125595D01*
X102322380Y-99125595D02*
X103131904Y-99125595D01*
X103227142Y-99173214D01*
X103274761Y-99220833D01*
X103322380Y-99316071D01*
X103322380Y-99506547D01*
X103274761Y-99601785D01*
X103227142Y-99649404D01*
X103131904Y-99697023D01*
X102322380Y-99697023D01*
X103322380Y-100649404D02*
X103322380Y-100173214D01*
X102322380Y-100173214D01*
X103322380Y-101458928D02*
X103322380Y-100982738D01*
X102322380Y-100982738D01*
X102941428Y-101792261D02*
X102941428Y-102554166D01*
X102322380Y-103030357D02*
X103131904Y-103030357D01*
X103227142Y-103077976D01*
X103274761Y-103125595D01*
X103322380Y-103220833D01*
X103322380Y-103411309D01*
X103274761Y-103506547D01*
X103227142Y-103554166D01*
X103131904Y-103601785D01*
X102322380Y-103601785D01*
X103322380Y-104077976D02*
X102322380Y-104077976D01*
X102322380Y-104458928D01*
X102370000Y-104554166D01*
X102417619Y-104601785D01*
X102512857Y-104649404D01*
X102655714Y-104649404D01*
X102750952Y-104601785D01*
X102798571Y-104554166D01*
X102846190Y-104458928D01*
X102846190Y-104077976D01*
X102798571Y-105839880D02*
X102798571Y-106173214D01*
X103322380Y-106316071D02*
X103322380Y-105839880D01*
X102322380Y-105839880D01*
X102322380Y-106316071D01*
X103322380Y-106744642D02*
X102322380Y-106744642D01*
X103322380Y-107316071D01*
X102322380Y-107316071D01*
D10*
X101600000Y-96520000D02*
X102870000Y-97790000D01*
X101600000Y-88900000D02*
X101600000Y-96520000D01*
D11*
X109575000Y-94077500D02*
X109575000Y-94553690D01*
X110942380Y-94315595D02*
X109942380Y-94315595D01*
X109575000Y-94553690D02*
X109575000Y-95601309D01*
X110942380Y-94791785D02*
X109942380Y-94791785D01*
X110942380Y-95363214D01*
X109942380Y-95363214D01*
X109575000Y-95601309D02*
X109575000Y-96363214D01*
X109942380Y-95696547D02*
X109942380Y-96267976D01*
X110942380Y-95982261D02*
X109942380Y-95982261D01*
X108354761Y-94267976D02*
X108402380Y-94410833D01*
X108402380Y-94648928D01*
X108354761Y-94744166D01*
X108307142Y-94791785D01*
X108211904Y-94839404D01*
X108116666Y-94839404D01*
X108021428Y-94791785D01*
X107973809Y-94744166D01*
X107926190Y-94648928D01*
X107878571Y-94458452D01*
X107830952Y-94363214D01*
X107783333Y-94315595D01*
X107688095Y-94267976D01*
X107592857Y-94267976D01*
X107497619Y-94315595D01*
X107450000Y-94363214D01*
X107402380Y-94458452D01*
X107402380Y-94696547D01*
X107450000Y-94839404D01*
X108402380Y-95267976D02*
X107402380Y-95267976D01*
X107402380Y-95506071D01*
X107450000Y-95648928D01*
X107545238Y-95744166D01*
X107640476Y-95791785D01*
X107830952Y-95839404D01*
X107973809Y-95839404D01*
X108164285Y-95791785D01*
X108259523Y-95744166D01*
X108354761Y-95648928D01*
X108402380Y-95506071D01*
X108402380Y-95267976D01*
X108116666Y-96220357D02*
X108116666Y-96696547D01*
X108402380Y-96125119D02*
X107402380Y-96458452D01*
X108402380Y-96791785D01*
X105814761Y-94267976D02*
X105862380Y-94410833D01*
X105862380Y-94648928D01*
X105814761Y-94744166D01*
X105767142Y-94791785D01*
X105671904Y-94839404D01*
X105576666Y-94839404D01*
X105481428Y-94791785D01*
X105433809Y-94744166D01*
X105386190Y-94648928D01*
X105338571Y-94458452D01*
X105290952Y-94363214D01*
X105243333Y-94315595D01*
X105148095Y-94267976D01*
X105052857Y-94267976D01*
X104957619Y-94315595D01*
X104910000Y-94363214D01*
X104862380Y-94458452D01*
X104862380Y-94696547D01*
X104910000Y-94839404D01*
X105767142Y-95839404D02*
X105814761Y-95791785D01*
X105862380Y-95648928D01*
X105862380Y-95553690D01*
X105814761Y-95410833D01*
X105719523Y-95315595D01*
X105624285Y-95267976D01*
X105433809Y-95220357D01*
X105290952Y-95220357D01*
X105100476Y-95267976D01*
X105005238Y-95315595D01*
X104910000Y-95410833D01*
X104862380Y-95553690D01*
X104862380Y-95648928D01*
X104910000Y-95791785D01*
X104957619Y-95839404D01*
X105862380Y-96744166D02*
X105862380Y-96267976D01*
X104862380Y-96267976D01*
X103322380Y-94315595D02*
X102322380Y-94315595D01*
X103322380Y-94791785D02*
X102322380Y-94791785D01*
X102322380Y-95029880D01*
X102370000Y-95172738D01*
X102465238Y-95267976D01*
X102560476Y-95315595D01*
X102750952Y-95363214D01*
X102893809Y-95363214D01*
X103084285Y-95315595D01*
X103179523Y-95267976D01*
X103274761Y-95172738D01*
X103322380Y-95029880D01*
X103322380Y-94791785D01*
D10*
X110490000Y-90170000D02*
X110490000Y-93980000D01*
X107950000Y-90170000D02*
X107950000Y-93980000D01*
X105410000Y-90170000D02*
X105410000Y-93980000D01*
X102870000Y-90170000D02*
X102870000Y-93980000D01*
D11*
X93569285Y-88433928D02*
X94319285Y-88683928D01*
X93569285Y-88933928D01*
X94247857Y-89612500D02*
X94283571Y-89576785D01*
X94319285Y-89469642D01*
X94319285Y-89398214D01*
X94283571Y-89291071D01*
X94212142Y-89219642D01*
X94140714Y-89183928D01*
X93997857Y-89148214D01*
X93890714Y-89148214D01*
X93747857Y-89183928D01*
X93676428Y-89219642D01*
X93605000Y-89291071D01*
X93569285Y-89398214D01*
X93569285Y-89469642D01*
X93605000Y-89576785D01*
X93640714Y-89612500D01*
X93569285Y-90076785D02*
X93569285Y-90219642D01*
X93605000Y-90291071D01*
X93676428Y-90362500D01*
X93819285Y-90398214D01*
X94069285Y-90398214D01*
X94212142Y-90362500D01*
X94283571Y-90291071D01*
X94319285Y-90219642D01*
X94319285Y-90076785D01*
X94283571Y-90005357D01*
X94212142Y-89933928D01*
X94069285Y-89898214D01*
X93819285Y-89898214D01*
X93676428Y-89933928D01*
X93605000Y-90005357D01*
X93569285Y-90076785D01*
X94319285Y-90719642D02*
X93569285Y-90719642D01*
X94319285Y-91148214D01*
X93569285Y-91148214D01*
X94319285Y-91505357D02*
X93569285Y-91505357D01*
X94319285Y-91933928D01*
X93569285Y-91933928D01*
D10*
X93980000Y-85090000D02*
X93980000Y-88265000D01*
X95250000Y-83820000D02*
X93980000Y-85090000D01*
D11*
X99782380Y-88457738D02*
X100782380Y-88791071D01*
X99782380Y-89124404D01*
X100877619Y-89219642D02*
X100877619Y-89981547D01*
X100782380Y-90219642D02*
X99782380Y-90219642D01*
X99782380Y-90457738D01*
X99830000Y-90600595D01*
X99925238Y-90695833D01*
X100020476Y-90743452D01*
X100210952Y-90791071D01*
X100353809Y-90791071D01*
X100544285Y-90743452D01*
X100639523Y-90695833D01*
X100734761Y-90600595D01*
X100782380Y-90457738D01*
X100782380Y-90219642D01*
X100258571Y-91219642D02*
X100258571Y-91552976D01*
X100782380Y-91695833D02*
X100782380Y-91219642D01*
X99782380Y-91219642D01*
X99782380Y-91695833D01*
X99782380Y-91981547D02*
X100782380Y-92314880D01*
X99782380Y-92648214D01*
X100782380Y-92981547D02*
X99782380Y-92981547D01*
X100687142Y-94029166D02*
X100734761Y-93981547D01*
X100782380Y-93838690D01*
X100782380Y-93743452D01*
X100734761Y-93600595D01*
X100639523Y-93505357D01*
X100544285Y-93457738D01*
X100353809Y-93410119D01*
X100210952Y-93410119D01*
X100020476Y-93457738D01*
X99925238Y-93505357D01*
X99830000Y-93600595D01*
X99782380Y-93743452D01*
X99782380Y-93838690D01*
X99830000Y-93981547D01*
X99877619Y-94029166D01*
X100258571Y-94457738D02*
X100258571Y-94791071D01*
X100782380Y-94933928D02*
X100782380Y-94457738D01*
X99782380Y-94457738D01*
X99782380Y-94933928D01*
X100258571Y-95362500D02*
X100258571Y-96124404D01*
X100544285Y-96124404D02*
X100544285Y-95362500D01*
X99782380Y-96457738D02*
X100782380Y-96791071D01*
X99782380Y-97124404D01*
X100782380Y-97457738D02*
X99782380Y-97457738D01*
X99782380Y-97695833D01*
X99830000Y-97838690D01*
X99925238Y-97933928D01*
X100020476Y-97981547D01*
X100210952Y-98029166D01*
X100353809Y-98029166D01*
X100544285Y-97981547D01*
X100639523Y-97933928D01*
X100734761Y-97838690D01*
X100782380Y-97695833D01*
X100782380Y-97457738D01*
X100782380Y-98457738D02*
X99782380Y-98457738D01*
X99782380Y-98695833D01*
X99830000Y-98838690D01*
X99925238Y-98933928D01*
X100020476Y-98981547D01*
X100210952Y-99029166D01*
X100353809Y-99029166D01*
X100544285Y-98981547D01*
X100639523Y-98933928D01*
X100734761Y-98838690D01*
X100782380Y-98695833D01*
X100782380Y-98457738D01*
X101163333Y-100505357D02*
X101115714Y-100457738D01*
X100972857Y-100362500D01*
X100877619Y-100314880D01*
X100734761Y-100267261D01*
X100496666Y-100219642D01*
X100306190Y-100219642D01*
X100068095Y-100267261D01*
X99925238Y-100314880D01*
X99830000Y-100362500D01*
X99687142Y-100457738D01*
X99639523Y-100505357D01*
X99782380Y-100743452D02*
X100782380Y-101076785D01*
X99782380Y-101410119D01*
X100258571Y-102076785D02*
X100306190Y-102219642D01*
X100353809Y-102267261D01*
X100449047Y-102314880D01*
X100591904Y-102314880D01*
X100687142Y-102267261D01*
X100734761Y-102219642D01*
X100782380Y-102124404D01*
X100782380Y-101743452D01*
X99782380Y-101743452D01*
X99782380Y-102076785D01*
X99830000Y-102172023D01*
X99877619Y-102219642D01*
X99972857Y-102267261D01*
X100068095Y-102267261D01*
X100163333Y-102219642D01*
X100210952Y-102172023D01*
X100258571Y-102076785D01*
X100258571Y-101743452D01*
X99782380Y-102743452D02*
X100591904Y-102743452D01*
X100687142Y-102791071D01*
X100734761Y-102838690D01*
X100782380Y-102933928D01*
X100782380Y-103124404D01*
X100734761Y-103219642D01*
X100687142Y-103267261D01*
X100591904Y-103314880D01*
X99782380Y-103314880D01*
X100734761Y-103743452D02*
X100782380Y-103886309D01*
X100782380Y-104124404D01*
X100734761Y-104219642D01*
X100687142Y-104267261D01*
X100591904Y-104314880D01*
X100496666Y-104314880D01*
X100401428Y-104267261D01*
X100353809Y-104219642D01*
X100306190Y-104124404D01*
X100258571Y-103933928D01*
X100210952Y-103838690D01*
X100163333Y-103791071D01*
X100068095Y-103743452D01*
X99972857Y-103743452D01*
X99877619Y-103791071D01*
X99830000Y-103838690D01*
X99782380Y-103933928D01*
X99782380Y-104172023D01*
X99830000Y-104314880D01*
X101163333Y-104648214D02*
X101115714Y-104695833D01*
X100972857Y-104791071D01*
X100877619Y-104838690D01*
X100734761Y-104886309D01*
X100496666Y-104933928D01*
X100306190Y-104933928D01*
X100068095Y-104886309D01*
X99925238Y-104838690D01*
X99830000Y-104791071D01*
X99687142Y-104695833D01*
X99639523Y-104648214D01*
X97242380Y-88457738D02*
X98242380Y-88791071D01*
X97242380Y-89124404D01*
X98337619Y-89219642D02*
X98337619Y-89981547D01*
X98242380Y-90219642D02*
X97242380Y-90219642D01*
X97242380Y-90457738D01*
X97290000Y-90600595D01*
X97385238Y-90695833D01*
X97480476Y-90743452D01*
X97670952Y-90791071D01*
X97813809Y-90791071D01*
X98004285Y-90743452D01*
X98099523Y-90695833D01*
X98194761Y-90600595D01*
X98242380Y-90457738D01*
X98242380Y-90219642D01*
X97718571Y-91219642D02*
X97718571Y-91552976D01*
X98242380Y-91695833D02*
X98242380Y-91219642D01*
X97242380Y-91219642D01*
X97242380Y-91695833D01*
X97242380Y-91981547D02*
X98242380Y-92314880D01*
X97242380Y-92648214D01*
X98242380Y-92981547D02*
X97242380Y-92981547D01*
X98147142Y-94029166D02*
X98194761Y-93981547D01*
X98242380Y-93838690D01*
X98242380Y-93743452D01*
X98194761Y-93600595D01*
X98099523Y-93505357D01*
X98004285Y-93457738D01*
X97813809Y-93410119D01*
X97670952Y-93410119D01*
X97480476Y-93457738D01*
X97385238Y-93505357D01*
X97290000Y-93600595D01*
X97242380Y-93743452D01*
X97242380Y-93838690D01*
X97290000Y-93981547D01*
X97337619Y-94029166D01*
X97718571Y-94457738D02*
X97718571Y-94791071D01*
X98242380Y-94933928D02*
X98242380Y-94457738D01*
X97242380Y-94457738D01*
X97242380Y-94933928D01*
X97718571Y-95362500D02*
X97718571Y-96124404D01*
X98004285Y-96124404D02*
X98004285Y-95362500D01*
X97242380Y-96457738D02*
X98242380Y-96791071D01*
X97242380Y-97124404D01*
X98147142Y-98029166D02*
X98194761Y-97981547D01*
X98242380Y-97838690D01*
X98242380Y-97743452D01*
X98194761Y-97600595D01*
X98099523Y-97505357D01*
X98004285Y-97457738D01*
X97813809Y-97410119D01*
X97670952Y-97410119D01*
X97480476Y-97457738D01*
X97385238Y-97505357D01*
X97290000Y-97600595D01*
X97242380Y-97743452D01*
X97242380Y-97838690D01*
X97290000Y-97981547D01*
X97337619Y-98029166D01*
X97242380Y-98648214D02*
X97242380Y-98838690D01*
X97290000Y-98933928D01*
X97385238Y-99029166D01*
X97575714Y-99076785D01*
X97909047Y-99076785D01*
X98099523Y-99029166D01*
X98194761Y-98933928D01*
X98242380Y-98838690D01*
X98242380Y-98648214D01*
X98194761Y-98552976D01*
X98099523Y-98457738D01*
X97909047Y-98410119D01*
X97575714Y-98410119D01*
X97385238Y-98457738D01*
X97290000Y-98552976D01*
X97242380Y-98648214D01*
X98242380Y-99505357D02*
X97242380Y-99505357D01*
X98242380Y-100076785D01*
X97242380Y-100076785D01*
X98242380Y-100552976D02*
X97242380Y-100552976D01*
X98242380Y-101124404D01*
X97242380Y-101124404D01*
X94839285Y-88433928D02*
X95589285Y-88683928D01*
X94839285Y-88933928D01*
X95660714Y-89005357D02*
X95660714Y-89576785D01*
X95589285Y-89755357D02*
X94839285Y-89755357D01*
X94839285Y-89933928D01*
X94875000Y-90041071D01*
X94946428Y-90112500D01*
X95017857Y-90148214D01*
X95160714Y-90183928D01*
X95267857Y-90183928D01*
X95410714Y-90148214D01*
X95482142Y-90112500D01*
X95553571Y-90041071D01*
X95589285Y-89933928D01*
X95589285Y-89755357D01*
X95196428Y-90505357D02*
X95196428Y-90755357D01*
X95589285Y-90862500D02*
X95589285Y-90505357D01*
X94839285Y-90505357D01*
X94839285Y-90862500D01*
X94839285Y-91076785D02*
X95589285Y-91326785D01*
X94839285Y-91576785D01*
X95589285Y-91826785D02*
X94839285Y-91826785D01*
X95517857Y-92612500D02*
X95553571Y-92576785D01*
X95589285Y-92469642D01*
X95589285Y-92398214D01*
X95553571Y-92291071D01*
X95482142Y-92219642D01*
X95410714Y-92183928D01*
X95267857Y-92148214D01*
X95160714Y-92148214D01*
X95017857Y-92183928D01*
X94946428Y-92219642D01*
X94875000Y-92291071D01*
X94839285Y-92398214D01*
X94839285Y-92469642D01*
X94875000Y-92576785D01*
X94910714Y-92612500D01*
X95196428Y-92933928D02*
X95196428Y-93183928D01*
X95589285Y-93291071D02*
X95589285Y-92933928D01*
X94839285Y-92933928D01*
X94839285Y-93291071D01*
X91795000Y-88362500D02*
X91795000Y-89267261D01*
X92638571Y-88600595D02*
X92638571Y-88933928D01*
X93162380Y-89076785D02*
X93162380Y-88600595D01*
X92162380Y-88600595D01*
X92162380Y-89076785D01*
X91795000Y-89267261D02*
X91795000Y-90314880D01*
X93162380Y-89505357D02*
X92162380Y-89505357D01*
X93162380Y-90076785D01*
X92162380Y-90076785D01*
X91795000Y-90314880D02*
X91795000Y-91172023D01*
X92876666Y-90505357D02*
X92876666Y-90981547D01*
X93162380Y-90410119D02*
X92162380Y-90743452D01*
X93162380Y-91076785D01*
X91795000Y-91172023D02*
X91795000Y-92172023D01*
X92638571Y-91743452D02*
X92686190Y-91886309D01*
X92733809Y-91933928D01*
X92829047Y-91981547D01*
X92971904Y-91981547D01*
X93067142Y-91933928D01*
X93114761Y-91886309D01*
X93162380Y-91791071D01*
X93162380Y-91410119D01*
X92162380Y-91410119D01*
X92162380Y-91743452D01*
X92210000Y-91838690D01*
X92257619Y-91886309D01*
X92352857Y-91933928D01*
X92448095Y-91933928D01*
X92543333Y-91886309D01*
X92590952Y-91838690D01*
X92638571Y-91743452D01*
X92638571Y-91410119D01*
X91795000Y-92172023D02*
X91795000Y-92981547D01*
X93162380Y-92886309D02*
X93162380Y-92410119D01*
X92162380Y-92410119D01*
X91795000Y-92981547D02*
X91795000Y-93886309D01*
X92638571Y-93219642D02*
X92638571Y-93552976D01*
X93162380Y-93695833D02*
X93162380Y-93219642D01*
X92162380Y-93219642D01*
X92162380Y-93695833D01*
X91795000Y-93886309D02*
X91795000Y-94886309D01*
X93162380Y-94124404D02*
X92162380Y-94124404D01*
X92162380Y-94362500D01*
X92210000Y-94505357D01*
X92305238Y-94600595D01*
X92400476Y-94648214D01*
X92590952Y-94695833D01*
X92733809Y-94695833D01*
X92924285Y-94648214D01*
X93019523Y-94600595D01*
X93114761Y-94505357D01*
X93162380Y-94362500D01*
X93162380Y-94124404D01*
X90622380Y-88600595D02*
X89622380Y-88600595D01*
X89717619Y-89029166D02*
X89670000Y-89076785D01*
X89622380Y-89172023D01*
X89622380Y-89410119D01*
X89670000Y-89505357D01*
X89717619Y-89552976D01*
X89812857Y-89600595D01*
X89908095Y-89600595D01*
X90050952Y-89552976D01*
X90622380Y-88981547D01*
X90622380Y-89600595D01*
X90527142Y-90600595D02*
X90574761Y-90552976D01*
X90622380Y-90410119D01*
X90622380Y-90314880D01*
X90574761Y-90172023D01*
X90479523Y-90076785D01*
X90384285Y-90029166D01*
X90193809Y-89981547D01*
X90050952Y-89981547D01*
X89860476Y-90029166D01*
X89765238Y-90076785D01*
X89670000Y-90172023D01*
X89622380Y-90314880D01*
X89622380Y-90410119D01*
X89670000Y-90552976D01*
X89717619Y-90600595D01*
X90098571Y-91791071D02*
X90098571Y-92124404D01*
X90622380Y-92267261D02*
X90622380Y-91791071D01*
X89622380Y-91791071D01*
X89622380Y-92267261D01*
X90622380Y-92695833D02*
X89622380Y-92695833D01*
X90622380Y-93267261D01*
X89622380Y-93267261D01*
X90574761Y-93791071D02*
X90622380Y-93791071D01*
X90717619Y-93743452D01*
X90765238Y-93695833D01*
X90336666Y-94933928D02*
X90336666Y-95410119D01*
X90622380Y-94838690D02*
X89622380Y-95172023D01*
X90622380Y-95505357D01*
X90622380Y-95838690D02*
X89622380Y-95838690D01*
X89622380Y-96076785D01*
X89670000Y-96219642D01*
X89765238Y-96314880D01*
X89860476Y-96362500D01*
X90050952Y-96410119D01*
X90193809Y-96410119D01*
X90384285Y-96362500D01*
X90479523Y-96314880D01*
X90574761Y-96219642D01*
X90622380Y-96076785D01*
X90622380Y-95838690D01*
X90622380Y-96838690D02*
X89622380Y-96838690D01*
X89622380Y-97076785D01*
X89670000Y-97219642D01*
X89765238Y-97314880D01*
X89860476Y-97362500D01*
X90050952Y-97410119D01*
X90193809Y-97410119D01*
X90384285Y-97362500D01*
X90479523Y-97314880D01*
X90574761Y-97219642D01*
X90622380Y-97076785D01*
X90622380Y-96838690D01*
X90622380Y-98410119D02*
X90146190Y-98076785D01*
X90622380Y-97838690D02*
X89622380Y-97838690D01*
X89622380Y-98219642D01*
X89670000Y-98314880D01*
X89717619Y-98362500D01*
X89812857Y-98410119D01*
X89955714Y-98410119D01*
X90050952Y-98362500D01*
X90098571Y-98314880D01*
X90146190Y-98219642D01*
X90146190Y-97838690D01*
X90622380Y-99600595D02*
X89622380Y-99600595D01*
X90003333Y-99600595D02*
X89955714Y-99695833D01*
X89955714Y-99886309D01*
X90003333Y-99981547D01*
X90050952Y-100029166D01*
X90146190Y-100076785D01*
X90431904Y-100076785D01*
X90527142Y-100029166D01*
X90574761Y-99981547D01*
X90622380Y-99886309D01*
X90622380Y-99695833D01*
X90574761Y-99600595D01*
X90622380Y-100505357D02*
X89955714Y-100505357D01*
X89622380Y-100505357D02*
X89670000Y-100457738D01*
X89717619Y-100505357D01*
X89670000Y-100552976D01*
X89622380Y-100505357D01*
X89717619Y-100505357D01*
X89955714Y-100838690D02*
X89955714Y-101219642D01*
X89622380Y-100981547D02*
X90479523Y-100981547D01*
X90574761Y-101029166D01*
X90622380Y-101124404D01*
X90622380Y-101219642D01*
X89622380Y-102743452D02*
X89622380Y-102552976D01*
X89670000Y-102457738D01*
X89717619Y-102410119D01*
X89860476Y-102314880D01*
X90050952Y-102267261D01*
X90431904Y-102267261D01*
X90527142Y-102314880D01*
X90574761Y-102362500D01*
X90622380Y-102457738D01*
X90622380Y-102648214D01*
X90574761Y-102743452D01*
X90527142Y-102791071D01*
X90431904Y-102838690D01*
X90193809Y-102838690D01*
X90098571Y-102791071D01*
X90050952Y-102743452D01*
X90003333Y-102648214D01*
X90003333Y-102457738D01*
X90050952Y-102362500D01*
X90098571Y-102314880D01*
X90193809Y-102267261D01*
X90098571Y-103267261D02*
X90098571Y-104029166D01*
X90384285Y-104029166D02*
X90384285Y-103267261D01*
X90622380Y-105029166D02*
X90622380Y-104457738D01*
X90622380Y-104743452D02*
X89622380Y-104743452D01*
X89765238Y-104648214D01*
X89860476Y-104552976D01*
X89908095Y-104457738D01*
X88082380Y-88600595D02*
X87082380Y-88600595D01*
X87082380Y-88981547D01*
X87130000Y-89076785D01*
X87177619Y-89124404D01*
X87272857Y-89172023D01*
X87415714Y-89172023D01*
X87510952Y-89124404D01*
X87558571Y-89076785D01*
X87606190Y-88981547D01*
X87606190Y-88600595D01*
X88082380Y-89600595D02*
X87415714Y-89600595D01*
X87082380Y-89600595D02*
X87130000Y-89552976D01*
X87177619Y-89600595D01*
X87130000Y-89648214D01*
X87082380Y-89600595D01*
X87177619Y-89600595D01*
X87415714Y-90076785D02*
X88082380Y-90076785D01*
X87510952Y-90076785D02*
X87463333Y-90124404D01*
X87415714Y-90219642D01*
X87415714Y-90362500D01*
X87463333Y-90457738D01*
X87558571Y-90505357D01*
X88082380Y-90505357D01*
X88034761Y-92172023D02*
X88082380Y-92076785D01*
X88082380Y-91886309D01*
X88034761Y-91791071D01*
X87987142Y-91743452D01*
X87891904Y-91695833D01*
X87606190Y-91695833D01*
X87510952Y-91743452D01*
X87463333Y-91791071D01*
X87415714Y-91886309D01*
X87415714Y-92076785D01*
X87463333Y-92172023D01*
X88082380Y-92743452D02*
X88034761Y-92648214D01*
X87987142Y-92600595D01*
X87891904Y-92552976D01*
X87606190Y-92552976D01*
X87510952Y-92600595D01*
X87463333Y-92648214D01*
X87415714Y-92743452D01*
X87415714Y-92886309D01*
X87463333Y-92981547D01*
X87510952Y-93029166D01*
X87606190Y-93076785D01*
X87891904Y-93076785D01*
X87987142Y-93029166D01*
X88034761Y-92981547D01*
X88082380Y-92886309D01*
X88082380Y-92743452D01*
X87415714Y-93505357D02*
X88082380Y-93505357D01*
X87510952Y-93505357D02*
X87463333Y-93552976D01*
X87415714Y-93648214D01*
X87415714Y-93791071D01*
X87463333Y-93886309D01*
X87558571Y-93933928D01*
X88082380Y-93933928D01*
X87415714Y-94267261D02*
X87415714Y-94648214D01*
X87082380Y-94410119D02*
X87939523Y-94410119D01*
X88034761Y-94457738D01*
X88082380Y-94552976D01*
X88082380Y-94648214D01*
X88082380Y-94981547D02*
X87415714Y-94981547D01*
X87606190Y-94981547D02*
X87510952Y-95029166D01*
X87463333Y-95076785D01*
X87415714Y-95172023D01*
X87415714Y-95267261D01*
X88082380Y-95743452D02*
X88034761Y-95648214D01*
X87987142Y-95600595D01*
X87891904Y-95552976D01*
X87606190Y-95552976D01*
X87510952Y-95600595D01*
X87463333Y-95648214D01*
X87415714Y-95743452D01*
X87415714Y-95886309D01*
X87463333Y-95981547D01*
X87510952Y-96029166D01*
X87606190Y-96076785D01*
X87891904Y-96076785D01*
X87987142Y-96029166D01*
X88034761Y-95981547D01*
X88082380Y-95886309D01*
X88082380Y-95743452D01*
X88082380Y-96648214D02*
X88034761Y-96552976D01*
X87939523Y-96505357D01*
X87082380Y-96505357D01*
X88082380Y-97791071D02*
X87415714Y-97791071D01*
X87510952Y-97791071D02*
X87463333Y-97838690D01*
X87415714Y-97933928D01*
X87415714Y-98076785D01*
X87463333Y-98172023D01*
X87558571Y-98219642D01*
X88082380Y-98219642D01*
X87558571Y-98219642D02*
X87463333Y-98267261D01*
X87415714Y-98362500D01*
X87415714Y-98505357D01*
X87463333Y-98600595D01*
X87558571Y-98648214D01*
X88082380Y-98648214D01*
X88082380Y-99267261D02*
X88034761Y-99172023D01*
X87987142Y-99124404D01*
X87891904Y-99076785D01*
X87606190Y-99076785D01*
X87510952Y-99124404D01*
X87463333Y-99172023D01*
X87415714Y-99267261D01*
X87415714Y-99410119D01*
X87463333Y-99505357D01*
X87510952Y-99552976D01*
X87606190Y-99600595D01*
X87891904Y-99600595D01*
X87987142Y-99552976D01*
X88034761Y-99505357D01*
X88082380Y-99410119D01*
X88082380Y-99267261D01*
X88082380Y-100457738D02*
X87082380Y-100457738D01*
X88034761Y-100457738D02*
X88082380Y-100362500D01*
X88082380Y-100172023D01*
X88034761Y-100076785D01*
X87987142Y-100029166D01*
X87891904Y-99981547D01*
X87606190Y-99981547D01*
X87510952Y-100029166D01*
X87463333Y-100076785D01*
X87415714Y-100172023D01*
X87415714Y-100362500D01*
X87463333Y-100457738D01*
X88034761Y-101314880D02*
X88082380Y-101219642D01*
X88082380Y-101029166D01*
X88034761Y-100933928D01*
X87939523Y-100886309D01*
X87558571Y-100886309D01*
X87463333Y-100933928D01*
X87415714Y-101029166D01*
X87415714Y-101219642D01*
X87463333Y-101314880D01*
X87558571Y-101362500D01*
X87653809Y-101362500D01*
X87749047Y-100886309D01*
X85542380Y-88600595D02*
X84542380Y-88600595D01*
X84637619Y-89029166D02*
X84590000Y-89076785D01*
X84542380Y-89172023D01*
X84542380Y-89410119D01*
X84590000Y-89505357D01*
X84637619Y-89552976D01*
X84732857Y-89600595D01*
X84828095Y-89600595D01*
X84970952Y-89552976D01*
X85542380Y-88981547D01*
X85542380Y-89600595D01*
X85447142Y-90600595D02*
X85494761Y-90552976D01*
X85542380Y-90410119D01*
X85542380Y-90314880D01*
X85494761Y-90172023D01*
X85399523Y-90076785D01*
X85304285Y-90029166D01*
X85113809Y-89981547D01*
X84970952Y-89981547D01*
X84780476Y-90029166D01*
X84685238Y-90076785D01*
X84590000Y-90172023D01*
X84542380Y-90314880D01*
X84542380Y-90410119D01*
X84590000Y-90552976D01*
X84637619Y-90600595D01*
X85018571Y-91791071D02*
X85018571Y-92124404D01*
X85542380Y-92267261D02*
X85542380Y-91791071D01*
X84542380Y-91791071D01*
X84542380Y-92267261D01*
X85542380Y-92695833D02*
X84542380Y-92695833D01*
X85542380Y-93267261D01*
X84542380Y-93267261D01*
X85494761Y-93791071D02*
X85542380Y-93791071D01*
X85637619Y-93743452D01*
X85685238Y-93695833D01*
X85256666Y-94933928D02*
X85256666Y-95410119D01*
X85542380Y-94838690D02*
X84542380Y-95172023D01*
X85542380Y-95505357D01*
X85542380Y-95838690D02*
X84542380Y-95838690D01*
X84542380Y-96076785D01*
X84590000Y-96219642D01*
X84685238Y-96314880D01*
X84780476Y-96362500D01*
X84970952Y-96410119D01*
X85113809Y-96410119D01*
X85304285Y-96362500D01*
X85399523Y-96314880D01*
X85494761Y-96219642D01*
X85542380Y-96076785D01*
X85542380Y-95838690D01*
X85542380Y-96838690D02*
X84542380Y-96838690D01*
X84542380Y-97076785D01*
X84590000Y-97219642D01*
X84685238Y-97314880D01*
X84780476Y-97362500D01*
X84970952Y-97410119D01*
X85113809Y-97410119D01*
X85304285Y-97362500D01*
X85399523Y-97314880D01*
X85494761Y-97219642D01*
X85542380Y-97076785D01*
X85542380Y-96838690D01*
X85542380Y-98410119D02*
X85066190Y-98076785D01*
X85542380Y-97838690D02*
X84542380Y-97838690D01*
X84542380Y-98219642D01*
X84590000Y-98314880D01*
X84637619Y-98362500D01*
X84732857Y-98410119D01*
X84875714Y-98410119D01*
X84970952Y-98362500D01*
X85018571Y-98314880D01*
X85066190Y-98219642D01*
X85066190Y-97838690D01*
X85542380Y-99600595D02*
X84542380Y-99600595D01*
X84923333Y-99600595D02*
X84875714Y-99695833D01*
X84875714Y-99886309D01*
X84923333Y-99981547D01*
X84970952Y-100029166D01*
X85066190Y-100076785D01*
X85351904Y-100076785D01*
X85447142Y-100029166D01*
X85494761Y-99981547D01*
X85542380Y-99886309D01*
X85542380Y-99695833D01*
X85494761Y-99600595D01*
X85542380Y-100505357D02*
X84875714Y-100505357D01*
X84542380Y-100505357D02*
X84590000Y-100457738D01*
X84637619Y-100505357D01*
X84590000Y-100552976D01*
X84542380Y-100505357D01*
X84637619Y-100505357D01*
X84875714Y-100838690D02*
X84875714Y-101219642D01*
X84542380Y-100981547D02*
X85399523Y-100981547D01*
X85494761Y-101029166D01*
X85542380Y-101124404D01*
X85542380Y-101219642D01*
X84542380Y-102743452D02*
X84542380Y-102552976D01*
X84590000Y-102457738D01*
X84637619Y-102410119D01*
X84780476Y-102314880D01*
X84970952Y-102267261D01*
X85351904Y-102267261D01*
X85447142Y-102314880D01*
X85494761Y-102362500D01*
X85542380Y-102457738D01*
X85542380Y-102648214D01*
X85494761Y-102743452D01*
X85447142Y-102791071D01*
X85351904Y-102838690D01*
X85113809Y-102838690D01*
X85018571Y-102791071D01*
X84970952Y-102743452D01*
X84923333Y-102648214D01*
X84923333Y-102457738D01*
X84970952Y-102362500D01*
X85018571Y-102314880D01*
X85113809Y-102267261D01*
X85018571Y-103267261D02*
X85018571Y-104029166D01*
X85304285Y-104029166D02*
X85304285Y-103267261D01*
X84542380Y-104695833D02*
X84542380Y-104791071D01*
X84590000Y-104886309D01*
X84637619Y-104933928D01*
X84732857Y-104981547D01*
X84923333Y-105029166D01*
X85161428Y-105029166D01*
X85351904Y-104981547D01*
X85447142Y-104933928D01*
X85494761Y-104886309D01*
X85542380Y-104791071D01*
X85542380Y-104695833D01*
X85494761Y-104600595D01*
X85447142Y-104552976D01*
X85351904Y-104505357D01*
X85161428Y-104457738D01*
X84923333Y-104457738D01*
X84732857Y-104505357D01*
X84637619Y-104552976D01*
X84590000Y-104600595D01*
X84542380Y-104695833D01*
X82954761Y-88552976D02*
X83002380Y-88695833D01*
X83002380Y-88933928D01*
X82954761Y-89029166D01*
X82907142Y-89076785D01*
X82811904Y-89124404D01*
X82716666Y-89124404D01*
X82621428Y-89076785D01*
X82573809Y-89029166D01*
X82526190Y-88933928D01*
X82478571Y-88743452D01*
X82430952Y-88648214D01*
X82383333Y-88600595D01*
X82288095Y-88552976D01*
X82192857Y-88552976D01*
X82097619Y-88600595D01*
X82050000Y-88648214D01*
X82002380Y-88743452D01*
X82002380Y-88981547D01*
X82050000Y-89124404D01*
X83002380Y-90124404D02*
X82526190Y-89791071D01*
X83002380Y-89552976D02*
X82002380Y-89552976D01*
X82002380Y-89933928D01*
X82050000Y-90029166D01*
X82097619Y-90076785D01*
X82192857Y-90124404D01*
X82335714Y-90124404D01*
X82430952Y-90076785D01*
X82478571Y-90029166D01*
X82526190Y-89933928D01*
X82526190Y-89552976D01*
X82907142Y-91124404D02*
X82954761Y-91076785D01*
X83002380Y-90933928D01*
X83002380Y-90838690D01*
X82954761Y-90695833D01*
X82859523Y-90600595D01*
X82764285Y-90552976D01*
X82573809Y-90505357D01*
X82430952Y-90505357D01*
X82240476Y-90552976D01*
X82145238Y-90600595D01*
X82050000Y-90695833D01*
X82002380Y-90838690D01*
X82002380Y-90933928D01*
X82050000Y-91076785D01*
X82097619Y-91124404D01*
X81954761Y-92267261D02*
X83240476Y-91410119D01*
X83002380Y-92600595D02*
X82002380Y-92600595D01*
X82002380Y-92838690D01*
X82050000Y-92981547D01*
X82145238Y-93076785D01*
X82240476Y-93124404D01*
X82430952Y-93172023D01*
X82573809Y-93172023D01*
X82764285Y-93124404D01*
X82859523Y-93076785D01*
X82954761Y-92981547D01*
X83002380Y-92838690D01*
X83002380Y-92600595D01*
X82478571Y-93933928D02*
X82478571Y-93600595D01*
X83002380Y-93600595D02*
X82002380Y-93600595D01*
X82002380Y-94076785D01*
X83002380Y-94457738D02*
X82002380Y-94457738D01*
X82002380Y-94838690D01*
X82050000Y-94933928D01*
X82097619Y-94981547D01*
X82192857Y-95029166D01*
X82335714Y-95029166D01*
X82430952Y-94981547D01*
X82478571Y-94933928D01*
X82526190Y-94838690D01*
X82526190Y-94457738D01*
X80462380Y-88600595D02*
X79462380Y-88600595D01*
X79462380Y-88838690D01*
X79510000Y-88981547D01*
X79605238Y-89076785D01*
X79700476Y-89124404D01*
X79890952Y-89172023D01*
X80033809Y-89172023D01*
X80224285Y-89124404D01*
X80319523Y-89076785D01*
X80414761Y-88981547D01*
X80462380Y-88838690D01*
X80462380Y-88600595D01*
X80462380Y-90172023D02*
X79986190Y-89838690D01*
X80462380Y-89600595D02*
X79462380Y-89600595D01*
X79462380Y-89981547D01*
X79510000Y-90076785D01*
X79557619Y-90124404D01*
X79652857Y-90172023D01*
X79795714Y-90172023D01*
X79890952Y-90124404D01*
X79938571Y-90076785D01*
X79986190Y-89981547D01*
X79986190Y-89600595D01*
X80462380Y-90600595D02*
X79462380Y-90600595D01*
X79462380Y-90981547D01*
X79510000Y-91076785D01*
X79557619Y-91124404D01*
X79652857Y-91172023D01*
X79795714Y-91172023D01*
X79890952Y-91124404D01*
X79938571Y-91076785D01*
X79986190Y-90981547D01*
X79986190Y-90600595D01*
D10*
X100330000Y-86360000D02*
X100330000Y-88265000D01*
X97790000Y-86360000D02*
X97790000Y-88265000D01*
X95250000Y-86360000D02*
X95250000Y-88265000D01*
X92710000Y-86360000D02*
X92710000Y-88265000D01*
X90170000Y-86360000D02*
X90170000Y-88265000D01*
X87630000Y-86360000D02*
X87630000Y-88265000D01*
X85090000Y-86360000D02*
X85090000Y-88265000D01*
X82550000Y-86360000D02*
X82550000Y-88265000D01*
X80010000Y-86360000D02*
X80010000Y-88265000D01*
D11*
X77874761Y-88552976D02*
X77922380Y-88695833D01*
X77922380Y-88933928D01*
X77874761Y-89029166D01*
X77827142Y-89076785D01*
X77731904Y-89124404D01*
X77636666Y-89124404D01*
X77541428Y-89076785D01*
X77493809Y-89029166D01*
X77446190Y-88933928D01*
X77398571Y-88743452D01*
X77350952Y-88648214D01*
X77303333Y-88600595D01*
X77208095Y-88552976D01*
X77112857Y-88552976D01*
X77017619Y-88600595D01*
X76970000Y-88648214D01*
X76922380Y-88743452D01*
X76922380Y-88981547D01*
X76970000Y-89124404D01*
X77922380Y-89552976D02*
X76922380Y-89552976D01*
X77922380Y-90124404D01*
X76922380Y-90124404D01*
X77922380Y-90600595D02*
X76922380Y-90600595D01*
X77922380Y-91172023D02*
X77350952Y-90743452D01*
X76922380Y-91172023D02*
X77493809Y-90600595D01*
X76874761Y-92314880D02*
X78160476Y-91457738D01*
X76922380Y-92648214D02*
X77731904Y-92648214D01*
X77827142Y-92695833D01*
X77874761Y-92743452D01*
X77922380Y-92838690D01*
X77922380Y-93029166D01*
X77874761Y-93124404D01*
X77827142Y-93172023D01*
X77731904Y-93219642D01*
X76922380Y-93219642D01*
X77398571Y-94029166D02*
X77398571Y-93695833D01*
X77922380Y-93695833D02*
X76922380Y-93695833D01*
X76922380Y-94172023D01*
X77922380Y-94552976D02*
X76922380Y-94552976D01*
X76922380Y-94933928D01*
X76970000Y-95029166D01*
X77017619Y-95076785D01*
X77112857Y-95124404D01*
X77255714Y-95124404D01*
X77350952Y-95076785D01*
X77398571Y-95029166D01*
X77446190Y-94933928D01*
X77446190Y-94552976D01*
X75287142Y-89172023D02*
X75334761Y-89124404D01*
X75382380Y-88981547D01*
X75382380Y-88886309D01*
X75334761Y-88743452D01*
X75239523Y-88648214D01*
X75144285Y-88600595D01*
X74953809Y-88552976D01*
X74810952Y-88552976D01*
X74620476Y-88600595D01*
X74525238Y-88648214D01*
X74430000Y-88743452D01*
X74382380Y-88886309D01*
X74382380Y-88981547D01*
X74430000Y-89124404D01*
X74477619Y-89172023D01*
X75287142Y-90172023D02*
X75334761Y-90124404D01*
X75382380Y-89981547D01*
X75382380Y-89886309D01*
X75334761Y-89743452D01*
X75239523Y-89648214D01*
X75144285Y-89600595D01*
X74953809Y-89552976D01*
X74810952Y-89552976D01*
X74620476Y-89600595D01*
X74525238Y-89648214D01*
X74430000Y-89743452D01*
X74382380Y-89886309D01*
X74382380Y-89981547D01*
X74430000Y-90124404D01*
X74477619Y-90172023D01*
X74477619Y-90552976D02*
X74430000Y-90600595D01*
X74382380Y-90695833D01*
X74382380Y-90933928D01*
X74430000Y-91029166D01*
X74477619Y-91076785D01*
X74572857Y-91124404D01*
X74668095Y-91124404D01*
X74810952Y-91076785D01*
X75382380Y-90505357D01*
X75382380Y-91124404D01*
D10*
X77470000Y-86360000D02*
X77470000Y-88265000D01*
X73660000Y-88265000D02*
X74930000Y-88265000D01*
X73660000Y-85090000D02*
X73660000Y-88265000D01*
X74930000Y-83820000D02*
X73660000Y-85090000D01*
X74930000Y-86360000D02*
X74930000Y-88265000D01*
X71120000Y-88265000D02*
X72390000Y-88265000D01*
X71120000Y-85090000D02*
X71120000Y-88265000D01*
X72390000Y-83820000D02*
X71120000Y-85090000D01*
X72390000Y-87630000D02*
X72390000Y-88265000D01*
D11*
X72747142Y-89172023D02*
X72794761Y-89124404D01*
X72842380Y-88981547D01*
X72842380Y-88886309D01*
X72794761Y-88743452D01*
X72699523Y-88648214D01*
X72604285Y-88600595D01*
X72413809Y-88552976D01*
X72270952Y-88552976D01*
X72080476Y-88600595D01*
X71985238Y-88648214D01*
X71890000Y-88743452D01*
X71842380Y-88886309D01*
X71842380Y-88981547D01*
X71890000Y-89124404D01*
X71937619Y-89172023D01*
X72747142Y-90172023D02*
X72794761Y-90124404D01*
X72842380Y-89981547D01*
X72842380Y-89886309D01*
X72794761Y-89743452D01*
X72699523Y-89648214D01*
X72604285Y-89600595D01*
X72413809Y-89552976D01*
X72270952Y-89552976D01*
X72080476Y-89600595D01*
X71985238Y-89648214D01*
X71890000Y-89743452D01*
X71842380Y-89886309D01*
X71842380Y-89981547D01*
X71890000Y-90124404D01*
X71937619Y-90172023D01*
X72842380Y-91124404D02*
X72842380Y-90552976D01*
X72842380Y-90838690D02*
X71842380Y-90838690D01*
X71985238Y-90743452D01*
X72080476Y-90648214D01*
X72128095Y-90552976D01*
M02*
